<svg xmlns="http://www.w3.org/2000/svg" xmlns:xlink="http://www.w3.org/1999/xlink" xmlns:lucid="lucid" width="402" height="425"><g transform="translate(-223 -181)" lucid:page-tab-id="0_0"><path d="M300 499V218.5M300 498.97V500" stroke="#5e5e5e" stroke-width="2" fill="none"/><path d="M300 203.24l4.64 14.26h-9.28z" stroke="#5e5e5e" stroke-width="2" fill="#5e5e5e"/><path d="M301 500h280.5M301.03 500H300" stroke="#5e5e5e" stroke-width="2" fill="none"/><path d="M596.76 500l-14.26 4.64v-9.28z" stroke="#5e5e5e" stroke-width="2" fill="#5e5e5e"/><path d="M320.27 220.96l22.16 78.3 5.77 16.94 3.68 9.5 2.62 5.98 1.98 4.05 1.56 2.87 1.26 2.1 1.05 1.62.9 1.24.76.97.68.8.6.63.52.52.2.2 1 .8.83.53.75.38.7.23.65.16.64.06h.65l.67-.1.7-.2.82-.3.94-.5 1.14-.8 1.5-1.35 2.2-2.47 4.3-6.26L396.26 313l2.84-3.2 2.04-1.8 1.6-1.14 1.36-.72 1.2-.47 1.1-.3.27-.04h.13l.12-.03h.49l.13.02.13.02.13.02.15.04.14.04.13.04.16.06.14.07.17.1.18.08.2.1.2.13.2.16.23.18.26.2.27.25.3.28.33.36.38.44.42.54.5.7.58.87.7 1.16.87 1.6 1.13 2.26 1.5 3.43 2.27 5.8 4.38 12.82 19.55 60.95 4.15 10.62 3.12 7.1 2.5 5.07 2.1 3.83 1.77 2.96 1.54 2.33 1.37 1.9 1.22 1.54 1.1 1.28 1 1.07.9.9.86.78.8.65.73.57.7.5.66.42.63.36.6.32.58.28.56.23.54.2.53.18.53.16.5.12.5.1.5.07.5.05.48.03.5.02h.5l.48-.04.5-.04.5-.08.52-.1.24-.05.83-.2.86-.27.88-.32.93-.4.95-.45 1-.55 1.08-.65 1.15-.77 1.25-.92 1.35-1.1 1.5-1.37 1.68-1.68 1.93-2.14 2.28-2.76 2.78-3.76 3.67-5.5 5.8-9.74 23.63-42.15 4.3-6.47 3.38-4.56 2.82-3.44 2.45-2.7 2.18-2.2 1.96-1.77 1.8-1.5 1.67-1.23 1.57-1.05 1.47-.9 1.4-.75 1.35-.64 1.3-.55 1.25-.46 1.23-.4 1.2-.3 1.2-.24 1.2-.2 1.17-.1 1.2-.08h1.2l1.2.05 1.25.1 1.27.2 1.3.24 1.37.32 1.42.4 1.5.53 1.56.63.07.03M320.28 221l-.28-1M579.07 339.58l.93.42" stroke="#5e5e5e" stroke-width="2" fill="none"/><path d="M240 200h44.8v24H240z" fill="#fff" fill-opacity="0"/><path d="M257.3 202.57l-.98 3.72h-.37c.02-.3.04-.57.04-.83-.08-1.75-1.37-2.05-2.58-2.05h-3.77l-1.42 5.85h1.9c1.4 0 2.44-.3 2.96-2.24h.37l-1.37 5.7h-.4c.02-.3.14-1 .14-1.4 0-1.12-.97-1.2-1.7-1.2h-2.12l-1.56 6.07c-.02.1-.04.17-.04.24 0 .37.37.63 1.48.63h1.58c3.73 0 5.05-1.1 6.07-3.77h.37l-1.55 4.67H240.9l.1-.38h.44c1.72 0 2.26-.67 2.45-1.47l2.82-11.5c.1-.44.12-.7.12-.86 0-.57-.38-.83-1.77-.83h-.45l.1-.37h12.6M264.5 221.77l-.3.38c-3.72-2.13-5.75-6.1-5.75-10.12 0-4.37 2.05-7.76 5.82-10l.22.37c-3.3 2.8-4.02 5-4.02 9.56 0 4.38.7 7.05 4 9.8M276.2 215.7l-.1.15c-.67.8-1.8 2.3-3.03 2.3-.75 0-.96-.53-.96-1.08 0-.3.1-.68.17-.94l1.35-5.2c.04-.2.16-.67.16-1 0-.45-.14-.9-.57-.9-.88 0-2.37 2.03-3.1 3.14-.85 1.27-1.46 2.38-1.6 2.88l-.78 2.92h-1.82l2.24-8.82c0-.43-.07-.76-.7-.76-.24 0-.5.04-.67.06l-.04-.35 3.75-.53-1.2 4.46h.07c.1 0 1.27-1.66 1.32-1.73.94-1.18 2.36-2.73 3.77-2.73 1.04 0 1.32.68 1.32 1.46 0 .6-.14 1.18-.26 1.65l-1.4 5.45v.24c0 .14.08.33.34.33.57 0 1.13-.85 1.46-1.25M277.6 202.4l.3-.38c3.6 2.17 5.74 6.1 5.74 10.12 0 4.37-2.07 7.72-5.83 10l-.2-.37c3.35-2.76 4-4.98 4-9.56 0-4.4-.58-7.1-4-9.8"/><path d="M540 520h66.64v30.06H540z" fill="#fff" fill-opacity="0"/><path d="M553.95 528.2l-2.1 7.6c-.16.6-.3 1.2-.3 1.83 0 1.02.5 1.6 1.54 1.6 2.83 0 4.3-3.02 5.1-5.33.22-.63.4-1.3.4-1.95 0-1.94-1.54-1.73-1.6-2.86-.05-.96.8-1.12 1.42-1.12 1.1 0 1.24 1.34 1.24 2.2 0 3.82-2.76 10.08-7.26 10.08-1.8 0-2.9-.74-2.9-2.63 0-1.1.3-2.23.6-3.3-1.06 2.35-3.2 5.93-6.16 5.93-1.47 0-2.05-.9-2.05-2.3 0-.86.28-1.67.5-2.5l1.23-4.64c.08-.23.13-.5.13-.76 0-.63-1-.58-1.42-.58v-.4c1.4-.23 2.76-.6 4.07-1.15l.12.08-2.13 8.08c-.1.34-.3 1.18-.3 1.92 0 .68.16 1.23.74 1.23 1.52-.02 3.4-3 4.02-3.97 1.4-2.13 2.07-4.17 2.9-7.07h2.2M567.28 533.45c0 .48-.4.85-.9.85-.53 0-.88-.37-.88-.85 0-.47.35-.93.9-.93.47 0 .88.46.88.93m-.4 2.32l-2 7.9c-.4 1.63-1.45 3.77-3.45 3.77-1 0-1.36-.62-1.36-1.14 0-.4.22-.96.87-.96.36 0 .65.28.65.7 0 .28-.3.34-.3.64 0 .07.1.18.18.18.86 0 1.47-1.4 1.92-3.2l1.7-6.74c0-.22-.18-.4-.6-.4-.14 0-.36.03-.5.08l-.05-.3M572.37 533.45c0 .48-.4.85-.9.85-.53 0-.88-.37-.88-.85 0-.47.34-.93.88-.93.48 0 .9.46.9.93m-.57 2.32l-1.7 6.76c-.02.1-.02.2-.02.26 0 .12.12.18.25.18.4 0 .52-.23 1.2-.95l.23.2c-.65.82-1.58 1.94-2.5 1.94-.5 0-.74-.36-.74-.86 0-.2 0-.56 1.47-6.27l.03-.22c0-.3-.15-.4-.58-.4-.16 0-.4.04-.52.07l-.05-.3M584.02 544.25l-.32.42c-4.15-2.36-6.4-6.8-6.4-11.27 0-4.86 2.28-8.65 6.48-11.15l.24.43c-3.65 3.12-4.47 5.57-4.47 10.64 0 4.9.8 7.86 4.47 10.93M597.05 537.5l-.13.16c-.73.9-2 2.57-3.36 2.57-.84 0-1.08-.6-1.08-1.2 0-.35.1-.77.2-1.06l1.48-5.8c.06-.22.2-.74.2-1.1 0-.5-.17-1-.64-1-1 0-2.66 2.25-3.47 3.5-.95 1.4-1.63 2.64-1.8 3.2l-.86 3.25h-2.03l2.5-9.83c0-.48-.08-.85-.8-.85-.25 0-.54.05-.73.08l-.05-.4 4.17-.6-1.34 4.97h.08c.14 0 1.43-1.84 1.48-1.92 1.05-1.3 2.63-3.05 4.2-3.05 1.16 0 1.48.76 1.48 1.63 0 .66-.16 1.3-.3 1.84l-1.54 6.07c-.03.05-.03.13-.03.26.02.16.1.37.38.37.63 0 1.26-.94 1.63-1.4M598.63 522.68l.32-.43c4.02 2.42 6.4 6.8 6.4 11.28 0 4.86-2.3 8.6-6.48 11.14l-.24-.42c3.73-3.07 4.47-5.54 4.47-10.64 0-4.9-.66-7.93-4.47-10.92"/><path d="M475.1 442.64v2.9m0 3.84v5.78m0 3.86v5.78m0 3.86v5.78m0 3.85v5.77m0 3.86v5.78m0 3.86v5.8m0 3.84v5.78m0 3.86v5.78m0 3.85v5.78m0 3.86v2.9M475.1 442.66v-1.02" stroke="#5e5e5e" stroke-width="2" fill="none"/><path d="M476.1 538.97V540h-2v-1.03z" stroke="#5e5e5e" stroke-width=".05" fill="#5e5e5e"/><path d="M368.57 349.82v3m0 3.97v5.96m0 4v5.96m0 3.98v5.98m0 3.98v5.97m0 4v5.96m0 3.97v5.98m0 3.98v5.97m0 4v5.96m0 3.98v5.98m0 3.98v5.97m0 4v5.96m0 3.98v6m0 3.97v5.98m0 3.98v5.97m0 4v5.96m0 3.98v5.98m0 3.98v5.97m0 4v5.96m0 3.98v3M368.57 349.84v-1.02" stroke="#5e5e5e" stroke-width="2" fill="none"/><path d="M369.56 538.97V540h-2v-1.03z" stroke="#5e5e5e" stroke-width=".05" fill="#5e5e5e"/><path d="M328.56 546c0-3.3 2.7-6 6-6h68c3.32 0 6 2.7 6 6v40.04c0 3.32-2.68 6-6 6h-68c-3.3 0-6-2.68-6-6z" stroke="#000" stroke-opacity="0" stroke-width="3" fill="#fff" fill-opacity="0"/><use xlink:href="#a" transform="matrix(1,0,0,1,333.5638678027303,545) translate(-2.551111111111105 17.175555555555555)"/><use xlink:href="#b" transform="matrix(1,0,0,1,333.5638678027303,545) translate(17.86555555555556 32.731111111111105)"/><path d="M435.1 546c0-3.3 2.67-6 6-6h68c3.3 0 6 2.7 6 6v40.04c0 3.32-2.7 6-6 6h-68c-3.33 0-6-2.68-6-6z" stroke="#000" stroke-opacity="0" stroke-width="3" fill="#fff" fill-opacity="0"/><use xlink:href="#a" transform="matrix(1,0,0,1,440.0858123917649,545) translate(-2.551111111111105 17.175555555555555)"/><use xlink:href="#c" transform="matrix(1,0,0,1,440.0858123917649,545) translate(12.786666666666672 32.731111111111105)"/><path d="M443.1 382c0 1.1-.9 2-2 2-1.12 0-2-.9-2-2s.88-2 2-2c1.1 0 2 .9 2 2zM435.1 362c0 1.1-.9 2-2 2-1.12 0-2-.9-2-2s.88-2 2-2c1.1 0 2 .9 2 2zM431.1 342c0 1.1-.9 2-2 2-1.12 0-2-.9-2-2s.88-2 2-2c1.1 0 2 .9 2 2z" stroke="#5e5e5e" stroke-width="3" fill="#fff"/><path d="M519.27 289l-2.3 2.13m-3.04 2.83l-4.57 4.24m-3.04 2.83l-4.57 4.24m-3.05 2.82l-4.57 4.23m-3.05 2.83l-4.57 4.24m-3.03 2.82l-4.57 4.24m-3.05 2.83l-2.3 2.1" stroke="#5e5e5e" stroke-width="2" fill="none"/><path d="M520 289.7l-.07.06-1.36-1.46 1.43-1.33z" stroke="#5e5e5e" stroke-width=".05" fill="#5e5e5e"/><path d="M462.37 341.8l7.3-13.1 6.3 6.8z" stroke="#5e5e5e" stroke-width="2" fill="#5e5e5e"/><path d="M520 266c0-3.3 2.7-6 6-6h68c3.3 0 6 2.7 6 6v44.67c0 3.3-2.7 6-6 6h-68c-3.3 0-6-2.7-6-6z" stroke="#000" stroke-opacity="0" stroke-width="3" fill="#fff" fill-opacity="0"/><g><use xlink:href="#d" transform="matrix(1,0,0,1,525,265) translate(1.8044444444444565 11.231111111111108)"/><use xlink:href="#e" transform="matrix(1,0,0,1,525,265) translate(26.483333333333334 26.78666666666666)"/><use xlink:href="#f" transform="matrix(1,0,0,1,525,265) translate(5.008888888888901 42.34222222222221)"/></g><defs><path fill="#333" d="M21 0v-42c76-1 85-14 91-113 8-138 25-275 25-414 0-39-18-53-72-56v-42h226l209 451 200-451h231v42c-74 0-82 15-78 82l26 395c6 94 11 99 95 106V0H636v-42c96 8 104-27 98-120l-25-381L468 0h-26L196-530c-8 139-20 275-26 416-2 55 21 72 89 72V0H21" id="g"/><path fill="#333" d="M147-558c-47 0-83-32-83-73 0-40 40-74 88-74 46 0 83 33 83 74s-39 73-88 73zm72 439c-3 69 14 79 66 85V0H17v-34c52 3 71-15 71-75v-202c12-50-41-50-72-67v-26l183-60h20v345" id="h"/><path fill="#333" d="M219-119c-3 72 16 82 74 85V0H20v-34c50 2 68-17 68-75v-215c3-22-38-42-73-49v-27l184-61h20v96c47-32 159-93 199-84 134-1 112 173 112 314 1 86-3 93 62 101V0H338v-34c48-6 61-36 61-141v-64c-1-166-79-150-180-82v202" id="i"/><path fill="#333" d="M219-119c-3 71 16 81 72 85V0H20v-34c50 2 68-17 68-75v-215c5-24-42-42-70-49v-27l181-61h20v123c117-83 176-111 232-111 61 0 102 41 111 111 47-38 178-111 237-111 78 0 112 56 112 184v130c1 84-3 93 60 101V0H719v-34c48-6 61-36 61-141v-64c0-91-19-129-66-129-34 0-74 18-148 67v182c-3 65 14 79 60 85V0H374v-34c95 9 61-147 61-229 0-71-21-105-65-105-39 0-81 19-151 69v180" id="j"/><path fill="#333" d="M88-152v-163c4-56-16-55-45-71v-24l154-39h22v235c0 71 3 95 17 115 12 19 31 29 53 29 25 0 62-15 108-44v-194c9-66-47-60-88-77v-25l219-39v328c-4 73 21 71 63 58v33L418 11h-21v-85c-96 61-150 85-193 85-76 0-116-57-116-163" id="k"/><g id="a"><use transform="matrix(0.015555555555555552,0,0,0.015555555555555552,0,0)" xlink:href="#g"/><use transform="matrix(0.015555555555555552,0,0,0.015555555555555552,15.80444444444444,0)" xlink:href="#h"/><use transform="matrix(0.015555555555555552,0,0,0.015555555555555552,20.579999999999995,0)" xlink:href="#i"/><use transform="matrix(0.015555555555555552,0,0,0.015555555555555552,30.131111111111103,0)" xlink:href="#h"/><use transform="matrix(0.015555555555555552,0,0,0.015555555555555552,34.90666666666666,0)" xlink:href="#j"/><use transform="matrix(0.015555555555555552,0,0,0.015555555555555552,50.11999999999999,0)" xlink:href="#k"/><use transform="matrix(0.015555555555555552,0,0,0.015555555555555552,59.624444444444435,0)" xlink:href="#j"/></g><path fill="#333" d="M219-119c-3 67 14 79 64 85V0H17v-34c52 3 71-15 71-75v-442c8-76-34-61-74-81v-32l186-53h19v598" id="l"/><path fill="#333" d="M37-216c0-131 118-234 269-234 148 0 254 93 254 223C560-90 445 11 288 11 141 11 37-83 37-216zm142-61c0 100 44 244 143 244 60 0 96-49 96-133 0-139-58-239-139-239-63 0-100 48-100 128" id="m"/><path fill="#333" d="M37-201c0-140 121-249 277-249 93 0 163 39 163 91 0 32-22 54-55 54-32 0-47-7-90-57-77-90-151-8-151 125 0 114 54 193 133 193 47 0 92-26 136-77l31 18C431-29 356 11 262 11 131 11 37-78 37-201" id="n"/><path fill="#333" d="M251-450c91 0 175 40 175 150 0 55-2 180 4 217 10 24 27 21 49 4l16 25c-35 37-87 64-122 64-40 0-66-22-75-64-36 29-76 65-134 65C87 11 39-32 39-101c0-74 46-111 122-130 63-16 104-39 132-64 7-62-13-111-66-112-43-1-65 35-56 83L51-282c-4-17-5-25-5-36 0-85 127-132 205-132zm-83 327c0 44 22 74 54 74 18 0 32-8 73-44v-154c-20 16-28 20-69 39-43 21-58 43-58 85" id="o"/><g id="b"><use transform="matrix(0.015555555555555552,0,0,0.015555555555555552,0,0)" xlink:href="#l"/><use transform="matrix(0.015555555555555552,0,0,0.015555555555555552,4.588888888888888,0)" xlink:href="#m"/><use transform="matrix(0.015555555555555552,0,0,0.015555555555555552,13.859999999999996,0)" xlink:href="#n"/><use transform="matrix(0.015555555555555552,0,0,0.015555555555555552,21.85555555555555,0)" xlink:href="#o"/><use transform="matrix(0.015555555555555552,0,0,0.015555555555555552,29.55555555555555,0)" xlink:href="#l"/></g><path fill="#333" d="M304-55c133 0 255 22 255 124S428 248 255 248c-123 0-218-46-218-107 0-31 19-51 67-72 21-9 28-15 37-30C54 15 6-85 103-123c15-6 30-11 92-30-74-4-140-67-140-132 0-93 95-164 219-164 58 0 106 14 144 42l152-39v111l-108-25c79 126-69 231-204 219-73 25-89 34-89 51 0 22 48 35 135 35zm-31-129c50 0 78-34 78-96 0-77-32-125-84-125-50 0-80 38-80 101 0 78 30 120 86 120zM192 50c-96 65-3 152 117 152 87 0 154-39 154-90 0-39-31-58-106-55-53 3-130 4-165-7" id="p"/><path fill="#333" d="M74-22v-539c8-60-28-61-66-78v-26l163-52h34v357c62-57 127-89 179-89 97 0 173 91 173 206C557-96 441 12 285 12 236 12 137-4 74-22zm131-158c0 102 29 146 96 146 76 0 121-60 121-161 0-155-137-225-217-114v129" id="q"/><g id="c"><use transform="matrix(0.015555555555555552,0,0,0.015555555555555552,0,0)" xlink:href="#p"/><use transform="matrix(0.015555555555555552,0,0,0.015555555555555552,8.99111111111111,0)" xlink:href="#l"/><use transform="matrix(0.015555555555555552,0,0,0.015555555555555552,13.579999999999998,0)" xlink:href="#m"/><use transform="matrix(0.015555555555555552,0,0,0.015555555555555552,22.77333333333333,0)" xlink:href="#q"/><use transform="matrix(0.015555555555555552,0,0,0.015555555555555552,32.01333333333333,0)" xlink:href="#o"/><use transform="matrix(0.015555555555555552,0,0,0.015555555555555552,39.713333333333324,0)" xlink:href="#l"/></g><path fill="#333" d="M123-531c1-86-22-90-99-94v-42c190-15 435-31 582 14 136 41 222 158 222 302 0 135-84 258-204 310C489 18 223-6 23 0v-42c78-3 100-9 100-94v-395zm545 196c2-216-154-328-397-292v502c0 73 11 83 91 83 191 0 305-111 306-293" id="r"/><path fill="#333" d="M37-209c0-140 96-240 230-240 104 0 172 56 185 159 3 17 8 26 21 34v24H174c6 91 66 164 136 164 38 0 78-23 129-77l24 21C402-39 316 11 233 11 117 11 37-79 37-209zm135-57h153c-1-82-29-132-76-132-49-1-81 58-77 132" id="s"/><path fill="#333" d="M220 12c-28 0-77-8-111-16-6 0-12 4-22 14H57L45-126h34c24 60 61 91 112 91 47 0 73-53 39-84-14-12-13-13-80-56-78-50-104-84-104-138 0-125 169-167 287-114l2 115h-33c-20-60-56-93-102-93-28 0-49 18-49 42 0 27 20 48 78 81 68 39 75 44 97 66 23 23 36 56 36 92 0 79-60 136-142 136" id="t"/><path fill="#333" d="M205 11C114 11 84-40 84-152v-233H27v-21c61-23 138-105 158-166h30v130h142l-15 57H215v242c-3 62 8 72 50 81 26 0 51-17 81-54l16 30c-33 57-97 97-157 97" id="u"/><g id="d"><use transform="matrix(0.015555555555555552,0,0,0.015555555555555552,0,0)" xlink:href="#r"/><use transform="matrix(0.015555555555555552,0,0,0.015555555555555552,13.611111111111107,0)" xlink:href="#s"/><use transform="matrix(0.015555555555555552,0,0,0.015555555555555552,21.482222222222216,0)" xlink:href="#t"/><use transform="matrix(0.015555555555555552,0,0,0.015555555555555552,27.673333333333325,0)" xlink:href="#n"/><use transform="matrix(0.015555555555555552,0,0,0.015555555555555552,35.66888888888888,0)" xlink:href="#s"/><use transform="matrix(0.015555555555555552,0,0,0.015555555555555552,43.43111111111109,0)" xlink:href="#i"/><use transform="matrix(0.015555555555555552,0,0,0.015555555555555552,52.76444444444442,0)" xlink:href="#u"/><use transform="matrix(0.015555555555555552,0,0,0.015555555555555552,58.519999999999975,0)" xlink:href="#s"/></g><path fill="#333" d="M383-560c4-66-26-64-72-78v-26l167-53h36v576c-4 82 24 87 76 73v32L412 11h-29v-85c-67 59-118 85-172 85C109 11 37-73 37-191c0-176 155-306 346-244v-125zM168-249c0 167 125 237 215 127v-239c-91-93-215-43-215 112" id="v"/><g id="e"><use transform="matrix(0.015555555555555552,0,0,0.015555555555555552,0,0)" xlink:href="#v"/><use transform="matrix(0.015555555555555552,0,0,0.015555555555555552,9.16222222222222,0)" xlink:href="#s"/></g><path fill="#333" d="M20 0v-34c50 2 68-17 68-75v-176c6-63-27-67-68-83v-27l176-66h23v120c69-113 55-119 140-98l62 24c-12 41-33 89-51 114-26-8-58-27-88-27-20 0-40 15-63 48v161c-4 81 28 88 100 85V0H20" id="w"/><g id="f"><use transform="matrix(0.015555555555555552,0,0,0.015555555555555552,0,0)" xlink:href="#p"/><use transform="matrix(0.015555555555555552,0,0,0.015555555555555552,8.99111111111111,0)" xlink:href="#w"/><use transform="matrix(0.015555555555555552,0,0,0.015555555555555552,15.539999999999997,0)" xlink:href="#o"/><use transform="matrix(0.015555555555555552,0,0,0.015555555555555552,23.239999999999995,0)" xlink:href="#v"/><use transform="matrix(0.015555555555555552,0,0,0.015555555555555552,32.44888888888888,0)" xlink:href="#h"/><use transform="matrix(0.015555555555555552,0,0,0.015555555555555552,37.1311111111111,0)" xlink:href="#s"/><use transform="matrix(0.015555555555555552,0,0,0.015555555555555552,44.89333333333332,0)" xlink:href="#i"/><use transform="matrix(0.015555555555555552,0,0,0.015555555555555552,54.226666666666645,0)" xlink:href="#u"/></g></defs></g></svg>