<svg xmlns="http://www.w3.org/2000/svg" xmlns:xlink="http://www.w3.org/1999/xlink" xmlns:lucid="lucid" width="705" height="860"><g transform="translate(-126 -72)" lucid:page-tab-id="0_0"><path d="M338.45 314.2c.86 3.2-1.14 5.8-4.45 5.8H186c-3.3 0-5.3-2.6-4.45-5.8l28.9-108.4c.86-3.2 4.24-5.8 7.55-5.8h84c3.3 0 6.7 2.6 7.55 5.8zM181.55 665.8c-.86-3.2 1.14-5.8 4.45-5.8h148c3.3 0 5.3 2.6 4.45 5.8l-28.9 108.4c-.86 3.2-4.24 5.8-7.55 5.8h-84c-3.3 0-6.7-2.6-7.55-5.8z" stroke="#5e5e5e" stroke-width="3" fill="#fff"/><use xlink:href="#a" transform="matrix(1,0,0,1,185,665) translate(25.714876543209876 59.02777777777778)"/><use xlink:href="#b" transform="matrix(1,0,0,1,185,665) translate(87.25808641975308 59.02777777777778)"/><path d="M180 386c0-3.3 2.7-6 6-6h148c3.3 0 6 2.7 6 6v32.67c0 3.3-2.7 6-6 6H186c-3.3 0-6-2.7-6-6z" stroke="#5e5e5e" stroke-width="3" fill="#fff"/><use xlink:href="#c" transform="matrix(1,0,0,1,192,392) translate(53.18518518518519 17.77777777777778)"/><path d="M180 486c0-3.3 2.7-6 6-6h148c3.3 0 6 2.7 6 6v108c0 3.3-2.7 6-6 6H186c-3.3 0-6-2.7-6-6z" stroke="#5e5e5e" stroke-width="3" fill="#fff"/><use xlink:href="#d" transform="matrix(1,0,0,1,192,492) translate(12.567901234567913 38.77777777777777)"/><use xlink:href="#e" transform="matrix(1,0,0,1,192,492) translate(23.617283950617292 65.44444444444444)"/><path d="M140 236c0-3.3 2.7-6 6-6h228c3.3 0 6 2.7 6 6v48c0 3.3-2.7 6-6 6H146c-3.3 0-6-2.7-6-6z" stroke="#000" stroke-opacity="0" stroke-width="3" fill="#fff" fill-opacity="0"/><use xlink:href="#a" transform="matrix(1,0,0,1,145,235) translate(65.70987654320987 30.27777777777778)"/><use xlink:href="#b" transform="matrix(1,0,0,1,145,235) translate(127.25308641975309 30.27777777777778)"/><path d="M260 657.5V620" stroke="#5e5e5e" stroke-width="2" fill="none"/><path d="M261 658.5h-2v-1.03h2z" stroke="#5e5e5e" stroke-width=".05" fill="#5e5e5e"/><path d="M260 604.74l4.64 14.26h-9.28z" stroke="#5e5e5e" stroke-width="2" fill="#5e5e5e"/><path d="M260 477.5v-32.83" stroke="#5e5e5e" stroke-width="2" fill="none"/><path d="M261 478.5h-2v-1.03h2z" stroke="#5e5e5e" stroke-width=".05" fill="#5e5e5e"/><path d="M260 429.4l4.64 14.27h-9.28z" stroke="#5e5e5e" stroke-width="2" fill="#5e5e5e"/><path d="M260 377.5V340" stroke="#5e5e5e" stroke-width="2" fill="none"/><path d="M261 378.5h-2v-1.03h2z" stroke="#5e5e5e" stroke-width=".05" fill="#5e5e5e"/><path d="M260 324.74l4.64 14.26h-9.28z" stroke="#5e5e5e" stroke-width="2" fill="#5e5e5e"/><path d="M260 197.5V160" stroke="#5e5e5e" stroke-width="2" fill="none"/><path d="M261 198.5h-2v-1.03h2z" stroke="#5e5e5e" stroke-width=".05" fill="#5e5e5e"/><path d="M260 144.74l4.64 14.26h-9.28z" stroke="#5e5e5e" stroke-width="2" fill="#5e5e5e"/><path d="M280 120c0 11.05-8.95 20-20 20s-20-8.95-20-20 8.95-20 20-20 20 8.95 20 20zm-40 0h40m-20-20v40" stroke="#5e5e5e" stroke-width="3" fill="#fff"/><path d="M260 859v-59" stroke="#5e5e5e" stroke-width="2" fill="none"/><path d="M261 860h-2v-1.03h2z" stroke="#5e5e5e" stroke-width=".05" fill="#5e5e5e"/><path d="M260 784.74l4.64 14.26h-9.28z" stroke="#5e5e5e" stroke-width="2" fill="#5e5e5e"/><path d="M140 166c0-3.3 2.7-6 6-6h88c3.3 0 6 2.7 6 6v28c0 3.3-2.7 6-6 6h-88c-3.3 0-6-2.7-6-6z" stroke="#000" stroke-opacity="0" stroke-width="3" fill="#fff" fill-opacity="0"/><use xlink:href="#f" transform="matrix(1,0,0,1,145,165) translate(10.6388888888889 19.75)"/><use xlink:href="#g" transform="matrix(1,0,0,1,145,165) translate(36.13888888888889 19.75)"/><use xlink:href="#h" transform="matrix(1,0,0,1,145,165) translate(64.97222222222221 19.75)"/><path d="M140 336c0-3.3 2.7-6 6-6h88c3.3 0 6 2.7 6 6v28c0 3.3-2.7 6-6 6h-88c-3.3 0-6-2.7-6-6z" stroke="#000" stroke-opacity="0" stroke-width="3" fill="#fff" fill-opacity="0"/><use xlink:href="#f" transform="matrix(1,0,0,1,145,335) translate(5.083333333333343 19.75)"/><use xlink:href="#g" transform="matrix(1,0,0,1,145,335) translate(30.583333333333336 19.75)"/><use xlink:href="#i" transform="matrix(1,0,0,1,145,335) translate(59.41666666666666 19.75)"/><path d="M140 786c0-3.3 2.7-6 6-6h88c3.3 0 6 2.7 6 6v28c0 3.3-2.7 6-6 6h-88c-3.3 0-6-2.7-6-6z" stroke="#000" stroke-opacity="0" stroke-width="3" fill="#fff" fill-opacity="0"/><use xlink:href="#f" transform="matrix(1,0,0,1,145,785) translate(10.6388888888889 19.75)"/><use xlink:href="#g" transform="matrix(1,0,0,1,145,785) translate(36.13888888888889 19.75)"/><use xlink:href="#h" transform="matrix(1,0,0,1,145,785) translate(64.97222222222221 19.75)"/><path d="M140 866c0-3.3 2.7-6 6-6h228c3.3 0 6 2.7 6 6v48c0 3.3-2.7 6-6 6H146c-3.3 0-6-2.7-6-6z" stroke="#000" stroke-opacity="0" stroke-width="3" fill="#fff" fill-opacity="0"/><use xlink:href="#j" transform="matrix(1,0,0,1,145,865) translate(70.0925925925926 30.27777777777778)"/><path d="M738.45 314.2c.86 3.2-1.14 5.8-4.45 5.8H586c-3.3 0-5.3-2.6-4.45-5.8l28.9-108.4c.86-3.2 4.24-5.8 7.55-5.8h84c3.3 0 6.7 2.6 7.55 5.8zM580 386c0-3.3 2.7-6 6-6h148c3.3 0 6 2.7 6 6v32.67c0 3.3-2.7 6-6 6H586c-3.3 0-6-2.7-6-6z" stroke="#5e5e5e" stroke-width="3" fill="#fff"/><use xlink:href="#c" transform="matrix(1,0,0,1,592,392) translate(53.18518518518519 17.77777777777778)"/><path d="M540 236c0-3.3 2.7-6 6-6h228c3.3 0 6 2.7 6 6v48c0 3.3-2.7 6-6 6H546c-3.3 0-6-2.7-6-6z" stroke="#000" stroke-opacity="0" stroke-width="3" fill="#fff" fill-opacity="0"/><use xlink:href="#a" transform="matrix(1,0,0,1,545,235) translate(65.70987654320987 30.27777777777778)"/><use xlink:href="#b" transform="matrix(1,0,0,1,545,235) translate(127.25308641975309 30.27777777777778)"/><path d="M660 477.5v-32.83" stroke="#5e5e5e" stroke-width="2" fill="none"/><path d="M661 478.5h-2v-1.03h2z" stroke="#5e5e5e" stroke-width=".05" fill="#5e5e5e"/><path d="M660 429.4l4.64 14.27h-9.28z" stroke="#5e5e5e" stroke-width="2" fill="#5e5e5e"/><path d="M660 377.5V340" stroke="#5e5e5e" stroke-width="2" fill="none"/><path d="M661 378.5h-2v-1.03h2z" stroke="#5e5e5e" stroke-width=".05" fill="#5e5e5e"/><path d="M660 324.74l4.64 14.26h-9.28z" stroke="#5e5e5e" stroke-width="2" fill="#5e5e5e"/><path d="M660 197.5V160" stroke="#5e5e5e" stroke-width="2" fill="none"/><path d="M661 198.5h-2v-1.03h2z" stroke="#5e5e5e" stroke-width=".05" fill="#5e5e5e"/><path d="M660 144.74l4.64 14.26h-9.28z" stroke="#5e5e5e" stroke-width="2" fill="#5e5e5e"/><path d="M680 120c0 11.05-8.95 20-20 20s-20-8.95-20-20 8.95-20 20-20 20 8.95 20 20zm-40 0h40m-20-20v40" stroke="#5e5e5e" stroke-width="3" fill="#fff"/><path d="M546.33 166c0-3.3 2.7-6 6-6h88c3.32 0 6 2.7 6 6v28c0 3.3-2.68 6-6 6h-88c-3.3 0-6-2.7-6-6z" stroke="#000" stroke-opacity="0" stroke-width="3" fill="#fff" fill-opacity="0"/><use xlink:href="#f" transform="matrix(1,0,0,1,551.3337870538415,165) translate(10.6388888888889 19.75)"/><use xlink:href="#g" transform="matrix(1,0,0,1,551.3337870538415,165) translate(36.13888888888889 19.75)"/><use xlink:href="#h" transform="matrix(1,0,0,1,551.3337870538415,165) translate(64.97222222222221 19.75)"/><path d="M546.33 438.33c0-3.3 2.7-6 6-6h88c3.32 0 6 2.7 6 6v28c0 3.32-2.68 6-6 6h-88c-3.3 0-6-2.68-6-6z" stroke="#000" stroke-opacity="0" stroke-width="3" fill="#fff" fill-opacity="0"/><use xlink:href="#f" transform="matrix(1,0,0,1,551.3337870538415,437.3333333333333) translate(5.083333333333343 19.75)"/><use xlink:href="#g" transform="matrix(1,0,0,1,551.3337870538415,437.3333333333333) translate(30.583333333333336 19.75)"/><use xlink:href="#i" transform="matrix(1,0,0,1,551.3337870538415,437.3333333333333) translate(59.41666666666666 19.75)"/><path d="M581.55 485.8c-.86-3.2 1.14-5.8 4.45-5.8h148c3.3 0 5.3 2.6 4.45 5.8L672.2 734.2c-.84 3.2-4.22 5.8-7.53 5.8h-9.34c-3.3 0-6.7-2.6-7.54-5.8z" stroke="#5e5e5e" stroke-width="3" fill="#fff"/><use xlink:href="#k" transform="matrix(1,0,0,1,585,485) translate(47.31981481481482 119.34027777777777)"/><use xlink:href="#l" transform="matrix(1,0,0,1,585,485) translate(56.48648148148148 146.00694444444443)"/><path d="M546.33 741.24c0-3.3 2.7-6 6-6h88c3.32 0 6 2.7 6 6v28c0 3.3-2.68 6-6 6h-88c-3.3 0-6-2.7-6-6z" stroke="#000" stroke-opacity="0" stroke-width="3" fill="#fff" fill-opacity="0"/><g><use xlink:href="#f" transform="matrix(1,0,0,1,551.3337870538415,740.2397156684816) translate(10.6388888888889 19.75)"/><use xlink:href="#g" transform="matrix(1,0,0,1,551.3337870538415,740.2397156684816) translate(36.13888888888889 19.75)"/><use xlink:href="#h" transform="matrix(1,0,0,1,551.3337870538415,740.2397156684816) translate(64.97222222222221 19.75)"/></g><path d="M259.95 859v-33c0-3.3 2.7-6 6-6H394c3.3 0 6-2.7 6-6V126c0-3.3-2.7-6-6-6h-94" stroke="#5e5e5e" stroke-width="2" fill="none"/><path d="M260.95 860h-2v-1.03h2z" stroke="#5e5e5e" stroke-width=".05" fill="#5e5e5e"/><path d="M284.74 120l14.26-4.64v9.28z" stroke="#5e5e5e" stroke-width="2" fill="#5e5e5e"/><path d="M660 859v-99" stroke="#5e5e5e" stroke-width="2" fill="none"/><path d="M661 860h-2v-1.03h2z" stroke="#5e5e5e" stroke-width=".05" fill="#5e5e5e"/><path d="M660 744.74l4.64 14.26h-9.28z" stroke="#5e5e5e" stroke-width="2" fill="#5e5e5e"/><path d="M540 866c0-3.3 2.7-6 6-6h228c3.3 0 6 2.7 6 6v48c0 3.3-2.7 6-6 6H546c-3.3 0-6-2.7-6-6z" stroke="#000" stroke-opacity="0" stroke-width="3" fill="#fff" fill-opacity="0"/><g><use xlink:href="#m" transform="matrix(1,0,0,1,545,865) translate(33.796296296296305 30.27777777777778)"/></g><path d="M661 820h133c3.3 0 6-2.7 6-6V126c0-3.3-2.7-6-6-6h-94M661.03 820H660" stroke="#5e5e5e" stroke-width="2" fill="none"/><path d="M684.74 120l14.26-4.64v9.28z" stroke="#5e5e5e" stroke-width="2" fill="#5e5e5e"/><defs><path fill="#333" d="M67-125c0 53 21 87 73 88 37 1 54-22 65-47l45 17C233-25 199 4 140 4 58 4 20-42 15-125 8-235 124-281 211-232c18 10 29 29 36 50l-46 12c-8-25-30-41-62-41-52 0-71 34-72 86" id="n"/><path fill="#333" d="M110-194c64 0 96 36 96 99 0 64-35 99-97 99-61 0-95-36-95-99 0-62 34-99 96-99zm-1 164c35 0 45-28 45-65 0-40-10-65-43-65-34 0-45 26-45 65 0 36 10 65 43 65" id="o"/><path fill="#333" d="M135-194c87-1 58 113 63 194h-50c-7-57 23-157-34-157-59 0-34 97-39 157H25l-1-190h47c2 12-1 28 3 38 12-26 28-41 61-42" id="p"/><path fill="#333" d="M128 0H69L1-190h53L99-40l48-150h52" id="q"/><g id="a"><use transform="matrix(0.06172839506172839,0,0,0.06172839506172839,0,0)" xlink:href="#n"/><use transform="matrix(0.06172839506172839,0,0,0.06172839506172839,15.987654320987653,0)" xlink:href="#o"/><use transform="matrix(0.06172839506172839,0,0,0.06172839506172839,29.50617283950617,0)" xlink:href="#p"/><use transform="matrix(0.06172839506172839,0,0,0.06172839506172839,43.02469135802469,0)" xlink:href="#q"/></g><path fill="#333" d="M23 0v-37h61v-169l-59 37v-38l62-41h46v211h57V0H23" id="r"/><path fill="#333" d="M144 0l-44-69L55 0H2l70-98-66-92h53l41 62 40-62h54l-67 91 71 99h-54" id="s"/><g id="b"><use transform="matrix(0.06172839506172839,0,0,0.06172839506172839,0,0)" xlink:href="#r"/><use transform="matrix(0.06172839506172839,0,0,0.06172839506172839,12.345679012345679,0)" xlink:href="#s"/><use transform="matrix(0.06172839506172839,0,0,0.06172839506172839,24.691358024691358,0)" xlink:href="#r"/></g><path fill="#333" d="M169-182c-1-43-94-46-97-3 18 66 151 10 154 114 3 95-165 93-204 36-6-8-10-19-12-30l50-8c3 46 112 56 116 5-17-69-150-10-154-114-4-87 153-88 188-35 5 8 8 18 10 28" id="t"/><path fill="#333" d="M24 0v-248h195v40H76v63h132v40H76v65h150V0H24" id="u"/><g id="c"><use transform="matrix(0.06172839506172839,0,0,0.06172839506172839,0,0)" xlink:href="#t"/><use transform="matrix(0.06172839506172839,0,0,0.06172839506172839,14.814814814814813,0)" xlink:href="#u"/></g><path fill="#333" d="M24-248c120-7 223 5 221 122C244-46 201 0 124 0H24v-248zM76-40c74 7 117-18 117-86 0-67-45-88-117-82v168" id="v"/><path fill="#333" d="M185-48c-13 30-37 53-82 52C43 2 14-33 14-96s30-98 90-98c62 0 83 45 84 108H66c0 31 8 55 39 56 18 0 30-7 34-22zm-45-69c5-46-57-63-70-21-2 6-4 13-4 21h74" id="w"/><path fill="#333" d="M135-194c53 0 70 44 70 98 0 56-19 98-73 100-31 1-45-17-59-34 3 33 2 69 2 105H25l-1-265h48c2 10 0 23 3 31 11-24 29-35 60-35zM114-30c33 0 39-31 40-66 0-38-9-64-40-64-56 0-55 130 0 130" id="x"/><path fill="#333" d="M115-3C79 11 28 4 28-45v-112H4v-33h27l15-45h31v45h36v33H77v99c-1 23 16 31 38 25v30" id="y"/><path fill="#333" d="M114-157C55-157 80-60 75 0H25v-261h50l-1 109c12-26 28-41 61-42 86-1 58 113 63 194h-50c-7-57 23-157-34-157" id="z"/><path fill="#333" d="M231 0h-52l-39-155L100 0H48L-1-190h46L77-45c9-52 24-97 36-145h53l37 145 32-145h46" id="A"/><path fill="#333" d="M25-224v-37h50v37H25zM25 0v-190h50V0H25" id="B"/><path fill="#333" d="M137-138c1-29-70-34-71-4 15 46 118 7 119 86 1 83-164 76-172 9l43-7c4 19 20 25 44 25 33 8 57-30 24-41C81-84 22-81 20-136c-2-80 154-74 161-7" id="C"/><g id="d"><use transform="matrix(0.061728395061728385,0,0,0.061728395061728385,0,0)" xlink:href="#v"/><use transform="matrix(0.061728395061728385,0,0,0.061728395061728385,15.987654320987652,0)" xlink:href="#w"/><use transform="matrix(0.061728395061728385,0,0,0.061728395061728385,28.33333333333333,0)" xlink:href="#x"/><use transform="matrix(0.061728395061728385,0,0,0.061728395061728385,41.85185185185185,0)" xlink:href="#y"/><use transform="matrix(0.061728395061728385,0,0,0.061728395061728385,49.197530864197525,0)" xlink:href="#z"/><use transform="matrix(0.061728395061728385,0,0,0.061728395061728385,62.71604938271604,0)" xlink:href="#A"/><use transform="matrix(0.061728395061728385,0,0,0.061728395061728385,79.99999999999999,0)" xlink:href="#B"/><use transform="matrix(0.061728395061728385,0,0,0.061728395061728385,86.17283950617282,0)" xlink:href="#C"/><use transform="matrix(0.061728395061728385,0,0,0.061728395061728385,98.5185185185185,0)" xlink:href="#w"/></g><path fill="#333" d="M190-63c-7 42-38 67-86 67-59 0-84-38-90-98-12-110 154-137 174-36l-49 2c-2-19-15-32-35-32-30 0-35 28-38 64-6 74 65 87 74 30" id="D"/><path fill="#333" d="M128-127c34 4 56 21 59 58 7 91-148 94-172 28-4-9-6-17-7-26l51-5c1 24 16 35 40 36 23 0 39-12 38-36-1-31-31-36-65-34v-40c32 2 59-3 59-33 0-20-13-33-34-33s-33 13-35 32l-50-3c6-44 37-68 86-68 50 0 83 20 83 66 0 35-22 52-53 58" id="E"/><g id="e"><use transform="matrix(0.061728395061728385,0,0,0.061728395061728385,0,0)" xlink:href="#D"/><use transform="matrix(0.061728395061728385,0,0,0.061728395061728385,12.345679012345677,0)" xlink:href="#o"/><use transform="matrix(0.061728395061728385,0,0,0.061728395061728385,25.864197530864192,0)" xlink:href="#p"/><use transform="matrix(0.061728395061728385,0,0,0.061728395061728385,39.38271604938271,0)" xlink:href="#q"/><use transform="matrix(0.061728395061728385,0,0,0.061728395061728385,51.728395061728385,0)" xlink:href="#E"/><use transform="matrix(0.061728395061728385,0,0,0.061728395061728385,64.07407407407406,0)" xlink:href="#s"/><use transform="matrix(0.061728395061728385,0,0,0.061728395061728385,76.41975308641975,0)" xlink:href="#E"/></g><path fill="#333" d="M186 0v-106H76V0H24v-248h52v99h110v-99h50V0h-50" id="F"/><path fill="#333" d="M76-54c-1 42 2 86-19 110H24C36 42 46 24 48 0H25v-54h51" id="G"/><g id="f"><use transform="matrix(0.055555555555555546,0,0,0.055555555555555546,0,0)" xlink:href="#F"/><use transform="matrix(0.055555555555555546,0,0,0.055555555555555546,14.388888888888886,0)" xlink:href="#G"/></g><path fill="#333" d="M275 0h-61l-44-196L126 0H64L0-248h53L97-49l45-199h58l43 199 44-199h52" id="H"/><g id="g"><use transform="matrix(0.055555555555555546,0,0,0.055555555555555546,0,0)" xlink:href="#H"/><use transform="matrix(0.055555555555555546,0,0,0.055555555555555546,17.722222222222218,0)" xlink:href="#G"/></g><use transform="matrix(0.055555555555555546,0,0,0.055555555555555546,0,0)" xlink:href="#n" id="h"/><path fill="#333" d="M165-50V0h-47v-50H5v-38l105-160h55v161h33v37h-33zm-47-37l2-116L46-87h72" id="I"/><g id="i"><use transform="matrix(0.055555555555555546,0,0,0.055555555555555546,0,0)" xlink:href="#I"/><use transform="matrix(0.055555555555555546,0,0,0.055555555555555546,11.111111111111109,0)" xlink:href="#n"/></g><path fill="#333" d="M230 0l2-204L168 0h-37L68-204 70 0H24v-248h70l56 185 57-185h69V0h-46" id="J"/><path fill="#333" d="M182-130c37 4 62 22 62 59C244 23 116-4 24 0v-248c84 5 203-23 205 63 0 31-19 50-47 55zM76-148c40-3 101 13 101-30 0-44-60-28-101-31v61zm0 110c48-3 116 14 116-37 0-48-69-32-116-35v72" id="K"/><g id="j"><use transform="matrix(0.06172839506172839,0,0,0.06172839506172839,0,0)" xlink:href="#J"/><use transform="matrix(0.06172839506172839,0,0,0.06172839506172839,18.456790123456788,0)" xlink:href="#K"/><use transform="matrix(0.06172839506172839,0,0,0.06172839506172839,34.44444444444444,0)" xlink:href="#n"/><use transform="matrix(0.06172839506172839,0,0,0.06172839506172839,50.432098765432094,0)" xlink:href="#o"/><use transform="matrix(0.06172839506172839,0,0,0.06172839506172839,63.95061728395061,0)" xlink:href="#p"/><use transform="matrix(0.06172839506172839,0,0,0.06172839506172839,77.46913580246913,0)" xlink:href="#q"/></g><g id="k"><use transform="matrix(0.06172839506172839,0,0,0.06172839506172839,0,0)" xlink:href="#n"/><use transform="matrix(0.06172839506172839,0,0,0.06172839506172839,15.987654320987653,0)" xlink:href="#o"/><use transform="matrix(0.06172839506172839,0,0,0.06172839506172839,29.50617283950617,0)" xlink:href="#p"/><use transform="matrix(0.06172839506172839,0,0,0.06172839506172839,43.02469135802469,0)" xlink:href="#q"/></g><g id="l"><use transform="matrix(0.06172839506172839,0,0,0.06172839506172839,0,0)" xlink:href="#E"/><use transform="matrix(0.06172839506172839,0,0,0.06172839506172839,12.345679012345679,0)" xlink:href="#s"/><use transform="matrix(0.06172839506172839,0,0,0.06172839506172839,24.691358024691358,0)" xlink:href="#E"/></g><path fill="#333" d="M76-208v77h127v40H76V0H24v-248h183v40H76" id="L"/><path fill="#333" d="M85 4C-2 5 27-109 22-190h50c7 57-23 150 33 157 60-5 35-97 40-157h50l1 190h-47c-2-12 1-28-3-38-12 25-28 42-61 42" id="M"/><path fill="#333" d="M88-194c31-1 46 15 58 34l-1-101h50l1 261h-48c-2-10 0-23-3-31C134-8 116 4 84 4 32 4 16-41 15-95c0-56 19-97 73-99zm17 164c33 0 40-30 41-66 1-37-9-64-41-64s-38 30-39 65c0 43 13 65 39 65" id="N"/><path fill="#333" d="M14-72v-43h91v43H14" id="O"/><g id="m"><use transform="matrix(0.06172839506172839,0,0,0.06172839506172839,0,0)" xlink:href="#L"/><use transform="matrix(0.06172839506172839,0,0,0.06172839506172839,13.518518518518517,0)" xlink:href="#M"/><use transform="matrix(0.06172839506172839,0,0,0.06172839506172839,27.037037037037035,0)" xlink:href="#C"/><use transform="matrix(0.06172839506172839,0,0,0.06172839506172839,39.382716049382715,0)" xlink:href="#w"/><use transform="matrix(0.06172839506172839,0,0,0.06172839506172839,51.72839506172839,0)" xlink:href="#N"/><use transform="matrix(0.06172839506172839,0,0,0.06172839506172839,65.24691358024691,0)" xlink:href="#O"/><use transform="matrix(0.06172839506172839,0,0,0.06172839506172839,72.5925925925926,0)" xlink:href="#J"/><use transform="matrix(0.06172839506172839,0,0,0.06172839506172839,91.04938271604938,0)" xlink:href="#K"/><use transform="matrix(0.06172839506172839,0,0,0.06172839506172839,107.03703703703704,0)" xlink:href="#n"/><use transform="matrix(0.06172839506172839,0,0,0.06172839506172839,123.0246913580247,0)" xlink:href="#o"/><use transform="matrix(0.06172839506172839,0,0,0.06172839506172839,136.54320987654322,0)" xlink:href="#p"/><use transform="matrix(0.06172839506172839,0,0,0.06172839506172839,150.06172839506172,0)" xlink:href="#q"/></g></defs></g></svg>