<svg xmlns="http://www.w3.org/2000/svg" xmlns:xlink="http://www.w3.org/1999/xlink" xmlns:lucid="lucid" width="2880" height="1366"><g transform="translate(-289 100)" lucid:page-tab-id="0_0"><path d="M323.13 566c0-3.3 2.68-6 6-6h428c3.3 0 6 2.7 6 6v8c0 3.3-2.7 6-6 6h-428c-3.32 0-6-2.7-6-6z" stroke="#5e5e5e" stroke-width="3" fill="#6db1ff"/><path d="M373.13 646c0-3.3 2.68-6 6-6h328c3.3 0 6 2.7 6 6v8c0 3.3-2.7 6-6 6h-328c-3.32 0-6-2.7-6-6z" stroke="#5e5e5e" stroke-width="3" fill="#b8f5ed"/><path d="M433.13 748c0-3.3 2.68-6 6-6h208c3.3 0 6 2.7 6 6v16c0 3.3-2.7 6-6 6h-208c-3.32 0-6-2.7-6-6z" stroke="#5e5e5e" stroke-width="3" fill="#fcfcca"/><path d="M473.13 866c0-3.3 2.68-6 6-6h128c3.3 0 6 2.7 6 6v28c0 3.3-2.7 6-6 6h-128c-3.32 0-6-2.7-6-6z" stroke="#5e5e5e" stroke-width="3" fill="#fff3d9"/><path d="M503.13 1006c0-3.3 2.68-6 6-6h68c3.3 0 6 2.7 6 6v48c0 3.3-2.7 6-6 6h-68c-3.32 0-6-2.7-6-6zM503.13 1066c0-3.3 2.68-6 6-6h68c3.3 0 6 2.7 6 6v48c0 3.3-2.7 6-6 6h-68c-3.32 0-6-2.7-6-6z" stroke="#5e5e5e" stroke-width="3" fill="#dedeff"/><path d="M473.13 906c0-3.3 2.68-6 6-6h128c3.3 0 6 2.7 6 6v28c0 3.3-2.7 6-6 6h-128c-3.32 0-6-2.7-6-6z" stroke="#5e5e5e" stroke-width="3" fill="#fff3d9"/><path d="M433.13 776c0-3.3 2.68-6 6-6h208c3.3 0 6 2.7 6 6v16c0 3.3-2.7 6-6 6h-208c-3.32 0-6-2.7-6-6z" stroke="#5e5e5e" stroke-width="3" fill="#fcfcca"/><path d="M373.13 666c0-3.3 2.68-6 6-6h328c3.3 0 6 2.7 6 6v8c0 3.3-2.7 6-6 6h-328c-3.32 0-6-2.7-6-6z" stroke="#5e5e5e" stroke-width="3" fill="#b8f5ed"/><path d="M543.13 997.5V960" stroke="#5e5e5e" stroke-width="2" fill="none"/><path d="M544.13 998.5h-2v-1.03h2z" stroke="#5e5e5e" stroke-width=".05" fill="#5e5e5e"/><path d="M543.13 944.74l4.63 14.26h-9.27z" stroke="#5e5e5e" stroke-width="2" fill="#5e5e5e"/><path d="M543.13 857.5V818" stroke="#5e5e5e" stroke-width="2" fill="none"/><path d="M544.13 858.5h-2v-1.03h2z" stroke="#5e5e5e" stroke-width=".05" fill="#5e5e5e"/><path d="M543.13 802.74l4.63 14.26h-9.27z" stroke="#5e5e5e" stroke-width="2" fill="#5e5e5e"/><path d="M543.13 739.5V700" stroke="#5e5e5e" stroke-width="2" fill="none"/><path d="M544.13 740.5h-2v-1.03h2z" stroke="#5e5e5e" stroke-width=".05" fill="#5e5e5e"/><path d="M543.13 684.74l4.63 14.26h-9.27z" stroke="#5e5e5e" stroke-width="2" fill="#5e5e5e"/><path d="M543.13 637.5V600" stroke="#5e5e5e" stroke-width="2" fill="none"/><path d="M544.13 638.5h-2v-1.03h2z" stroke="#5e5e5e" stroke-width=".05" fill="#5e5e5e"/><path d="M543.13 584.74l4.63 14.26h-9.27z" stroke="#5e5e5e" stroke-width="2" fill="#5e5e5e"/><path d="M636.1 921h-2.97v-2h2.97zm9.9 0h-5.94v-2H646zm9.9 0h-5.94v-2h5.94zm9.9 0h-5.94v-2h5.94zm9.9 0h-5.94v-2h5.94zm9.9 0h-5.94v-2h5.94zm9.22 0h-5.26v-2h5.26z" stroke="#5e5e5e" stroke-width=".05" fill="#5e5e5e"/><path d="M632.13 924.64L617.86 920l14.27-4.64z" fill="#5e5e5e"/><path d="M633.13 926l-18.5-6 18.5-6zm-12.03-6l10.03 3.26v-6.52z" stroke="#5e5e5e" stroke-width=".05" fill="#5e5e5e"/><path stroke="#5e5e5e" stroke-width=".05" fill="#5e5e5e"/><use xlink:href="#a" transform="matrix(1,0,0,1,694.8194444444443,908) translate(0.005000000000002558 16)"/><path d="M593.13 1066c0-3.3 2.68-6 6-6h188c3.3 0 6 2.7 6 6v48c0 3.3-2.7 6-6 6h-188c-3.32 0-6-2.7-6-6z" fill="none"/><path d="M593.13 1120c5.52 0 10-4.48 10-10v-10c0-5.52 4.47-10 10-10-5.53 0-10-4.48-10-10v-10c0-5.52-4.48-10-10-10" stroke="#5e5e5e" stroke-width="3" fill="none"/><use xlink:href="#b" transform="matrix(1,0,0,1,628.125,1065) translate(6.8611111111111285 29)"/><use xlink:href="#c" transform="matrix(1,0,0,1,628.125,1065) translate(108.80555555555554 29)"/><path d="M484.7 1174.33c0-3.3 2.67-6 6-6h104.86c3.32 0 6 2.7 6 6v51.34c0 3.3-2.68 6-6 6H490.7c-3.33 0-6-2.7-6-6z" stroke="#000" stroke-opacity="0" stroke-width="3" fill="#fff" fill-opacity="0"/><use xlink:href="#d" transform="matrix(1,0,0,1,489.6875,1173.3333333333333) translate(1.9166666666666856 29.499999999999993)"/><use xlink:href="#e" transform="matrix(1,0,0,1,489.6875,1173.3333333333333) translate(25.194444444444454 29.499999999999993)"/><path d="M885 563c0-3.3 2.7-6 6-6h543.97c3.32 0 6 2.7 6 6v10c0 3.3-2.68 6-6 6H891c-3.3 0-6-2.7-6-6z" stroke="#5e5e5e" stroke-width="3" fill="#6db1ff"/><path d="M940 646c0-3.3 2.7-6 6-6h428c3.3 0 6 2.7 6 6v10c0 3.3-2.7 6-6 6H946c-3.3 0-6-2.7-6-6z" stroke="#5e5e5e" stroke-width="3" fill="#c3f7c8"/><path d="M1000 751c0-3.3 2.7-6 6-6h313.97c3.32 0 6 2.7 6 6v10c0 3.3-2.68 6-6 6H1006c-3.3 0-6-2.7-6-6z" stroke="#5e5e5e" stroke-width="3" fill="#fff7a1"/><path d="M1067 864.3c0-3.3 2.7-6 6-6h174c3.3 0 6 2.7 6 6V894c0 3.3-2.7 6-6 6h-174c-3.3 0-6-2.7-6-6z" stroke="#5e5e5e" stroke-width="3" fill="#fff3d9"/><path d="M1105 1006c0-3.3 2.7-6 6-6h103.97c3.32 0 6 2.7 6 6v48c0 3.3-2.68 6-6 6H1111c-3.3 0-6-2.7-6-6zM1105 1066c0-3.3 2.7-6 6-6h103.97c3.32 0 6 2.7 6 6v48c0 3.3-2.68 6-6 6H1111c-3.3 0-6-2.7-6-6z" stroke="#5e5e5e" stroke-width="3" fill="#dedeff"/><path d="M1067 906c0-3.3 2.7-6 6-6h174c3.3 0 6 2.7 6 6v25c0 3.3-2.7 6-6 6h-174c-3.3 0-6-2.7-6-6z" stroke="#5e5e5e" stroke-width="3" fill="#fff3d9"/><path d="M543.13 1167.33V1140" stroke="#5e5e5e" stroke-width="2" fill="none"/><path d="M544.13 1168.33h-2v-1.02h2z" stroke="#5e5e5e" stroke-width=".05" fill="#5e5e5e"/><path d="M543.13 1124.74l4.63 14.26h-9.27z" stroke="#5e5e5e" stroke-width="2" fill="#5e5e5e"/><path d="M940 668c0-3.3 2.7-6 6-6h428c3.3 0 6 2.7 6 6v10c0 3.3-2.7 6-6 6H946c-3.3 0-6-2.7-6-6z" stroke="#5e5e5e" stroke-width="3" fill="#c3f7c8"/><path d="M1000 773c0-3.3 2.7-6 6-6h313.97c3.32 0 6 2.7 6 6v10c0 3.3-2.68 6-6 6H1006c-3.3 0-6-2.7-6-6z" stroke="#5e5e5e" stroke-width="3" fill="#fff7a1"/><path d="M1160 637.5V599" stroke="#5e5e5e" stroke-width="2" fill="none"/><path d="M1161 638.5h-2v-1.03h2z" stroke="#5e5e5e" stroke-width=".05" fill="#5e5e5e"/><path d="M1160 583.74l4.64 14.26h-9.28z" stroke="#5e5e5e" stroke-width="2" fill="#5e5e5e"/><path d="M1163 742.5V704" stroke="#5e5e5e" stroke-width="2" fill="none"/><path d="M1164 743.5h-2v-1.03h2z" stroke="#5e5e5e" stroke-width=".05" fill="#5e5e5e"/><path d="M1163 688.74l4.62 14.26h-9.27z" stroke="#5e5e5e" stroke-width="2" fill="#5e5e5e"/><path d="M1160 855.8V809" stroke="#5e5e5e" stroke-width="2" fill="none"/><path d="M1161 856.8h-2v-1h2z" stroke="#5e5e5e" stroke-width=".05" fill="#5e5e5e"/><path d="M1160 793.74l4.64 14.26h-9.28z" stroke="#5e5e5e" stroke-width="2" fill="#5e5e5e"/><path d="M1163 997.5V957" stroke="#5e5e5e" stroke-width="2" fill="none"/><path d="M1164 998.5h-2v-1.03h2z" stroke="#5e5e5e" stroke-width=".05" fill="#5e5e5e"/><path d="M1163 941.74l4.62 14.26h-9.27z" stroke="#5e5e5e" stroke-width="2" fill="#5e5e5e"/><path d="M1164 1182.4h-2V1140h2z" stroke="#5e5e5e" stroke-width=".05" fill="#5e5e5e"/><path stroke="#5e5e5e" stroke-width=".05" fill="#5e5e5e"/><path d="M1167.62 1139h-9.27l4.64-14.26z" fill="#5e5e5e"/><path d="M1169 1140h-12.02l6-18.5zm-9.27-2h6.52l-3.26-10.03z" stroke="#5e5e5e" stroke-width=".05" fill="#5e5e5e"/><use xlink:href="#f" transform="matrix(1,0,0,1,1087.6261847146602,1182.4142116839344) translate(0.0049999999999954525 16)"/><use xlink:href="#g" transform="matrix(1,0,0,1,1087.6261847146602,1182.4142116839344) translate(24.33833333333333 16)"/><use xlink:href="#h" transform="matrix(1,0,0,1,1087.6261847146602,1182.4142116839344) translate(81.94944444444444 16)"/><path d="M1422.8 121.53c0-3.32 2.7-6 6-6h428c3.32 0 6 2.68 6 6v8c0 3.3-2.68 6-6 6h-428c-3.3 0-6-2.7-6-6z" stroke="#5e5e5e" stroke-width="3" fill="#6db1ff"/><path d="M1472.8 201.53c0-3.32 2.7-6 6-6h328c3.32 0 6 2.68 6 6v8c0 3.3-2.68 6-6 6h-328c-3.3 0-6-2.7-6-6z" stroke="#5e5e5e" stroke-width="3" fill="#b8f5ed"/><path d="M1532.8 421.53c0-3.32 2.7-6 6-6h208c3.32 0 6 2.68 6 6v16c0 3.3-2.68 6-6 6h-208c-3.3 0-6-2.7-6-6z" stroke="#5e5e5e" stroke-width="3" fill="#fcfcca"/><path d="M1570 541.53c0-3.32 2.7-6 6-6h128c3.3 0 6 2.68 6 6v28c0 3.3-2.7 6-6 6h-128c-3.3 0-6-2.7-6-6z" stroke="#5e5e5e" stroke-width="3" fill="#fff3d9"/><path d="M1602.8 1008.73c0-3.3 2.7-6 6-6h68c3.32 0 6 2.7 6 6v48c0 3.3-2.68 6-6 6h-68c-3.3 0-6-2.7-6-6zM1602.8 1068.73c0-3.3 2.7-6 6-6h68c3.32 0 6 2.7 6 6v48c0 3.3-2.68 6-6 6h-68c-3.3 0-6-2.7-6-6z" stroke="#5e5e5e" stroke-width="3" fill="#dedeff"/><path d="M1570 581.53c0-3.32 2.7-6 6-6h128c3.3 0 6 2.68 6 6v28c0 3.3-2.7 6-6 6h-128c-3.3 0-6-2.7-6-6z" stroke="#5e5e5e" stroke-width="3" fill="#fff3d9"/><path d="M1532.8 449.53c0-3.32 2.7-6 6-6h208c3.32 0 6 2.68 6 6v16c0 3.3-2.68 6-6 6h-208c-3.3 0-6-2.7-6-6z" stroke="#5e5e5e" stroke-width="3" fill="#fcfcca"/><path d="M1472.8 221.53c0-3.32 2.7-6 6-6h328c3.32 0 6 2.68 6 6v8c0 3.3-2.68 6-6 6h-328c-3.3 0-6-2.7-6-6z" stroke="#5e5e5e" stroke-width="3" fill="#b8f5ed"/><path d="M1558.6 1186c0-3.3 2.68-6 6-6h156.43c3.3 0 6 2.7 6 6v33.9c0 3.3-2.7 6-6 6H1564.6c-3.32 0-6-2.7-6-6z" stroke="#000" stroke-opacity="0" stroke-width="3" fill="#fff" fill-opacity="0"/><use xlink:href="#i" transform="matrix(1,0,0,1,1563.591570810318,1185) translate(3.583333333333343 22.75)"/><use xlink:href="#j" transform="matrix(1,0,0,1,1563.591570810318,1185) translate(26.861111111111114 22.75)"/><use xlink:href="#k" transform="matrix(1,0,0,1,1563.591570810318,1185) translate(86.63888888888889 22.75)"/><path d="M1642.8 1179v-36.27" stroke="#5e5e5e" stroke-width="2" fill="none"/><path d="M1643.8 1180h-2v-1.03h2z" stroke="#5e5e5e" stroke-width=".05" fill="#5e5e5e"/><path d="M1642.8 1127.47l4.65 14.26h-9.27z" stroke="#5e5e5e" stroke-width="2" fill="#5e5e5e"/><path d="M1602.8 821.53c0-3.32 2.7-6 6-6h68c3.32 0 6 2.68 6 6v48c0 3.3-2.68 6-6 6h-68c-3.3 0-6-2.7-6-6zM1602.8 881.53c0-3.32 2.7-6 6-6h68c3.32 0 6 2.68 6 6v48c0 3.3-2.68 6-6 6h-68c-3.3 0-6-2.7-6-6z" stroke="#5e5e5e" stroke-width="3" fill="#dedeff"/><path d="M1642.8 1000.23v-44.7" stroke="#5e5e5e" stroke-width="2" fill="none"/><path d="M1643.8 1001.23h-2v-1.02h2z" stroke="#5e5e5e" stroke-width=".05" fill="#5e5e5e"/><path d="M1642.8 940.26l4.65 14.27h-9.27z" stroke="#5e5e5e" stroke-width="2" fill="#5e5e5e"/><path d="M1572.8 681.53c0-3.32 2.7-6 6-6h128c3.32 0 6 2.68 6 6v28c0 3.3-2.68 6-6 6h-128c-3.3 0-6-2.7-6-6zM1572.8 721.53c0-3.32 2.7-6 6-6h128c3.32 0 6 2.68 6 6v28c0 3.3-2.68 6-6 6h-128c-3.3 0-6-2.7-6-6z" stroke="#5e5e5e" stroke-width="3" fill="#fff3d9"/><path d="M1530 301.53c0-3.32 2.7-6 6-6h208c3.3 0 6 2.68 6 6v16c0 3.3-2.7 6-6 6h-208c-3.3 0-6-2.7-6-6zM1530 329.53c0-3.32 2.7-6 6-6h208c3.3 0 6 2.68 6 6v16c0 3.3-2.7 6-6 6h-208c-3.3 0-6-2.7-6-6z" stroke="#5e5e5e" stroke-width="3" fill="#fcfcca"/><path d="M1420 41.53c0-3.32 2.7-6 6-6h428c3.3 0 6 2.68 6 6v8c0 3.3-2.7 6-6 6h-428c-3.3 0-6-2.7-6-6z" stroke="#5e5e5e" stroke-width="3" fill="#6db1ff"/><path d="M1921 1161.5h-2v-3h2zm0-7.02h-2v-6.02h2zm0-10.03h-2v-6.02h2zm0-10.04h-2v-6h2zm0-10.02h-2v-6h2zm0-10.03h-2v-6.02h2zm0-10.03h-2v-6.02h2zm0-10.03h-2v-6.03h2zm0-10.04h-2v-6.02h2zm0-10.03h-2v-6.02h2zm0-10.03h-2v-6.02h2zm0-10.03h-2v-6.02h2zm0-10.03h-2v-6.02h2zm0-10.03h-2v-6h2zm0-10.02h-2v-6.02h2zm0-10.03h-2v-6.02h2zm0-10.04h-2v-6h2zm0-10.02h-2v-6h2zm0-10.03h-2v-6.02h2zm0-10.03h-2v-6.02h2zm0-10.03h-2v-6.03h2zm0-10.04h-2v-6.02h2zm0-10.03h-2v-6.02h2zm0-10.03h-2v-6.02h2zm0-10.03h-2v-6.02h2zm0-10.03h-2v-6.02h2zm0-10.03h-2v-6h2zm0-10.02h-2v-6.02h2zm0-10.04h-2v-6h2zm0-10.03h-2v-6h2zm0-10.02h-2v-6.02h2zm0-10.03h-2v-6.02h2zm0-10.03h-2v-6.02h2zm0-10.03h-2v-6.03h2zm0-10.04h-2v-6.02h2zm0-10.03h-2v-6.02h2zm0-10.03h-2v-6.02h2zm0-10.03h-2v-6.02h2zm0-10.03h-2v-6.02h2zm0-10.03h-2v-6h2zm0-10.02h-2v-6.02h2zm0-10.04h-2v-6h2zm0-10.03h-2v-6h2zm0-10.02h-2v-6.02h2zm0-10.03h-2v-6.02h2zm0-10.03h-2v-6.02h2zm0-10.03h-2v-6.03h2zm0-10.04h-2v-6.02h2zm0-10.03h-2V677h2zm0-10.03h-2v-6.02h2zm0-10.03h-2v-6.02h2zm0-10.03h-2v-6.02h2zm0-10.03h-2v-6h2zm0-10.03h-2v-6h2zm0-10.03h-2v-6h2zm0-30.1h-2v-6h2zm0-10.02h-2v-6.02h2zm0-10.03h-2v-6.03h2zm0-10.04h-2v-6.02h2zm0-10.03h-2v-6.02h2zm0-10.03h-2v-6.02h2zm0-10.03h-2v-6.02h2zm0-10.03h-2v-6.02h2zm0-10.03h-2v-6h2zm0-10.03h-2v-6h2zm0-10.03h-2v-6h2zm0-10.03h-2v-6h2zm0-10.02h-2v-6.02h2zm0-10.03h-2v-6.02h2zm0-10.03h-2v-6.02h2zm0-10.03h-2v-6.03h2zm0-10.04h-2v-6.02h2zm0-10.03h-2v-6.02h2zm0-10.03h-2v-6.02h2zm0-10.03h-2v-6.02h2zm0-10.03h-2v-6.02h2zm0-10.04h-2v-6h2zm0-10.03h-2v-6h2zm0-10.03h-2v-6.02h2zm0-10.03h-2v-6h2zm0-10.02h-2v-6.02h2zm0-10.03h-2v-6.02h2zm0-10.03h-2v-6.02h2zm0-10.03h-2v-6.03h2zm0-10.04h-2v-6.02h2zm0-10.03h-2v-6.02h2zm0-10.03h-2v-6.02h2zm0-10.03h-2v-6.02h2zm0-10.03h-2v-6.02h2zm0-10.04h-2v-6h2zm0-10.03h-2v-6.02h2zm0-10.03h-2v-6.02h2zm0-10.03h-2v-6h2zm0-10.02h-2v-6.02h2zm0-10.03h-2v-6.02h2zm0-10.03h-2v-6.02h2zm0-10.03h-2v-6.03h2zm0-10.04h-2v-6.02h2zm0-10.03h-2v-6.02h2zm0-10.03h-2v-6.02h2zm0-10.03h-2v-6.02h2zm0-10.04h-2v-6h2zm0-10.03h-2v-6h2zm0-10.03h-2v-6.02h2zm0-10.03h-2v-6.02h2zm0-10.03h-2v-6h2zm0-10.02h-2v-6.02h2zm0-10.03h-2v-6.02h2zm0-10.03h-2V55.1h2zm0-10.03h-2v-3.02h2z" stroke="#5e5e5e" stroke-width=".05" fill="#5e5e5e"/><path d="M1920 1176.76l-4.64-14.26h9.28z" fill="#5e5e5e"/><path d="M1920 1180l-6-18.5h12zm-3.26-16.5l3.26 10.03 3.26-10.03z" stroke="#5e5e5e" stroke-width=".05" fill="#5e5e5e"/><path d="M1924.64 47.08h-9.28L1920 32.8z" fill="#5e5e5e"/><path d="M1926 48.08h-12l6-18.5zm-9.26-2h6.52L1920 36.05z" stroke="#5e5e5e" stroke-width=".05" fill="#5e5e5e"/><use xlink:href="#l" transform="matrix(1,0,0,1,1887.2777777777778,592.7885107118389) translate(0.005000000000002558 16)"/><path d="M1642.8 813.03v-37.5" stroke="#5e5e5e" stroke-width="2" fill="none"/><path d="M1643.8 814.03h-2V813h2z" stroke="#5e5e5e" stroke-width=".05" fill="#5e5e5e"/><path d="M1642.8 760.26l4.65 14.27h-9.27z" stroke="#5e5e5e" stroke-width="2" fill="#5e5e5e"/><path d="M1642.8 673.03v-37.5" stroke="#5e5e5e" stroke-width="2" fill="none"/><path d="M1643.8 674.03h-2V673h2z" stroke="#5e5e5e" stroke-width=".05" fill="#5e5e5e"/><path d="M1642.8 620.26l4.65 14.27h-9.27z" stroke="#5e5e5e" stroke-width="2" fill="#5e5e5e"/><path d="M1640 533.03v-41.5" stroke="#5e5e5e" stroke-width="2" fill="none"/><path d="M1641 534.03h-2V533h2z" stroke="#5e5e5e" stroke-width=".05" fill="#5e5e5e"/><path d="M1640 476.26l4.64 14.27h-9.28z" stroke="#5e5e5e" stroke-width="2" fill="#5e5e5e"/><path d="M1642.8 413.03v-41.5" stroke="#5e5e5e" stroke-width="2" fill="none"/><path d="M1643.8 414.03h-2V413h2z" stroke="#5e5e5e" stroke-width=".05" fill="#5e5e5e"/><path d="M1642.8 356.26l4.65 14.27h-9.27z" stroke="#5e5e5e" stroke-width="2" fill="#5e5e5e"/><path d="M1640 293.03v-37.5" stroke="#5e5e5e" stroke-width="2" fill="none"/><path d="M1641 294.03h-2V293h2z" stroke="#5e5e5e" stroke-width=".05" fill="#5e5e5e"/><path d="M1640 240.26l4.64 14.27h-9.28z" stroke="#5e5e5e" stroke-width="2" fill="#5e5e5e"/><path d="M1642.8 193.03v-37.5" stroke="#5e5e5e" stroke-width="2" fill="none"/><path d="M1643.8 194.03h-2V193h2z" stroke="#5e5e5e" stroke-width=".05" fill="#5e5e5e"/><path d="M1642.8 140.26l4.65 14.27h-9.27z" stroke="#5e5e5e" stroke-width="2" fill="#5e5e5e"/><path d="M1642.8 113.03v-37.5" stroke="#5e5e5e" stroke-width="2" fill="none"/><path d="M1643.8 114.03h-2V113h2z" stroke="#5e5e5e" stroke-width=".05" fill="#5e5e5e"/><path d="M1642.8 60.26l4.65 14.27h-9.27z" stroke="#5e5e5e" stroke-width="2" fill="#5e5e5e"/><path d="M2004.7 311.57c0-3.3 2.67-6 6-6h424.86c3.32 0 6 2.7 6 6v27c0 3.32-2.68 6-6 6H2010.7c-3.33 0-6-2.68-6-6z" stroke="#5e5e5e" stroke-width="3" fill="#6db1ff"/><path d="M2153.13 712.57c0-3.3 2.68-6 6-6h128c3.3 0 6 2.7 6 6v69.16c0 3.3-2.7 6-6 6h-128c-3.32 0-6-2.7-6-6z" stroke="#5e5e5e" stroke-width="3" fill="#fff3d9"/><path d="M2183.13 934.57c0-3.3 2.68-6 6-6h68c3.3 0 6 2.7 6 6v88c0 3.32-2.7 6-6 6h-68c-3.32 0-6-2.68-6-6z" stroke="#5e5e5e" stroke-width="3" fill="#dedeff"/><path d="M2183.13 1034.57c0-3.3 2.68-6 6-6h68c3.3 0 6 2.7 6 6v80.67c0 3.3-2.7 6-6 6h-68c-3.32 0-6-2.7-6-6z" stroke="#5e5e5e" stroke-width="3" fill="#dedeff"/><path d="M2153.13 793.73c0-3.3 2.68-6 6-6h128c3.3 0 6 2.7 6 6v68.84c0 3.32-2.7 6-6 6h-128c-3.32 0-6-2.68-6-6z" stroke="#5e5e5e" stroke-width="3" fill="#fff3d9"/><path d="M2113.13 605.57c0-3.3 2.68-6 6-6h208c3.3 0 6 2.7 6 6v37c0 3.32-2.7 6-6 6h-208c-3.32 0-6-2.68-6-6z" stroke="#5e5e5e" stroke-width="3" fill="#fcfcca"/><path d="M2053.13 449.57c0-3.3 2.68-6 6-6h328c3.3 0 6 2.7 6 6v31.87c0 3.32-2.7 6-6 6h-328c-3.32 0-6-2.68-6-6z" stroke="#5e5e5e" stroke-width="3" fill="#b8f5ed"/><path d="M2123.13 1186c0-3.3 2.68-6 6-6h188c3.3 0 6 2.7 6 6v62c0 3.3-2.7 6-6 6h-188c-3.32 0-6-2.7-6-6z" stroke="#000" stroke-opacity="0" stroke-width="3" fill="#fff" fill-opacity="0"/><use xlink:href="#m" transform="matrix(1,0,0,1,2128.125,1185) translate(8.30864197530866 34.22222222222222)"/><use xlink:href="#n" transform="matrix(1,0,0,1,2128.125,1185) translate(29.938271604938286 34.22222222222222)"/><use xlink:href="#o" transform="matrix(1,0,0,1,2128.125,1185) translate(120.55555555555554 34.22222222222222)"/><path d="M2223.13 1179v-37.76" stroke="#5e5e5e" stroke-width="2" fill="none"/><path d="M2224.13 1180h-2v-1.03h2z" stroke="#5e5e5e" stroke-width=".05" fill="#5e5e5e"/><path d="M2223.13 1125.98l4.63 14.26h-9.27z" stroke="#5e5e5e" stroke-width="2" fill="#5e5e5e"/><path d="M2113.13 556.57c0-3.3 2.68-6 6-6h208c3.3 0 6 2.7 6 6v37c0 3.32-2.7 6-6 6h-208c-3.32 0-6-2.68-6-6z" stroke="#5e5e5e" stroke-width="3" fill="#fcfcca"/><path d="M2053.13 406.64c0-3.32 2.68-6 6-6h328c3.3 0 6 2.68 6 6v31.87c0 3.32-2.7 6-6 6h-328c-3.32 0-6-2.68-6-6z" stroke="#5e5e5e" stroke-width="3" fill="#b8f5ed"/><path d="M2223.13 926.07v-37.5" stroke="#5e5e5e" stroke-width="2" fill="none"/><path d="M2224.13 927.07h-2v-1.02h2z" stroke="#5e5e5e" stroke-width=".05" fill="#5e5e5e"/><path d="M2223.13 873.3l4.63 14.27h-9.27z" stroke="#5e5e5e" stroke-width="2" fill="#5e5e5e"/><path d="M2223.13 704.07v-35.5" stroke="#5e5e5e" stroke-width="2" fill="none"/><path d="M2224.13 705.07h-2v-1.02h2z" stroke="#5e5e5e" stroke-width=".05" fill="#5e5e5e"/><path d="M2223.13 653.3l4.63 14.27h-9.27z" stroke="#5e5e5e" stroke-width="2" fill="#5e5e5e"/><path d="M2223.13 548.07v-40.62" stroke="#5e5e5e" stroke-width="2" fill="none"/><path d="M2224.13 549.07h-2v-1.02h2z" stroke="#5e5e5e" stroke-width=".05" fill="#5e5e5e"/><path d="M2223.13 492.18l4.63 14.27h-9.27z" stroke="#5e5e5e" stroke-width="2" fill="#5e5e5e"/><path d="M2223.13 398.14v-33.57" stroke="#5e5e5e" stroke-width="2" fill="none"/><path d="M2224.13 399.14h-2v-1.03h2z" stroke="#5e5e5e" stroke-width=".05" fill="#5e5e5e"/><path d="M2223.13 349.3l4.63 14.27h-9.27z" stroke="#5e5e5e" stroke-width="2" fill="#5e5e5e"/><path d="M2300 1034.57c0-3.3 2.7-6 6-6h208c3.3 0 6 2.7 6 6v81.17c0 3.3-2.7 6-6 6h-208c-3.3 0-6-2.7-6-6z" fill="none"/><path d="M2300 1121.74c5.52 0 10-4.48 10-10v-26.58c0-5.53 4.48-10 10-10-5.52 0-10-4.48-10-10v-26.6c0-5.5-4.48-10-10-10" stroke="#5e5e5e" stroke-width="3" fill="none"/><use xlink:href="#p" transform="matrix(1,0,0,1,2335,1033.572347242299) translate(7.4444444444444855 46)"/><use xlink:href="#q" transform="matrix(1,0,0,1,2335,1033.572347242299) translate(76.16666666666669 46)"/><path d="M2807.5 744.8c0-3.3 2.7-6 6-6h152.54c3.3 0 6 2.7 6 6v27.56c0 3.3-2.7 6-6 6H2813.5c-3.3 0-6-2.7-6-6zM2807.5 786c0-3.3 2.7-6 6-6h152.54c3.3 0 6 2.7 6 6v30.56c0 3.3-2.7 6-6 6H2813.5c-3.3 0-6-2.7-6-6z" stroke="#5e5e5e" stroke-width="3" fill="#fff3d9"/><path d="M2767.5 538c0-3.3 2.7-6 6-6h232.54c3.3 0 6 2.7 6 6v36c0 3.3-2.7 6-6 6H2773.5c-3.3 0-6-2.7-6-6z" stroke="#5e5e5e" stroke-width="3" fill="#fcfcca"/><path d="M2719.77 283.57c0-3.3 2.7-6 6-6h328c3.3 0 6 2.7 6 6v16c0 3.32-2.7 6-6 6h-328c-3.3 0-6-2.68-6-6z" stroke="#5e5e5e" stroke-width="3" fill="#b8f5ed"/><path d="M2980 1066c0-3.3 2.7-6 6-6h188c3.3 0 6 2.7 6 6v48c0 3.3-2.7 6-6 6h-188c-3.3 0-6-2.7-6-6z" fill="none"/><path d="M2980 1120c5.52 0 10-4.48 10-10v-10c0-5.52 4.48-10 10-10-5.52 0-10-4.48-10-10v-10c0-5.52-4.48-10-10-10" stroke="#5e5e5e" stroke-width="3" fill="none"/><use xlink:href="#r" transform="matrix(1,0,0,1,3015,1065) translate(49.527777777777786 17)"/><use xlink:href="#s" transform="matrix(1,0,0,1,3015,1065) translate(31.80555555555557 41)"/><path d="M2767.5 1186c0-3.3 2.7-6 6-6h231.9c3.3 0 6 2.7 6 6v62c0 3.3-2.7 6-6 6h-231.9c-3.3 0-6-2.7-6-6z" stroke="#000" stroke-opacity="0" stroke-width="3" fill="#fff" fill-opacity="0"/><use xlink:href="#t" transform="matrix(1,0,0,1,2772.5,1185) translate(16.722222222222257 36)"/><use xlink:href="#u" transform="matrix(1,0,0,1,2772.5,1185) translate(40.00000000000003 36)"/><use xlink:href="#v" transform="matrix(1,0,0,1,2772.5,1185) translate(147.44444444444443 36)"/><path d="M2839.54 1006c0-3.3 2.68-6 6-6H2934c3.3 0 6 2.7 6 6v48c0 3.3-2.7 6-6 6h-88.46c-3.32 0-6-2.7-6-6zM2839.54 1066c0-3.3 2.68-6 6-6H2934c3.3 0 6 2.7 6 6v48c0 3.3-2.7 6-6 6h-88.46c-3.32 0-6-2.7-6-6z" stroke="#5e5e5e" stroke-width="3" fill="#dedeff"/><path d="M2807.5 645.62c0-3.3 2.7-6 6-6h152.54c3.3 0 6 2.7 6 6v27.56c0 3.3-2.7 6-6 6H2813.5c-3.3 0-6-2.7-6-6z" stroke="#5e5e5e" stroke-width="3" fill="#fff3d9"/><path d="M2839.54 886c0-3.3 2.68-6 6-6H2934c3.3 0 6 2.7 6 6v48c0 3.3-2.7 6-6 6h-88.46c-3.32 0-6-2.7-6-6z" stroke="#5e5e5e" stroke-width="3" fill="#dedeff"/><path d="M2767.5 490c0-3.3 2.7-6 6-6h232.54c3.3 0 6 2.7 6 6v36c0 3.3-2.7 6-6 6H2773.5c-3.3 0-6-2.7-6-6zM2767.5 373.14c0-3.3 2.7-6 6-6h232.54c3.3 0 6 2.7 6 6v36c0 3.32-2.7 6-6 6H2773.5c-3.3 0-6-2.68-6-6z" stroke="#5e5e5e" stroke-width="3" fill="#fcfcca"/><path d="M2719.77 255.57c0-3.3 2.7-6 6-6h328c3.3 0 6 2.7 6 6v16c0 3.32-2.7 6-6 6h-328c-3.3 0-6-2.68-6-6zM2719.77 166c0-3.3 2.7-6 6-6h328c3.3 0 6 2.7 6 6v16c0 3.3-2.7 6-6 6h-328c-3.3 0-6-2.7-6-6z" stroke="#5e5e5e" stroke-width="3" fill="#b8f5ed"/><path d="M2669.77 76.43c0-3.32 2.7-6 6-6h428c3.3 0 6 2.68 6 6v16c0 3.3-2.7 6-6 6h-428c-3.3 0-6-2.7-6-6zM2669.77-14c0-3.3 2.7-6 6-6h428c3.3 0 6 2.7 6 6V2c0 3.3-2.7 6-6 6h-428c-3.3 0-6-2.7-6-6z" stroke="#5e5e5e" stroke-width="3" fill="#6db1ff"/><path d="M2889.77 157.5v-39.07" stroke="#5e5e5e" stroke-width="2" fill="none"/><path d="M2890.77 158.5h-2v-1.03h2z" stroke="#5e5e5e" stroke-width=".05" fill="#5e5e5e"/><path d="M2889.77 103.16l4.63 14.27h-9.27z" stroke="#5e5e5e" stroke-width="2" fill="#5e5e5e"/><path d="M2889.77 67.93V28" stroke="#5e5e5e" stroke-width="2" fill="none"/><path d="M2890.77 68.93h-2V67.9h2z" stroke="#5e5e5e" stroke-width=".05" fill="#5e5e5e"/><path d="M2889.77 12.74L2894.4 27h-9.27z" stroke="#5e5e5e" stroke-width="2" fill="#5e5e5e"/><path d="M2889.77 247.07V208" stroke="#5e5e5e" stroke-width="2" fill="none"/><path d="M2890.77 248.07h-2v-1.02h2z" stroke="#5e5e5e" stroke-width=".05" fill="#5e5e5e"/><path d="M2889.77 192.74l4.63 14.26h-9.27z" stroke="#5e5e5e" stroke-width="2" fill="#5e5e5e"/><path d="M2889.77 364.64v-39.07" stroke="#5e5e5e" stroke-width="2" fill="none"/><path d="M2890.77 365.64h-2v-1.02h2z" stroke="#5e5e5e" stroke-width=".05" fill="#5e5e5e"/><path d="M2889.77 310.3l4.63 14.27h-9.27z" stroke="#5e5e5e" stroke-width="2" fill="#5e5e5e"/><path d="M2889.77 481.5v-46.35" stroke="#5e5e5e" stroke-width="2" fill="none"/><path d="M2890.77 482.5h-2v-1.03h2z" stroke="#5e5e5e" stroke-width=".05" fill="#5e5e5e"/><path d="M2889.77 419.88l4.63 14.27h-9.27z" stroke="#5e5e5e" stroke-width="2" fill="#5e5e5e"/><path d="M2889.77 637.12V600" stroke="#5e5e5e" stroke-width="2" fill="none"/><path d="M2890.77 638.12h-2v-1.02h2z" stroke="#5e5e5e" stroke-width=".05" fill="#5e5e5e"/><path d="M2889.77 584.74l4.63 14.26h-9.27z" stroke="#5e5e5e" stroke-width="2" fill="#5e5e5e"/><path d="M2889.77 736.3v-37.12" stroke="#5e5e5e" stroke-width="2" fill="none"/><path d="M2890.77 737.3h-2v-1.03h2z" stroke="#5e5e5e" stroke-width=".05" fill="#5e5e5e"/><path d="M2889.77 683.9l4.63 14.28h-9.27z" stroke="#5e5e5e" stroke-width="2" fill="#5e5e5e"/><path d="M2889.77 877.5v-34.94" stroke="#5e5e5e" stroke-width="2" fill="none"/><path d="M2890.77 878.5h-2v-1.03h2z" stroke="#5e5e5e" stroke-width=".05" fill="#5e5e5e"/><path d="M2889.77 827.3l4.63 14.26h-9.27z" stroke="#5e5e5e" stroke-width="2" fill="#5e5e5e"/><path d="M2889.77 997.5V960" stroke="#5e5e5e" stroke-width="2" fill="none"/><path d="M2890.77 998.5h-2v-1.03h2z" stroke="#5e5e5e" stroke-width=".05" fill="#5e5e5e"/><path d="M2889.77 944.74l4.63 14.26h-9.27z" stroke="#5e5e5e" stroke-width="2" fill="#5e5e5e"/><path d="M2889.45 1179v-28.1c0-.08.07-.15.16-.15.1 0 .17-.07.17-.16V1140" stroke="#5e5e5e" stroke-width="2" fill="none"/><path d="M2890.45 1180h-2v-1.03h2z" stroke="#5e5e5e" stroke-width=".05" fill="#5e5e5e"/><path d="M2889.77 1124.74l4.63 14.26h-9.27z" stroke="#5e5e5e" stroke-width="2" fill="#5e5e5e"/><path d="M2621 1161.5h-2v-3h2zm0-7.02h-2v-6.02h2zm0-10.03h-2v-6h2zm0-10.02h-2v-6.02h2zm0-10.03h-2v-6h2zm0-10.02h-2v-6.02h2zm0-10.03h-2v-6h2zm0-10.02h-2v-6.02h2zm0-10.03h-2v-6.02h2zm0-10.03h-2v-6h2zm0-10.02h-2v-6.02h2zm0-10.03h-2v-6h2zm0-10.02h-2v-6.02h2zm0-10.03h-2v-6.02h2zm0-10.03h-2v-6h2zm0-10.02h-2v-6.02h2zm0-10.03h-2v-6.02h2zm0-10.03h-2v-6.02h2zm0-10.03h-2v-6h2zm0-10.02h-2V968h2zm0-10.03h-2v-6.03h2zm0-10.04h-2v-6h2zm0-10.02h-2v-6.02h2zm0-10.03h-2v-6h2zm0-10h-2v-6.03h2zm0-10.04h-2v-6.02h2zm0-10.03h-2v-6h2zm0-10.02h-2v-6h2zm0-10.02h-2v-6h2zm0-10.02h-2v-6.02h2zm0-10.03h-2v-6h2zm0-10.02h-2v-6h2zm0-10.02h-2v-6.02h2zm0-10.03h-2v-6h2zm0-10.02h-2v-6.02h2zm0-10.03h-2v-6h2zm0-10.02h-2v-6.02h2zm0-10.03h-2v-6.02h2zm0-10.03h-2v-6h2zm0-10.02h-2v-6.02h2zm0-10.03h-2v-6h2zm0-10.02h-2v-6.02h2zm0-10.03h-2v-6h2zm0-10.02h-2v-6.02h2zm0-10.03h-2v-6.02h2zm0-10.03h-2v-6h2zm0-10.02h-2v-6.02h2zm0-10.03h-2v-6.02h2zm0-10.03h-2v-6.02h2zm0-10.03h-2v-6.02h2zm0-10.03h-2v-6h2zm0-10h-2v-6.03h2zm0-10.04h-2v-6h2zm0-10.02h-2v-6.02h2zm0-10.03h-2v-6h2zm0-10h-2v-6.03h2zm0-10.04h-2v-6.02h2zm0-10.03h-2V592h2zm0-25.03h-2v-1.03h2zm0-5.04h-2v-6.02h2zm0-10.03h-2v-6.02h2zm0-10.03h-2v-6h2zm0-10.02h-2v-6.02h2zm0-10.03h-2v-6h2zm0-10.02h-2v-6.02h2zm0-10.03h-2v-6h2zm0-10.02h-2v-6.02h2zm0-10.03h-2v-6.02h2zm0-10.03h-2v-6h2zm0-10.02h-2v-6.02h2zm0-10.03h-2v-6h2zm0-10.02h-2v-6.02h2zm0-10.03h-2v-6.02h2zm0-10.03h-2v-6.02h2zm0-10.03h-2v-6.02h2zm0-10.03h-2v-6h2zm0-10.02h-2v-6.02h2zm0-10.03h-2v-6.02h2zm0-10.03h-2v-6.02h2zm0-10.03h-2v-6.02h2zm0-10.03h-2v-6h2zm0-10h-2v-6.03h2zm0-10.04h-2v-6h2zm0-10.02h-2v-6.02h2zm0-10.03h-2v-6h2zm0-10.02h-2v-6h2zm0-10.02h-2v-6.02h2zm0-10.03h-2v-6h2zm0-10.02h-2v-6h2zm0-10.02h-2v-6h2zm0-10.02h-2v-6.02h2zm0-10.03h-2v-6.02h2zm0-10.03h-2v-6h2zm0-10.02h-2v-6.02h2zm0-10.03h-2v-6h2zm0-10.02h-2V196h2zm0-10.03h-2v-6.02h2zm0-10.03h-2v-6h2zm0-10.02h-2v-6.02h2zm0-10.03h-2v-6h2zm0-10.02h-2v-6.02h2zm0-10.03h-2v-6h2zm0-10.02h-2v-6.02h2zm0-10.03h-2v-6.02h2zm0-10.03h-2v-6.02h2zm0-10.03h-2v-6.02h2zm0-10.03h-2v-6h2zm0-10.02h-2V75.7h2zm0-10.03h-2v-6.03h2zm0-10.04h-2v-6h2zm0-10.02h-2v-6.02h2zm0-10.03h-2v-6h2zm0-10h-2v-6.03h2zm0-10.04h-2v-6h2zm0-10.02h-2V5.52h2zm0-10.03h-2v-3h2z" stroke="#5e5e5e" stroke-width=".05" fill="#5e5e5e"/><path d="M2620 1176.76l-4.64-14.26h9.28z" fill="#5e5e5e"/><path d="M2620 1180l-6-18.5h12zm-3.26-16.5l3.26 10.03 3.26-10.03z" stroke="#5e5e5e" stroke-width=".05" fill="#5e5e5e"/><path d="M2624.64-2.5h-9.28l4.64-14.26z" fill="#5e5e5e"/><path d="M2626-1.5h-12l6-18.5zm-9.26-2h6.52L2620-13.53z" stroke="#5e5e5e" stroke-width=".05" fill="#5e5e5e"/><use xlink:href="#l" transform="matrix(1,0,0,1,2587.277777777778,568) translate(0.005000000000002558 16)"/><path d="M2691.3-59h-3.03v-2h3.02zm10.07 0h-6.05v-2h6.05zm10.07 0h-6.04v-2h6.04zm10.08 0h-6.05v-2h6.05zm10.07 0h-6.05v-2h6.04zm10.07 0h-6.05v-2h6.05zm10.07 0h-6.04v-2h6.04zm10.08 0h-6.05v-2h6.05zm10.07 0h-6.05v-2h6.04zm10.07 0h-6.05v-2h6.05zm10.07 0H2786v-2h6.04zm10.08 0h-6.05v-2h6.05zm10.07 0h-6.05v-2h6.04zm10.07 0h-6.05v-2h6.05zm10.07 0h-6.04v-2h6.04zm10.08 0h-6.05v-2h6.05zm10.07 0h-6.05v-2h6.04zm10.07 0h-6.05v-2h6.05zm60.45 0h-6.05v-2h6.05zm10.07 0h-6.05v-2h6.04zm10.07 0h-6.05v-2h6.05zm10.07 0h-6.04v-2h6.04zm10.08 0h-6.05v-2h6.05zm10.07 0h-6.05v-2h6.04zm10.07 0h-6.05v-2h6.05zm10.07 0h-6.04v-2h6.04zm10.08 0h-6.05v-2h6.05zm10.07 0h-6.05v-2h6.04zm10.06 0h-6.04v-2h6.04zm10.08 0h-6.05v-2h6.04zm10.07 0h-6.03v-2h6.04zm10.1 0h-6.06v-2h6.05zm10.06 0h-6.04v-2h6.04zm10.08 0h-6.05v-2h6.04zm10.07 0h-6.03v-2h6.04zm7.07 0h-3.03v-2h3.03z" stroke="#5e5e5e" stroke-width=".05" fill="#5e5e5e"/><path d="M2687.27-55.36L2673-60l14.27-4.64z" fill="#5e5e5e"/><path d="M2688.27-54l-18.5-6 18.5-6zm-12.03-6l10.03 3.26v-6.52z" stroke="#5e5e5e" stroke-width=".05" fill="#5e5e5e"/><path d="M3106.53-60l-14.26 4.64v-9.28z" fill="#5e5e5e"/><path d="M3109.77-60l-18.5 6v-12zm-16.5 3.26L3103.3-60l-10.03-3.26z" stroke="#5e5e5e" stroke-width=".05" fill="#5e5e5e"/><use xlink:href="#w" transform="matrix(1,0,0,1,2863.685409073036,-72) translate(0.004999999999999005 16)"/><path d="M901.52 521h-3.02v-2h3.02zm10.08 0h-6.04v-2h6.04zm10.08 0h-6.05v-2h6.05zm10.07 0h-6.04v-2h6.05zm10.08 0h-6.05v-2h6.05zm10.08 0h-6.04v-2h6.05zm10.08 0h-6.04v-2h6.04zm10.08 0H966v-2h6.06zm10.08 0h-6.05v-2h6.04zm10.07 0h-6.03v-2h6.04zm10.1 0h-6.06v-2h6.05zm10.06 0h-6.04v-2h6.04zm10.08 0h-6.04v-2h6.04zm10.08 0h-6.05v-2h6.05zm10.07 0h-6.05v-2h6.04zm10.07 0h-6.05v-2h6.05zm10.08 0h-6.05v-2h6.05zm10.07 0h-6.04v-2h6.04zm10.08 0h-6.05v-2h6.05zm10.08 0h-6.05v-2h6.05zm10.07 0H1097v-2h6.05zm10.08 0h-6.05v-2h6.05zm10.07 0h-6.04v-2h6.04zm10.08 0h-6.04v-2h6.04zm60.46 0h-6.05v-2h6.04zm10.08 0h-6.05v-2h6.05zm10.07 0h-6.05v-2h6.04zm10.07 0h-6.05v-2h6.05zm10.07 0H1228v-2h6.04zm10.08 0h-6.04v-2h6.04zm10.08 0h-6.05v-2h6.05zm10.07 0h-6.04v-2h6.04zm10.08 0h-6.05v-2h6.05zm10.08 0h-6.05v-2h6.05zm10.07 0h-6.04v-2h6.04zm10.08 0h-6.05v-2h6.05zm10.08 0h-6.05v-2h6.06zm10.07 0h-6.04v-2h6.03zm10.08 0h-6.04v-2h6.05zm10.08 0h-6.04v-2h6.04zm10.08 0h-6.04v-2h6.04zm10.08 0H1359v-2h6.04zm10.07 0h-6.03v-2h6.04zm10.1 0h-6.06v-2h6.05zm10.07 0h-6.05v-2h6.05zm10.07 0h-6.04v-2h6.04zm10.08 0h-6.05v-2h6.05zm7.05 0h-3.02v-2h3.02z" stroke="#5e5e5e" stroke-width=".05" fill="#5e5e5e"/><path d="M897.5 524.64L883.24 520l14.26-4.64z" fill="#5e5e5e"/><path d="M898.5 526l-18.5-6 18.5-6zm-12.03-6l10.03 3.26v-6.52z" stroke="#5e5e5e" stroke-width=".05" fill="#5e5e5e"/><path d="M1437.74 520l-14.27 4.64v-9.28z" fill="#5e5e5e"/><path d="M1440.97 520l-18.5 6v-12zm-16.5 3.26l10.03-3.26-10.03-3.26z" stroke="#5e5e5e" stroke-width=".05" fill="#5e5e5e"/><g><use xlink:href="#w" transform="matrix(1,0,0,1,1134.403962492438,508) translate(0.004999999999999005 16)"/></g><path d="M341.47 521h-2.97v-2h2.97zm9.9 0h-5.93v-2h5.94zm9.9 0h-5.93v-2h5.94zm9.92 0h-5.95v-2h5.94zm9.9 0h-5.95v-2h5.95zm9.9 0h-5.94v-2H391zm9.9 0h-5.94v-2h5.95zm9.9 0h-5.93v-2h5.94zm9.92 0h-5.95v-2h5.95zm9.9 0h-5.94v-2h5.94zm9.9 0h-5.94v-2h5.95zm9.9 0h-5.93v-2h5.93zm9.92 0h-5.94v-2h5.94zm9.9 0h-5.94v-2h5.94zm9.9 0h-5.93v-2h5.95zm9.9 0h-5.93v-2h5.95zm108.97 0h-5.93v-2H599zm9.92 0h-5.94v-2h5.94zm9.9 0h-5.94v-2h5.94zm9.9 0h-5.93v-2h5.93zm9.92 0h-5.95v-2h5.94zm9.9 0h-5.94v-2h5.94zm9.9 0h-5.94v-2h5.95zm9.9 0h-5.93v-2h5.95zm9.92 0h-5.95v-2h5.96zm9.9 0h-5.94v-2h5.94zm9.9 0h-5.94v-2h5.95zm9.9 0h-5.93v-2h5.94zm9.92 0h-5.94v-2h5.94zm9.9 0h-5.94v-2h5.94zm9.9 0h-5.93v-2h5.94zm6.94 0h-2.97v-2h2.97z" stroke="#5e5e5e" stroke-width=".05" fill="#5e5e5e"/><path d="M337.5 524.64L323.24 520l14.26-4.64z" fill="#5e5e5e"/><path d="M338.5 526l-18.5-6 18.5-6zm-12.03-6l10.03 3.26v-6.52z" stroke="#5e5e5e" stroke-width=".05" fill="#5e5e5e"/><path d="M759.9 520l-14.28 4.64v-9.28z" fill="#5e5e5e"/><path d="M763.12 520l-18.5 6v-12zm-16.5 3.26l10.03-3.26-10.03-3.26z" stroke="#5e5e5e" stroke-width=".05" fill="#5e5e5e"/><g><use xlink:href="#x" transform="matrix(1,0,0,1,492.75694444444446,508) translate(0.005000000000002558 16)"/></g><defs><path fill="#333" d="M24 0v-248h52v208h133V0H24" id="y"/><path fill="#333" d="M133-34C117-15 103 5 69 4 32 3 11-16 11-54c-1-60 55-63 116-61 1-26-3-47-28-47-18 1-26 9-28 27l-52-2c7-38 36-58 82-57s74 22 75 68l1 82c-1 14 12 18 25 15v27c-30 8-71 5-69-32zm-48 3c29 0 43-24 42-57-32 0-66-3-65 30 0 17 8 27 23 27" id="z"/><path fill="#333" d="M123 10C108 53 80 86 19 72V37c35 8 53-11 59-39L3-190h52l48 148c12-52 28-100 44-148h51" id="A"/><path fill="#333" d="M185-48c-13 30-37 53-82 52C43 2 14-33 14-96s30-98 90-98c62 0 83 45 84 108H66c0 31 8 55 39 56 18 0 30-7 34-22zm-45-69c5-46-57-63-70-21-2 6-4 13-4 21h74" id="B"/><path fill="#333" d="M135-150c-39-12-60 13-60 57V0H25l-1-190h47c2 13-1 29 3 40 6-28 27-53 61-41v41" id="C"/><path fill="#333" d="M-4 44V30h207v14H-4" id="D"/><path fill="#333" d="M25-224v-37h50v37H25zM25 0v-190h50V0H25" id="E"/><g id="a"><use transform="matrix(0.05555555555555555,0,0,0.05555555555555555,0,0)" xlink:href="#y"/><use transform="matrix(0.05555555555555555,0,0,0.05555555555555555,12.166666666666666,0)" xlink:href="#z"/><use transform="matrix(0.05555555555555555,0,0,0.05555555555555555,23.27777777777778,0)" xlink:href="#A"/><use transform="matrix(0.05555555555555555,0,0,0.05555555555555555,34.388888888888886,0)" xlink:href="#B"/><use transform="matrix(0.05555555555555555,0,0,0.05555555555555555,45.5,0)" xlink:href="#C"/><use transform="matrix(0.05555555555555555,0,0,0.05555555555555555,53.27777777777778,0)" xlink:href="#D"/><use transform="matrix(0.05555555555555555,0,0,0.05555555555555555,64.38888888888889,0)" xlink:href="#E"/></g><path fill="#333" d="M137-138c1-29-70-34-71-4 15 46 118 7 119 86 1 83-164 76-172 9l43-7c4 19 20 25 44 25 33 8 57-30 24-41C81-84 22-81 20-136c-2-80 154-74 161-7" id="F"/><path fill="#333" d="M110-194c64 0 96 36 96 99 0 64-35 99-97 99-61 0-95-36-95-99 0-62 34-99 96-99zm-1 164c35 0 45-28 45-65 0-40-10-65-43-65-34 0-45 26-45 65 0 36 10 65 43 65" id="G"/><path fill="#333" d="M25 0v-261h50V0H25" id="H"/><path fill="#333" d="M85 4C-2 5 27-109 22-190h50c7 57-23 150 33 157 60-5 35-97 40-157h50l1 190h-47c-2-12 1-28-3-38-12 25-28 42-61 42" id="I"/><path fill="#333" d="M115-3C79 11 28 4 28-45v-112H4v-33h27l15-45h31v45h36v33H77v99c-1 23 16 31 38 25v30" id="J"/><path fill="#333" d="M135-194c87-1 58 113 63 194h-50c-7-57 23-157-34-157-59 0-34 97-39 157H25l-1-190h47c2 12-1 28 3 38 12-26 28-41 61-42" id="K"/><g id="b"><use transform="matrix(0.055555555555555546,0,0,0.055555555555555546,0,0)" xlink:href="#C"/><use transform="matrix(0.055555555555555546,0,0,0.055555555555555546,7.777777777777777,0)" xlink:href="#B"/><use transform="matrix(0.055555555555555546,0,0,0.055555555555555546,18.888888888888886,0)" xlink:href="#F"/><use transform="matrix(0.055555555555555546,0,0,0.055555555555555546,29.999999999999993,0)" xlink:href="#G"/><use transform="matrix(0.055555555555555546,0,0,0.055555555555555546,42.16666666666666,0)" xlink:href="#H"/><use transform="matrix(0.055555555555555546,0,0,0.055555555555555546,47.722222222222214,0)" xlink:href="#I"/><use transform="matrix(0.055555555555555546,0,0,0.055555555555555546,59.88888888888888,0)" xlink:href="#J"/><use transform="matrix(0.055555555555555546,0,0,0.055555555555555546,66.49999999999999,0)" xlink:href="#E"/><use transform="matrix(0.055555555555555546,0,0,0.055555555555555546,72.05555555555554,0)" xlink:href="#G"/><use transform="matrix(0.055555555555555546,0,0,0.055555555555555546,84.2222222222222,0)" xlink:href="#K"/></g><path fill="#333" d="M186 0v-106H76V0H24v-248h52v99h110v-99h50V0h-50" id="L"/><path fill="#333" d="M144 0l-44-69L55 0H2l70-98-66-92h53l41 62 40-62h54l-67 91 71 99h-54" id="M"/><path fill="#333" d="M275 0h-61l-44-196L126 0H64L0-248h53L97-49l45-199h58l43 199 44-199h52" id="N"/><g id="c"><use transform="matrix(0.055555555555555546,0,0,0.055555555555555546,0,0)" xlink:href="#L"/><use transform="matrix(0.055555555555555546,0,0,0.055555555555555546,14.388888888888886,0)" xlink:href="#M"/><use transform="matrix(0.055555555555555546,0,0,0.055555555555555546,25.499999999999993,0)" xlink:href="#N"/></g><path fill="#333" d="M102-93c0 74-22 123-52 168H0C30 29 54-18 53-93c0-74-22-123-53-168h50c30 45 52 94 52 168" id="O"/><g id="d"><use transform="matrix(0.05555555555555554,0,0,0.05555555555555554,0,0)" xlink:href="#z"/><use transform="matrix(0.05555555555555554,0,0,0.05555555555555554,11.111111111111107,0)" xlink:href="#O"/></g><path fill="#333" d="M135-194c52 0 70 43 70 98 0 56-19 99-73 100-30 1-46-15-58-35L72 0H24l1-261h50v104c11-23 29-37 60-37zM114-30c31 0 40-27 40-66 0-37-7-63-39-63s-41 28-41 65c0 36 8 64 40 64" id="P"/><g id="e"><use transform="matrix(0.05555555555555554,0,0,0.05555555555555554,0,0)" xlink:href="#P"/><use transform="matrix(0.05555555555555554,0,0,0.05555555555555554,12.166666666666663,0)" xlink:href="#z"/><use transform="matrix(0.05555555555555554,0,0,0.05555555555555554,23.27777777777777,0)" xlink:href="#F"/><use transform="matrix(0.05555555555555554,0,0,0.05555555555555554,34.38888888888888,0)" xlink:href="#B"/><use transform="matrix(0.05555555555555554,0,0,0.05555555555555554,45.499999999999986,0)" xlink:href="#H"/><use transform="matrix(0.05555555555555554,0,0,0.05555555555555554,51.05555555555554,0)" xlink:href="#E"/><use transform="matrix(0.05555555555555554,0,0,0.05555555555555554,56.6111111111111,0)" xlink:href="#K"/><use transform="matrix(0.05555555555555554,0,0,0.05555555555555554,68.77777777777776,0)" xlink:href="#B"/></g><g id="f"><use transform="matrix(0.05555555555555555,0,0,0.05555555555555555,0,0)" xlink:href="#P"/><use transform="matrix(0.05555555555555555,0,0,0.05555555555555555,12.166666666666666,0)" xlink:href="#O"/></g><path fill="#333" d="M231 0h-52l-39-155L100 0H48L-1-190h46L77-45c9-52 24-97 36-145h53l37 145 32-145h46" id="Q"/><path fill="#333" d="M88-194c31-1 46 15 58 34l-1-101h50l1 261h-48c-2-10 0-23-3-31C134-8 116 4 84 4 32 4 16-41 15-95c0-56 19-97 73-99zm17 164c33 0 40-30 41-66 1-37-9-64-41-64s-38 30-39 65c0 43 13 65 39 65" id="R"/><path fill="#333" d="M114-157C55-157 80-60 75 0H25v-261h50l-1 109c12-26 28-41 61-42 86-1 58 113 63 194h-50c-7-57 23-157-34-157" id="S"/><g id="g"><use transform="matrix(0.05555555555555555,0,0,0.05555555555555555,0,0)" xlink:href="#Q"/><use transform="matrix(0.05555555555555555,0,0,0.05555555555555555,15.555555555555555,0)" xlink:href="#E"/><use transform="matrix(0.05555555555555555,0,0,0.05555555555555555,21.11111111111111,0)" xlink:href="#R"/><use transform="matrix(0.05555555555555555,0,0,0.05555555555555555,33.27777777777778,0)" xlink:href="#J"/><use transform="matrix(0.05555555555555555,0,0,0.05555555555555555,39.888888888888886,0)" xlink:href="#S"/></g><path fill="#333" d="M190-63c-7 42-38 67-86 67-59 0-84-38-90-98-12-110 154-137 174-36l-49 2c-2-19-15-32-35-32-30 0-35 28-38 64-6 74 65 87 74 30" id="T"/><path fill="#333" d="M195-6C206 82 75 100 31 46c-4-6-6-13-8-21l49-6c3 16 16 24 34 25 40 0 42-37 40-79-11 22-30 35-61 35-53 0-70-43-70-97 0-56 18-96 73-97 30 0 46 14 59 34l2-30h47zm-90-29c32 0 41-27 41-63 0-35-9-62-40-62-32 0-39 29-40 63 0 36 9 62 39 62" id="U"/><g id="h"><use transform="matrix(0.05555555555555555,0,0,0.05555555555555555,0,0)" xlink:href="#F"/><use transform="matrix(0.05555555555555555,0,0,0.05555555555555555,11.11111111111111,0)" xlink:href="#T"/><use transform="matrix(0.05555555555555555,0,0,0.05555555555555555,22.22222222222222,0)" xlink:href="#z"/><use transform="matrix(0.05555555555555555,0,0,0.05555555555555555,33.33333333333333,0)" xlink:href="#H"/><use transform="matrix(0.05555555555555555,0,0,0.05555555555555555,38.888888888888886,0)" xlink:href="#E"/><use transform="matrix(0.05555555555555555,0,0,0.05555555555555555,44.44444444444444,0)" xlink:href="#K"/><use transform="matrix(0.05555555555555555,0,0,0.05555555555555555,56.61111111111111,0)" xlink:href="#U"/></g><g id="i"><use transform="matrix(0.055555555555555546,0,0,0.055555555555555546,0,0)" xlink:href="#T"/><use transform="matrix(0.055555555555555546,0,0,0.055555555555555546,11.111111111111109,0)" xlink:href="#O"/></g><path fill="#333" d="M135-194c53 0 70 44 70 98 0 56-19 98-73 100-31 1-45-17-59-34 3 33 2 69 2 105H25l-1-265h48c2 10 0 23 3 31 11-24 29-35 60-35zM114-30c33 0 39-31 40-66 0-38-9-64-40-64-56 0-55 130 0 130" id="V"/><g id="j"><use transform="matrix(0.055555555555555546,0,0,0.055555555555555546,0,0)" xlink:href="#R"/><use transform="matrix(0.055555555555555546,0,0,0.055555555555555546,12.166666666666664,0)" xlink:href="#B"/><use transform="matrix(0.055555555555555546,0,0,0.055555555555555546,23.27777777777777,0)" xlink:href="#V"/><use transform="matrix(0.055555555555555546,0,0,0.055555555555555546,35.444444444444436,0)" xlink:href="#J"/><use transform="matrix(0.055555555555555546,0,0,0.055555555555555546,42.05555555555554,0)" xlink:href="#S"/></g><g id="k"><use transform="matrix(0.055555555555555546,0,0,0.055555555555555546,0,0)" xlink:href="#F"/><use transform="matrix(0.055555555555555546,0,0,0.055555555555555546,11.111111111111109,0)" xlink:href="#T"/><use transform="matrix(0.055555555555555546,0,0,0.055555555555555546,22.222222222222218,0)" xlink:href="#z"/><use transform="matrix(0.055555555555555546,0,0,0.055555555555555546,33.33333333333333,0)" xlink:href="#H"/><use transform="matrix(0.055555555555555546,0,0,0.055555555555555546,38.888888888888886,0)" xlink:href="#E"/><use transform="matrix(0.055555555555555546,0,0,0.055555555555555546,44.44444444444444,0)" xlink:href="#K"/><use transform="matrix(0.055555555555555546,0,0,0.055555555555555546,56.61111111111111,0)" xlink:href="#U"/></g><g id="l"><use transform="matrix(0.05555555555555555,0,0,0.05555555555555555,0,0)" xlink:href="#R"/><use transform="matrix(0.05555555555555555,0,0,0.05555555555555555,12.166666666666666,0)" xlink:href="#B"/><use transform="matrix(0.05555555555555555,0,0,0.05555555555555555,23.27777777777778,0)" xlink:href="#B"/><use transform="matrix(0.05555555555555555,0,0,0.05555555555555555,34.388888888888886,0)" xlink:href="#V"/><use transform="matrix(0.05555555555555555,0,0,0.05555555555555555,46.55555555555555,0)" xlink:href="#B"/><use transform="matrix(0.05555555555555555,0,0,0.05555555555555555,57.666666666666664,0)" xlink:href="#C"/></g><g id="m"><use transform="matrix(0.049382716049382706,0,0,0.049382716049382706,0,0)" xlink:href="#R"/><use transform="matrix(0.049382716049382706,0,0,0.049382716049382706,10.814814814814813,0)" xlink:href="#O"/></g><g id="n"><use transform="matrix(0.049382716049382706,0,0,0.049382716049382706,0,0)" xlink:href="#C"/><use transform="matrix(0.049382716049382706,0,0,0.049382716049382706,6.913580246913579,0)" xlink:href="#B"/><use transform="matrix(0.049382716049382706,0,0,0.049382716049382706,16.79012345679012,0)" xlink:href="#F"/><use transform="matrix(0.049382716049382706,0,0,0.049382716049382706,26.66666666666666,0)" xlink:href="#G"/><use transform="matrix(0.049382716049382706,0,0,0.049382716049382706,37.481481481481474,0)" xlink:href="#H"/><use transform="matrix(0.049382716049382706,0,0,0.049382716049382706,42.419753086419746,0)" xlink:href="#I"/><use transform="matrix(0.049382716049382706,0,0,0.049382716049382706,53.234567901234556,0)" xlink:href="#J"/><use transform="matrix(0.049382716049382706,0,0,0.049382716049382706,59.1111111111111,0)" xlink:href="#E"/><use transform="matrix(0.049382716049382706,0,0,0.049382716049382706,64.04938271604937,0)" xlink:href="#G"/><use transform="matrix(0.049382716049382706,0,0,0.049382716049382706,74.86419753086417,0)" xlink:href="#K"/></g><g id="o"><use transform="matrix(0.049382716049382706,0,0,0.049382716049382706,0,0)" xlink:href="#F"/><use transform="matrix(0.049382716049382706,0,0,0.049382716049382706,9.87654320987654,0)" xlink:href="#T"/><use transform="matrix(0.049382716049382706,0,0,0.049382716049382706,19.75308641975308,0)" xlink:href="#z"/><use transform="matrix(0.049382716049382706,0,0,0.049382716049382706,29.629629629629623,0)" xlink:href="#H"/><use transform="matrix(0.049382716049382706,0,0,0.049382716049382706,34.56790123456789,0)" xlink:href="#E"/><use transform="matrix(0.049382716049382706,0,0,0.049382716049382706,39.50617283950616,0)" xlink:href="#K"/><use transform="matrix(0.049382716049382706,0,0,0.049382716049382706,50.32098765432097,0)" xlink:href="#U"/></g><g id="p"><use transform="matrix(0.05555555555555554,0,0,0.05555555555555554,0,0)" xlink:href="#L"/><use transform="matrix(0.05555555555555554,0,0,0.05555555555555554,14.388888888888884,0)" xlink:href="#E"/><use transform="matrix(0.05555555555555554,0,0,0.05555555555555554,19.944444444444436,0)" xlink:href="#U"/><use transform="matrix(0.05555555555555554,0,0,0.05555555555555554,32.1111111111111,0)" xlink:href="#S"/><use transform="matrix(0.05555555555555554,0,0,0.05555555555555554,44.277777777777764,0)" xlink:href="#B"/><use transform="matrix(0.05555555555555554,0,0,0.05555555555555554,55.38888888888887,0)" xlink:href="#C"/></g><g id="q"><use transform="matrix(0.05555555555555554,0,0,0.05555555555555554,0,0)" xlink:href="#C"/><use transform="matrix(0.05555555555555554,0,0,0.05555555555555554,7.777777777777775,0)" xlink:href="#B"/><use transform="matrix(0.05555555555555554,0,0,0.05555555555555554,18.888888888888882,0)" xlink:href="#F"/><use transform="matrix(0.05555555555555554,0,0,0.05555555555555554,29.99999999999999,0)" xlink:href="#G"/><use transform="matrix(0.05555555555555554,0,0,0.05555555555555554,42.16666666666665,0)" xlink:href="#H"/><use transform="matrix(0.05555555555555554,0,0,0.05555555555555554,47.7222222222222,0)" xlink:href="#I"/><use transform="matrix(0.05555555555555554,0,0,0.05555555555555554,59.88888888888887,0)" xlink:href="#J"/><use transform="matrix(0.05555555555555554,0,0,0.05555555555555554,66.49999999999997,0)" xlink:href="#E"/><use transform="matrix(0.05555555555555554,0,0,0.05555555555555554,72.05555555555553,0)" xlink:href="#G"/><use transform="matrix(0.05555555555555554,0,0,0.05555555555555554,84.22222222222219,0)" xlink:href="#K"/></g><g id="r"><use transform="matrix(0.055555555555555546,0,0,0.055555555555555546,0,0)" xlink:href="#S"/><use transform="matrix(0.055555555555555546,0,0,0.055555555555555546,12.166666666666664,0)" xlink:href="#E"/><use transform="matrix(0.055555555555555546,0,0,0.055555555555555546,17.722222222222218,0)" xlink:href="#U"/><use transform="matrix(0.055555555555555546,0,0,0.055555555555555546,29.888888888888882,0)" xlink:href="#S"/><use transform="matrix(0.055555555555555546,0,0,0.055555555555555546,42.05555555555554,0)" xlink:href="#B"/><use transform="matrix(0.055555555555555546,0,0,0.055555555555555546,53.16666666666665,0)" xlink:href="#C"/></g><g id="s"><use transform="matrix(0.055555555555555546,0,0,0.055555555555555546,0,0)" xlink:href="#C"/><use transform="matrix(0.055555555555555546,0,0,0.055555555555555546,7.777777777777777,0)" xlink:href="#B"/><use transform="matrix(0.055555555555555546,0,0,0.055555555555555546,18.888888888888886,0)" xlink:href="#F"/><use transform="matrix(0.055555555555555546,0,0,0.055555555555555546,29.999999999999993,0)" xlink:href="#G"/><use transform="matrix(0.055555555555555546,0,0,0.055555555555555546,42.16666666666666,0)" xlink:href="#H"/><use transform="matrix(0.055555555555555546,0,0,0.055555555555555546,47.722222222222214,0)" xlink:href="#I"/><use transform="matrix(0.055555555555555546,0,0,0.055555555555555546,59.88888888888888,0)" xlink:href="#J"/><use transform="matrix(0.055555555555555546,0,0,0.055555555555555546,66.49999999999999,0)" xlink:href="#E"/><use transform="matrix(0.055555555555555546,0,0,0.055555555555555546,72.05555555555554,0)" xlink:href="#G"/><use transform="matrix(0.055555555555555546,0,0,0.055555555555555546,84.2222222222222,0)" xlink:href="#K"/></g><g id="t"><use transform="matrix(0.055555555555555546,0,0,0.055555555555555546,0,0)" xlink:href="#B"/><use transform="matrix(0.055555555555555546,0,0,0.055555555555555546,11.111111111111109,0)" xlink:href="#O"/></g><path fill="#333" d="M220-157c-53 9-28 100-34 157h-49v-107c1-27-5-49-29-50C55-147 81-57 75 0H25l-1-190h47c2 12-1 28 3 38 10-53 101-56 108 0 13-22 24-43 59-42 82 1 51 116 57 194h-49v-107c-1-25-5-48-29-50" id="W"/><g id="u"><use transform="matrix(0.055555555555555546,0,0,0.055555555555555546,0,0)" xlink:href="#T"/><use transform="matrix(0.055555555555555546,0,0,0.055555555555555546,11.111111111111109,0)" xlink:href="#G"/><use transform="matrix(0.055555555555555546,0,0,0.055555555555555546,23.27777777777777,0)" xlink:href="#W"/><use transform="matrix(0.055555555555555546,0,0,0.055555555555555546,41.05555555555554,0)" xlink:href="#V"/><use transform="matrix(0.055555555555555546,0,0,0.055555555555555546,53.22222222222221,0)" xlink:href="#G"/><use transform="matrix(0.055555555555555546,0,0,0.055555555555555546,65.38888888888887,0)" xlink:href="#I"/><use transform="matrix(0.055555555555555546,0,0,0.055555555555555546,77.55555555555554,0)" xlink:href="#K"/><use transform="matrix(0.055555555555555546,0,0,0.055555555555555546,89.7222222222222,0)" xlink:href="#R"/></g><g id="v"><use transform="matrix(0.055555555555555546,0,0,0.055555555555555546,0,0)" xlink:href="#F"/><use transform="matrix(0.055555555555555546,0,0,0.055555555555555546,11.111111111111109,0)" xlink:href="#T"/><use transform="matrix(0.055555555555555546,0,0,0.055555555555555546,22.222222222222218,0)" xlink:href="#G"/><use transform="matrix(0.055555555555555546,0,0,0.055555555555555546,34.388888888888886,0)" xlink:href="#H"/><use transform="matrix(0.055555555555555546,0,0,0.055555555555555546,39.94444444444444,0)" xlink:href="#E"/><use transform="matrix(0.055555555555555546,0,0,0.055555555555555546,45.5,0)" xlink:href="#K"/><use transform="matrix(0.055555555555555546,0,0,0.055555555555555546,57.66666666666667,0)" xlink:href="#U"/></g><g id="w"><use transform="matrix(0.05555555555555555,0,0,0.05555555555555555,0,0)" xlink:href="#Q"/><use transform="matrix(0.05555555555555555,0,0,0.05555555555555555,15.555555555555555,0)" xlink:href="#E"/><use transform="matrix(0.05555555555555555,0,0,0.05555555555555555,21.11111111111111,0)" xlink:href="#R"/><use transform="matrix(0.05555555555555555,0,0,0.05555555555555555,33.27777777777778,0)" xlink:href="#B"/><use transform="matrix(0.05555555555555555,0,0,0.05555555555555555,44.388888888888886,0)" xlink:href="#C"/></g><path fill="#333" d="M160-152l-12 59h37v26h-43L128 0h-28l14-67H60L46 0H20l13-67H6v-26h33l13-59H15v-26h42l15-67h27l-15 67h54l15-67h27l-14 67h28v26h-34zm-81 0L66-93h55l12-59H79" id="X"/><g id="x"><use transform="matrix(0.05555555555555555,0,0,0.05555555555555555,0,0)" xlink:href="#X"/><use transform="matrix(0.05555555555555555,0,0,0.05555555555555555,11.11111111111111,0)" xlink:href="#T"/><use transform="matrix(0.05555555555555555,0,0,0.05555555555555555,22.22222222222222,0)" xlink:href="#S"/><use transform="matrix(0.05555555555555555,0,0,0.05555555555555555,34.388888888888886,0)" xlink:href="#z"/><use transform="matrix(0.05555555555555555,0,0,0.05555555555555555,45.5,0)" xlink:href="#K"/><use transform="matrix(0.05555555555555555,0,0,0.05555555555555555,57.666666666666664,0)" xlink:href="#K"/><use transform="matrix(0.05555555555555555,0,0,0.05555555555555555,69.83333333333333,0)" xlink:href="#B"/><use transform="matrix(0.05555555555555555,0,0,0.05555555555555555,80.94444444444444,0)" xlink:href="#H"/><use transform="matrix(0.05555555555555555,0,0,0.05555555555555555,86.5,0)" xlink:href="#F"/></g></defs></g></svg>