<svg xmlns="http://www.w3.org/2000/svg" xmlns:xlink="http://www.w3.org/1999/xlink" xmlns:lucid="lucid" width="2910" height="1428"><g transform="translate(-290 128)" lucid:page-tab-id="0_0"><path d="M323.13 566c0-3.3 2.68-6 6-6h428c3.3 0 6 2.7 6 6v8c0 3.3-2.7 6-6 6h-428c-3.32 0-6-2.7-6-6z" stroke="#5e5e5e" stroke-width="3" fill="#6db1ff"/><path d="M373.13 646c0-3.3 2.68-6 6-6h328c3.3 0 6 2.7 6 6v8c0 3.3-2.7 6-6 6h-328c-3.32 0-6-2.7-6-6z" stroke="#5e5e5e" stroke-width="3" fill="#b8f5ed"/><path d="M433.13 748c0-3.3 2.68-6 6-6h208c3.3 0 6 2.7 6 6v16c0 3.3-2.7 6-6 6h-208c-3.32 0-6-2.7-6-6z" stroke="#5e5e5e" stroke-width="3" fill="#fcfcca"/><path d="M473.13 866c0-3.3 2.68-6 6-6h128c3.3 0 6 2.7 6 6v28c0 3.3-2.7 6-6 6h-128c-3.32 0-6-2.7-6-6z" stroke="#5e5e5e" stroke-width="3" fill="#fff3d9"/><path d="M503.13 1006c0-3.3 2.68-6 6-6h68c3.3 0 6 2.7 6 6v48c0 3.3-2.7 6-6 6h-68c-3.32 0-6-2.7-6-6zM503.13 1066c0-3.3 2.68-6 6-6h68c3.3 0 6 2.7 6 6v48c0 3.3-2.7 6-6 6h-68c-3.32 0-6-2.7-6-6z" stroke="#5e5e5e" stroke-width="3" fill="#dedeff"/><path d="M473.13 906c0-3.3 2.68-6 6-6h128c3.3 0 6 2.7 6 6v28c0 3.3-2.7 6-6 6h-128c-3.32 0-6-2.7-6-6z" stroke="#5e5e5e" stroke-width="3" fill="#fff3d9"/><path d="M433.13 776c0-3.3 2.68-6 6-6h208c3.3 0 6 2.7 6 6v16c0 3.3-2.7 6-6 6h-208c-3.32 0-6-2.7-6-6z" stroke="#5e5e5e" stroke-width="3" fill="#fcfcca"/><path d="M373.13 666c0-3.3 2.68-6 6-6h328c3.3 0 6 2.7 6 6v8c0 3.3-2.7 6-6 6h-328c-3.32 0-6-2.7-6-6z" stroke="#5e5e5e" stroke-width="3" fill="#b8f5ed"/><path d="M543.13 997.5V960" stroke="#5e5e5e" stroke-width="2" fill="none"/><path d="M544.13 998.5h-2v-1.03h2z" stroke="#5e5e5e" stroke-width=".05" fill="#5e5e5e"/><path d="M543.13 944.74l4.63 14.26h-9.27z" stroke="#5e5e5e" stroke-width="2" fill="#5e5e5e"/><path d="M543.13 857.5V818" stroke="#5e5e5e" stroke-width="2" fill="none"/><path d="M544.13 858.5h-2v-1.03h2z" stroke="#5e5e5e" stroke-width=".05" fill="#5e5e5e"/><path d="M543.13 802.74l4.63 14.26h-9.27z" stroke="#5e5e5e" stroke-width="2" fill="#5e5e5e"/><path d="M543.13 739.5V700" stroke="#5e5e5e" stroke-width="2" fill="none"/><path d="M544.13 740.5h-2v-1.03h2z" stroke="#5e5e5e" stroke-width=".05" fill="#5e5e5e"/><path d="M543.13 684.74l4.63 14.26h-9.27z" stroke="#5e5e5e" stroke-width="2" fill="#5e5e5e"/><path d="M543.13 637.5V600" stroke="#5e5e5e" stroke-width="2" fill="none"/><path d="M544.13 638.5h-2v-1.03h2z" stroke="#5e5e5e" stroke-width=".05" fill="#5e5e5e"/><path d="M543.13 584.74l4.63 14.26h-9.27z" stroke="#5e5e5e" stroke-width="2" fill="#5e5e5e"/><path d="M636.1 921h-2.97v-2h2.97zm9.9 0h-5.94v-2H646zm9.9 0h-5.94v-2h5.94zm9.9 0h-5.94v-2h5.94zm9.9 0h-5.94v-2h5.94z" stroke="#5e5e5e" stroke-width=".05" fill="#5e5e5e"/><path d="M632.13 924.64L617.86 920l14.27-4.64z" fill="#5e5e5e"/><path d="M633.13 926l-18.5-6 18.5-6zm-12.03-6l10.03 3.26v-6.52z" stroke="#5e5e5e" stroke-width=".05" fill="#5e5e5e"/><path stroke="#5e5e5e" stroke-width=".05" fill="#5e5e5e"/><use xlink:href="#a" transform="matrix(1,0,0,1,675.8287037037037,904) translate(0.005000000000002558 21.333333333333332)"/><use xlink:href="#b" transform="matrix(1,0,0,1,675.8287037037037,904) translate(100.5235185185185 21.333333333333332)"/><path d="M593.13 1066c0-3.3 2.68-6 6-6h188c3.3 0 6 2.7 6 6v48c0 3.3-2.7 6-6 6h-188c-3.32 0-6-2.7-6-6z" fill="none"/><path d="M593.13 1120c5.52 0 10-4.48 10-10v-10c0-5.52 4.47-10 10-10-5.53 0-10-4.48-10-10v-10c0-5.52-4.48-10-10-10" stroke="#5e5e5e" stroke-width="3" fill="none"/><use xlink:href="#c" transform="matrix(1,0,0,1,628.125,1065) translate(11.333333333333357 21.33333333333333)"/><use xlink:href="#d" transform="matrix(1,0,0,1,628.125,1065) translate(50.44444444444445 53.33333333333332)"/><path d="M405.08 1186c0-3.3 2.68-6 6-6h264.1c3.3 0 6 2.7 6 6v28c0 3.3-2.7 6-6 6h-264.1c-3.32 0-6-2.7-6-6z" stroke="#000" stroke-opacity="0" stroke-width="3" fill="#fff" fill-opacity="0"/><use xlink:href="#e" transform="matrix(1,0,0,1,410.078125,1185) translate(29.27777777777783 23.270833333333325)"/><use xlink:href="#f" transform="matrix(1,0,0,1,410.078125,1185) translate(60.31481481481485 23.270833333333325)"/><use xlink:href="#g" transform="matrix(1,0,0,1,410.078125,1185) translate(138.61111111111111 23.270833333333325)"/><use xlink:href="#h" transform="matrix(1,0,0,1,410.078125,1185) translate(177.05555555555554 23.270833333333325)"/><path d="M885 563c0-3.3 2.7-6 6-6h543.97c3.32 0 6 2.7 6 6v10c0 3.3-2.68 6-6 6H891c-3.3 0-6-2.7-6-6z" stroke="#5e5e5e" stroke-width="3" fill="#6db1ff"/><path d="M940 646c0-3.3 2.7-6 6-6h428c3.3 0 6 2.7 6 6v10c0 3.3-2.7 6-6 6H946c-3.3 0-6-2.7-6-6z" stroke="#5e5e5e" stroke-width="3" fill="#c3f7c8"/><path d="M1000 751c0-3.3 2.7-6 6-6h313.97c3.32 0 6 2.7 6 6v10c0 3.3-2.68 6-6 6H1006c-3.3 0-6-2.7-6-6z" stroke="#5e5e5e" stroke-width="3" fill="#fff7a1"/><path d="M1067 864.3c0-3.3 2.7-6 6-6h174c3.3 0 6 2.7 6 6V894c0 3.3-2.7 6-6 6h-174c-3.3 0-6-2.7-6-6z" stroke="#5e5e5e" stroke-width="3" fill="#fff3d9"/><path d="M1105 1006c0-3.3 2.7-6 6-6h103.97c3.32 0 6 2.7 6 6v48c0 3.3-2.68 6-6 6H1111c-3.3 0-6-2.7-6-6zM1105 1066c0-3.3 2.7-6 6-6h103.97c3.32 0 6 2.7 6 6v48c0 3.3-2.68 6-6 6H1111c-3.3 0-6-2.7-6-6z" stroke="#5e5e5e" stroke-width="3" fill="#dedeff"/><path d="M1067 906c0-3.3 2.7-6 6-6h174c3.3 0 6 2.7 6 6v25c0 3.3-2.7 6-6 6h-174c-3.3 0-6-2.7-6-6z" stroke="#5e5e5e" stroke-width="3" fill="#fff3d9"/><path d="M940 668c0-3.3 2.7-6 6-6h428c3.3 0 6 2.7 6 6v10c0 3.3-2.7 6-6 6H946c-3.3 0-6-2.7-6-6z" stroke="#5e5e5e" stroke-width="3" fill="#c3f7c8"/><path d="M1000 773c0-3.3 2.7-6 6-6h313.97c3.32 0 6 2.7 6 6v10c0 3.3-2.68 6-6 6H1006c-3.3 0-6-2.7-6-6z" stroke="#5e5e5e" stroke-width="3" fill="#fff7a1"/><path d="M1160 637.5V599" stroke="#5e5e5e" stroke-width="2" fill="none"/><path d="M1161 638.5h-2v-1.03h2z" stroke="#5e5e5e" stroke-width=".05" fill="#5e5e5e"/><path d="M1160 583.74l4.64 14.26h-9.28z" stroke="#5e5e5e" stroke-width="2" fill="#5e5e5e"/><path d="M1163 742.5V704" stroke="#5e5e5e" stroke-width="2" fill="none"/><path d="M1164 743.5h-2v-1.03h2z" stroke="#5e5e5e" stroke-width=".05" fill="#5e5e5e"/><path d="M1163 688.74l4.62 14.26h-9.27z" stroke="#5e5e5e" stroke-width="2" fill="#5e5e5e"/><path d="M1160 855.8V809" stroke="#5e5e5e" stroke-width="2" fill="none"/><path d="M1161 856.8h-2v-1h2z" stroke="#5e5e5e" stroke-width=".05" fill="#5e5e5e"/><path d="M1160 793.74l4.64 14.26h-9.28z" stroke="#5e5e5e" stroke-width="2" fill="#5e5e5e"/><path d="M1163 997.5V957" stroke="#5e5e5e" stroke-width="2" fill="none"/><path d="M1164 998.5h-2v-1.03h2z" stroke="#5e5e5e" stroke-width=".05" fill="#5e5e5e"/><path d="M1163 941.74l4.62 14.26h-9.27z" stroke="#5e5e5e" stroke-width="2" fill="#5e5e5e"/><path d="M1422.8 121.53c0-3.32 2.7-6 6-6h428c3.32 0 6 2.68 6 6v8c0 3.3-2.68 6-6 6h-428c-3.3 0-6-2.7-6-6z" stroke="#5e5e5e" stroke-width="3" fill="#6db1ff"/><path d="M1472.8 201.53c0-3.32 2.7-6 6-6h328c3.32 0 6 2.68 6 6v8c0 3.3-2.68 6-6 6h-328c-3.3 0-6-2.7-6-6z" stroke="#5e5e5e" stroke-width="3" fill="#b8f5ed"/><path d="M1532.8 421.53c0-3.32 2.7-6 6-6h208c3.32 0 6 2.68 6 6v16c0 3.3-2.68 6-6 6h-208c-3.3 0-6-2.7-6-6z" stroke="#5e5e5e" stroke-width="3" fill="#fcfcca"/><path d="M1570 541.53c0-3.32 2.7-6 6-6h128c3.3 0 6 2.68 6 6v28c0 3.3-2.7 6-6 6h-128c-3.3 0-6-2.7-6-6z" stroke="#5e5e5e" stroke-width="3" fill="#fff3d9"/><path d="M1602.8 1008.73c0-3.3 2.7-6 6-6h68c3.32 0 6 2.7 6 6v48c0 3.3-2.68 6-6 6h-68c-3.3 0-6-2.7-6-6zM1602.8 1068.73c0-3.3 2.7-6 6-6h68c3.32 0 6 2.7 6 6v48c0 3.3-2.68 6-6 6h-68c-3.3 0-6-2.7-6-6z" stroke="#5e5e5e" stroke-width="3" fill="#dedeff"/><path d="M1570 581.53c0-3.32 2.7-6 6-6h128c3.3 0 6 2.68 6 6v28c0 3.3-2.7 6-6 6h-128c-3.3 0-6-2.7-6-6z" stroke="#5e5e5e" stroke-width="3" fill="#fff3d9"/><path d="M1532.8 449.53c0-3.32 2.7-6 6-6h208c3.32 0 6 2.68 6 6v16c0 3.3-2.68 6-6 6h-208c-3.3 0-6-2.7-6-6z" stroke="#5e5e5e" stroke-width="3" fill="#fcfcca"/><path d="M1472.8 221.53c0-3.32 2.7-6 6-6h328c3.32 0 6 2.68 6 6v8c0 3.3-2.68 6-6 6h-328c-3.3 0-6-2.7-6-6z" stroke="#5e5e5e" stroke-width="3" fill="#b8f5ed"/><path d="M1460 1174c0-3.3 2.7-6 6-6h355.2c3.3 0 6 2.7 6 6v94c0 3.3-2.7 6-6 6H1466c-3.3 0-6-2.7-6-6z" stroke="#000" stroke-opacity="0" stroke-width="3" fill="#fff" fill-opacity="0"/><use xlink:href="#i" transform="matrix(1,0,0,1,1465,1173) translate(33.03703703703707 36.33333333333333)"/><use xlink:href="#j" transform="matrix(1,0,0,1,1465,1173) translate(64.0740740740741 36.33333333333333)"/><use xlink:href="#k" transform="matrix(1,0,0,1,1465,1173) translate(130.66666666666669 36.33333333333333)"/><use xlink:href="#l" transform="matrix(1,0,0,1,1465,1173) translate(152.8888888888889 36.33333333333333)"/><use xlink:href="#m" transform="matrix(1,0,0,1,1465,1173) translate(264.2962962962963 36.33333333333333)"/><use xlink:href="#n" transform="matrix(1,0,0,1,1465,1173) translate(302.7407407407407 36.33333333333333)"/><use xlink:href="#o" transform="matrix(1,0,0,1,1465,1173) translate(108.14814814814817 68.33333333333331)"/><path d="M1643.6 1167v-20.5c0-.2-.18-.38-.4-.38-.2 0-.4-.18-.4-.4v-3" stroke="#5e5e5e" stroke-width="2" fill="none"/><path d="M1644.6 1168h-2v-1.03h2z" stroke="#5e5e5e" stroke-width=".05" fill="#5e5e5e"/><path d="M1642.8 1127.47l4.65 14.26h-9.27z" stroke="#5e5e5e" stroke-width="2" fill="#5e5e5e"/><path d="M1602.8 821.53c0-3.32 2.7-6 6-6h68c3.32 0 6 2.68 6 6v48c0 3.3-2.68 6-6 6h-68c-3.3 0-6-2.7-6-6zM1602.8 881.53c0-3.32 2.7-6 6-6h68c3.32 0 6 2.68 6 6v48c0 3.3-2.68 6-6 6h-68c-3.3 0-6-2.7-6-6z" stroke="#5e5e5e" stroke-width="3" fill="#dedeff"/><path d="M1642.8 1000.23v-44.7" stroke="#5e5e5e" stroke-width="2" fill="none"/><path d="M1643.8 1001.23h-2v-1.02h2z" stroke="#5e5e5e" stroke-width=".05" fill="#5e5e5e"/><path d="M1642.8 940.26l4.65 14.27h-9.27z" stroke="#5e5e5e" stroke-width="2" fill="#5e5e5e"/><path d="M1572.8 681.53c0-3.32 2.7-6 6-6h128c3.32 0 6 2.68 6 6v28c0 3.3-2.68 6-6 6h-128c-3.3 0-6-2.7-6-6zM1572.8 721.53c0-3.32 2.7-6 6-6h128c3.32 0 6 2.68 6 6v28c0 3.3-2.68 6-6 6h-128c-3.3 0-6-2.7-6-6z" stroke="#5e5e5e" stroke-width="3" fill="#fff3d9"/><path d="M1530 301.53c0-3.32 2.7-6 6-6h208c3.3 0 6 2.68 6 6v16c0 3.3-2.7 6-6 6h-208c-3.3 0-6-2.7-6-6zM1530 329.53c0-3.32 2.7-6 6-6h208c3.3 0 6 2.68 6 6v16c0 3.3-2.7 6-6 6h-208c-3.3 0-6-2.7-6-6z" stroke="#5e5e5e" stroke-width="3" fill="#fcfcca"/><path d="M1420 41.53c0-3.32 2.7-6 6-6h428c3.3 0 6 2.68 6 6v8c0 3.3-2.7 6-6 6h-428c-3.3 0-6-2.7-6-6z" stroke="#5e5e5e" stroke-width="3" fill="#6db1ff"/><path d="M1921 1161.5h-2v-3h2zm0-7.02h-2v-6.02h2zm0-10.03h-2v-6.02h2zm0-10.04h-2v-6h2zm0-10.02h-2v-6h2zm0-10.03h-2v-6.02h2zm0-10.03h-2v-6.02h2zm0-10.03h-2v-6.03h2zm0-10.04h-2v-6.02h2zm0-10.03h-2v-6.02h2zm0-10.03h-2v-6.02h2zm0-10.03h-2v-6.02h2zm0-10.03h-2v-6.02h2zm0-10.03h-2v-6h2zm0-10.02h-2v-6.02h2zm0-10.03h-2v-6.02h2zm0-10.04h-2v-6h2zm0-10.02h-2v-6h2zm0-10.03h-2v-6.02h2zm0-10.03h-2v-6.02h2zm0-10.03h-2v-6.03h2zm0-10.04h-2v-6.02h2zm0-10.03h-2v-6.02h2zm0-10.03h-2v-6.02h2zm0-10.03h-2v-6.02h2zm0-10.03h-2v-6.02h2zm0-10.03h-2v-6h2zm0-10.02h-2v-6.02h2zm0-10.04h-2v-6h2zm0-10.03h-2v-6h2zm0-10.02h-2v-6.02h2zm0-10.03h-2v-6.02h2zm0-10.03h-2v-6.02h2zm0-10.03h-2v-6.03h2zm0-10.04h-2v-6.02h2zm0-10.03h-2v-6.02h2zm0-10.03h-2v-6.02h2zm0-10.03h-2v-6.02h2zm0-10.03h-2v-6.02h2zm0-10.03h-2v-6h2zm0-10.02h-2v-6.02h2zm0-10.04h-2v-6h2zm0-10.03h-2v-6h2zm0-10.02h-2v-6.02h2zm0-10.03h-2v-6.02h2zm0-10.03h-2v-6.02h2zm0-10.03h-2v-6.03h2zm0-10.04h-2v-6.02h2zm0-10.03h-2V677h2zm0-10.03h-2v-6.02h2zm0-10.03h-2v-6.02h2zm0-10.03h-2v-6.02h2zm0-10.03h-2v-6h2zm0-10.03h-2v-6h2zm0-10.03h-2v-2.05h2zm0-34.05h-2v-2.07h2zm0-6.08h-2v-6.02h2zm0-10.03h-2v-6.03h2zm0-10.04h-2v-6.02h2zm0-10.03h-2v-6.02h2zm0-10.03h-2v-6.02h2zm0-10.03h-2v-6.02h2zm0-10.03h-2v-6.02h2zm0-10.03h-2v-6h2zm0-10.03h-2v-6h2zm0-10.03h-2v-6h2zm0-10.03h-2v-6h2zm0-10.02h-2v-6.02h2zm0-10.03h-2v-6.02h2zm0-10.03h-2v-6.02h2zm0-10.03h-2v-6.03h2zm0-10.04h-2v-6.02h2zm0-10.03h-2v-6.02h2zm0-10.03h-2v-6.02h2zm0-10.03h-2v-6.02h2zm0-10.03h-2v-6.02h2zm0-10.04h-2v-6h2zm0-10.03h-2v-6h2zm0-10.03h-2v-6.02h2zm0-10.03h-2v-6h2zm0-10.02h-2v-6.02h2zm0-10.03h-2v-6.02h2zm0-10.03h-2v-6.02h2zm0-10.03h-2v-6.03h2zm0-10.04h-2v-6.02h2zm0-10.03h-2v-6.02h2zm0-10.03h-2v-6.02h2zm0-10.03h-2v-6.02h2zm0-10.03h-2v-6.02h2zm0-10.04h-2v-6h2zm0-10.03h-2v-6.02h2zm0-10.03h-2v-6.02h2zm0-10.03h-2v-6h2zm0-10.02h-2v-6.02h2zm0-10.03h-2v-6.02h2zm0-10.03h-2v-6.02h2zm0-10.03h-2v-6.03h2zm0-10.04h-2v-6.02h2zm0-10.03h-2v-6.02h2zm0-10.03h-2v-6.02h2zm0-10.03h-2v-6.02h2zm0-10.04h-2v-6h2zm0-10.03h-2v-6h2zm0-10.03h-2v-6.02h2zm0-10.03h-2v-6.02h2zm0-10.03h-2v-6h2zm0-10.02h-2v-6.02h2zm0-10.03h-2v-6.02h2zm0-10.03h-2V55.1h2zm0-10.03h-2v-3.02h2z" stroke="#5e5e5e" stroke-width=".05" fill="#5e5e5e"/><path d="M1920 1176.76l-4.64-14.26h9.28z" fill="#5e5e5e"/><path d="M1920 1180l-6-18.5h12zm-3.26-16.5l3.26 10.03 3.26-10.03z" stroke="#5e5e5e" stroke-width=".05" fill="#5e5e5e"/><path d="M1924.64 47.08h-9.28L1920 32.8z" fill="#5e5e5e"/><path d="M1926 48.08h-12l6-18.5zm-9.26-2h6.52L1920 36.05z" stroke="#5e5e5e" stroke-width=".05" fill="#5e5e5e"/><use xlink:href="#p" transform="matrix(1,0,0,1,1838.037037037037,588.7885107118389) translate(0.0049999999999954525 21.333333333333332)"/><use xlink:href="#q" transform="matrix(1,0,0,1,1838.037037037037,588.7885107118389) translate(63.634629629629615 21.333333333333332)"/><path d="M1642.8 813.03v-37.5" stroke="#5e5e5e" stroke-width="2" fill="none"/><path d="M1643.8 814.03h-2V813h2z" stroke="#5e5e5e" stroke-width=".05" fill="#5e5e5e"/><path d="M1642.8 760.26l4.65 14.27h-9.27z" stroke="#5e5e5e" stroke-width="2" fill="#5e5e5e"/><path d="M1642.8 673.03v-37.5" stroke="#5e5e5e" stroke-width="2" fill="none"/><path d="M1643.8 674.03h-2V673h2z" stroke="#5e5e5e" stroke-width=".05" fill="#5e5e5e"/><path d="M1642.8 620.26l4.65 14.27h-9.27z" stroke="#5e5e5e" stroke-width="2" fill="#5e5e5e"/><path d="M1640 533.03v-41.5" stroke="#5e5e5e" stroke-width="2" fill="none"/><path d="M1641 534.03h-2V533h2z" stroke="#5e5e5e" stroke-width=".05" fill="#5e5e5e"/><path d="M1640 476.26l4.64 14.27h-9.28z" stroke="#5e5e5e" stroke-width="2" fill="#5e5e5e"/><path d="M1642.8 413.03v-41.5" stroke="#5e5e5e" stroke-width="2" fill="none"/><path d="M1643.8 414.03h-2V413h2z" stroke="#5e5e5e" stroke-width=".05" fill="#5e5e5e"/><path d="M1642.8 356.26l4.65 14.27h-9.27z" stroke="#5e5e5e" stroke-width="2" fill="#5e5e5e"/><path d="M1640 293.03v-37.5" stroke="#5e5e5e" stroke-width="2" fill="none"/><path d="M1641 294.03h-2V293h2z" stroke="#5e5e5e" stroke-width=".05" fill="#5e5e5e"/><path d="M1640 240.26l4.64 14.27h-9.28z" stroke="#5e5e5e" stroke-width="2" fill="#5e5e5e"/><path d="M1642.8 193.03v-37.5" stroke="#5e5e5e" stroke-width="2" fill="none"/><path d="M1643.8 194.03h-2V193h2z" stroke="#5e5e5e" stroke-width=".05" fill="#5e5e5e"/><path d="M1642.8 140.26l4.65 14.27h-9.27z" stroke="#5e5e5e" stroke-width="2" fill="#5e5e5e"/><path d="M1642.8 113.03v-37.5" stroke="#5e5e5e" stroke-width="2" fill="none"/><path d="M1643.8 114.03h-2V113h2z" stroke="#5e5e5e" stroke-width=".05" fill="#5e5e5e"/><path d="M1642.8 60.26l4.65 14.27h-9.27z" stroke="#5e5e5e" stroke-width="2" fill="#5e5e5e"/><path d="M2004.7 311.57c0-3.3 2.67-6 6-6h424.86c3.32 0 6 2.7 6 6v27c0 3.32-2.68 6-6 6H2010.7c-3.33 0-6-2.68-6-6z" stroke="#5e5e5e" stroke-width="3" fill="#6db1ff"/><path d="M2153.13 712.57c0-3.3 2.68-6 6-6h128c3.3 0 6 2.7 6 6v69.16c0 3.3-2.7 6-6 6h-128c-3.32 0-6-2.7-6-6z" stroke="#5e5e5e" stroke-width="3" fill="#fff3d9"/><path d="M2183.13 934.57c0-3.3 2.68-6 6-6h68c3.3 0 6 2.7 6 6v88c0 3.32-2.7 6-6 6h-68c-3.32 0-6-2.68-6-6z" stroke="#5e5e5e" stroke-width="3" fill="#dedeff"/><path d="M2183.13 1034.57c0-3.3 2.68-6 6-6h68c3.3 0 6 2.7 6 6v80.67c0 3.3-2.7 6-6 6h-68c-3.32 0-6-2.7-6-6z" stroke="#5e5e5e" stroke-width="3" fill="#dedeff"/><path d="M2153.13 793.73c0-3.3 2.68-6 6-6h128c3.3 0 6 2.7 6 6v68.84c0 3.32-2.7 6-6 6h-128c-3.32 0-6-2.68-6-6z" stroke="#5e5e5e" stroke-width="3" fill="#fff3d9"/><path d="M2113.13 605.57c0-3.3 2.68-6 6-6h208c3.3 0 6 2.7 6 6v37c0 3.32-2.7 6-6 6h-208c-3.32 0-6-2.68-6-6z" stroke="#5e5e5e" stroke-width="3" fill="#fcfcca"/><path d="M2053.13 449.57c0-3.3 2.68-6 6-6h328c3.3 0 6 2.7 6 6v31.87c0 3.32-2.7 6-6 6h-328c-3.32 0-6-2.68-6-6z" stroke="#5e5e5e" stroke-width="3" fill="#b8f5ed"/><path d="M2084.7 1170c0-3.3 2.67-6 6-6h264.86c3.32 0 6 2.7 6 6v102c0 3.3-2.68 6-6 6H2090.7c-3.33 0-6-2.7-6-6z" stroke="#000" stroke-opacity="0" stroke-width="3" fill="#fff" fill-opacity="0"/><use xlink:href="#r" transform="matrix(1,0,0,1,2089.6875,1169) translate(1.6481481481481808 40.83333333333333)"/><use xlink:href="#j" transform="matrix(1,0,0,1,2089.6875,1169) translate(34.09259259259262 40.83333333333333)"/><use xlink:href="#k" transform="matrix(1,0,0,1,2089.6875,1169) translate(100.68518518518519 40.83333333333333)"/><use xlink:href="#l" transform="matrix(1,0,0,1,2089.6875,1169) translate(122.9074074074074 40.83333333333333)"/><use xlink:href="#s" transform="matrix(1,0,0,1,2089.6875,1169) translate(234.31481481481478 40.83333333333333)"/><use xlink:href="#t" transform="matrix(1,0,0,1,2089.6875,1169) translate(54.42592592592595 72.83333333333331)"/><use xlink:href="#u" transform="matrix(1,0,0,1,2089.6875,1169) translate(84.05555555555557 72.83333333333331)"/><path d="M2223.13 1163v-21.76" stroke="#5e5e5e" stroke-width="2" fill="none"/><path d="M2224.13 1164h-2v-1.03h2z" stroke="#5e5e5e" stroke-width=".05" fill="#5e5e5e"/><path d="M2223.13 1125.98l4.63 14.26h-9.27z" stroke="#5e5e5e" stroke-width="2" fill="#5e5e5e"/><path d="M2113.13 556.57c0-3.3 2.68-6 6-6h208c3.3 0 6 2.7 6 6v37c0 3.32-2.7 6-6 6h-208c-3.32 0-6-2.68-6-6z" stroke="#5e5e5e" stroke-width="3" fill="#fcfcca"/><path d="M2053.13 406.64c0-3.32 2.68-6 6-6h328c3.3 0 6 2.68 6 6v31.87c0 3.32-2.7 6-6 6h-328c-3.32 0-6-2.68-6-6z" stroke="#5e5e5e" stroke-width="3" fill="#b8f5ed"/><path d="M2223.13 926.07v-37.5" stroke="#5e5e5e" stroke-width="2" fill="none"/><path d="M2224.13 927.07h-2v-1.02h2z" stroke="#5e5e5e" stroke-width=".05" fill="#5e5e5e"/><path d="M2223.13 873.3l4.63 14.27h-9.27z" stroke="#5e5e5e" stroke-width="2" fill="#5e5e5e"/><path d="M2223.13 704.07v-35.5" stroke="#5e5e5e" stroke-width="2" fill="none"/><path d="M2224.13 705.07h-2v-1.02h2z" stroke="#5e5e5e" stroke-width=".05" fill="#5e5e5e"/><path d="M2223.13 653.3l4.63 14.27h-9.27z" stroke="#5e5e5e" stroke-width="2" fill="#5e5e5e"/><path d="M2223.13 548.07v-40.62" stroke="#5e5e5e" stroke-width="2" fill="none"/><path d="M2224.13 549.07h-2v-1.02h2z" stroke="#5e5e5e" stroke-width=".05" fill="#5e5e5e"/><path d="M2223.13 492.18l4.63 14.27h-9.27z" stroke="#5e5e5e" stroke-width="2" fill="#5e5e5e"/><path d="M2223.13 398.14v-33.57" stroke="#5e5e5e" stroke-width="2" fill="none"/><path d="M2224.13 399.14h-2v-1.03h2z" stroke="#5e5e5e" stroke-width=".05" fill="#5e5e5e"/><path d="M2223.13 349.3l4.63 14.27h-9.27z" stroke="#5e5e5e" stroke-width="2" fill="#5e5e5e"/><path d="M2300 1034.57c0-3.3 2.7-6 6-6h208c3.3 0 6 2.7 6 6v81.17c0 3.3-2.7 6-6 6h-208c-3.3 0-6-2.7-6-6z" fill="none"/><path d="M2300 1121.74c5.52 0 10-4.48 10-10v-26.58c0-5.53 4.48-10 10-10-5.52 0-10-4.48-10-10v-26.6c0-5.5-4.48-10-10-10" stroke="#5e5e5e" stroke-width="3" fill="none"/><use xlink:href="#v" transform="matrix(1,0,0,1,2335,1033.572347242299) translate(56.151234567901255 32.22222222222223)"/><use xlink:href="#w" transform="matrix(1,0,0,1,2335,1033.572347242299) translate(31.095679012345713 61.55555555555554)"/><path d="M2807.5 744.8c0-3.3 2.7-6 6-6h152.54c3.3 0 6 2.7 6 6v27.56c0 3.3-2.7 6-6 6H2813.5c-3.3 0-6-2.7-6-6zM2807.5 786c0-3.3 2.7-6 6-6h152.54c3.3 0 6 2.7 6 6v30.56c0 3.3-2.7 6-6 6H2813.5c-3.3 0-6-2.7-6-6z" stroke="#5e5e5e" stroke-width="3" fill="#fff3d9"/><path d="M2767.5 538c0-3.3 2.7-6 6-6h232.54c3.3 0 6 2.7 6 6v36c0 3.3-2.7 6-6 6H2773.5c-3.3 0-6-2.7-6-6z" stroke="#5e5e5e" stroke-width="3" fill="#fcfcca"/><path d="M2719.77 283.57c0-3.3 2.7-6 6-6h328c3.3 0 6 2.7 6 6v16c0 3.32-2.7 6-6 6h-328c-3.3 0-6-2.68-6-6z" stroke="#5e5e5e" stroke-width="3" fill="#b8f5ed"/><path d="M2980 1066c0-3.3 2.7-6 6-6h188c3.3 0 6 2.7 6 6v48c0 3.3-2.7 6-6 6h-188c-3.3 0-6-2.7-6-6z" fill="none"/><path d="M2980 1120c5.52 0 10-4.48 10-10v-10c0-5.52 4.48-10 10-10-5.52 0-10-4.48-10-10v-10c0-5.52-4.48-10-10-10" stroke="#5e5e5e" stroke-width="3" fill="none"/><use xlink:href="#x" transform="matrix(1,0,0,1,3015,1065) translate(43.07407407407408 21.33333333333333)"/><use xlink:href="#y" transform="matrix(1,0,0,1,3015,1065) translate(15.740740740740762 53.33333333333332)"/><path d="M2767.5 1186c0-3.3 2.7-6 6-6h231.9c3.3 0 6 2.7 6 6v62c0 3.3-2.7 6-6 6h-231.9c-3.3 0-6-2.7-6-6z" stroke="#000" stroke-opacity="0" stroke-width="3" fill="#fff" fill-opacity="0"/><use xlink:href="#z" transform="matrix(1,0,0,1,2772.5,1185) translate(5.074074074074105 21.33333333333333)"/><use xlink:href="#j" transform="matrix(1,0,0,1,2772.5,1185) translate(36.111111111111136 21.33333333333333)"/><use xlink:href="#k" transform="matrix(1,0,0,1,2772.5,1185) translate(102.70370370370372 21.33333333333333)"/><use xlink:href="#A" transform="matrix(1,0,0,1,2772.5,1185) translate(124.92592592592594 21.33333333333333)"/><use xlink:href="#B" transform="matrix(1,0,0,1,2772.5,1185) translate(51.185185185185205 53.33333333333332)"/><path d="M2839.54 1006c0-3.3 2.68-6 6-6H2934c3.3 0 6 2.7 6 6v48c0 3.3-2.7 6-6 6h-88.46c-3.32 0-6-2.7-6-6zM2839.54 1066c0-3.3 2.68-6 6-6H2934c3.3 0 6 2.7 6 6v48c0 3.3-2.7 6-6 6h-88.46c-3.32 0-6-2.7-6-6z" stroke="#5e5e5e" stroke-width="3" fill="#dedeff"/><path d="M2807.5 645.62c0-3.3 2.7-6 6-6h152.54c3.3 0 6 2.7 6 6v27.56c0 3.3-2.7 6-6 6H2813.5c-3.3 0-6-2.7-6-6z" stroke="#5e5e5e" stroke-width="3" fill="#fff3d9"/><path d="M2839.54 886c0-3.3 2.68-6 6-6H2934c3.3 0 6 2.7 6 6v48c0 3.3-2.7 6-6 6h-88.46c-3.32 0-6-2.7-6-6z" stroke="#5e5e5e" stroke-width="3" fill="#dedeff"/><path d="M2767.5 490c0-3.3 2.7-6 6-6h232.54c3.3 0 6 2.7 6 6v36c0 3.3-2.7 6-6 6H2773.5c-3.3 0-6-2.7-6-6zM2767.5 373.14c0-3.3 2.7-6 6-6h232.54c3.3 0 6 2.7 6 6v36c0 3.32-2.7 6-6 6H2773.5c-3.3 0-6-2.68-6-6z" stroke="#5e5e5e" stroke-width="3" fill="#fcfcca"/><path d="M2719.77 255.57c0-3.3 2.7-6 6-6h328c3.3 0 6 2.7 6 6v16c0 3.32-2.7 6-6 6h-328c-3.3 0-6-2.68-6-6zM2719.77 166c0-3.3 2.7-6 6-6h328c3.3 0 6 2.7 6 6v16c0 3.3-2.7 6-6 6h-328c-3.3 0-6-2.7-6-6z" stroke="#5e5e5e" stroke-width="3" fill="#b8f5ed"/><path d="M2669.77 76.43c0-3.32 2.7-6 6-6h428c3.3 0 6 2.68 6 6v16c0 3.3-2.7 6-6 6h-428c-3.3 0-6-2.7-6-6zM2669.77-14c0-3.3 2.7-6 6-6h428c3.3 0 6 2.7 6 6V2c0 3.3-2.7 6-6 6h-428c-3.3 0-6-2.7-6-6z" stroke="#5e5e5e" stroke-width="3" fill="#6db1ff"/><path d="M2889.77 157.5v-39.07" stroke="#5e5e5e" stroke-width="2" fill="none"/><path d="M2890.77 158.5h-2v-1.03h2z" stroke="#5e5e5e" stroke-width=".05" fill="#5e5e5e"/><path d="M2889.77 103.16l4.63 14.27h-9.27z" stroke="#5e5e5e" stroke-width="2" fill="#5e5e5e"/><path d="M2889.77 67.93V28" stroke="#5e5e5e" stroke-width="2" fill="none"/><path d="M2890.77 68.93h-2V67.9h2z" stroke="#5e5e5e" stroke-width=".05" fill="#5e5e5e"/><path d="M2889.77 12.74L2894.4 27h-9.27z" stroke="#5e5e5e" stroke-width="2" fill="#5e5e5e"/><path d="M2889.77 247.07V208" stroke="#5e5e5e" stroke-width="2" fill="none"/><path d="M2890.77 248.07h-2v-1.02h2z" stroke="#5e5e5e" stroke-width=".05" fill="#5e5e5e"/><path d="M2889.77 192.74l4.63 14.26h-9.27z" stroke="#5e5e5e" stroke-width="2" fill="#5e5e5e"/><path d="M2889.77 364.64v-39.07" stroke="#5e5e5e" stroke-width="2" fill="none"/><path d="M2890.77 365.64h-2v-1.02h2z" stroke="#5e5e5e" stroke-width=".05" fill="#5e5e5e"/><path d="M2889.77 310.3l4.63 14.27h-9.27z" stroke="#5e5e5e" stroke-width="2" fill="#5e5e5e"/><path d="M2889.77 481.5v-46.35" stroke="#5e5e5e" stroke-width="2" fill="none"/><path d="M2890.77 482.5h-2v-1.03h2z" stroke="#5e5e5e" stroke-width=".05" fill="#5e5e5e"/><path d="M2889.77 419.88l4.63 14.27h-9.27z" stroke="#5e5e5e" stroke-width="2" fill="#5e5e5e"/><path d="M2889.77 637.12V600" stroke="#5e5e5e" stroke-width="2" fill="none"/><path d="M2890.77 638.12h-2v-1.02h2z" stroke="#5e5e5e" stroke-width=".05" fill="#5e5e5e"/><path d="M2889.77 584.74l4.63 14.26h-9.27z" stroke="#5e5e5e" stroke-width="2" fill="#5e5e5e"/><path d="M2889.77 736.3v-37.12" stroke="#5e5e5e" stroke-width="2" fill="none"/><path d="M2890.77 737.3h-2v-1.03h2z" stroke="#5e5e5e" stroke-width=".05" fill="#5e5e5e"/><path d="M2889.77 683.9l4.63 14.28h-9.27z" stroke="#5e5e5e" stroke-width="2" fill="#5e5e5e"/><path d="M2889.77 877.5v-34.94" stroke="#5e5e5e" stroke-width="2" fill="none"/><path d="M2890.77 878.5h-2v-1.03h2z" stroke="#5e5e5e" stroke-width=".05" fill="#5e5e5e"/><path d="M2889.77 827.3l4.63 14.26h-9.27z" stroke="#5e5e5e" stroke-width="2" fill="#5e5e5e"/><path d="M2889.77 997.5V960" stroke="#5e5e5e" stroke-width="2" fill="none"/><path d="M2890.77 998.5h-2v-1.03h2z" stroke="#5e5e5e" stroke-width=".05" fill="#5e5e5e"/><path d="M2889.77 944.74l4.63 14.26h-9.27z" stroke="#5e5e5e" stroke-width="2" fill="#5e5e5e"/><path d="M2889.45 1179v-28.1c0-.08.07-.15.16-.15.1 0 .17-.07.17-.16V1140" stroke="#5e5e5e" stroke-width="2" fill="none"/><path d="M2890.45 1180h-2v-1.03h2z" stroke="#5e5e5e" stroke-width=".05" fill="#5e5e5e"/><path d="M2889.77 1124.74l4.63 14.26h-9.27z" stroke="#5e5e5e" stroke-width="2" fill="#5e5e5e"/><path d="M2621 1161.5h-2v-3h2zm0-7.02h-2v-6.02h2zm0-10.03h-2v-6h2zm0-10.02h-2v-6.02h2zm0-10.03h-2v-6h2zm0-10.02h-2v-6.02h2zm0-10.03h-2v-6h2zm0-10.02h-2v-6.02h2zm0-10.03h-2v-6.02h2zm0-10.03h-2v-6h2zm0-10.02h-2v-6.02h2zm0-10.03h-2v-6h2zm0-10.02h-2v-6.02h2zm0-10.03h-2v-6.02h2zm0-10.03h-2v-6h2zm0-10.02h-2v-6.02h2zm0-10.03h-2v-6.02h2zm0-10.03h-2v-6.02h2zm0-10.03h-2v-6h2zm0-10.02h-2V968h2zm0-10.03h-2v-6.03h2zm0-10.04h-2v-6h2zm0-10.02h-2v-6.02h2zm0-10.03h-2v-6h2zm0-10h-2v-6.03h2zm0-10.04h-2v-6.02h2zm0-10.03h-2v-6h2zm0-10.02h-2v-6h2zm0-10.02h-2v-6h2zm0-10.02h-2v-6.02h2zm0-10.03h-2v-6h2zm0-10.02h-2v-6h2zm0-10.02h-2v-6.02h2zm0-10.03h-2v-6h2zm0-10.02h-2v-6.02h2zm0-10.03h-2v-6h2zm0-10.02h-2v-6.02h2zm0-10.03h-2v-6.02h2zm0-10.03h-2v-6h2zm0-10.02h-2v-6.02h2zm0-10.03h-2v-6h2zm0-10.02h-2v-6.02h2zm0-10.03h-2v-6h2zm0-10.02h-2v-6.02h2zm0-10.03h-2v-6.02h2zm0-10.03h-2v-6h2zm0-10.02h-2v-6.02h2zm0-10.03h-2v-6.02h2zm0-10.03h-2v-6.02h2zm0-10.03h-2v-6.02h2zm0-10.03h-2v-6h2zm0-10h-2v-6.03h2zm0-10.04h-2v-6h2zm0-10.02h-2v-6.02h2zm0-10.03h-2v-6h2zm0-10h-2v-6.03h2zm0-10.04h-2v-6.02h2zm0-40.1h-2v-6.02h2zm0-10.03h-2v-6.02h2zm0-10.03h-2v-6h2zm0-10.02h-2v-6.02h2zm0-10.03h-2v-6h2zm0-10.02h-2v-6.02h2zm0-10.03h-2v-6h2zm0-10.02h-2v-6.02h2zm0-10.03h-2v-6.02h2zm0-10.03h-2v-6h2zm0-10.02h-2v-6.02h2zm0-10.03h-2v-6h2zm0-10.02h-2v-6.02h2zm0-10.03h-2v-6.02h2zm0-10.03h-2v-6.02h2zm0-10.03h-2v-6.02h2zm0-10.03h-2v-6h2zm0-10.02h-2v-6.02h2zm0-10.03h-2v-6.02h2zm0-10.03h-2v-6.02h2zm0-10.03h-2v-6.02h2zm0-10.03h-2v-6h2zm0-10h-2v-6.03h2zm0-10.04h-2v-6h2zm0-10.02h-2v-6.02h2zm0-10.03h-2v-6h2zm0-10.02h-2v-6h2zm0-10.02h-2v-6.02h2zm0-10.03h-2v-6h2zm0-10.02h-2v-6h2zm0-10.02h-2v-6h2zm0-10.02h-2v-6.02h2zm0-10.03h-2v-6.02h2zm0-10.03h-2v-6h2zm0-10.02h-2v-6.02h2zm0-10.03h-2v-6h2zm0-10.02h-2V196h2zm0-10.03h-2v-6.02h2zm0-10.03h-2v-6h2zm0-10.02h-2v-6.02h2zm0-10.03h-2v-6h2zm0-10.02h-2v-6.02h2zm0-10.03h-2v-6h2zm0-10.02h-2v-6.02h2zm0-10.03h-2v-6.02h2zm0-10.03h-2v-6.02h2zm0-10.03h-2v-6.02h2zm0-10.03h-2v-6h2zm0-10.02h-2V75.7h2zm0-10.03h-2v-6.03h2zm0-10.04h-2v-6h2zm0-10.02h-2v-6.02h2zm0-10.03h-2v-6h2zm0-10h-2v-6.03h2zm0-10.04h-2v-6h2zm0-10.02h-2V5.52h2zm0-10.03h-2v-3h2z" stroke="#5e5e5e" stroke-width=".05" fill="#5e5e5e"/><path d="M2620 1176.76l-4.64-14.26h9.28z" fill="#5e5e5e"/><path d="M2620 1180l-6-18.5h12zm-3.26-16.5l3.26 10.03 3.26-10.03z" stroke="#5e5e5e" stroke-width=".05" fill="#5e5e5e"/><path d="M2624.64-2.5h-9.28l4.64-14.26z" fill="#5e5e5e"/><path d="M2626-1.5h-12l6-18.5zm-9.26-2h6.52L2620-13.53z" stroke="#5e5e5e" stroke-width=".05" fill="#5e5e5e"/><use xlink:href="#p" transform="matrix(1,0,0,1,2538.037037037037,564) translate(0.0049999999999954525 21.333333333333332)"/><use xlink:href="#q" transform="matrix(1,0,0,1,2538.037037037037,564) translate(63.634629629629615 21.333333333333332)"/><path d="M2691.3-59h-3.03v-2h3.02zm10.07 0h-6.05v-2h6.05zm10.07 0h-6.04v-2h6.04zm10.08 0h-6.05v-2h6.05zm10.07 0h-6.05v-2h6.04zm10.07 0h-6.05v-2h6.05zm10.07 0h-6.04v-2h6.04zm10.08 0h-6.05v-2h6.05zm10.07 0h-6.05v-2h6.04zm10.07 0h-6.05v-2h6.05zm10.07 0H2786v-2h6.04zm10.08 0h-6.05v-2h6.05zm10.07 0h-6.05v-2h6.04zm10.07 0h-6.05v-2h6.05zm141.05 0h-6.05v-2h6.05zm10.07 0h-6.05v-2h6.04zm10.07 0h-6.05v-2h6.05zm10.07 0h-6.04v-2h6.04zm10.08 0h-6.05v-2h6.05zm10.07 0h-6.05v-2h6.04zm10.06 0h-6.04v-2h6.04zm10.08 0h-6.05v-2h6.04zm10.07 0h-6.03v-2h6.04zm10.1 0h-6.06v-2h6.05zm10.06 0h-6.04v-2h6.04zm10.08 0h-6.05v-2h6.04zm10.07 0h-6.03v-2h6.04zm7.07 0h-3.03v-2h3.03z" stroke="#5e5e5e" stroke-width=".05" fill="#5e5e5e"/><path d="M2687.27-55.36L2673-60l14.27-4.64z" fill="#5e5e5e"/><path d="M2688.27-54l-18.5-6 18.5-6zm-12.03-6l10.03 3.26v-6.52z" stroke="#5e5e5e" stroke-width=".05" fill="#5e5e5e"/><path d="M3106.53-60l-14.26 4.64v-9.28z" fill="#5e5e5e"/><path d="M3109.77-60l-18.5 6v-12zm-16.5 3.26L3103.3-60l-10.03-3.26z" stroke="#5e5e5e" stroke-width=".05" fill="#5e5e5e"/><g><use xlink:href="#p" transform="matrix(1,0,0,1,2826.13911277674,-76) translate(0.005000000000002558 21.333333333333332)"/><use xlink:href="#C" transform="matrix(1,0,0,1,2826.13911277674,-76) translate(63.63462962962962 21.333333333333332)"/></g><path d="M901.52 521h-3.02v-2h3.02zm10.08 0h-6.04v-2h6.04zm10.08 0h-6.05v-2h6.05zm10.07 0h-6.04v-2h6.05zm10.08 0h-6.05v-2h6.05zm10.08 0h-6.04v-2h6.05zm10.08 0h-6.04v-2h6.04zm10.08 0H966v-2h6.06zm10.08 0h-6.05v-2h6.04zm10.07 0h-6.03v-2h6.04zm10.1 0h-6.06v-2h6.05zm10.06 0h-6.04v-2h6.04zm10.08 0h-6.04v-2h6.04zm10.08 0h-6.05v-2h6.05zm10.07 0h-6.05v-2h6.04zm10.07 0h-6.05v-2h6.05zm10.08 0h-6.05v-2h6.05zm10.07 0h-6.04v-2h6.04zm10.08 0h-6.05v-2h6.05zm10.08 0h-6.05v-2h6.05zm141.06 0H1228v-2h6.04zm10.08 0h-6.04v-2h6.04zm10.08 0h-6.05v-2h6.05zm10.07 0h-6.04v-2h6.04zm10.08 0h-6.05v-2h6.05zm10.08 0h-6.05v-2h6.05zm10.07 0h-6.04v-2h6.04zm10.08 0h-6.05v-2h6.05zm10.08 0h-6.05v-2h6.06zm10.07 0h-6.04v-2h6.03zm10.08 0h-6.04v-2h6.05zm10.08 0h-6.04v-2h6.04zm10.08 0h-6.04v-2h6.04zm10.08 0H1359v-2h6.04zm10.07 0h-6.03v-2h6.04zm10.1 0h-6.06v-2h6.05zm10.07 0h-6.05v-2h6.05zm10.07 0h-6.04v-2h6.04zm10.08 0h-6.05v-2h6.05zm7.05 0h-3.02v-2h3.02z" stroke="#5e5e5e" stroke-width=".05" fill="#5e5e5e"/><path d="M897.5 524.64L883.24 520l14.26-4.64z" fill="#5e5e5e"/><path d="M898.5 526l-18.5-6 18.5-6zm-12.03-6l10.03 3.26v-6.52z" stroke="#5e5e5e" stroke-width=".05" fill="#5e5e5e"/><path d="M1437.74 520l-14.27 4.64v-9.28z" fill="#5e5e5e"/><path d="M1440.97 520l-18.5 6v-12zm-16.5 3.26l10.03-3.26-10.03-3.26z" stroke="#5e5e5e" stroke-width=".05" fill="#5e5e5e"/><g><use xlink:href="#p" transform="matrix(1,0,0,1,1096.8576661961417,504) translate(0.005000000000002558 21.333333333333332)"/><use xlink:href="#C" transform="matrix(1,0,0,1,1096.8576661961417,504) translate(63.63462962962962 21.333333333333332)"/></g><path d="M341.47 521h-2.97v-2h2.97zm9.9 0h-5.93v-2h5.94zm9.9 0h-5.93v-2h5.94zm9.92 0h-5.95v-2h5.94zm9.9 0h-5.95v-2h5.95zm9.9 0h-5.94v-2H391zm9.9 0h-5.94v-2h5.95zm9.9 0h-5.93v-2h5.94zm9.92 0h-5.95v-2h5.95zm9.9 0h-5.94v-2h5.94zm9.9 0h-5.94v-2h5.95zm9.9 0h-5.93v-2h5.93zm9.92 0h-5.94v-2h5.94zm9.9 0h-5.94v-2h5.94zm9.9 0h-5.93v-2h5.95zm5.98 0h-2v-2h2zm122.8 0h-5.94v-2h5.94zm9.9 0h-5.94v-2h5.94zm9.9 0h-5.93v-2h5.93zm9.92 0h-5.95v-2h5.94zm9.9 0h-5.94v-2h5.94zm9.9 0h-5.94v-2h5.95zm9.9 0h-5.93v-2h5.95zm9.92 0h-5.95v-2h5.96zm9.9 0h-5.94v-2h5.94zm9.9 0h-5.94v-2h5.95zm9.9 0h-5.93v-2h5.94zm9.92 0h-5.94v-2h5.94zm9.9 0h-5.94v-2h5.94zm9.9 0h-5.93v-2h5.94zm6.94 0h-2.97v-2h2.97zm-145.6 0h-2v-2h2z" stroke="#5e5e5e" stroke-width=".05" fill="#5e5e5e"/><path d="M337.5 524.64L323.24 520l14.26-4.64z" fill="#5e5e5e"/><path d="M338.5 526l-18.5-6 18.5-6zm-12.03-6l10.03 3.26v-6.52z" stroke="#5e5e5e" stroke-width=".05" fill="#5e5e5e"/><path d="M759.9 520l-14.28 4.64v-9.28z" fill="#5e5e5e"/><path d="M763.12 520l-18.5 6v-12zm-16.5 3.26l10.03-3.26-10.03-3.26z" stroke="#5e5e5e" stroke-width=".05" fill="#5e5e5e"/><g><use xlink:href="#D" transform="matrix(1,0,0,1,486.11805555555554,504) translate(0.005000000000002558 21.333333333333332)"/></g><path d="M543.13 1179v-39" stroke="#5e5e5e" stroke-width="2" fill="none"/><path d="M544.13 1180h-2v-1.03h2z" stroke="#5e5e5e" stroke-width=".05" fill="#5e5e5e"/><path d="M543.13 1124.74l4.63 14.26h-9.27z" stroke="#5e5e5e" stroke-width="2" fill="#5e5e5e"/><path d="M990.2 1170c0-3.3 2.7-6 6-6h355.2c3.32 0 6 2.7 6 6v94c0 3.3-2.68 6-6 6H996.2c-3.3 0-6-2.7-6-6z" stroke="#000" stroke-opacity="0" stroke-width="3" fill="#fff" fill-opacity="0"/><g><use xlink:href="#i" transform="matrix(1,0,0,1,995.2131649898613,1169) translate(33.03703703703707 36.33333333333333)"/><use xlink:href="#j" transform="matrix(1,0,0,1,995.2131649898613,1169) translate(64.0740740740741 36.33333333333333)"/><use xlink:href="#k" transform="matrix(1,0,0,1,995.2131649898613,1169) translate(130.66666666666669 36.33333333333333)"/><use xlink:href="#l" transform="matrix(1,0,0,1,995.2131649898613,1169) translate(152.8888888888889 36.33333333333333)"/><use xlink:href="#m" transform="matrix(1,0,0,1,995.2131649898613,1169) translate(264.2962962962963 36.33333333333333)"/><use xlink:href="#n" transform="matrix(1,0,0,1,995.2131649898613,1169) translate(302.7407407407407 36.33333333333333)"/><use xlink:href="#E" transform="matrix(1,0,0,1,995.2131649898613,1169) translate(133.8888888888889 68.33333333333331)"/></g><path d="M1163 1163v-23" stroke="#5e5e5e" stroke-width="2" fill="none"/><path d="M1164 1164h-2v-1.03h2z" stroke="#5e5e5e" stroke-width=".05" fill="#5e5e5e"/><path d="M1163 1124.74l4.62 14.26h-9.27z" stroke="#5e5e5e" stroke-width="2" fill="#5e5e5e"/><defs><path fill="#333" d="M190-63c-7 42-38 67-86 67-59 0-84-38-90-98-12-110 154-137 174-36l-49 2c-2-19-15-32-35-32-30 0-35 28-38 64-6 74 65 87 74 30" id="F"/><path fill="#333" d="M110-194c64 0 96 36 96 99 0 64-35 99-97 99-61 0-95-36-95-99 0-62 34-99 96-99zm-1 164c35 0 45-28 45-65 0-40-10-65-43-65-34 0-45 26-45 65 0 36 10 65 43 65" id="G"/><path fill="#333" d="M85 4C-2 5 27-109 22-190h50c7 57-23 150 33 157 60-5 35-97 40-157h50l1 190h-47c-2-12 1-28-3-38-12 25-28 42-61 42" id="H"/><path fill="#333" d="M114-157C55-157 80-60 75 0H25v-261h50l-1 109c12-26 28-41 61-42 86-1 58 113 63 194h-50c-7-57 23-157-34-157" id="I"/><path fill="#333" d="M185-48c-13 30-37 53-82 52C43 2 14-33 14-96s30-98 90-98c62 0 83 45 84 108H66c0 31 8 55 39 56 18 0 30-7 34-22zm-45-69c5-46-57-63-70-21-2 6-4 13-4 21h74" id="J"/><g id="a"><use transform="matrix(0.07407407407407407,0,0,0.07407407407407407,0,0)" xlink:href="#F"/><use transform="matrix(0.07407407407407407,0,0,0.07407407407407407,14.814814814814813,0)" xlink:href="#G"/><use transform="matrix(0.07407407407407407,0,0,0.07407407407407407,31.037037037037035,0)" xlink:href="#H"/><use transform="matrix(0.07407407407407407,0,0,0.07407407407407407,47.259259259259245,0)" xlink:href="#F"/><use transform="matrix(0.07407407407407407,0,0,0.07407407407407407,62.07407407407406,0)" xlink:href="#I"/><use transform="matrix(0.07407407407407407,0,0,0.07407407407407407,78.29629629629628,0)" xlink:href="#J"/></g><path fill="#333" d="M25-224v-37h50v37H25zM25 0v-190h50V0H25" id="K"/><use transform="matrix(0.07407407407407407,0,0,0.07407407407407407,0,0)" xlink:href="#K" id="b"/><path fill="#333" d="M240-174c0 40-23 61-54 70L253 0h-59l-57-94H76V0H24v-248c93 4 217-23 216 74zM76-134c48-2 112 12 112-38 0-48-66-32-112-35v73" id="L"/><path fill="#333" d="M185-48c-13 30-37 53-82 52C43 2 14-33 14-96s30-98 90-98c62 0 83 45 84 108H66c0 31 8 55 39 56 18 0 30-7 34-22zm-45-69c5-46-57-63-70-21-2 6-4 13-4 21h74zm-67-91v-5l45-51h45v8l-60 48H73" id="M"/><path fill="#333" d="M137-138c1-29-70-34-71-4 15 46 118 7 119 86 1 83-164 76-172 9l43-7c4 19 20 25 44 25 33 8 57-30 24-41C81-84 22-81 20-136c-2-80 154-74 161-7" id="N"/><path fill="#333" d="M25 0v-261h50V0H25" id="O"/><path fill="#333" d="M115-3C79 11 28 4 28-45v-112H4v-33h27l15-45h31v45h36v33H77v99c-1 23 16 31 38 25v30" id="P"/><path fill="#333" d="M135-194c87-1 58 113 63 194h-50c-7-57 23-157-34-157-59 0-34 97-39 157H25l-1-190h47c2 12-1 28 3 38 12-26 28-41 61-42" id="Q"/><g id="c"><use transform="matrix(0.07407407407407406,0,0,0.07407407407407406,0,0)" xlink:href="#L"/><use transform="matrix(0.07407407407407406,0,0,0.07407407407407406,19.18518518518518,0)" xlink:href="#M"/><use transform="matrix(0.07407407407407406,0,0,0.07407407407407406,33.99999999999999,0)" xlink:href="#N"/><use transform="matrix(0.07407407407407406,0,0,0.07407407407407406,48.8148148148148,0)" xlink:href="#G"/><use transform="matrix(0.07407407407407406,0,0,0.07407407407407406,65.03703703703702,0)" xlink:href="#O"/><use transform="matrix(0.07407407407407406,0,0,0.07407407407407406,72.44444444444443,0)" xlink:href="#H"/><use transform="matrix(0.07407407407407406,0,0,0.07407407407407406,88.66666666666664,0)" xlink:href="#P"/><use transform="matrix(0.07407407407407406,0,0,0.07407407407407406,97.48148148148145,0)" xlink:href="#K"/><use transform="matrix(0.07407407407407406,0,0,0.07407407407407406,104.88888888888886,0)" xlink:href="#G"/><use transform="matrix(0.07407407407407406,0,0,0.07407407407407406,121.11111111111107,0)" xlink:href="#Q"/></g><path fill="#333" d="M186 0v-106H76V0H24v-248h52v99h110v-99h50V0h-50" id="R"/><path fill="#333" d="M144 0l-44-69L55 0H2l70-98-66-92h53l41 62 40-62h54l-67 91 71 99h-54" id="S"/><path fill="#333" d="M275 0h-61l-44-196L126 0H64L0-248h53L97-49l45-199h58l43 199 44-199h52" id="T"/><g id="d"><use transform="matrix(0.07407407407407406,0,0,0.07407407407407406,0,0)" xlink:href="#R"/><use transform="matrix(0.07407407407407406,0,0,0.07407407407407406,19.18518518518518,0)" xlink:href="#S"/><use transform="matrix(0.07407407407407406,0,0,0.07407407407407406,33.99999999999999,0)" xlink:href="#T"/></g><path fill="#333" d="M133-34C117-15 103 5 69 4 32 3 11-16 11-54c-1-60 55-63 116-61 1-26-3-47-28-47-18 1-26 9-28 27l-52-2c7-38 36-58 82-57s74 22 75 68l1 82c-1 14 12 18 25 15v27c-30 8-71 5-69-32zm-48 3c29 0 43-24 42-57-32 0-66-3-65 30 0 17 8 27 23 27" id="U"/><path fill="#333" d="M102-93c0 74-22 123-52 168H0C30 29 54-18 53-93c0-74-22-123-53-168h50c30 45 52 94 52 168" id="V"/><g id="e"><use transform="matrix(0.07407407407407404,0,0,0.07407407407407404,0,0)" xlink:href="#U"/><use transform="matrix(0.07407407407407404,0,0,0.07407407407407404,14.814814814814808,0)" xlink:href="#V"/></g><path fill="#333" d="M24 0v-248h52v208h133V0H24" id="W"/><path fill="#333" d="M195-6C206 82 75 100 31 46c-4-6-6-13-8-21l49-6c3 16 16 24 34 25 40 0 42-37 40-79-11 22-30 35-61 35-53 0-70-43-70-97 0-56 18-96 73-97 30 0 46 14 59 34l2-30h47zm-90-29c32 0 41-27 41-63 0-35-9-62-40-62-32 0-39 29-40 63 0 36 9 62 39 62" id="X"/><g id="f"><use transform="matrix(0.07407407407407404,0,0,0.07407407407407404,0,0)" xlink:href="#W"/><use transform="matrix(0.07407407407407404,0,0,0.07407407407407404,16.222222222222214,0)" xlink:href="#K"/><use transform="matrix(0.07407407407407404,0,0,0.07407407407407404,23.62962962962962,0)" xlink:href="#X"/><use transform="matrix(0.07407407407407404,0,0,0.07407407407407404,39.85185185185183,0)" xlink:href="#Q"/><use transform="matrix(0.07407407407407404,0,0,0.07407407407407404,56.07407407407405,0)" xlink:href="#J"/></g><path fill="#333" d="M88-194c31-1 46 15 58 34l-1-101h50l1 261h-48c-2-10 0-23-3-31C134-8 116 4 84 4 32 4 16-41 15-95c0-56 19-97 73-99zm17 164c33 0 40-30 41-66 1-37-9-64-41-64s-38 30-39 65c0 43 13 65 39 65" id="Y"/><g id="g"><use transform="matrix(0.07407407407407404,0,0,0.07407407407407404,0,0)" xlink:href="#Y"/><use transform="matrix(0.07407407407407404,0,0,0.07407407407407404,16.222222222222214,0)" xlink:href="#J"/></g><path fill="#333" d="M135-194c52 0 70 43 70 98 0 56-19 99-73 100-30 1-46-15-58-35L72 0H24l1-261h50v104c11-23 29-37 60-37zM114-30c31 0 40-27 40-66 0-37-7-63-39-63s-41 28-41 65c0 36 8 64 40 64" id="Z"/><g id="h"><use transform="matrix(0.07407407407407404,0,0,0.07407407407407404,0,0)" xlink:href="#Z"/><use transform="matrix(0.07407407407407404,0,0,0.07407407407407404,16.222222222222214,0)" xlink:href="#U"/><use transform="matrix(0.07407407407407404,0,0,0.07407407407407404,31.037037037037024,0)" xlink:href="#N"/><use transform="matrix(0.07407407407407404,0,0,0.07407407407407404,45.85185185185183,0)" xlink:href="#J"/></g><g id="i"><use transform="matrix(0.07407407407407406,0,0,0.07407407407407406,0,0)" xlink:href="#F"/><use transform="matrix(0.07407407407407406,0,0,0.07407407407407406,14.814814814814811,0)" xlink:href="#V"/></g><path fill="#333" d="M230 0l2-204L168 0h-37L68-204 70 0H24v-248h70l56 185 57-185h69V0h-46" id="aa"/><g id="j"><use transform="matrix(0.07407407407407406,0,0,0.07407407407407406,0,0)" xlink:href="#aa"/><use transform="matrix(0.07407407407407406,0,0,0.07407407407407406,22.14814814814814,0)" xlink:href="#K"/><use transform="matrix(0.07407407407407406,0,0,0.07407407407407406,29.55555555555555,0)" xlink:href="#N"/><use transform="matrix(0.07407407407407406,0,0,0.07407407407407406,44.37037037037036,0)" xlink:href="#J"/></g><path fill="#333" d="M132-34C116-15 102 5 68 4 31 3 10-16 10-54c-1-60 55-63 116-61 1-26-3-47-28-47-18 1-26 9-28 27l-52-2c7-38 36-58 82-57s74 22 75 68l1 82c-1 14 12 18 25 15v27c-30 8-71 5-69-32zm-48 3c29 0 43-24 42-57-32 0-66-3-65 30 0 17 8 27 23 27zm18-177l-59-48v-8h45l44 51v5h-30" id="ab"/><use transform="matrix(0.07407407407407406,0,0,0.07407407407407406,0,0)" xlink:href="#ab" id="k"/><path fill="#333" d="M62-158H24l-5-90h48" id="ac"/><g id="l"><use transform="matrix(0.07407407407407406,0,0,0.07407407407407406,0,0)" xlink:href="#O"/><use transform="matrix(0.07407407407407406,0,0,0.07407407407407406,7.407407407407406,0)" xlink:href="#ac"/><use transform="matrix(0.07407407407407406,0,0,0.07407407407407406,13.7037037037037,0)" xlink:href="#M"/><use transform="matrix(0.07407407407407406,0,0,0.07407407407407406,28.518518518518512,0)" xlink:href="#F"/><use transform="matrix(0.07407407407407406,0,0,0.07407407407407406,43.33333333333332,0)" xlink:href="#I"/><use transform="matrix(0.07407407407407406,0,0,0.07407407407407406,59.55555555555554,0)" xlink:href="#J"/><use transform="matrix(0.07407407407407406,0,0,0.07407407407407406,74.37037037037035,0)" xlink:href="#O"/><use transform="matrix(0.07407407407407406,0,0,0.07407407407407406,81.77777777777776,0)" xlink:href="#O"/><use transform="matrix(0.07407407407407406,0,0,0.07407407407407406,89.18518518518516,0)" xlink:href="#J"/></g><g id="m"><use transform="matrix(0.07407407407407406,0,0,0.07407407407407406,0,0)" xlink:href="#Y"/><use transform="matrix(0.07407407407407406,0,0,0.07407407407407406,16.222222222222218,0)" xlink:href="#J"/></g><g id="n"><use transform="matrix(0.07407407407407406,0,0,0.07407407407407406,0,0)" xlink:href="#O"/><use transform="matrix(0.07407407407407406,0,0,0.07407407407407406,7.407407407407406,0)" xlink:href="#U"/></g><path fill="#333" d="M135-194c53 0 70 44 70 98 0 56-19 98-73 100-31 1-45-17-59-34 3 33 2 69 2 105H25l-1-265h48c2 10 0 23 3 31 11-24 29-35 60-35zM114-30c33 0 39-31 40-66 0-38-9-64-40-64-56 0-55 130 0 130" id="ad"/><path fill="#333" d="M135-150c-39-12-60 13-60 57V0H25l-1-190h47c2 13-1 29 3 40 6-28 27-53 61-41v41" id="ae"/><path fill="#333" d="M121-226c-27-7-43 5-38 36h38v33H83V0H34v-157H6v-33h28c-9-59 32-81 87-68v32" id="af"/><g id="o"><use transform="matrix(0.07407407407407406,0,0,0.07407407407407406,0,0)" xlink:href="#ad"/><use transform="matrix(0.07407407407407406,0,0,0.07407407407407406,16.222222222222218,0)" xlink:href="#ae"/><use transform="matrix(0.07407407407407406,0,0,0.07407407407407406,26.592592592592585,0)" xlink:href="#G"/><use transform="matrix(0.07407407407407406,0,0,0.07407407407407406,42.81481481481481,0)" xlink:href="#af"/><use transform="matrix(0.07407407407407406,0,0,0.07407407407407406,51.62962962962962,0)" xlink:href="#G"/><use transform="matrix(0.07407407407407406,0,0,0.07407407407407406,67.85185185185183,0)" xlink:href="#Q"/><use transform="matrix(0.07407407407407406,0,0,0.07407407407407406,84.07407407407405,0)" xlink:href="#Y"/><use transform="matrix(0.07407407407407406,0,0,0.07407407407407406,100.29629629629626,0)" xlink:href="#J"/><use transform="matrix(0.07407407407407406,0,0,0.07407407407407406,115.11111111111107,0)" xlink:href="#H"/><use transform="matrix(0.07407407407407406,0,0,0.07407407407407406,131.3333333333333,0)" xlink:href="#ae"/></g><path fill="#333" d="M24-248c93 1 206-16 204 79-1 75-69 88-152 82V0H24v-248zm52 121c47 0 100 7 100-41 0-47-54-39-100-39v80" id="ag"/><g id="p"><use transform="matrix(0.07407407407407407,0,0,0.07407407407407407,0,0)" xlink:href="#ag"/><use transform="matrix(0.07407407407407407,0,0,0.07407407407407407,17.77777777777778,0)" xlink:href="#O"/><use transform="matrix(0.07407407407407407,0,0,0.07407407407407407,25.185185185185183,0)" xlink:href="#H"/><use transform="matrix(0.07407407407407407,0,0,0.07407407407407407,41.407407407407405,0)" xlink:href="#N"/></g><g id="q"><use transform="matrix(0.07407407407407407,0,0,0.07407407407407407,0,0)" xlink:href="#ad"/><use transform="matrix(0.07407407407407407,0,0,0.07407407407407407,16.22222222222222,0)" xlink:href="#ae"/><use transform="matrix(0.07407407407407407,0,0,0.07407407407407407,26.59259259259259,0)" xlink:href="#G"/><use transform="matrix(0.07407407407407407,0,0,0.07407407407407407,42.81481481481481,0)" xlink:href="#af"/><use transform="matrix(0.07407407407407407,0,0,0.07407407407407407,51.629629629629626,0)" xlink:href="#G"/><use transform="matrix(0.07407407407407407,0,0,0.07407407407407407,67.85185185185185,0)" xlink:href="#Q"/><use transform="matrix(0.07407407407407407,0,0,0.07407407407407407,84.07407407407408,0)" xlink:href="#Y"/></g><g id="r"><use transform="matrix(0.07407407407407406,0,0,0.07407407407407406,0,0)" xlink:href="#Y"/><use transform="matrix(0.07407407407407406,0,0,0.07407407407407406,16.222222222222218,0)" xlink:href="#V"/></g><g id="s"><use transform="matrix(0.07407407407407406,0,0,0.07407407407407406,0,0)" xlink:href="#Y"/><use transform="matrix(0.07407407407407406,0,0,0.07407407407407406,16.222222222222218,0)" xlink:href="#J"/></g><g id="t"><use transform="matrix(0.07407407407407406,0,0,0.07407407407407406,0,0)" xlink:href="#O"/><use transform="matrix(0.07407407407407406,0,0,0.07407407407407406,7.407407407407406,0)" xlink:href="#U"/></g><g id="u"><use transform="matrix(0.07407407407407406,0,0,0.07407407407407406,0,0)" xlink:href="#ae"/><use transform="matrix(0.07407407407407406,0,0,0.07407407407407406,10.370370370370368,0)" xlink:href="#M"/><use transform="matrix(0.07407407407407406,0,0,0.07407407407407406,25.18518518518518,0)" xlink:href="#N"/><use transform="matrix(0.07407407407407406,0,0,0.07407407407407406,39.99999999999999,0)" xlink:href="#G"/><use transform="matrix(0.07407407407407406,0,0,0.07407407407407406,56.222222222222214,0)" xlink:href="#O"/><use transform="matrix(0.07407407407407406,0,0,0.07407407407407406,63.62962962962962,0)" xlink:href="#H"/><use transform="matrix(0.07407407407407406,0,0,0.07407407407407406,79.85185185185183,0)" xlink:href="#P"/><use transform="matrix(0.07407407407407406,0,0,0.07407407407407406,88.66666666666664,0)" xlink:href="#K"/><use transform="matrix(0.07407407407407406,0,0,0.07407407407407406,96.07407407407405,0)" xlink:href="#G"/><use transform="matrix(0.07407407407407406,0,0,0.07407407407407406,112.29629629629626,0)" xlink:href="#Q"/></g><g id="v"><use transform="matrix(0.0679012345679012,0,0,0.0679012345679012,0,0)" xlink:href="#R"/><use transform="matrix(0.0679012345679012,0,0,0.0679012345679012,17.58641975308641,0)" xlink:href="#U"/><use transform="matrix(0.0679012345679012,0,0,0.0679012345679012,31.16666666666665,0)" xlink:href="#H"/><use transform="matrix(0.0679012345679012,0,0,0.0679012345679012,46.03703703703701,0)" xlink:href="#P"/><use transform="matrix(0.0679012345679012,0,0,0.0679012345679012,54.11728395061725,0)" xlink:href="#J"/></g><g id="w"><use transform="matrix(0.0679012345679012,0,0,0.0679012345679012,0,0)" xlink:href="#ae"/><use transform="matrix(0.0679012345679012,0,0,0.0679012345679012,9.506172839506169,0)" xlink:href="#M"/><use transform="matrix(0.0679012345679012,0,0,0.0679012345679012,23.08641975308641,0)" xlink:href="#N"/><use transform="matrix(0.0679012345679012,0,0,0.0679012345679012,36.66666666666665,0)" xlink:href="#G"/><use transform="matrix(0.0679012345679012,0,0,0.0679012345679012,51.53703703703701,0)" xlink:href="#O"/><use transform="matrix(0.0679012345679012,0,0,0.0679012345679012,58.32716049382712,0)" xlink:href="#H"/><use transform="matrix(0.0679012345679012,0,0,0.0679012345679012,73.19753086419747,0)" xlink:href="#P"/><use transform="matrix(0.0679012345679012,0,0,0.0679012345679012,81.27777777777773,0)" xlink:href="#K"/><use transform="matrix(0.0679012345679012,0,0,0.0679012345679012,88.06790123456784,0)" xlink:href="#G"/><use transform="matrix(0.0679012345679012,0,0,0.0679012345679012,102.93827160493821,0)" xlink:href="#Q"/></g><g id="x"><use transform="matrix(0.07407407407407406,0,0,0.07407407407407406,0,0)" xlink:href="#R"/><use transform="matrix(0.07407407407407406,0,0,0.07407407407407406,19.18518518518518,0)" xlink:href="#U"/><use transform="matrix(0.07407407407407406,0,0,0.07407407407407406,33.99999999999999,0)" xlink:href="#H"/><use transform="matrix(0.07407407407407406,0,0,0.07407407407407406,50.22222222222222,0)" xlink:href="#P"/><use transform="matrix(0.07407407407407406,0,0,0.07407407407407406,59.037037037037024,0)" xlink:href="#J"/></g><g id="y"><use transform="matrix(0.07407407407407406,0,0,0.07407407407407406,0,0)" xlink:href="#ae"/><use transform="matrix(0.07407407407407406,0,0,0.07407407407407406,10.370370370370368,0)" xlink:href="#M"/><use transform="matrix(0.07407407407407406,0,0,0.07407407407407406,25.18518518518518,0)" xlink:href="#N"/><use transform="matrix(0.07407407407407406,0,0,0.07407407407407406,39.99999999999999,0)" xlink:href="#G"/><use transform="matrix(0.07407407407407406,0,0,0.07407407407407406,56.222222222222214,0)" xlink:href="#O"/><use transform="matrix(0.07407407407407406,0,0,0.07407407407407406,63.62962962962962,0)" xlink:href="#H"/><use transform="matrix(0.07407407407407406,0,0,0.07407407407407406,79.85185185185183,0)" xlink:href="#P"/><use transform="matrix(0.07407407407407406,0,0,0.07407407407407406,88.66666666666664,0)" xlink:href="#K"/><use transform="matrix(0.07407407407407406,0,0,0.07407407407407406,96.07407407407405,0)" xlink:href="#G"/><use transform="matrix(0.07407407407407406,0,0,0.07407407407407406,112.29629629629626,0)" xlink:href="#Q"/></g><g id="z"><use transform="matrix(0.07407407407407406,0,0,0.07407407407407406,0,0)" xlink:href="#J"/><use transform="matrix(0.07407407407407406,0,0,0.07407407407407406,14.814814814814811,0)" xlink:href="#V"/></g><g id="A"><use transform="matrix(0.07407407407407406,0,0,0.07407407407407406,0,0)" xlink:href="#O"/><use transform="matrix(0.07407407407407406,0,0,0.07407407407407406,7.407407407407406,0)" xlink:href="#ac"/><use transform="matrix(0.07407407407407406,0,0,0.07407407407407406,13.7037037037037,0)" xlink:href="#M"/><use transform="matrix(0.07407407407407406,0,0,0.07407407407407406,28.518518518518512,0)" xlink:href="#F"/><use transform="matrix(0.07407407407407406,0,0,0.07407407407407406,43.33333333333332,0)" xlink:href="#I"/><use transform="matrix(0.07407407407407406,0,0,0.07407407407407406,59.55555555555554,0)" xlink:href="#J"/><use transform="matrix(0.07407407407407406,0,0,0.07407407407407406,74.37037037037035,0)" xlink:href="#O"/><use transform="matrix(0.07407407407407406,0,0,0.07407407407407406,81.77777777777776,0)" xlink:href="#O"/><use transform="matrix(0.07407407407407406,0,0,0.07407407407407406,89.18518518518516,0)" xlink:href="#J"/></g><path fill="#333" d="M220-157c-53 9-28 100-34 157h-49v-107c1-27-5-49-29-50C55-147 81-57 75 0H25l-1-190h47c2 12-1 28 3 38 10-53 101-56 108 0 13-22 24-43 59-42 82 1 51 116 57 194h-49v-107c-1-25-5-48-29-50" id="ah"/><g id="B"><use transform="matrix(0.07407407407407406,0,0,0.07407407407407406,0,0)" xlink:href="#F"/><use transform="matrix(0.07407407407407406,0,0,0.07407407407407406,14.814814814814811,0)" xlink:href="#G"/><use transform="matrix(0.07407407407407406,0,0,0.07407407407407406,31.03703703703703,0)" xlink:href="#ah"/><use transform="matrix(0.07407407407407406,0,0,0.07407407407407406,54.74074074074073,0)" xlink:href="#ad"/><use transform="matrix(0.07407407407407406,0,0,0.07407407407407406,70.96296296296295,0)" xlink:href="#G"/><use transform="matrix(0.07407407407407406,0,0,0.07407407407407406,87.18518518518516,0)" xlink:href="#N"/><use transform="matrix(0.07407407407407406,0,0,0.07407407407407406,101.99999999999997,0)" xlink:href="#M"/><use transform="matrix(0.07407407407407406,0,0,0.07407407407407406,116.81481481481478,0)" xlink:href="#J"/></g><g id="C"><use transform="matrix(0.07407407407407407,0,0,0.07407407407407407,0,0)" xlink:href="#O"/><use transform="matrix(0.07407407407407407,0,0,0.07407407407407407,7.4074074074074066,0)" xlink:href="#U"/><use transform="matrix(0.07407407407407407,0,0,0.07407407407407407,22.22222222222222,0)" xlink:href="#ae"/><use transform="matrix(0.07407407407407407,0,0,0.07407407407407407,32.592592592592595,0)" xlink:href="#X"/><use transform="matrix(0.07407407407407407,0,0,0.07407407407407407,48.814814814814824,0)" xlink:href="#J"/></g><path fill="#333" d="M160-152l-12 59h37v26h-43L128 0h-28l14-67H60L46 0H20l13-67H6v-26h33l13-59H15v-26h42l15-67h27l-15 67h54l15-67h27l-14 67h28v26h-34zm-81 0L66-93h55l12-59H79" id="ai"/><path fill="#333" d="M67-125c0 53 21 87 73 88 37 1 54-22 65-47l45 17C233-25 199 4 140 4 58 4 20-42 15-125 8-235 124-281 211-232c18 10 29 29 36 50l-46 12c-8-25-30-41-62-41-52 0-71 34-72 86" id="aj"/><g id="D"><use transform="matrix(0.07407407407407407,0,0,0.07407407407407407,0,0)" xlink:href="#ai"/><use transform="matrix(0.07407407407407407,0,0,0.07407407407407407,14.814814814814813,0)" xlink:href="#aj"/><use transform="matrix(0.07407407407407407,0,0,0.07407407407407407,34,0)" xlink:href="#U"/><use transform="matrix(0.07407407407407407,0,0,0.07407407407407407,48.81481481481481,0)" xlink:href="#Q"/><use transform="matrix(0.07407407407407407,0,0,0.07407407407407407,65.03703703703704,0)" xlink:href="#U"/><use transform="matrix(0.07407407407407407,0,0,0.07407407407407407,79.85185185185185,0)" xlink:href="#H"/><use transform="matrix(0.07407407407407407,0,0,0.07407407407407407,96.07407407407406,0)" xlink:href="#S"/></g><g id="E"><use transform="matrix(0.07407407407407406,0,0,0.07407407407407406,0,0)" xlink:href="#O"/><use transform="matrix(0.07407407407407406,0,0,0.07407407407407406,7.407407407407406,0)" xlink:href="#U"/><use transform="matrix(0.07407407407407406,0,0,0.07407407407407406,22.222222222222218,0)" xlink:href="#ae"/><use transform="matrix(0.07407407407407406,0,0,0.07407407407407406,32.59259259259259,0)" xlink:href="#X"/><use transform="matrix(0.07407407407407406,0,0,0.07407407407407406,48.81481481481481,0)" xlink:href="#J"/><use transform="matrix(0.07407407407407406,0,0,0.07407407407407406,63.62962962962962,0)" xlink:href="#H"/><use transform="matrix(0.07407407407407406,0,0,0.07407407407407406,79.85185185185183,0)" xlink:href="#ae"/></g></defs></g></svg>