<svg xmlns="http://www.w3.org/2000/svg" xmlns:xlink="http://www.w3.org/1999/xlink" xmlns:lucid="lucid" width="1117" height="458"><g transform="translate(281 45)" lucid:page-tab-id="0_0"><path d="M-66.67 3c0-3.3 2.7-6 6-6h128c3.32 0 6 2.7 6 6v70c0 3.3-2.68 6-6 6h-128c-3.3 0-6-2.7-6-6z" stroke="#5e5e5e" stroke-width="3" fill="#fff7a1"/><use xlink:href="#a" transform="matrix(1,0,0,1,-61.666666666666686,2) translate(21.77777777777778 40.75)"/><use xlink:href="#b" transform="matrix(1,0,0,1,-61.666666666666686,2) translate(97.11111111111111 40.75)"/><path d="M-66.67 243c0-3.3 2.7-6 6-6h128c3.32 0 6 2.7 6 6v70c0 3.3-2.68 6-6 6h-128c-3.3 0-6-2.7-6-6z" stroke="#5e5e5e" stroke-width="3" fill="#cfe4ff"/><use xlink:href="#a" transform="matrix(1,0,0,1,-61.666666666666686,242) translate(21.77777777777778 40.75)"/><use xlink:href="#c" transform="matrix(1,0,0,1,-61.666666666666686,242) translate(97.11111111111111 40.75)"/><path d="M-246.67 123c0-3.3 2.7-6 6-6h128c3.32 0 6 2.7 6 6v70c0 3.3-2.68 6-6 6h-128c-3.3 0-6-2.7-6-6z" stroke="#5e5e5e" stroke-width="3" fill="#ffdda6"/><use xlink:href="#a" transform="matrix(1,0,0,1,-241.66666666666669,122) translate(21.77777777777778 40.75)"/><use xlink:href="#d" transform="matrix(1,0,0,1,-241.66666666666669,122) translate(97.11111111111111 40.75)"/><path d="M3.33 99v135.5" stroke="#5e5e5e" stroke-width="2" fill="none"/><path d="M3.33 83.74L7.97 98H-1.3z" stroke="#5e5e5e" stroke-width="2" fill="#5e5e5e"/><path d="M4.33 235.5h-2v-1.03h2z" stroke="#5e5e5e" stroke-width=".05" fill="#5e5e5e"/><path d="M2.52 81.08l-92.63 66.17" stroke="#5e5e5e" stroke-width="2" fill="none"/><path d="M3.08 81.9l-1-1.4h2.97z" stroke="#5e5e5e" stroke-width=".05" fill="#5e5e5e"/><path d="M-102.53 156.12l8.9-12.06 5.4 7.54z" stroke="#5e5e5e" stroke-width="2" fill="#5e5e5e"/><path d="M-102.96 157.6l91.37 66.96M-102.94 157.6l-.83-.6" stroke="#5e5e5e" stroke-width="2" fill="none"/><path d="M.72 233.6l-14.24-4.7 5.48-7.5z" stroke="#5e5e5e" stroke-width="2" fill="#5e5e5e"/><path d="M293.33 3c0-3.3 2.7-6 6-6h128c3.32 0 6 2.7 6 6v70c0 3.3-2.68 6-6 6h-128c-3.3 0-6-2.7-6-6z" stroke="#5e5e5e" stroke-width="3" fill="#dedeff"/><use xlink:href="#a" transform="matrix(1,0,0,1,298.3333333333333,2) translate(21.77777777777778 40.75)"/><use xlink:href="#e" transform="matrix(1,0,0,1,298.3333333333333,2) translate(97.11111111111111 40.75)"/><path d="M293.33 243c0-3.3 2.7-6 6-6h128c3.32 0 6 2.7 6 6v70c0 3.3-2.68 6-6 6h-128c-3.3 0-6-2.7-6-6z" stroke="#5e5e5e" stroke-width="3" fill="#ffd9d9"/><use xlink:href="#a" transform="matrix(1,0,0,1,298.3333333333333,242) translate(21.77777777777778 40.75)"/><use xlink:href="#c" transform="matrix(1,0,0,1,298.3333333333333,242) translate(97.11111111111111 40.75)"/><path d="M113.33 123c0-3.3 2.7-6 6-6h128c3.32 0 6 2.7 6 6v70c0 3.3-2.68 6-6 6h-128c-3.3 0-6-2.7-6-6z" stroke="#5e5e5e" stroke-width="3" fill="#c3f7c8"/><use xlink:href="#a" transform="matrix(1,0,0,1,118.33333333333331,122) translate(21.77777777777778 40.75)"/><use xlink:href="#d" transform="matrix(1,0,0,1,118.33333333333331,122) translate(97.11111111111111 40.75)"/><path d="M363.33 99v135.5" stroke="#5e5e5e" stroke-width="2" fill="none"/><path d="M363.33 83.74L367.97 98h-9.27z" stroke="#5e5e5e" stroke-width="2" fill="#5e5e5e"/><path d="M364.33 235.5h-2v-1.03h2z" stroke="#5e5e5e" stroke-width=".05" fill="#5e5e5e"/><path d="M362.52 81.08l-92.63 66.17" stroke="#5e5e5e" stroke-width="2" fill="none"/><path d="M363.08 81.9l-1-1.4h2.97z" stroke="#5e5e5e" stroke-width=".05" fill="#5e5e5e"/><path d="M257.47 156.12l8.9-12.06 5.4 7.54z" stroke="#5e5e5e" stroke-width="2" fill="#5e5e5e"/><path d="M257.04 157.6l91.37 66.96M257.06 157.6l-.83-.6" stroke="#5e5e5e" stroke-width="2" fill="none"/><path d="M360.72 233.6l-14.24-4.7 5.48-7.5z" stroke="#5e5e5e" stroke-width="2" fill="#5e5e5e"/><path d="M653.33 3c0-3.3 2.7-6 6-6h128c3.32 0 6 2.7 6 6v70c0 3.3-2.68 6-6 6h-128c-3.3 0-6-2.7-6-6z" stroke="#5e5e5e" stroke-width="3" fill="#dedeff"/><use xlink:href="#a" transform="matrix(1,0,0,1,658.3333333333333,2) translate(21.77777777777778 40.75)"/><use xlink:href="#e" transform="matrix(1,0,0,1,658.3333333333333,2) translate(97.11111111111111 40.75)"/><path d="M653.33 243c0-3.3 2.7-6 6-6h128c3.32 0 6 2.7 6 6v70c0 3.3-2.68 6-6 6h-128c-3.3 0-6-2.7-6-6z" stroke="#5e5e5e" stroke-width="3" fill="#ffd6f5"/><use xlink:href="#a" transform="matrix(1,0,0,1,658.3333333333333,242) translate(21.77777777777778 40.75)"/><use xlink:href="#f" transform="matrix(1,0,0,1,658.3333333333333,242) translate(97.11111111111111 40.75)"/><path d="M473.33 123c0-3.3 2.7-6 6-6h128c3.32 0 6 2.7 6 6v70c0 3.3-2.68 6-6 6h-128c-3.3 0-6-2.7-6-6z" stroke="#5e5e5e" stroke-width="3" fill="#c3f7c8"/><use xlink:href="#a" transform="matrix(1,0,0,1,478.3333333333333,122) translate(21.77777777777778 40.75)"/><use xlink:href="#d" transform="matrix(1,0,0,1,478.3333333333333,122) translate(97.11111111111111 40.75)"/><path d="M723.33 99v135.5" stroke="#5e5e5e" stroke-width="2" fill="none"/><path d="M723.33 83.74L727.97 98h-9.27z" stroke="#5e5e5e" stroke-width="2" fill="#5e5e5e"/><path d="M724.33 235.5h-2v-1.03h2z" stroke="#5e5e5e" stroke-width=".05" fill="#5e5e5e"/><path d="M722.52 81.08l-92.63 66.17" stroke="#5e5e5e" stroke-width="2" fill="none"/><path d="M723.08 81.9l-1-1.4h2.97z" stroke="#5e5e5e" stroke-width=".05" fill="#5e5e5e"/><path d="M617.47 156.12l8.9-12.06 5.4 7.54z" stroke="#5e5e5e" stroke-width="2" fill="#5e5e5e"/><path d="M617.04 157.6l91.37 66.96M617.06 157.6l-.83-.6" stroke="#5e5e5e" stroke-width="2" fill="none"/><path d="M720.72 233.6l-14.24-4.7 5.48-7.5z" stroke="#5e5e5e" stroke-width="2" fill="#5e5e5e"/><path d="M-66.67 343c0-3.3 2.7-6 6-6H66.6c3.3 0 6 2.7 6 6v46c0 3.3-2.7 6-6 6H-60.68c-3.3 0-6-2.7-6-6z" stroke="#000" stroke-opacity="0" stroke-width="3" fill="#fff" fill-opacity="0"/><g><use xlink:href="#g" transform="matrix(1,0,0,1,-61.666666666666686,342) translate(8.472222222222221 28)"/><use xlink:href="#b" transform="matrix(1,0,0,1,-61.666666666666686,342) translate(110.41666666666666 28)"/></g><path d="M290.04 343c0-3.3 2.7-6 6-6H423.3c3.3 0 6 2.7 6 6v46c0 3.3-2.7 6-6 6H296.04c-3.3 0-6-2.7-6-6z" stroke="#000" stroke-opacity="0" stroke-width="3" fill="#fff" fill-opacity="0"/><g><use xlink:href="#g" transform="matrix(1,0,0,1,295.0416666666666,342) translate(8.472222222222221 28)"/><use xlink:href="#e" transform="matrix(1,0,0,1,295.0416666666666,342) translate(110.41666666666666 28)"/></g><path d="M653.33 343c0-3.3 2.7-6 6-6H786.6c3.3 0 6 2.7 6 6v46c0 3.3-2.7 6-6 6H659.32c-3.3 0-6-2.7-6-6z" stroke="#000" stroke-opacity="0" stroke-width="3" fill="#fff" fill-opacity="0"/><g><use xlink:href="#g" transform="matrix(1,0,0,1,658.3333333333333,342) translate(8.472222222222221 28)"/><use xlink:href="#d" transform="matrix(1,0,0,1,658.3333333333333,342) translate(110.41666666666666 28)"/></g><defs><path fill="#333" d="M230 0l2-204L168 0h-37L68-204 70 0H24v-248h70l56 185 57-185h69V0h-46" id="h"/><path fill="#333" d="M110-194c64 0 96 36 96 99 0 64-35 99-97 99-61 0-95-36-95-99 0-62 34-99 96-99zm-1 164c35 0 45-28 45-65 0-40-10-65-43-65-34 0-45 26-45 65 0 36 10 65 43 65" id="i"/><path fill="#333" d="M88-194c31-1 46 15 58 34l-1-101h50l1 261h-48c-2-10 0-23-3-31C134-8 116 4 84 4 32 4 16-41 15-95c0-56 19-97 73-99zm17 164c33 0 40-30 41-66 1-37-9-64-41-64s-38 30-39 65c0 43 13 65 39 65" id="j"/><path fill="#333" d="M85 4C-2 5 27-109 22-190h50c7 57-23 150 33 157 60-5 35-97 40-157h50l1 190h-47c-2-12 1-28-3-38-12 25-28 42-61 42" id="k"/><path fill="#333" d="M25 0v-261h50V0H25" id="l"/><path fill="#333" d="M185-48c-13 30-37 53-82 52C43 2 14-33 14-96s30-98 90-98c62 0 83 45 84 108H66c0 31 8 55 39 56 18 0 30-7 34-22zm-45-69c5-46-57-63-70-21-2 6-4 13-4 21h74" id="m"/><g id="a"><use transform="matrix(0.055555555555555546,0,0,0.055555555555555546,0,0)" xlink:href="#h"/><use transform="matrix(0.055555555555555546,0,0,0.055555555555555546,16.611111111111107,0)" xlink:href="#i"/><use transform="matrix(0.055555555555555546,0,0,0.055555555555555546,28.77777777777777,0)" xlink:href="#j"/><use transform="matrix(0.055555555555555546,0,0,0.055555555555555546,40.944444444444436,0)" xlink:href="#k"/><use transform="matrix(0.055555555555555546,0,0,0.055555555555555546,53.1111111111111,0)" xlink:href="#l"/><use transform="matrix(0.055555555555555546,0,0,0.055555555555555546,58.66666666666666,0)" xlink:href="#m"/></g><path fill="#333" d="M23 0v-37h61v-169l-59 37v-38l62-41h46v211h57V0H23" id="n"/><use transform="matrix(0.055555555555555546,0,0,0.055555555555555546,0,0)" xlink:href="#n" id="b"/><path fill="#333" d="M165-50V0h-47v-50H5v-38l105-160h55v161h33v37h-33zm-47-37l2-116L46-87h72" id="o"/><use transform="matrix(0.055555555555555546,0,0,0.055555555555555546,0,0)" xlink:href="#o" id="c"/><path fill="#333" d="M128-127c34 4 56 21 59 58 7 91-148 94-172 28-4-9-6-17-7-26l51-5c1 24 16 35 40 36 23 0 39-12 38-36-1-31-31-36-65-34v-40c32 2 59-3 59-33 0-20-13-33-34-33s-33 13-35 32l-50-3c6-44 37-68 86-68 50 0 83 20 83 66 0 35-22 52-53 58" id="p"/><use transform="matrix(0.055555555555555546,0,0,0.055555555555555546,0,0)" xlink:href="#p" id="d"/><path fill="#333" d="M182-182c0 78-84 86-111 141h115V0H12c-6-101 99-100 120-180 1-22-12-31-33-32-23 0-32 14-35 34l-49-3c5-45 32-70 84-70 51 0 83 22 83 69" id="q"/><use transform="matrix(0.055555555555555546,0,0,0.055555555555555546,0,0)" xlink:href="#q" id="e"/><path fill="#333" d="M139-81c0-46-55-55-73-27H18l9-140h149v37H72l-4 63c44-38 133-4 122 66C201 21 21 35 11-62l49-4c5 18 15 30 39 30 26 0 40-18 40-45" id="r"/><use transform="matrix(0.055555555555555546,0,0,0.055555555555555546,0,0)" xlink:href="#r" id="f"/><path fill="#333" d="M169-182c-1-43-94-46-97-3 18 66 151 10 154 114 3 95-165 93-204 36-6-8-10-19-12-30l50-8c3 46 112 56 116 5-17-69-150-10-154-114-4-87 153-88 188-35 5 8 8 18 10 28" id="s"/><path fill="#333" d="M137-138c1-29-70-34-71-4 15 46 118 7 119 86 1 83-164 76-172 9l43-7c4 19 20 25 44 25 33 8 57-30 24-41C81-84 22-81 20-136c-2-80 154-74 161-7" id="t"/><path fill="#333" d="M14-72v-43h91v43H14" id="u"/><path fill="#333" d="M135-194c52 0 70 43 70 98 0 56-19 99-73 100-30 1-46-15-58-35L72 0H24l1-261h50v104c11-23 29-37 60-37zM114-30c31 0 40-27 40-66 0-37-7-63-39-63s-41 28-41 65c0 36 8 64 40 64" id="v"/><path fill="#333" d="M190-63c-7 42-38 67-86 67-59 0-84-38-90-98-12-110 154-137 174-36l-49 2c-2-19-15-32-35-32-30 0-35 28-38 64-6 74 65 87 74 30" id="w"/><g id="g"><use transform="matrix(0.055555555555555546,0,0,0.055555555555555546,0,0)" xlink:href="#s"/><use transform="matrix(0.055555555555555546,0,0,0.055555555555555546,13.33333333333333,0)" xlink:href="#i"/><use transform="matrix(0.055555555555555546,0,0,0.055555555555555546,25.499999999999993,0)" xlink:href="#k"/><use transform="matrix(0.055555555555555546,0,0,0.055555555555555546,37.66666666666666,0)" xlink:href="#t"/><use transform="matrix(0.055555555555555546,0,0,0.055555555555555546,48.777777777777764,0)" xlink:href="#u"/><use transform="matrix(0.055555555555555546,0,0,0.055555555555555546,55.38888888888887,0)" xlink:href="#v"/><use transform="matrix(0.055555555555555546,0,0,0.055555555555555546,67.55555555555554,0)" xlink:href="#l"/><use transform="matrix(0.055555555555555546,0,0,0.055555555555555546,73.1111111111111,0)" xlink:href="#i"/><use transform="matrix(0.055555555555555546,0,0,0.055555555555555546,85.27777777777777,0)" xlink:href="#w"/></g></defs></g></svg>