<svg xmlns="http://www.w3.org/2000/svg" xmlns:xlink="http://www.w3.org/1999/xlink" xmlns:lucid="lucid" width="1430" height="1180"><g transform="translate(897 335)" lucid:page-tab-id="0_0"><path d="M-854.02-271.33c0-3.32 2.68-6 6-6h128c3.3 0 6 2.68 6 6v68c0 3.3-2.7 6-6 6h-128c-3.32 0-6-2.7-6-6z" stroke="#5e5e5e" stroke-width="3" fill="#f2f3f5"/><use xlink:href="#a" transform="matrix(1,0,0,1,-849.0221694378458,-272.33333333333337) translate(11.250000000000014 40.0625)"/><use xlink:href="#b" transform="matrix(1,0,0,1,-849.0221694378458,-272.33333333333337) translate(65.47222222222223 40.0625)"/><path d="M-654.02-270c0-3.3 2.68-6 6-6h128c3.3 0 6 2.7 6 6v68c0 3.3-2.7 6-6 6h-128c-3.32 0-6-2.7-6-6z" stroke="#5e5e5e" stroke-width="3" fill="#fff7a1"/><use xlink:href="#c" transform="matrix(1,0,0,1,-649.0221694378458,-271) translate(17.86111111111113 40.0625)"/><path d="M-454.02-270c0-3.3 2.68-6 6-6h128c3.3 0 6 2.7 6 6v68c0 3.3-2.7 6-6 6h-128c-3.32 0-6-2.7-6-6z" stroke="#5e5e5e" stroke-width="3" fill="#c3f7c8"/><use xlink:href="#d" transform="matrix(1,0,0,1,-449.02216943784583,-271) translate(-0.9722222222222143 39)"/><path d="M-254.02-270c0-3.3 2.68-6 6-6h128c3.3 0 6 2.7 6 6v68c0 3.3-2.7 6-6 6h-128c-3.32 0-6-2.7-6-6z" stroke="#5e5e5e" stroke-width="3" fill="#ffdda6"/><use xlink:href="#e" transform="matrix(1,0,0,1,-249.02216943784583,-271) translate(1.2777777777777857 40.0625)"/><use xlink:href="#f" transform="matrix(1,0,0,1,-249.02216943784583,-271) translate(50.05555555555556 40.0625)"/><path d="M-54.02-274c0-3.3 2.68-6 6-6h128c3.3 0 6 2.7 6 6v68c0 3.3-2.7 6-6 6h-128c-3.32 0-6-2.7-6-6z" stroke="#5e5e5e" stroke-width="3" fill="#fff3d9"/><use xlink:href="#g" transform="matrix(1,0,0,1,-49.02216943784583,-275) translate(27.333333333333343 40.0625)"/><path d="M145.98-274c0-3.3 2.68-6 6-6h128c3.3 0 6 2.7 6 6v68c0 3.3-2.7 6-6 6h-128c-3.32 0-6-2.7-6-6z" stroke="#5e5e5e" stroke-width="3" fill="#ffd9d9"/><use xlink:href="#h" transform="matrix(1,0,0,1,150.97783056215417,-275) translate(37.305555555555564 27)"/><use xlink:href="#i" transform="matrix(1,0,0,1,150.97783056215417,-275) translate(-0.9722222222222143 51)"/><path d="M345.98-274c0-3.3 2.68-6 6-6h128c3.3 0 6 2.7 6 6v68c0 3.3-2.7 6-6 6h-128c-3.32 0-6-2.7-6-6z" stroke="#5e5e5e" stroke-width="3" fill="#cfe4ff"/><use xlink:href="#j" transform="matrix(1,0,0,1,350.97783056215417,-275) translate(16.80555555555557 40.0625)"/><path d="M-711.52-237.33h37.5" stroke="#5e5e5e" stroke-width="2" fill="none"/><path d="M-711.5-236.33h-1.02v-2h1.02z" stroke="#5e5e5e" stroke-width=".05" fill="#5e5e5e"/><path d="M-658.76-237.33l-14.27 4.63v-9.27z" stroke="#5e5e5e" stroke-width="2" fill="#5e5e5e"/><path d="M-511.52-236h37.5" stroke="#5e5e5e" stroke-width="2" fill="none"/><path d="M-511.5-235h-1.02v-2h1.02z" stroke="#5e5e5e" stroke-width=".05" fill="#5e5e5e"/><path d="M-458.76-236l-14.26 4.64v-9.28z" stroke="#5e5e5e" stroke-width="2" fill="#5e5e5e"/><path d="M-311.52-236h37.5" stroke="#5e5e5e" stroke-width="2" fill="none"/><path d="M-311.5-235h-1.02v-2h1.02z" stroke="#5e5e5e" stroke-width=".05" fill="#5e5e5e"/><path d="M-258.76-236l-14.26 4.64v-9.28z" stroke="#5e5e5e" stroke-width="2" fill="#5e5e5e"/><path d="M-111.52-236h37.5" stroke="#5e5e5e" stroke-width="2" fill="none"/><path d="M-111.5-235h-1.02v-2h1.02z" stroke="#5e5e5e" stroke-width=".05" fill="#5e5e5e"/><path d="M-58.76-236l-14.26 4.64v-9.28z" stroke="#5e5e5e" stroke-width="2" fill="#5e5e5e"/><path d="M88.48-240h37.5" stroke="#5e5e5e" stroke-width="2" fill="none"/><path d="M88.5-239h-1.02v-2h1.02z" stroke="#5e5e5e" stroke-width=".05" fill="#5e5e5e"/><path d="M141.24-240l-14.26 4.64v-9.28z" stroke="#5e5e5e" stroke-width="2" fill="#5e5e5e"/><path d="M-854.02-164.63c0-3.3 2.68-6 6-6h48c3.3 0 6 2.7 6 6v9.34c0 3.32-2.7 6-6 6h-48c-3.32 0-6-2.68-6-6z" stroke="#000" stroke-opacity="0" stroke-width="3" fill="#fff" fill-opacity="0"/><use xlink:href="#k" transform="matrix(1,0,0,1,-849.0221694378458,-165.62500000000006) translate(0.5833333333333357 15.999999999999998)"/><path d="M-860 366.33c0-3.3 2.7-6 6-6h128c3.3 0 6 2.7 6 6v70c0 3.32-2.7 6-6 6h-128c-3.3 0-6-2.68-6-6z" stroke="#5e5e5e" stroke-width="3" fill="#ffe342"/><use xlink:href="#l" transform="matrix(1,0,0,1,-855,365.3333333333335) translate(33.94444444444445 15.999999999999998)"/><use xlink:href="#m" transform="matrix(1,0,0,1,-855,365.3333333333335) translate(25.97222222222223 39.99999999999999)"/><use xlink:href="#n" transform="matrix(1,0,0,1,-855,365.3333333333335) translate(28.44444444444445 63.99999999999999)"/><path d="M-660.67 366c0-3.3 2.7-6 6-6h128c3.32 0 6 2.7 6 6v68c0 3.3-2.68 6-6 6h-128c-3.3 0-6-2.7-6-6z" stroke="#5e5e5e" stroke-width="3" fill="#fff7a1"/><use xlink:href="#o" transform="matrix(1,0,0,1,-655.6666666666666,365) translate(14.027777777777786 40.0625)"/><path d="M-461.33 366c0-3.3 2.68-6 6-6h128c3.3 0 6 2.7 6 6v68c0 3.3-2.7 6-6 6h-128c-3.32 0-6-2.7-6-6z" stroke="#5e5e5e" stroke-width="3" fill="#fff3d9"/><use xlink:href="#g" transform="matrix(1,0,0,1,-456.33333333333326,365) translate(27.333333333333343 40.0625)"/><path d="M-260 366c0-3.3 2.7-6 6-6h128c3.3 0 6 2.7 6 6v68c0 3.3-2.7 6-6 6h-128c-3.3 0-6-2.7-6-6z" stroke="#5e5e5e" stroke-width="3" fill="#fff3d9"/><use xlink:href="#g" transform="matrix(1,0,0,1,-255,365) translate(27.333333333333343 40.0625)"/><path d="M-717.5 401.33h36.83" stroke="#5e5e5e" stroke-width="2" fill="none"/><path d="M-717.47 402.33h-1.03v-2h1.03z" stroke="#5e5e5e" stroke-width=".05" fill="#5e5e5e"/><path d="M-665.4 401.33l-14.27 4.64v-9.27z" stroke="#5e5e5e" stroke-width="2" fill="#5e5e5e"/><path d="M-518.17 400h36.83" stroke="#5e5e5e" stroke-width="2" fill="none"/><path d="M-518.14 401h-1.03v-2h1.03z" stroke="#5e5e5e" stroke-width=".05" fill="#5e5e5e"/><path d="M-466.07 400l-14.27 4.64v-9.28z" stroke="#5e5e5e" stroke-width="2" fill="#5e5e5e"/><path d="M-318.83 400H-280" stroke="#5e5e5e" stroke-width="2" fill="none"/><path d="M-318.8 401h-1.03v-2h1.02z" stroke="#5e5e5e" stroke-width=".05" fill="#5e5e5e"/><path d="M-264.74 400l-14.26 4.64v-9.28z" stroke="#5e5e5e" stroke-width="2" fill="#5e5e5e"/><path d="M-860 465.88c0-3.32 2.7-6 6-6h98c3.3 0 6 2.68 6 6v28.24c0 3.32-2.7 6-6 6h-98c-3.3 0-6-2.68-6-6z" stroke="#000" stroke-opacity="0" stroke-width="3" fill="#fff" fill-opacity="0"/><use xlink:href="#p" transform="matrix(1,0,0,1,-855,464.87532808398936) translate(6.777777777777779 19.875)"/><use xlink:href="#q" transform="matrix(1,0,0,1,-855,464.87532808398936) translate(82.11111111111111 19.875)"/><path d="M288.48-240h55" stroke="#5e5e5e" stroke-width="2" fill="none"/><path d="M288.5-239h-1.02v-2h1.02zM344.48-239h-1.03v-2h1.03z" stroke="#5e5e5e" stroke-width=".05" fill="#5e5e5e"/><path d="M325.98-240h-36.82" stroke="#5e5e5e" stroke-width="2" fill="none"/><path d="M341.24-240l-14.26 4.64v-9.28z" stroke="#5e5e5e" stroke-width="2" fill="#5e5e5e"/><path d="M289.18-240h-1.02" stroke="#5e5e5e" stroke-width="2" fill="none"/><path d="M-849.36-116.58c0-3.32 2.7-6 6-6h128c3.32 0 6 2.68 6 6v68c0 3.3-2.68 6-6 6h-128c-3.3 0-6-2.7-6-6z" stroke="#5e5e5e" stroke-width="3" fill="#fff3d9"/><use xlink:href="#r" transform="matrix(1,0,0,1,-844.3555027711599,-117.5833333333334) translate(27.333333333333343 40.0625)"/><path d="M-650.02-117.92c0-3.3 2.68-6 6-6h128c3.3 0 6 2.7 6 6v68c0 3.32-2.7 6-6 6h-128c-3.32 0-6-2.68-6-6z" stroke="#5e5e5e" stroke-width="3" fill="#fbf0ff"/><use xlink:href="#s" transform="matrix(1,0,0,1,-645.0221694378264,-118.91666666666671) translate(37.305555555555564 27)"/><use xlink:href="#t" transform="matrix(1,0,0,1,-645.0221694378264,-118.91666666666671) translate(-0.9722222222222143 51)"/><path d="M-450.7-117.92c0-3.3 2.7-6 6-6h128c3.32 0 6 2.7 6 6v68c0 3.32-2.68 6-6 6h-128c-3.3 0-6-2.68-6-6z" stroke="#5e5e5e" stroke-width="3" fill="#cfe4ff"/><use xlink:href="#u" transform="matrix(1,0,0,1,-445.68883610449313,-118.91666666666671) translate(16.80555555555557 40.0625)"/><path d="M-706.86-82.58h36.84" stroke="#5e5e5e" stroke-width="2" fill="none"/><path d="M-706.83-81.58h-1.03v-2h1.03z" stroke="#5e5e5e" stroke-width=".05" fill="#5e5e5e"/><path d="M-654.76-82.58l-14.26 4.63v-9.27z" stroke="#5e5e5e" stroke-width="2" fill="#5e5e5e"/><path d="M-507.52-83.92h36.83" stroke="#5e5e5e" stroke-width="2" fill="none"/><path d="M-507.5-82.92h-1.02v-2h1.02z" stroke="#5e5e5e" stroke-width=".05" fill="#5e5e5e"/><path d="M-455.42-83.92l-14.27 4.64v-9.27z" stroke="#5e5e5e" stroke-width="2" fill="#5e5e5e"/><path d="M-865.94-13.33c0-3.32 2.7-6 6-6h137.33c3.3 0 6 2.68 6 6v20c0 3.3-2.7 6-6 6h-137.34c-3.3 0-6-2.7-6-6z" stroke="#000" stroke-opacity="0" stroke-width="3" fill="#fff" fill-opacity="0"/><use xlink:href="#v" transform="matrix(1,0,0,1,-860.9388361045517,-14.333333333333385) translate(11.750000000000014 17.375)"/><use xlink:href="#w" transform="matrix(1,0,0,1,-860.9388361045517,-14.333333333333385) translate(63.86111111111112 17.375)"/><path d="M-856.6 41.92c0-3.32 2.68-6 6-6h128c3.3 0 6 2.68 6 6v68c0 3.3-2.7 6-6 6h-128c-3.32 0-6-2.7-6-6z" stroke="#5e5e5e" stroke-width="3" fill="#dedeff"/><use xlink:href="#x" transform="matrix(1,0,0,1,-851.6055027711795,40.91666666666663) translate(15.111111111111114 26.9375)"/><use xlink:href="#y" transform="matrix(1,0,0,1,-851.6055027711795,40.91666666666663) translate(27.333333333333343 50.9375)"/><path d="M-656.6 43.33c0-3.3 2.68-6 6-6h128c3.3 0 6 2.7 6 6v68c0 3.32-2.7 6-6 6h-128c-3.32 0-6-2.68-6-6z" stroke="#5e5e5e" stroke-width="3" fill="#ffd9d9"/><use xlink:href="#s" transform="matrix(1,0,0,1,-651.6055027711795,42.3339895013122) translate(37.305555555555564 27)"/><use xlink:href="#t" transform="matrix(1,0,0,1,-651.6055027711795,42.3339895013122) translate(-0.9722222222222143 51)"/><path d="M-456.6 43.33c0-3.3 2.68-6 6-6h128c3.3 0 6 2.7 6 6v68c0 3.32-2.7 6-6 6h-128c-3.32 0-6-2.68-6-6z" stroke="#5e5e5e" stroke-width="3" fill="#cfe4ff"/><use xlink:href="#u" transform="matrix(1,0,0,1,-451.60550277117954,42.3339895013122) translate(16.80555555555557 40.0625)"/><path d="M-860 137.92c0-3.32 2.7-6 6-6h98c3.3 0 6 2.68 6 6v28.25c0 3.3-2.7 6-6 6h-98c-3.3 0-6-2.7-6-6z" stroke="#000" stroke-opacity="0" stroke-width="3" fill="#fff" fill-opacity="0"/><use xlink:href="#z" transform="matrix(1,0,0,1,-855,136.91666666666666) translate(6.777777777777779 19.875)"/><use xlink:href="#A" transform="matrix(1,0,0,1,-855,136.91666666666666) translate(82.11111111111111 19.875)"/><path d="M-514.1 77.33h37.5" stroke="#5e5e5e" stroke-width="2" fill="none"/><path d="M-514.08 78.33h-1.03v-2h1.02z" stroke="#5e5e5e" stroke-width=".05" fill="#5e5e5e"/><path d="M-461.34 77.33l-14.27 4.64V72.7z" stroke="#5e5e5e" stroke-width="2" fill="#5e5e5e"/><path d="M-714.1 75.92h37.5" stroke="#5e5e5e" stroke-width="2" fill="none"/><path d="M-714.08 76.92h-1.03v-2h1.02z" stroke="#5e5e5e" stroke-width=".05" fill="#5e5e5e"/><path d="M-661.34 75.92l-14.27 4.63v-9.27z" stroke="#5e5e5e" stroke-width="2" fill="#5e5e5e"/><path d="M-658.9 526c0-3.3 2.7-6 6-6h128c3.32 0 6 2.7 6 6v68c0 3.3-2.68 6-6 6h-128c-3.3 0-6-2.7-6-6z" stroke="#5e5e5e" stroke-width="3" fill="#fff3d9"/><use xlink:href="#r" transform="matrix(1,0,0,1,-653.8944972288201,525) translate(27.333333333333343 40.0625)"/><path d="M-459.56 526c0-3.3 2.7-6 6-6h128c3.3 0 6 2.7 6 6v68c0 3.3-2.7 6-6 6h-128c-3.3 0-6-2.7-6-6z" stroke="#5e5e5e" stroke-width="3" fill="#ffd9d9"/><use xlink:href="#s" transform="matrix(1,0,0,1,-454.56116389548663,525) translate(37.305555555555564 27)"/><use xlink:href="#t" transform="matrix(1,0,0,1,-454.56116389548663,525) translate(-0.9722222222222143 51)"/><path d="M-860 625.88c0-3.32 2.7-6 6-6h98c3.3 0 6 2.68 6 6v28.24c0 3.32-2.7 6-6 6h-98c-3.3 0-6-2.68-6-6z" stroke="#000" stroke-opacity="0" stroke-width="3" fill="#fff" fill-opacity="0"/><use xlink:href="#z" transform="matrix(1,0,0,1,-855,624.8753280839896) translate(6.777777777777779 19.875)"/><use xlink:href="#B" transform="matrix(1,0,0,1,-855,624.8753280839896) translate(82.11111111111111 19.875)"/><path d="M-516.4 560h36.84" stroke="#5e5e5e" stroke-width="2" fill="none"/><path d="M-516.37 561h-1.02v-2h1.03z" stroke="#5e5e5e" stroke-width=".05" fill="#5e5e5e"/><path d="M-464.3 560l-14.26 4.64v-9.28z" stroke="#5e5e5e" stroke-width="2" fill="#5e5e5e"/><path d="M-856.6 526c0-3.3 2.68-6 6-6h128c3.3 0 6 2.7 6 6v68c0 3.3-2.7 6-6 6h-128c-3.32 0-6-2.7-6-6z" stroke="#5e5e5e" stroke-width="3" fill="#ff8f8f"/><use xlink:href="#C" transform="matrix(1,0,0,1,-851.6055027711795,525) translate(27.333333333333336 40.0625)"/><path d="M-714.1 560h35.2" stroke="#5e5e5e" stroke-width="2" fill="none"/><path d="M-714.08 561h-1.03v-2h1.02z" stroke="#5e5e5e" stroke-width=".05" fill="#5e5e5e"/><path d="M-663.63 560l-14.27 4.64v-9.28z" stroke="#5e5e5e" stroke-width="2" fill="#5e5e5e"/><path d="M-654.7 686c0-3.3 2.7-6 6-6h128c3.32 0 6 2.7 6 6v68c0 3.3-2.68 6-6 6h-128c-3.3 0-6-2.7-6-6z" stroke="#5e5e5e" stroke-width="3" fill="#fff3d9"/><use xlink:href="#r" transform="matrix(1,0,0,1,-649.6888361045126,685) translate(27.333333333333343 40.0625)"/><path d="M-455.36 686c0-3.3 2.7-6 6-6h128c3.32 0 6 2.7 6 6v68c0 3.3-2.68 6-6 6h-128c-3.3 0-6-2.7-6-6z" stroke="#5e5e5e" stroke-width="3" fill="#ffd9d9"/><use xlink:href="#s" transform="matrix(1,0,0,1,-450.35550277117954,685) translate(37.305555555555564 27)"/><use xlink:href="#t" transform="matrix(1,0,0,1,-450.35550277117954,685) translate(-0.9722222222222143 51)"/><path d="M-254.02 686c0-3.3 2.68-6 6-6h128c3.3 0 6 2.7 6 6v68c0 3.3-2.7 6-6 6h-128c-3.32 0-6-2.7-6-6z" stroke="#5e5e5e" stroke-width="3" fill="#f2f2ff"/><use xlink:href="#D" transform="matrix(1,0,0,1,-249.02216943784583,685) translate(26.277777777777786 40.0625)"/><path d="M-860 785.88c0-3.32 2.7-6 6-6h98c3.3 0 6 2.68 6 6v28.24c0 3.32-2.7 6-6 6h-98c-3.3 0-6-2.68-6-6z" stroke="#000" stroke-opacity="0" stroke-width="3" fill="#fff" fill-opacity="0"/><use xlink:href="#z" transform="matrix(1,0,0,1,-855,784.8753280839893) translate(6.777777777777779 19.875)"/><use xlink:href="#E" transform="matrix(1,0,0,1,-855,784.8753280839893) translate(82.11111111111111 19.875)"/><path d="M-312.86 720h38.84" stroke="#5e5e5e" stroke-width="2" fill="none"/><path d="M-312.83 721h-1.03v-2h1.03z" stroke="#5e5e5e" stroke-width=".05" fill="#5e5e5e"/><path d="M-258.76 720l-14.26 4.64v-9.28z" stroke="#5e5e5e" stroke-width="2" fill="#5e5e5e"/><path d="M-512.2 720h36.84" stroke="#5e5e5e" stroke-width="2" fill="none"/><path d="M-512.16 721h-1.03v-2h1.04z" stroke="#5e5e5e" stroke-width=".05" fill="#5e5e5e"/><path d="M-460.1 720l-14.26 4.64v-9.28z" stroke="#5e5e5e" stroke-width="2" fill="#5e5e5e"/><path d="M-714.1 720h39.4" stroke="#5e5e5e" stroke-width="2" fill="none"/><path d="M-714.08 721h-1.03v-2h1.02z" stroke="#5e5e5e" stroke-width=".05" fill="#5e5e5e"/><path d="M-659.42 720l-14.27 4.64v-9.28z" stroke="#5e5e5e" stroke-width="2" fill="#5e5e5e"/><path d="M-856.6 686c0-3.3 2.68-6 6-6h128c3.3 0 6 2.7 6 6v68c0 3.3-2.7 6-6 6h-128c-3.32 0-6-2.7-6-6z" stroke="#5e5e5e" stroke-width="3" fill="#ff8f8f"/><use xlink:href="#C" transform="matrix(1,0,0,1,-851.6055027711795,685) translate(27.333333333333336 40.0625)"/><path d="M-856.6 203.58c0-3.3 2.68-6 6-6h128c3.3 0 6 2.7 6 6v68c0 3.32-2.7 6-6 6h-128c-3.32 0-6-2.68-6-6z" stroke="#5e5e5e" stroke-width="3" fill="#dedeff"/><use xlink:href="#r" transform="matrix(1,0,0,1,-851.6055027711795,202.58267716535426) translate(27.333333333333343 40.0625)"/><path d="M-657.27 202.25c0-3.3 2.68-6 6-6h128c3.3 0 6 2.7 6 6v68c0 3.3-2.7 6-6 6h-128c-3.32 0-6-2.7-6-6z" stroke="#5e5e5e" stroke-width="3" fill="#ffd9d9"/><use xlink:href="#s" transform="matrix(1,0,0,1,-652.2721694378463,201.249343832021) translate(37.305555555555564 27)"/><use xlink:href="#t" transform="matrix(1,0,0,1,-652.2721694378463,201.249343832021) translate(-0.9722222222222143 51)"/><path d="M-457.94 202.25c0-3.3 2.7-6 6-6h128c3.3 0 6 2.7 6 6v68c0 3.3-2.7 6-6 6h-128c-3.3 0-6-2.7-6-6z" stroke="#5e5e5e" stroke-width="3" fill="#cfe4ff"/><use xlink:href="#u" transform="matrix(1,0,0,1,-452.9388361045128,201.249343832021) translate(16.80555555555557 40.0625)"/><path d="M-256.6 202.25c0-3.3 2.68-6 6-6h128c3.3 0 6 2.7 6 6v68c0 3.3-2.7 6-6 6h-128c-3.32 0-6-2.7-6-6z" stroke="#5e5e5e" stroke-width="3" fill="#ffdda6"/><use xlink:href="#F" transform="matrix(1,0,0,1,-251.6055027711792,201.249343832021) translate(1.2777777777777857 40.0625)"/><use xlink:href="#G" transform="matrix(1,0,0,1,-251.6055027711792,201.249343832021) translate(50.05555555555556 40.0625)"/><path d="M-714.1 237.58h36.82" stroke="#5e5e5e" stroke-width="2" fill="none"/><path d="M-714.08 238.58h-1.03v-2h1.02z" stroke="#5e5e5e" stroke-width=".05" fill="#5e5e5e"/><path d="M-662 237.58l-14.28 4.64v-9.27z" stroke="#5e5e5e" stroke-width="2" fill="#5e5e5e"/><path d="M-514.77 236.25h36.83" stroke="#5e5e5e" stroke-width="2" fill="none"/><path d="M-514.75 237.25h-1.02v-2h1.02z" stroke="#5e5e5e" stroke-width=".05" fill="#5e5e5e"/><path d="M-462.67 236.25l-14.27 4.63v-9.27z" stroke="#5e5e5e" stroke-width="2" fill="#5e5e5e"/><path d="M-315.44 236.25h38.83" stroke="#5e5e5e" stroke-width="2" fill="none"/><path d="M-315.4 237.25h-1.04v-2h1.03z" stroke="#5e5e5e" stroke-width=".05" fill="#5e5e5e"/><path d="M-261.34 236.25l-14.27 4.63v-9.27z" stroke="#5e5e5e" stroke-width="2" fill="#5e5e5e"/><path d="M-55.27 203.58c0-3.3 2.68-6 6-6h128c3.3 0 6 2.7 6 6v68c0 3.32-2.7 6-6 6h-128c-3.32 0-6-2.68-6-6z" stroke="#5e5e5e" stroke-width="3" fill="#dedeff"/><g><use xlink:href="#x" transform="matrix(1,0,0,1,-50.27216943784617,202.58267716535426) translate(15.111111111111114 26.9375)"/><use xlink:href="#H" transform="matrix(1,0,0,1,-50.27216943784617,202.58267716535426) translate(24.555555555555564 50.9375)"/><use xlink:href="#I" transform="matrix(1,0,0,1,-50.27216943784617,202.58267716535426) translate(79.94444444444444 50.9375)"/></g><path d="M143.4 203.58c0-3.3 2.68-6 6-6h128c3.3 0 6 2.7 6 6v68c0 3.32-2.7 6-6 6h-128c-3.32 0-6-2.68-6-6z" stroke="#5e5e5e" stroke-width="3" fill="#ffd9d9"/><g><use xlink:href="#s" transform="matrix(1,0,0,1,148.39449722882046,202.58267716535426) translate(37.305555555555564 27)"/><use xlink:href="#t" transform="matrix(1,0,0,1,148.39449722882046,202.58267716535426) translate(-0.9722222222222143 51)"/></g><path d="M343.4 203.58c0-3.3 2.68-6 6-6h128c3.3 0 6 2.7 6 6v68c0 3.32-2.7 6-6 6h-128c-3.32 0-6-2.68-6-6z" stroke="#5e5e5e" stroke-width="3" fill="#cfe4ff"/><g><use xlink:href="#u" transform="matrix(1,0,0,1,348.39449722882046,202.58267716535426) translate(16.80555555555557 40.0625)"/></g><path d="M285.9 237.58h37.5" stroke="#5e5e5e" stroke-width="2" fill="none"/><path d="M285.92 238.58h-1.03v-2h1.02z" stroke="#5e5e5e" stroke-width=".05" fill="#5e5e5e"/><path d="M338.66 237.58l-14.27 4.64v-9.27z" stroke="#5e5e5e" stroke-width="2" fill="#5e5e5e"/><path d="M87.23 237.58h36.16" stroke="#5e5e5e" stroke-width="2" fill="none"/><path d="M87.25 238.58h-1.02v-2h1.02z" stroke="#5e5e5e" stroke-width=".05" fill="#5e5e5e"/><path d="M138.66 237.58l-14.27 4.64v-9.27z" stroke="#5e5e5e" stroke-width="2" fill="#5e5e5e"/><path d="M-114.1 236.25h38.82" stroke="#5e5e5e" stroke-width="2" fill="none"/><path d="M-114.08 237.25h-1.03v-2h1.02z" stroke="#5e5e5e" stroke-width=".05" fill="#5e5e5e"/><path d="M-60 236.25l-14.28 4.63v-9.27z" stroke="#5e5e5e" stroke-width="2" fill="#5e5e5e"/><path d="M-860 307.54c0-3.3 2.7-6 6-6h98c3.3 0 6 2.7 6 6v28.25c0 3.3-2.7 6-6 6h-98c-3.3 0-6-2.7-6-6z" stroke="#000" stroke-opacity="0" stroke-width="3" fill="#fff" fill-opacity="0"/><g><use xlink:href="#z" transform="matrix(1,0,0,1,-855,306.5406824146981) translate(6.777777777777779 19.875)"/><use xlink:href="#J" transform="matrix(1,0,0,1,-855,306.5406824146981) translate(82.11111111111111 19.875)"/></g><defs><path fill="#333" d="M24 0v-248h52V0H24" id="K"/><path fill="#333" d="M135-194c87-1 58 113 63 194h-50c-7-57 23-157-34-157-59 0-34 97-39 157H25l-1-190h47c2 12-1 28 3 38 12-26 28-41 61-42" id="L"/><path fill="#333" d="M135-194c53 0 70 44 70 98 0 56-19 98-73 100-31 1-45-17-59-34 3 33 2 69 2 105H25l-1-265h48c2 10 0 23 3 31 11-24 29-35 60-35zM114-30c33 0 39-31 40-66 0-38-9-64-40-64-56 0-55 130 0 130" id="M"/><path fill="#333" d="M85 4C-2 5 27-109 22-190h50c7 57-23 150 33 157 60-5 35-97 40-157h50l1 190h-47c-2-12 1-28-3-38-12 25-28 42-61 42" id="N"/><path fill="#333" d="M115-3C79 11 28 4 28-45v-112H4v-33h27l15-45h31v45h36v33H77v99c-1 23 16 31 38 25v30" id="O"/><g id="a"><use transform="matrix(0.055555555555555546,0,0,0.055555555555555546,0,0)" xlink:href="#K"/><use transform="matrix(0.055555555555555546,0,0,0.055555555555555546,5.5555555555555545,0)" xlink:href="#L"/><use transform="matrix(0.055555555555555546,0,0,0.055555555555555546,17.722222222222218,0)" xlink:href="#M"/><use transform="matrix(0.055555555555555546,0,0,0.055555555555555546,29.888888888888882,0)" xlink:href="#N"/><use transform="matrix(0.055555555555555546,0,0,0.055555555555555546,42.05555555555554,0)" xlink:href="#O"/></g><path fill="#333" d="M24 0v-248h52v208h133V0H24" id="P"/><path fill="#333" d="M133-34C117-15 103 5 69 4 32 3 11-16 11-54c-1-60 55-63 116-61 1-26-3-47-28-47-18 1-26 9-28 27l-52-2c7-38 36-58 82-57s74 22 75 68l1 82c-1 14 12 18 25 15v27c-30 8-71 5-69-32zm-48 3c29 0 43-24 42-57-32 0-66-3-65 30 0 17 8 27 23 27" id="Q"/><path fill="#333" d="M123 10C108 53 80 86 19 72V37c35 8 53-11 59-39L3-190h52l48 148c12-52 28-100 44-148h51" id="R"/><path fill="#333" d="M185-48c-13 30-37 53-82 52C43 2 14-33 14-96s30-98 90-98c62 0 83 45 84 108H66c0 31 8 55 39 56 18 0 30-7 34-22zm-45-69c5-46-57-63-70-21-2 6-4 13-4 21h74" id="S"/><path fill="#333" d="M135-150c-39-12-60 13-60 57V0H25l-1-190h47c2 13-1 29 3 40 6-28 27-53 61-41v41" id="T"/><g id="b"><use transform="matrix(0.055555555555555546,0,0,0.055555555555555546,0,0)" xlink:href="#P"/><use transform="matrix(0.055555555555555546,0,0,0.055555555555555546,12.166666666666664,0)" xlink:href="#Q"/><use transform="matrix(0.055555555555555546,0,0,0.055555555555555546,23.27777777777777,0)" xlink:href="#R"/><use transform="matrix(0.055555555555555546,0,0,0.055555555555555546,34.38888888888888,0)" xlink:href="#S"/><use transform="matrix(0.055555555555555546,0,0,0.055555555555555546,45.499999999999986,0)" xlink:href="#T"/></g><path fill="#333" d="M240-174c0 40-23 61-54 70L253 0h-59l-57-94H76V0H24v-248c93 4 217-23 216 74zM76-134c48-2 112 12 112-38 0-48-66-32-112-35v73" id="U"/><path fill="#333" d="M137-138c1-29-70-34-71-4 15 46 118 7 119 86 1 83-164 76-172 9l43-7c4 19 20 25 44 25 33 8 57-30 24-41C81-84 22-81 20-136c-2-80 154-74 161-7" id="V"/><path fill="#333" d="M190-63c-7 42-38 67-86 67-59 0-84-38-90-98-12-110 154-137 174-36l-49 2c-2-19-15-32-35-32-30 0-35 28-38 64-6 74 65 87 74 30" id="W"/><path fill="#333" d="M25 0v-261h50V0H25" id="X"/><path fill="#333" d="M25-224v-37h50v37H25zM25 0v-190h50V0H25" id="Y"/><path fill="#333" d="M195-6C206 82 75 100 31 46c-4-6-6-13-8-21l49-6c3 16 16 24 34 25 40 0 42-37 40-79-11 22-30 35-61 35-53 0-70-43-70-97 0-56 18-96 73-97 30 0 46 14 59 34l2-30h47zm-90-29c32 0 41-27 41-63 0-35-9-62-40-62-32 0-39 29-40 63 0 36 9 62 39 62" id="Z"/><g id="c"><use transform="matrix(0.055555555555555546,0,0,0.055555555555555546,0,0)" xlink:href="#U"/><use transform="matrix(0.055555555555555546,0,0,0.055555555555555546,14.388888888888886,0)" xlink:href="#S"/><use transform="matrix(0.055555555555555546,0,0,0.055555555555555546,25.499999999999993,0)" xlink:href="#V"/><use transform="matrix(0.055555555555555546,0,0,0.055555555555555546,36.6111111111111,0)" xlink:href="#W"/><use transform="matrix(0.055555555555555546,0,0,0.055555555555555546,47.72222222222221,0)" xlink:href="#Q"/><use transform="matrix(0.055555555555555546,0,0,0.055555555555555546,58.83333333333331,0)" xlink:href="#X"/><use transform="matrix(0.055555555555555546,0,0,0.055555555555555546,64.38888888888887,0)" xlink:href="#Y"/><use transform="matrix(0.055555555555555546,0,0,0.055555555555555546,69.94444444444443,0)" xlink:href="#L"/><use transform="matrix(0.055555555555555546,0,0,0.055555555555555546,82.11111111111109,0)" xlink:href="#Z"/></g><path fill="#333" d="M175 0L67-191c6 58 2 128 3 191H24v-248h59L193-55c-6-58-2-129-3-193h46V0h-61" id="aa"/><path fill="#333" d="M110-194c64 0 96 36 96 99 0 64-35 99-97 99-61 0-95-36-95-99 0-62 34-99 96-99zm-1 164c35 0 45-28 45-65 0-40-10-65-43-65-34 0-45 26-45 65 0 36 10 65 43 65" id="ab"/><path fill="#333" d="M220-157c-53 9-28 100-34 157h-49v-107c1-27-5-49-29-50C55-147 81-57 75 0H25l-1-190h47c2 12-1 28 3 38 10-53 101-56 108 0 13-22 24-43 59-42 82 1 51 116 57 194h-49v-107c-1-25-5-48-29-50" id="ac"/><path fill="#333" d="M12 0v-35l95-120H19v-35h142v35L67-36h103V0H12" id="ad"/><g id="d"><use transform="matrix(0.055555555555555546,0,0,0.055555555555555546,0,0)" xlink:href="#aa"/><use transform="matrix(0.055555555555555546,0,0,0.055555555555555546,14.388888888888886,0)" xlink:href="#ab"/><use transform="matrix(0.055555555555555546,0,0,0.055555555555555546,26.55555555555555,0)" xlink:href="#T"/><use transform="matrix(0.055555555555555546,0,0,0.055555555555555546,34.33333333333333,0)" xlink:href="#ac"/><use transform="matrix(0.055555555555555546,0,0,0.055555555555555546,52.1111111111111,0)" xlink:href="#Q"/><use transform="matrix(0.055555555555555546,0,0,0.055555555555555546,63.222222222222214,0)" xlink:href="#X"/><use transform="matrix(0.055555555555555546,0,0,0.055555555555555546,68.77777777777776,0)" xlink:href="#Y"/><use transform="matrix(0.055555555555555546,0,0,0.055555555555555546,74.33333333333331,0)" xlink:href="#ad"/><use transform="matrix(0.055555555555555546,0,0,0.055555555555555546,84.33333333333331,0)" xlink:href="#Q"/><use transform="matrix(0.055555555555555546,0,0,0.055555555555555546,95.44444444444443,0)" xlink:href="#O"/><use transform="matrix(0.055555555555555546,0,0,0.055555555555555546,102.05555555555554,0)" xlink:href="#Y"/><use transform="matrix(0.055555555555555546,0,0,0.055555555555555546,107.6111111111111,0)" xlink:href="#ab"/><use transform="matrix(0.055555555555555546,0,0,0.055555555555555546,119.77777777777779,0)" xlink:href="#L"/></g><path fill="#333" d="M210 0H11v-37l134-170H24v-41h178v36L68-41h142V0" id="ae"/><g id="e"><use transform="matrix(0.055555555555555546,0,0,0.055555555555555546,0,0)" xlink:href="#ae"/><use transform="matrix(0.055555555555555546,0,0,0.055555555555555546,12.166666666666664,0)" xlink:href="#S"/><use transform="matrix(0.055555555555555546,0,0,0.055555555555555546,23.27777777777777,0)" xlink:href="#T"/><use transform="matrix(0.055555555555555546,0,0,0.055555555555555546,31.05555555555555,0)" xlink:href="#ab"/></g><path fill="#333" d="M24-248c93 1 206-16 204 79-1 75-69 88-152 82V0H24v-248zm52 121c47 0 100 7 100-41 0-47-54-39-100-39v80" id="af"/><path fill="#333" d="M88-194c31-1 46 15 58 34l-1-101h50l1 261h-48c-2-10 0-23-3-31C134-8 116 4 84 4 32 4 16-41 15-95c0-56 19-97 73-99zm17 164c33 0 40-30 41-66 1-37-9-64-41-64s-38 30-39 65c0 43 13 65 39 65" id="ag"/><g id="f"><use transform="matrix(0.055555555555555546,0,0,0.055555555555555546,0,0)" xlink:href="#af"/><use transform="matrix(0.055555555555555546,0,0,0.055555555555555546,13.33333333333333,0)" xlink:href="#Q"/><use transform="matrix(0.055555555555555546,0,0,0.055555555555555546,24.44444444444444,0)" xlink:href="#ag"/><use transform="matrix(0.055555555555555546,0,0,0.055555555555555546,36.6111111111111,0)" xlink:href="#ag"/><use transform="matrix(0.055555555555555546,0,0,0.055555555555555546,48.777777777777764,0)" xlink:href="#Y"/><use transform="matrix(0.055555555555555546,0,0,0.055555555555555546,54.33333333333332,0)" xlink:href="#L"/><use transform="matrix(0.055555555555555546,0,0,0.055555555555555546,66.49999999999999,0)" xlink:href="#Z"/></g><path fill="#333" d="M67-125c0 53 21 87 73 88 37 1 54-22 65-47l45 17C233-25 199 4 140 4 58 4 20-42 15-125 8-235 124-281 211-232c18 10 29 29 36 50l-46 12c-8-25-30-41-62-41-52 0-71 34-72 86" id="ah"/><path fill="#333" d="M128 0H69L1-190h53L99-40l48-150h52" id="ai"/><path fill="#333" d="M182-182c0 78-84 86-111 141h115V0H12c-6-101 99-100 120-180 1-22-12-31-33-32-23 0-32 14-35 34l-49-3c5-45 32-70 84-70 51 0 83 22 83 69" id="aj"/><path fill="#333" d="M24-248c120-7 223 5 221 122C244-46 201 0 124 0H24v-248zM76-40c74 7 117-18 117-86 0-67-45-88-117-82v168" id="ak"/><g id="g"><use transform="matrix(0.055555555555555546,0,0,0.055555555555555546,0,0)" xlink:href="#ah"/><use transform="matrix(0.055555555555555546,0,0,0.055555555555555546,14.388888888888886,0)" xlink:href="#ab"/><use transform="matrix(0.055555555555555546,0,0,0.055555555555555546,26.55555555555555,0)" xlink:href="#L"/><use transform="matrix(0.055555555555555546,0,0,0.055555555555555546,38.722222222222214,0)" xlink:href="#ai"/><use transform="matrix(0.055555555555555546,0,0,0.055555555555555546,49.83333333333332,0)" xlink:href="#aj"/><use transform="matrix(0.055555555555555546,0,0,0.055555555555555546,60.944444444444436,0)" xlink:href="#ak"/></g><path fill="#333" d="M182-130c37 4 62 22 62 59C244 23 116-4 24 0v-248c84 5 203-23 205 63 0 31-19 50-47 55zM76-148c40-3 101 13 101-30 0-44-60-28-101-31v61zm0 110c48-3 116 14 116-37 0-48-69-32-116-35v72" id="al"/><path fill="#333" d="M114-157C55-157 80-60 75 0H25v-261h50l-1 109c12-26 28-41 61-42 86-1 58 113 63 194h-50c-7-57 23-157-34-157" id="am"/><g id="h"><use transform="matrix(0.055555555555555546,0,0,0.055555555555555546,0,0)" xlink:href="#al"/><use transform="matrix(0.055555555555555546,0,0,0.055555555555555546,14.388888888888886,0)" xlink:href="#Q"/><use transform="matrix(0.055555555555555546,0,0,0.055555555555555546,25.499999999999993,0)" xlink:href="#O"/><use transform="matrix(0.055555555555555546,0,0,0.055555555555555546,32.1111111111111,0)" xlink:href="#W"/><use transform="matrix(0.055555555555555546,0,0,0.055555555555555546,43.22222222222221,0)" xlink:href="#am"/></g><g id="i"><use transform="matrix(0.055555555555555546,0,0,0.055555555555555546,0,0)" xlink:href="#aa"/><use transform="matrix(0.055555555555555546,0,0,0.055555555555555546,14.388888888888886,0)" xlink:href="#ab"/><use transform="matrix(0.055555555555555546,0,0,0.055555555555555546,26.55555555555555,0)" xlink:href="#T"/><use transform="matrix(0.055555555555555546,0,0,0.055555555555555546,34.33333333333333,0)" xlink:href="#ac"/><use transform="matrix(0.055555555555555546,0,0,0.055555555555555546,52.1111111111111,0)" xlink:href="#Q"/><use transform="matrix(0.055555555555555546,0,0,0.055555555555555546,63.222222222222214,0)" xlink:href="#X"/><use transform="matrix(0.055555555555555546,0,0,0.055555555555555546,68.77777777777776,0)" xlink:href="#Y"/><use transform="matrix(0.055555555555555546,0,0,0.055555555555555546,74.33333333333331,0)" xlink:href="#ad"/><use transform="matrix(0.055555555555555546,0,0,0.055555555555555546,84.33333333333331,0)" xlink:href="#Q"/><use transform="matrix(0.055555555555555546,0,0,0.055555555555555546,95.44444444444443,0)" xlink:href="#O"/><use transform="matrix(0.055555555555555546,0,0,0.055555555555555546,102.05555555555554,0)" xlink:href="#Y"/><use transform="matrix(0.055555555555555546,0,0,0.055555555555555546,107.6111111111111,0)" xlink:href="#ab"/><use transform="matrix(0.055555555555555546,0,0,0.055555555555555546,119.77777777777779,0)" xlink:href="#L"/></g><path fill="#333" d="M199 0l-22-63H83L61 0H9l90-248h61L250 0h-51zm-33-102l-36-108c-10 38-24 72-36 108h72" id="an"/><g id="j"><use transform="matrix(0.055555555555555546,0,0,0.055555555555555546,0,0)" xlink:href="#an"/><use transform="matrix(0.055555555555555546,0,0,0.055555555555555546,14.388888888888886,0)" xlink:href="#W"/><use transform="matrix(0.055555555555555546,0,0,0.055555555555555546,25.499999999999993,0)" xlink:href="#O"/><use transform="matrix(0.055555555555555546,0,0,0.055555555555555546,32.1111111111111,0)" xlink:href="#Y"/><use transform="matrix(0.055555555555555546,0,0,0.055555555555555546,37.66666666666666,0)" xlink:href="#ai"/><use transform="matrix(0.055555555555555546,0,0,0.055555555555555546,48.777777777777764,0)" xlink:href="#Q"/><use transform="matrix(0.055555555555555546,0,0,0.055555555555555546,59.888888888888864,0)" xlink:href="#O"/><use transform="matrix(0.055555555555555546,0,0,0.055555555555555546,66.49999999999999,0)" xlink:href="#Y"/><use transform="matrix(0.055555555555555546,0,0,0.055555555555555546,72.05555555555554,0)" xlink:href="#ab"/><use transform="matrix(0.055555555555555546,0,0,0.055555555555555546,84.2222222222222,0)" xlink:href="#L"/></g><path fill="#333" d="M169-182c-1-43-94-46-97-3 18 66 151 10 154 114 3 95-165 93-204 36-6-8-10-19-12-30l50-8c3 46 112 56 116 5-17-69-150-10-154-114-4-87 153-88 188-35 5 8 8 18 10 28" id="ao"/><g id="k"><use transform="matrix(0.055555555555555546,0,0,0.055555555555555546,0,0)" xlink:href="#ao"/><use transform="matrix(0.055555555555555546,0,0,0.055555555555555546,13.33333333333333,0)" xlink:href="#O"/><use transform="matrix(0.055555555555555546,0,0,0.055555555555555546,19.94444444444444,0)" xlink:href="#S"/><use transform="matrix(0.055555555555555546,0,0,0.055555555555555546,31.05555555555555,0)" xlink:href="#ac"/></g><path fill="#333" d="M67-125c0 54 23 88 75 88 28 0 53-7 68-21v-34h-60v-39h108v91C232-14 192 4 140 4 58 4 20-42 15-125 8-236 126-280 215-234c19 10 29 26 37 47l-47 15c-11-23-29-39-63-39-53 1-75 33-75 86" id="ap"/><path fill="#333" d="M135-194c52 0 70 43 70 98 0 56-19 99-73 100-30 1-46-15-58-35L72 0H24l1-261h50v104c11-23 29-37 60-37zM114-30c31 0 40-27 40-66 0-37-7-63-39-63s-41 28-41 65c0 36 8 64 40 64" id="aq"/><g id="l"><use transform="matrix(0.055555555555555546,0,0,0.055555555555555546,0,0)" xlink:href="#ap"/><use transform="matrix(0.055555555555555546,0,0,0.055555555555555546,15.555555555555554,0)" xlink:href="#X"/><use transform="matrix(0.055555555555555546,0,0,0.055555555555555546,21.111111111111107,0)" xlink:href="#ab"/><use transform="matrix(0.055555555555555546,0,0,0.055555555555555546,33.27777777777777,0)" xlink:href="#aq"/><use transform="matrix(0.055555555555555546,0,0,0.055555555555555546,45.444444444444436,0)" xlink:href="#Q"/><use transform="matrix(0.055555555555555546,0,0,0.055555555555555546,56.55555555555554,0)" xlink:href="#X"/></g><g id="m"><use transform="matrix(0.055555555555555546,0,0,0.055555555555555546,0,0)" xlink:href="#an"/><use transform="matrix(0.055555555555555546,0,0,0.055555555555555546,13.666666666666664,0)" xlink:href="#ai"/><use transform="matrix(0.055555555555555546,0,0,0.055555555555555546,24.77777777777777,0)" xlink:href="#S"/><use transform="matrix(0.055555555555555546,0,0,0.055555555555555546,35.88888888888888,0)" xlink:href="#T"/><use transform="matrix(0.055555555555555546,0,0,0.055555555555555546,43.66666666666666,0)" xlink:href="#Q"/><use transform="matrix(0.055555555555555546,0,0,0.055555555555555546,54.777777777777764,0)" xlink:href="#Z"/><use transform="matrix(0.055555555555555546,0,0,0.055555555555555546,66.94444444444443,0)" xlink:href="#S"/></g><g id="n"><use transform="matrix(0.055555555555555546,0,0,0.055555555555555546,0,0)" xlink:href="#af"/><use transform="matrix(0.055555555555555546,0,0,0.055555555555555546,13.33333333333333,0)" xlink:href="#ab"/><use transform="matrix(0.055555555555555546,0,0,0.055555555555555546,25.499999999999993,0)" xlink:href="#ab"/><use transform="matrix(0.055555555555555546,0,0,0.055555555555555546,37.66666666666666,0)" xlink:href="#X"/><use transform="matrix(0.055555555555555546,0,0,0.055555555555555546,43.222222222222214,0)" xlink:href="#Y"/><use transform="matrix(0.055555555555555546,0,0,0.055555555555555546,48.77777777777777,0)" xlink:href="#L"/><use transform="matrix(0.055555555555555546,0,0,0.055555555555555546,60.944444444444436,0)" xlink:href="#Z"/></g><g id="o"><use transform="matrix(0.055555555555555546,0,0,0.055555555555555546,0,0)" xlink:href="#U"/><use transform="matrix(0.055555555555555546,0,0,0.055555555555555546,14.388888888888886,0)" xlink:href="#S"/><use transform="matrix(0.055555555555555546,0,0,0.055555555555555546,25.499999999999993,0)" xlink:href="#V"/><use transform="matrix(0.055555555555555546,0,0,0.055555555555555546,36.6111111111111,0)" xlink:href="#am"/><use transform="matrix(0.055555555555555546,0,0,0.055555555555555546,48.777777777777764,0)" xlink:href="#Q"/><use transform="matrix(0.055555555555555546,0,0,0.055555555555555546,59.888888888888864,0)" xlink:href="#M"/><use transform="matrix(0.055555555555555546,0,0,0.055555555555555546,72.05555555555554,0)" xlink:href="#Y"/><use transform="matrix(0.055555555555555546,0,0,0.055555555555555546,77.6111111111111,0)" xlink:href="#L"/><use transform="matrix(0.055555555555555546,0,0,0.055555555555555546,89.77777777777777,0)" xlink:href="#Z"/></g><path fill="#333" d="M230 0l2-204L168 0h-37L68-204 70 0H24v-248h70l56 185 57-185h69V0h-46" id="ar"/><g id="p"><use transform="matrix(0.055555555555555546,0,0,0.055555555555555546,0,0)" xlink:href="#ar"/><use transform="matrix(0.055555555555555546,0,0,0.055555555555555546,16.611111111111107,0)" xlink:href="#ab"/><use transform="matrix(0.055555555555555546,0,0,0.055555555555555546,28.77777777777777,0)" xlink:href="#ag"/><use transform="matrix(0.055555555555555546,0,0,0.055555555555555546,40.944444444444436,0)" xlink:href="#N"/><use transform="matrix(0.055555555555555546,0,0,0.055555555555555546,53.1111111111111,0)" xlink:href="#X"/><use transform="matrix(0.055555555555555546,0,0,0.055555555555555546,58.66666666666666,0)" xlink:href="#S"/></g><path fill="#333" d="M128-127c34 4 56 21 59 58 7 91-148 94-172 28-4-9-6-17-7-26l51-5c1 24 16 35 40 36 23 0 39-12 38-36-1-31-31-36-65-34v-40c32 2 59-3 59-33 0-20-13-33-34-33s-33 13-35 32l-50-3c6-44 37-68 86-68 50 0 83 20 83 66 0 35-22 52-53 58" id="as"/><use transform="matrix(0.055555555555555546,0,0,0.055555555555555546,0,0)" xlink:href="#as" id="q"/><g id="r"><use transform="matrix(0.055555555555555546,0,0,0.055555555555555546,0,0)" xlink:href="#ah"/><use transform="matrix(0.055555555555555546,0,0,0.055555555555555546,14.388888888888886,0)" xlink:href="#ab"/><use transform="matrix(0.055555555555555546,0,0,0.055555555555555546,26.55555555555555,0)" xlink:href="#L"/><use transform="matrix(0.055555555555555546,0,0,0.055555555555555546,38.722222222222214,0)" xlink:href="#ai"/><use transform="matrix(0.055555555555555546,0,0,0.055555555555555546,49.83333333333332,0)" xlink:href="#aj"/><use transform="matrix(0.055555555555555546,0,0,0.055555555555555546,60.944444444444436,0)" xlink:href="#ak"/></g><g id="s"><use transform="matrix(0.055555555555555546,0,0,0.055555555555555546,0,0)" xlink:href="#al"/><use transform="matrix(0.055555555555555546,0,0,0.055555555555555546,14.388888888888886,0)" xlink:href="#Q"/><use transform="matrix(0.055555555555555546,0,0,0.055555555555555546,25.499999999999993,0)" xlink:href="#O"/><use transform="matrix(0.055555555555555546,0,0,0.055555555555555546,32.1111111111111,0)" xlink:href="#W"/><use transform="matrix(0.055555555555555546,0,0,0.055555555555555546,43.22222222222221,0)" xlink:href="#am"/></g><g id="t"><use transform="matrix(0.055555555555555546,0,0,0.055555555555555546,0,0)" xlink:href="#aa"/><use transform="matrix(0.055555555555555546,0,0,0.055555555555555546,14.388888888888886,0)" xlink:href="#ab"/><use transform="matrix(0.055555555555555546,0,0,0.055555555555555546,26.55555555555555,0)" xlink:href="#T"/><use transform="matrix(0.055555555555555546,0,0,0.055555555555555546,34.33333333333333,0)" xlink:href="#ac"/><use transform="matrix(0.055555555555555546,0,0,0.055555555555555546,52.1111111111111,0)" xlink:href="#Q"/><use transform="matrix(0.055555555555555546,0,0,0.055555555555555546,63.222222222222214,0)" xlink:href="#X"/><use transform="matrix(0.055555555555555546,0,0,0.055555555555555546,68.77777777777776,0)" xlink:href="#Y"/><use transform="matrix(0.055555555555555546,0,0,0.055555555555555546,74.33333333333331,0)" xlink:href="#ad"/><use transform="matrix(0.055555555555555546,0,0,0.055555555555555546,84.33333333333331,0)" xlink:href="#Q"/><use transform="matrix(0.055555555555555546,0,0,0.055555555555555546,95.44444444444443,0)" xlink:href="#O"/><use transform="matrix(0.055555555555555546,0,0,0.055555555555555546,102.05555555555554,0)" xlink:href="#Y"/><use transform="matrix(0.055555555555555546,0,0,0.055555555555555546,107.6111111111111,0)" xlink:href="#ab"/><use transform="matrix(0.055555555555555546,0,0,0.055555555555555546,119.77777777777779,0)" xlink:href="#L"/></g><g id="u"><use transform="matrix(0.055555555555555546,0,0,0.055555555555555546,0,0)" xlink:href="#an"/><use transform="matrix(0.055555555555555546,0,0,0.055555555555555546,14.388888888888886,0)" xlink:href="#W"/><use transform="matrix(0.055555555555555546,0,0,0.055555555555555546,25.499999999999993,0)" xlink:href="#O"/><use transform="matrix(0.055555555555555546,0,0,0.055555555555555546,32.1111111111111,0)" xlink:href="#Y"/><use transform="matrix(0.055555555555555546,0,0,0.055555555555555546,37.66666666666666,0)" xlink:href="#ai"/><use transform="matrix(0.055555555555555546,0,0,0.055555555555555546,48.777777777777764,0)" xlink:href="#Q"/><use transform="matrix(0.055555555555555546,0,0,0.055555555555555546,59.888888888888864,0)" xlink:href="#O"/><use transform="matrix(0.055555555555555546,0,0,0.055555555555555546,66.49999999999999,0)" xlink:href="#Y"/><use transform="matrix(0.055555555555555546,0,0,0.055555555555555546,72.05555555555554,0)" xlink:href="#ab"/><use transform="matrix(0.055555555555555546,0,0,0.055555555555555546,84.2222222222222,0)" xlink:href="#L"/></g><path fill="#333" d="M76-208v77h127v40H76V0H24v-248h183v40H76" id="at"/><g id="v"><use transform="matrix(0.055555555555555546,0,0,0.055555555555555546,0,0)" xlink:href="#at"/><use transform="matrix(0.055555555555555546,0,0,0.055555555555555546,12.166666666666664,0)" xlink:href="#Y"/><use transform="matrix(0.055555555555555546,0,0,0.055555555555555546,17.722222222222218,0)" xlink:href="#L"/><use transform="matrix(0.055555555555555546,0,0,0.055555555555555546,29.888888888888882,0)" xlink:href="#Q"/><use transform="matrix(0.055555555555555546,0,0,0.055555555555555546,40.99999999999999,0)" xlink:href="#X"/></g><g id="w"><use transform="matrix(0.055555555555555546,0,0,0.055555555555555546,0,0)" xlink:href="#P"/><use transform="matrix(0.055555555555555546,0,0,0.055555555555555546,12.166666666666664,0)" xlink:href="#Q"/><use transform="matrix(0.055555555555555546,0,0,0.055555555555555546,23.27777777777777,0)" xlink:href="#R"/><use transform="matrix(0.055555555555555546,0,0,0.055555555555555546,34.38888888888888,0)" xlink:href="#S"/><use transform="matrix(0.055555555555555546,0,0,0.055555555555555546,45.499999999999986,0)" xlink:href="#T"/><use transform="matrix(0.055555555555555546,0,0,0.055555555555555546,53.277777777777764,0)" xlink:href="#V"/></g><path fill="#333" d="M231 0h-52l-39-155L100 0H48L-1-190h46L77-45c9-52 24-97 36-145h53l37 145 32-145h46" id="au"/><g id="x"><use transform="matrix(0.055555555555555546,0,0,0.055555555555555546,0,0)" xlink:href="#ak"/><use transform="matrix(0.055555555555555546,0,0,0.055555555555555546,14.388888888888886,0)" xlink:href="#S"/><use transform="matrix(0.055555555555555546,0,0,0.055555555555555546,25.499999999999993,0)" xlink:href="#M"/><use transform="matrix(0.055555555555555546,0,0,0.055555555555555546,37.66666666666666,0)" xlink:href="#O"/><use transform="matrix(0.055555555555555546,0,0,0.055555555555555546,44.277777777777764,0)" xlink:href="#am"/><use transform="matrix(0.055555555555555546,0,0,0.055555555555555546,56.44444444444443,0)" xlink:href="#au"/><use transform="matrix(0.055555555555555546,0,0,0.055555555555555546,71.99999999999999,0)" xlink:href="#Y"/><use transform="matrix(0.055555555555555546,0,0,0.055555555555555546,77.55555555555554,0)" xlink:href="#V"/><use transform="matrix(0.055555555555555546,0,0,0.055555555555555546,88.66666666666666,0)" xlink:href="#S"/></g><g id="y"><use transform="matrix(0.055555555555555546,0,0,0.055555555555555546,0,0)" xlink:href="#ah"/><use transform="matrix(0.055555555555555546,0,0,0.055555555555555546,14.388888888888886,0)" xlink:href="#ab"/><use transform="matrix(0.055555555555555546,0,0,0.055555555555555546,26.55555555555555,0)" xlink:href="#L"/><use transform="matrix(0.055555555555555546,0,0,0.055555555555555546,38.722222222222214,0)" xlink:href="#ai"/><use transform="matrix(0.055555555555555546,0,0,0.055555555555555546,49.83333333333332,0)" xlink:href="#aj"/><use transform="matrix(0.055555555555555546,0,0,0.055555555555555546,60.944444444444436,0)" xlink:href="#ak"/></g><g id="z"><use transform="matrix(0.055555555555555546,0,0,0.055555555555555546,0,0)" xlink:href="#ar"/><use transform="matrix(0.055555555555555546,0,0,0.055555555555555546,16.611111111111107,0)" xlink:href="#ab"/><use transform="matrix(0.055555555555555546,0,0,0.055555555555555546,28.77777777777777,0)" xlink:href="#ag"/><use transform="matrix(0.055555555555555546,0,0,0.055555555555555546,40.944444444444436,0)" xlink:href="#N"/><use transform="matrix(0.055555555555555546,0,0,0.055555555555555546,53.1111111111111,0)" xlink:href="#X"/><use transform="matrix(0.055555555555555546,0,0,0.055555555555555546,58.66666666666666,0)" xlink:href="#S"/></g><path fill="#333" d="M23 0v-37h61v-169l-59 37v-38l62-41h46v211h57V0H23" id="av"/><use transform="matrix(0.055555555555555546,0,0,0.055555555555555546,0,0)" xlink:href="#av" id="A"/><path fill="#333" d="M165-50V0h-47v-50H5v-38l105-160h55v161h33v37h-33zm-47-37l2-116L46-87h72" id="aw"/><use transform="matrix(0.055555555555555546,0,0,0.055555555555555546,0,0)" xlink:href="#aw" id="B"/><g id="C"><use transform="matrix(0.055555555555555546,0,0,0.055555555555555546,0,0)" xlink:href="#ar"/><use transform="matrix(0.055555555555555546,0,0,0.055555555555555546,16.611111111111107,0)" xlink:href="#N"/><use transform="matrix(0.055555555555555546,0,0,0.055555555555555546,28.77777777777777,0)" xlink:href="#X"/><use transform="matrix(0.055555555555555546,0,0,0.055555555555555546,34.33333333333333,0)" xlink:href="#O"/><use transform="matrix(0.055555555555555546,0,0,0.055555555555555546,40.944444444444436,0)" xlink:href="#Y"/><use transform="matrix(0.055555555555555546,0,0,0.055555555555555546,46.49999999999999,0)" xlink:href="#M"/><use transform="matrix(0.055555555555555546,0,0,0.055555555555555546,58.66666666666666,0)" xlink:href="#X"/><use transform="matrix(0.055555555555555546,0,0,0.055555555555555546,64.22222222222221,0)" xlink:href="#R"/></g><g id="D"><use transform="matrix(0.055555555555555546,0,0,0.055555555555555546,0,0)" xlink:href="#ak"/><use transform="matrix(0.055555555555555546,0,0,0.055555555555555546,14.388888888888886,0)" xlink:href="#T"/><use transform="matrix(0.055555555555555546,0,0,0.055555555555555546,22.166666666666664,0)" xlink:href="#ab"/><use transform="matrix(0.055555555555555546,0,0,0.055555555555555546,34.33333333333333,0)" xlink:href="#M"/><use transform="matrix(0.055555555555555546,0,0,0.055555555555555546,46.49999999999999,0)" xlink:href="#ab"/><use transform="matrix(0.055555555555555546,0,0,0.055555555555555546,58.66666666666666,0)" xlink:href="#N"/><use transform="matrix(0.055555555555555546,0,0,0.055555555555555546,70.83333333333331,0)" xlink:href="#O"/></g><path fill="#333" d="M139-81c0-46-55-55-73-27H18l9-140h149v37H72l-4 63c44-38 133-4 122 66C201 21 21 35 11-62l49-4c5 18 15 30 39 30 26 0 40-18 40-45" id="ax"/><use transform="matrix(0.055555555555555546,0,0,0.055555555555555546,0,0)" xlink:href="#ax" id="E"/><g id="F"><use transform="matrix(0.055555555555555546,0,0,0.055555555555555546,0,0)" xlink:href="#ae"/><use transform="matrix(0.055555555555555546,0,0,0.055555555555555546,12.166666666666664,0)" xlink:href="#S"/><use transform="matrix(0.055555555555555546,0,0,0.055555555555555546,23.27777777777777,0)" xlink:href="#T"/><use transform="matrix(0.055555555555555546,0,0,0.055555555555555546,31.05555555555555,0)" xlink:href="#ab"/></g><g id="G"><use transform="matrix(0.055555555555555546,0,0,0.055555555555555546,0,0)" xlink:href="#af"/><use transform="matrix(0.055555555555555546,0,0,0.055555555555555546,13.33333333333333,0)" xlink:href="#Q"/><use transform="matrix(0.055555555555555546,0,0,0.055555555555555546,24.44444444444444,0)" xlink:href="#ag"/><use transform="matrix(0.055555555555555546,0,0,0.055555555555555546,36.6111111111111,0)" xlink:href="#ag"/><use transform="matrix(0.055555555555555546,0,0,0.055555555555555546,48.777777777777764,0)" xlink:href="#Y"/><use transform="matrix(0.055555555555555546,0,0,0.055555555555555546,54.33333333333332,0)" xlink:href="#L"/><use transform="matrix(0.055555555555555546,0,0,0.055555555555555546,66.49999999999999,0)" xlink:href="#Z"/></g><g id="H"><use transform="matrix(0.055555555555555546,0,0,0.055555555555555546,0,0)" xlink:href="#ah"/><use transform="matrix(0.055555555555555546,0,0,0.055555555555555546,14.388888888888886,0)" xlink:href="#ab"/><use transform="matrix(0.055555555555555546,0,0,0.055555555555555546,26.55555555555555,0)" xlink:href="#L"/><use transform="matrix(0.055555555555555546,0,0,0.055555555555555546,38.722222222222214,0)" xlink:href="#ai"/></g><g id="I"><use transform="matrix(0.055555555555555546,0,0,0.055555555555555546,0,0)" xlink:href="#aj"/><use transform="matrix(0.055555555555555546,0,0,0.055555555555555546,11.111111111111109,0)" xlink:href="#ak"/></g><use transform="matrix(0.055555555555555546,0,0,0.055555555555555546,0,0)" xlink:href="#aj" id="J"/></defs></g></svg>