<svg xmlns="http://www.w3.org/2000/svg" xmlns:xlink="http://www.w3.org/1999/xlink" xmlns:lucid="lucid" width="2715" height="785"><g transform="translate(216 -1076)" lucid:page-tab-id="0_0"><path d="M77.66 1186c0-3.3 2.7-6 6-6h128c3.3 0 6 2.7 6 6v70c0 3.3-2.7 6-6 6h-128c-3.3 0-6-2.7-6-6z" stroke="#5e5e5e" stroke-width="3" fill="#fcfcca"/><use xlink:href="#a" transform="matrix(1,0,0,1,82.66008080636107,1185) translate(21.77777777777778 40.75)"/><use xlink:href="#b" transform="matrix(1,0,0,1,82.66008080636107,1185) translate(97.11111111111111 40.75)"/><path d="M77.66 1466c0-3.3 2.7-6 6-6h128c3.3 0 6 2.7 6 6v70c0 3.3-2.7 6-6 6h-128c-3.3 0-6-2.7-6-6z" stroke="#5e5e5e" stroke-width="3" fill="#d7faf5"/><use xlink:href="#c" transform="matrix(1,0,0,1,82.66008080636107,1465) translate(16.805555555555557 40.75)"/><path d="M77.66 1326c0-3.3 2.7-6 6-6h128c3.3 0 6 2.7 6 6v70c0 3.3-2.7 6-6 6h-128c-3.3 0-6-2.7-6-6z" stroke="#5e5e5e" stroke-width="3" fill="#c3f7c8"/><use xlink:href="#a" transform="matrix(1,0,0,1,82.66008080636107,1325) translate(21.77777777777778 40.75)"/><use xlink:href="#d" transform="matrix(1,0,0,1,82.66008080636107,1325) translate(97.11111111111111 40.75)"/><path d="M79.92 1606c0-3.3 2.7-6 6-6h128c3.32 0 6 2.7 6 6v70c0 3.3-2.68 6-6 6h-128c-3.3 0-6-2.7-6-6z" stroke="#5e5e5e" stroke-width="3" fill="#ffdda6"/><use xlink:href="#a" transform="matrix(1,0,0,1,84.92325252697196,1605) translate(21.77777777777778 40.75)"/><use xlink:href="#d" transform="matrix(1,0,0,1,84.92325252697196,1605) translate(97.11111111111111 40.75)"/><path d="M78.4 1746c0-3.3 2.7-6 6-6h128c3.32 0 6 2.7 6 6v70c0 3.3-2.68 6-6 6h-128c-3.3 0-6-2.7-6-6z" stroke="#5e5e5e" stroke-width="3" fill="#d7faf5"/><use xlink:href="#c" transform="matrix(1,0,0,1,83.4054721480693,1745) translate(16.805555555555557 40.75)"/><path d="M398.5 1186c0-3.3 2.7-6 6-6h128c3.3 0 6 2.7 6 6v70c0 3.3-2.7 6-6 6h-128c-3.3 0-6-2.7-6-6z" stroke="#5e5e5e" stroke-width="3" fill="#dedeff"/><use xlink:href="#a" transform="matrix(1,0,0,1,403.5,1185) translate(21.77777777777778 40.75)"/><use xlink:href="#e" transform="matrix(1,0,0,1,403.5,1185) translate(97.11111111111111 40.75)"/><path d="M398.5 1466c0-3.3 2.7-6 6-6h128c3.3 0 6 2.7 6 6v70c0 3.3-2.7 6-6 6h-128c-3.3 0-6-2.7-6-6z" stroke="#5e5e5e" stroke-width="3" fill="#d7faf5"/><use xlink:href="#c" transform="matrix(1,0,0,1,403.5,1465) translate(16.805555555555557 40.75)"/><path d="M398.5 1326c0-3.3 2.7-6 6-6h128c3.3 0 6 2.7 6 6v70c0 3.3-2.7 6-6 6h-128c-3.3 0-6-2.7-6-6z" stroke="#5e5e5e" stroke-width="3" fill="#c3f7c8"/><use xlink:href="#a" transform="matrix(1,0,0,1,403.5,1325) translate(21.77777777777778 40.75)"/><use xlink:href="#d" transform="matrix(1,0,0,1,403.5,1325) translate(97.11111111111111 40.75)"/><path d="M400.76 1606c0-3.3 2.7-6 6-6h128c3.32 0 6 2.7 6 6v70c0 3.3-2.68 6-6 6h-128c-3.3 0-6-2.7-6-6z" stroke="#5e5e5e" stroke-width="3" fill="#ffdda6"/><use xlink:href="#a" transform="matrix(1,0,0,1,405.7631717206109,1605) translate(21.77777777777778 40.75)"/><use xlink:href="#d" transform="matrix(1,0,0,1,405.7631717206109,1605) translate(97.11111111111111 40.75)"/><path d="M399.25 1746c0-3.3 2.68-6 6-6h128c3.3 0 6 2.7 6 6v70c0 3.3-2.7 6-6 6h-128c-3.32 0-6-2.7-6-6z" stroke="#5e5e5e" stroke-width="3" fill="#d7faf5"/><use xlink:href="#c" transform="matrix(1,0,0,1,404.2453913417082,1745) translate(16.805555555555557 40.75)"/><path d="M2280 1186c0-3.3 2.7-6 6-6h128c3.3 0 6 2.7 6 6v70c0 3.3-2.7 6-6 6h-128c-3.3 0-6-2.7-6-6z" stroke="#5e5e5e" stroke-width="3" fill="#ff8f8f"/><use xlink:href="#f" transform="matrix(1,0,0,1,2285,1185) translate(10.055555555555564 40.75)"/><use xlink:href="#g" transform="matrix(1,0,0,1,2285,1185) translate(62.16666666666667 40.75)"/><path d="M-160 1186c0-3.3 2.7-6 6-6h128c3.3 0 6 2.7 6 6v70c0 3.3-2.7 6-6 6h-128c-3.3 0-6-2.7-6-6z" stroke="#5e5e5e" stroke-width="3" fill="#6db1ff"/><use xlink:href="#h" transform="matrix(1,0,0,1,-155,1185) translate(40.583333333333336 40.75)"/><path d="M379.24 1781H363c-3.3 0-6-2.7-6-6v-268c0-3.3 2.7-6 6-6h33" stroke="#5e5e5e" stroke-width="2" fill="none"/><path d="M394.5 1781l-14.26 4.64v-9.28z" stroke="#5e5e5e" stroke-width="2" fill="#5e5e5e"/><path d="M397 1502h-1.03v-2H397z" stroke="#5e5e5e" stroke-width=".05" fill="#5e5e5e"/><path d="M378.5 1501H363c-3.3 0-6-2.7-6-6v-269c0-3.3 2.7-6 6-6h33" stroke="#5e5e5e" stroke-width="2" fill="none"/><path d="M393.76 1501l-14.26 4.64v-9.28z" stroke="#5e5e5e" stroke-width="2" fill="#5e5e5e"/><path d="M397 1221h-1.03v-2H397z" stroke="#5e5e5e" stroke-width=".05" fill="#5e5e5e"/><path d="M220.9 1780H314c3.3 0 6-2.7 6-6v-548c0-3.3 2.7-6 6-6h30" stroke="#5e5e5e" stroke-width="2" fill="none"/><path d="M220.93 1781h-1.02v-2h1.03z" stroke="#5e5e5e" stroke-width=".05" fill="#5e5e5e"/><path d="M355.97 1220H357M75.16 1221h-33c-3.3 0-6 2.7-6 6v267c0 3.3 2.7 6 6 6h15.5" stroke="#5e5e5e" stroke-width="2" fill="none"/><path d="M76.16 1222h-1.03v-2h1.03z" stroke="#5e5e5e" stroke-width=".05" fill="#5e5e5e"/><path d="M72.92 1500l-14.26 4.64v-9.28z" stroke="#5e5e5e" stroke-width="2" fill="#5e5e5e"/><path d="M75.16 1501h-33c-3.3 0-6 2.7-6 6v267c0 3.3 2.7 6 6 6H58.4" stroke="#5e5e5e" stroke-width="2" fill="none"/><path d="M76.16 1502h-1.03v-2h1.03z" stroke="#5e5e5e" stroke-width=".05" fill="#5e5e5e"/><path d="M73.67 1780l-14.27 4.64v-9.28z" stroke="#5e5e5e" stroke-width="2" fill="#5e5e5e"/><path d="M239.25 1526c0-3.3 2.7-6 6-6h68c3.32 0 6 2.7 6 6v228c0 3.3-2.68 6-6 6h-68c-3.3 0-6-2.7-6-6z" fill="none"/><path d="M239.25 1760c5.53 0 10-4.48 10-10v-100c0-5.52 4.48-10 10-10-5.52 0-10-4.48-10-10v-100c0-5.52-4.47-10-10-10" stroke="#5e5e5e" stroke-width="3" fill="none"/><use xlink:href="#i" transform="matrix(1,0,0,1,274.2546086582918,1525) translate(8.271604938271604 119.44444444444446)"/><path d="M-17.5 1220.83h75.16" stroke="#5e5e5e" stroke-width="2" fill="none"/><path d="M-17.47 1221.83h-1.03v-2h1.03z" stroke="#5e5e5e" stroke-width=".05" fill="#5e5e5e"/><path d="M72.92 1220.83l-14.26 4.64v-9.27z" stroke="#5e5e5e" stroke-width="2" fill="#5e5e5e"/><path d="M717.87 1186c0-3.3 2.68-6 6-6h128c3.3 0 6 2.7 6 6v70c0 3.3-2.7 6-6 6h-128c-3.32 0-6-2.7-6-6z" stroke="#5e5e5e" stroke-width="3" fill="#dedeff"/><use xlink:href="#a" transform="matrix(1,0,0,1,722.8669168891253,1185) translate(21.77777777777778 40.75)"/><use xlink:href="#e" transform="matrix(1,0,0,1,722.8669168891253,1185) translate(97.11111111111111 40.75)"/><path d="M717.87 1466c0-3.3 2.68-6 6-6h128c3.3 0 6 2.7 6 6v70c0 3.3-2.7 6-6 6h-128c-3.32 0-6-2.7-6-6z" stroke="#5e5e5e" stroke-width="3" fill="#d7faf5"/><use xlink:href="#c" transform="matrix(1,0,0,1,722.8669168891253,1465) translate(16.805555555555557 40.75)"/><path d="M717.87 1326c0-3.3 2.68-6 6-6h128c3.3 0 6 2.7 6 6v70c0 3.3-2.7 6-6 6h-128c-3.32 0-6-2.7-6-6z" stroke="#5e5e5e" stroke-width="3" fill="#c3f7c8"/><use xlink:href="#a" transform="matrix(1,0,0,1,722.8669168891253,1325) translate(21.77777777777778 40.75)"/><use xlink:href="#d" transform="matrix(1,0,0,1,722.8669168891253,1325) translate(97.11111111111111 40.75)"/><path d="M720.13 1606c0-3.3 2.7-6 6-6h128c3.3 0 6 2.7 6 6v70c0 3.3-2.7 6-6 6h-128c-3.3 0-6-2.7-6-6z" stroke="#5e5e5e" stroke-width="3" fill="#ffdda6"/><use xlink:href="#a" transform="matrix(1,0,0,1,725.1300886097362,1605) translate(21.77777777777778 40.75)"/><use xlink:href="#d" transform="matrix(1,0,0,1,725.1300886097362,1605) translate(97.11111111111111 40.75)"/><path d="M718.6 1746c0-3.3 2.7-6 6-6h128c3.33 0 6 2.7 6 6v70c0 3.3-2.67 6-6 6h-128c-3.3 0-6-2.7-6-6z" stroke="#5e5e5e" stroke-width="3" fill="#d7faf5"/><use xlink:href="#c" transform="matrix(1,0,0,1,723.6123082308334,1745) translate(16.805555555555557 40.75)"/><path d="M698.6 1781h-16.23c-3.32 0-6-2.7-6-6v-268c0-3.3 2.68-6 6-6h33" stroke="#5e5e5e" stroke-width="2" fill="none"/><path d="M713.88 1781l-14.27 4.64v-9.28z" stroke="#5e5e5e" stroke-width="2" fill="#5e5e5e"/><path d="M716.37 1502h-1.03v-2h1.03z" stroke="#5e5e5e" stroke-width=".05" fill="#5e5e5e"/><path d="M697.87 1501h-15.5c-3.32 0-6-2.7-6-6v-269c0-3.3 2.68-6 6-6h33" stroke="#5e5e5e" stroke-width="2" fill="none"/><path d="M713.13 1501l-14.26 4.64v-9.28z" stroke="#5e5e5e" stroke-width="2" fill="#5e5e5e"/><path d="M716.37 1221h-1.03v-2h1.03z" stroke="#5e5e5e" stroke-width=".05" fill="#5e5e5e"/><path d="M560 1527c0-3.3 2.7-6 6-6h68c3.3 0 6 2.7 6 6v228c0 3.3-2.7 6-6 6h-68c-3.3 0-6-2.7-6-6z" fill="none"/><path d="M560 1761c5.52 0 10-4.48 10-10v-100c0-5.52 4.48-10 10-10-5.52 0-10-4.48-10-10v-100c0-5.52-4.48-10-10-10" stroke="#5e5e5e" stroke-width="3" fill="none"/><use xlink:href="#j" transform="matrix(1,0,0,1,595.0000000000001,1526) translate(8.271604938271604 119.44444444444446)"/><path d="M541.75 1780h91.52c3.32 0 6-2.7 6-6v-577.03c0-3.3 2.7-6 6-6h52.6" stroke="#5e5e5e" stroke-width="2" fill="none"/><path d="M541.77 1781h-1.02v-2h1.02z" stroke="#5e5e5e" stroke-width=".05" fill="#5e5e5e"/><path d="M713.13 1190.97l-14.26 4.64v-9.26z" stroke="#5e5e5e" stroke-width="2" fill="#5e5e5e"/><path d="M1037.7 1186c0-3.3 2.68-6 6-6h128c3.3 0 6 2.7 6 6v70c0 3.3-2.7 6-6 6h-128c-3.32 0-6-2.7-6-6z" stroke="#5e5e5e" stroke-width="3" fill="#dedeff"/><use xlink:href="#a" transform="matrix(1,0,0,1,1042.6951616127224,1185) translate(21.77777777777778 40.75)"/><use xlink:href="#e" transform="matrix(1,0,0,1,1042.6951616127224,1185) translate(97.11111111111111 40.75)"/><path d="M1037.7 1466c0-3.3 2.68-6 6-6h128c3.3 0 6 2.7 6 6v70c0 3.3-2.7 6-6 6h-128c-3.32 0-6-2.7-6-6z" stroke="#5e5e5e" stroke-width="3" fill="#d7faf5"/><use xlink:href="#c" transform="matrix(1,0,0,1,1042.6951616127224,1465) translate(16.805555555555557 40.75)"/><path d="M1037.7 1326c0-3.3 2.68-6 6-6h128c3.3 0 6 2.7 6 6v70c0 3.3-2.7 6-6 6h-128c-3.32 0-6-2.7-6-6z" stroke="#5e5e5e" stroke-width="3" fill="#c3f7c8"/><use xlink:href="#a" transform="matrix(1,0,0,1,1042.6951616127224,1325) translate(21.77777777777778 40.75)"/><use xlink:href="#d" transform="matrix(1,0,0,1,1042.6951616127224,1325) translate(97.11111111111111 40.75)"/><path d="M1039.96 1606c0-3.3 2.68-6 6-6h128c3.3 0 6 2.7 6 6v70c0 3.3-2.7 6-6 6h-128c-3.32 0-6-2.7-6-6z" stroke="#5e5e5e" stroke-width="3" fill="#ffdda6"/><use xlink:href="#a" transform="matrix(1,0,0,1,1044.9583333333333,1605) translate(21.77777777777778 40.75)"/><use xlink:href="#d" transform="matrix(1,0,0,1,1044.9583333333333,1605) translate(97.11111111111111 40.75)"/><path d="M1038.44 1746c0-3.3 2.7-6 6-6h128c3.3 0 6 2.7 6 6v70c0 3.3-2.7 6-6 6h-128c-3.3 0-6-2.7-6-6z" stroke="#5e5e5e" stroke-width="3" fill="#d7faf5"/><use xlink:href="#c" transform="matrix(1,0,0,1,1043.4405529544308,1745) translate(16.805555555555557 40.75)"/><path d="M1018.44 1781h-16.24c-3.32 0-6-2.7-6-6v-268c0-3.3 2.68-6 6-6h33" stroke="#5e5e5e" stroke-width="2" fill="none"/><path d="M1033.7 1781l-14.26 4.64v-9.28z" stroke="#5e5e5e" stroke-width="2" fill="#5e5e5e"/><path d="M1036.2 1502h-1.03v-2h1.03z" stroke="#5e5e5e" stroke-width=".05" fill="#5e5e5e"/><path d="M1017.7 1501h-15.5c-3.32 0-6-2.7-6-6v-268c0-3.3 2.68-6 6-6h33" stroke="#5e5e5e" stroke-width="2" fill="none"/><path d="M1032.96 1501l-14.27 4.64v-9.28z" stroke="#5e5e5e" stroke-width="2" fill="#5e5e5e"/><path d="M1036.2 1222h-1.03v-2h1.03z" stroke="#5e5e5e" stroke-width=".05" fill="#5e5e5e"/><path d="M879.83 1527c0-3.3 2.68-6 6-6h68c3.3 0 6 2.7 6 6v228c0 3.3-2.7 6-6 6h-68c-3.32 0-6-2.7-6-6z" fill="none"/><path d="M879.83 1761c5.52 0 10-4.48 10-10v-100c0-5.52 4.48-10 10-10-5.52 0-10-4.48-10-10v-100c0-5.52-4.48-10-10-10" stroke="#5e5e5e" stroke-width="3" fill="none"/><use xlink:href="#j" transform="matrix(1,0,0,1,914.8282447235974,1526) translate(8.271604938271604 119.44444444444446)"/><path d="M861.1 1780H954c3.3 0 6-2.7 6-6v-572.45c0-3.3 2.7-6 6-6h51.7" stroke="#5e5e5e" stroke-width="2" fill="none"/><path d="M861.14 1781h-1.03v-2h1.04z" stroke="#5e5e5e" stroke-width=".05" fill="#5e5e5e"/><path d="M1032.96 1195.55l-14.27 4.64v-9.28z" stroke="#5e5e5e" stroke-width="2" fill="#5e5e5e"/><path d="M855.92 1178.72v-39 39" stroke="#5e5e5e" stroke-width="2" fill="none"/><path d="M856.92 1180.72l-1.25-1.24-.75-.2v-.58h2z" stroke="#5e5e5e" stroke-width=".05" fill="#5e5e5e"/><path d="M856.92 1180.72l-1.25-1.24-.75-.2v-.58h2z" stroke="#5e5e5e" stroke-width=".05" fill="#5e5e5e"/><path d="M1357.87 1186c0-3.3 2.68-6 6-6h128c3.3 0 6 2.7 6 6v70c0 3.3-2.7 6-6 6h-128c-3.32 0-6-2.7-6-6z" stroke="#5e5e5e" stroke-width="3" fill="#dedeff"/><use xlink:href="#a" transform="matrix(1,0,0,1,1362.866916889125,1185) translate(21.77777777777778 40.75)"/><use xlink:href="#e" transform="matrix(1,0,0,1,1362.866916889125,1185) translate(97.11111111111111 40.75)"/><path d="M1357.87 1466c0-3.3 2.68-6 6-6h128c3.3 0 6 2.7 6 6v70c0 3.3-2.7 6-6 6h-128c-3.32 0-6-2.7-6-6z" stroke="#5e5e5e" stroke-width="3" fill="#d7faf5"/><use xlink:href="#c" transform="matrix(1,0,0,1,1362.866916889125,1465) translate(16.805555555555557 40.75)"/><path d="M1357.87 1326c0-3.3 2.68-6 6-6h128c3.3 0 6 2.7 6 6v70c0 3.3-2.7 6-6 6h-128c-3.32 0-6-2.7-6-6z" stroke="#5e5e5e" stroke-width="3" fill="#c3f7c8"/><use xlink:href="#a" transform="matrix(1,0,0,1,1362.866916889125,1325) translate(21.77777777777778 40.75)"/><use xlink:href="#d" transform="matrix(1,0,0,1,1362.866916889125,1325) translate(97.11111111111111 40.75)"/><path d="M1360.13 1606c0-3.3 2.7-6 6-6h128c3.3 0 6 2.7 6 6v70c0 3.3-2.7 6-6 6h-128c-3.3 0-6-2.7-6-6z" stroke="#5e5e5e" stroke-width="3" fill="#ffdda6"/><use xlink:href="#a" transform="matrix(1,0,0,1,1365.1300886097358,1605) translate(21.77777777777778 40.75)"/><use xlink:href="#d" transform="matrix(1,0,0,1,1365.1300886097358,1605) translate(97.11111111111111 40.75)"/><path d="M1358.6 1746c0-3.3 2.7-6 6-6h128c3.33 0 6 2.7 6 6v70c0 3.3-2.67 6-6 6h-128c-3.3 0-6-2.7-6-6z" stroke="#5e5e5e" stroke-width="3" fill="#d7faf5"/><use xlink:href="#c" transform="matrix(1,0,0,1,1363.6123082308334,1745) translate(16.805555555555557 40.75)"/><path d="M1338.6 1781h-16.23c-3.32 0-6-2.7-6-6v-268c0-3.3 2.68-6 6-6h33" stroke="#5e5e5e" stroke-width="2" fill="none"/><path d="M1353.88 1781l-14.27 4.64v-9.28z" stroke="#5e5e5e" stroke-width="2" fill="#5e5e5e"/><path d="M1356.37 1502h-1.03v-2h1.03z" stroke="#5e5e5e" stroke-width=".05" fill="#5e5e5e"/><path d="M1337.87 1501h-15.5c-3.32 0-6-2.7-6-6v-268c0-3.3 2.68-6 6-6h33" stroke="#5e5e5e" stroke-width="2" fill="none"/><path d="M1353.13 1501l-14.26 4.64v-9.28z" stroke="#5e5e5e" stroke-width="2" fill="#5e5e5e"/><path d="M1356.37 1222h-1.03v-2h1.03z" stroke="#5e5e5e" stroke-width=".05" fill="#5e5e5e"/><path d="M1200 1527c0-3.3 2.7-6 6-6h68c3.3 0 6 2.7 6 6v228c0 3.3-2.7 6-6 6h-68c-3.3 0-6-2.7-6-6z" fill="none"/><path d="M1200 1761c5.52 0 10-4.48 10-10v-100c0-5.52 4.48-10 10-10-5.52 0-10-4.48-10-10v-100c0-5.52-4.48-10-10-10" stroke="#5e5e5e" stroke-width="3" fill="none"/><use xlink:href="#k" transform="matrix(1,0,0,1,1235,1526) translate(8.271604938271604 119.44444444444446)"/><path d="M1180.94 1780H1274c3.3 0 6-2.7 6-6v-574.74c0-3.3 2.7-6 6-6h51.87" stroke="#5e5e5e" stroke-width="2" fill="none"/><path d="M1180.97 1781h-1.03v-2h1.03z" stroke="#5e5e5e" stroke-width=".05" fill="#5e5e5e"/><path d="M1353.13 1193.26l-14.26 4.64v-9.27z" stroke="#5e5e5e" stroke-width="2" fill="#5e5e5e"/><path d="M1682.17 1186c0-3.3 2.68-6 6-6h128c3.3 0 6 2.7 6 6v70c0 3.3-2.7 6-6 6h-128c-3.32 0-6-2.7-6-6z" stroke="#5e5e5e" stroke-width="3" fill="#dedeff"/><use xlink:href="#a" transform="matrix(1,0,0,1,1687.1684038929584,1185) translate(21.77777777777778 40.75)"/><use xlink:href="#e" transform="matrix(1,0,0,1,1687.1684038929584,1185) translate(97.11111111111111 40.75)"/><path d="M1682.17 1466c0-3.3 2.68-6 6-6h128c3.3 0 6 2.7 6 6v70c0 3.3-2.7 6-6 6h-128c-3.32 0-6-2.7-6-6z" stroke="#5e5e5e" stroke-width="3" fill="#d7faf5"/><use xlink:href="#c" transform="matrix(1,0,0,1,1687.1684038929584,1465) translate(16.805555555555557 40.75)"/><path d="M1682.17 1326c0-3.3 2.68-6 6-6h128c3.3 0 6 2.7 6 6v70c0 3.3-2.7 6-6 6h-128c-3.32 0-6-2.7-6-6z" stroke="#5e5e5e" stroke-width="3" fill="#c3f7c8"/><use xlink:href="#a" transform="matrix(1,0,0,1,1687.1684038929584,1325) translate(21.77777777777778 40.75)"/><use xlink:href="#d" transform="matrix(1,0,0,1,1687.1684038929584,1325) translate(97.11111111111111 40.75)"/><path d="M1684.43 1606c0-3.3 2.7-6 6-6h128c3.32 0 6 2.7 6 6v70c0 3.3-2.68 6-6 6h-128c-3.3 0-6-2.7-6-6z" stroke="#5e5e5e" stroke-width="3" fill="#ffdda6"/><use xlink:href="#a" transform="matrix(1,0,0,1,1689.4315756135693,1605) translate(21.77777777777778 40.75)"/><use xlink:href="#d" transform="matrix(1,0,0,1,1689.4315756135693,1605) translate(97.11111111111111 40.75)"/><path d="M1682.9 1746c0-3.3 2.7-6 6-6h128c3.33 0 6 2.7 6 6v70c0 3.3-2.67 6-6 6h-128c-3.3 0-6-2.7-6-6z" stroke="#5e5e5e" stroke-width="3" fill="#d7faf5"/><use xlink:href="#c" transform="matrix(1,0,0,1,1687.9137952346668,1745) translate(16.805555555555557 40.75)"/><path d="M1662.9 1781h-16.23c-3.32 0-6-2.7-6-6v-268c0-3.3 2.68-6 6-6h33" stroke="#5e5e5e" stroke-width="2" fill="none"/><path d="M1678.18 1781l-14.27 4.64v-9.28z" stroke="#5e5e5e" stroke-width="2" fill="#5e5e5e"/><path d="M1680.67 1502h-1.03v-2h1.03z" stroke="#5e5e5e" stroke-width=".05" fill="#5e5e5e"/><path d="M1662.17 1501h-15.5c-3.32 0-6-2.7-6-6v-268c0-3.3 2.68-6 6-6h33" stroke="#5e5e5e" stroke-width="2" fill="none"/><path d="M1677.43 1501l-14.26 4.64v-9.28z" stroke="#5e5e5e" stroke-width="2" fill="#5e5e5e"/><path d="M1680.67 1222h-1.03v-2h1.03z" stroke="#5e5e5e" stroke-width=".05" fill="#5e5e5e"/><path d="M1524.3 1527c0-3.3 2.7-6 6-6h68c3.32 0 6 2.7 6 6v228c0 3.3-2.68 6-6 6h-68c-3.3 0-6-2.7-6-6z" fill="none"/><path d="M1524.3 1761c5.52 0 10-4.48 10-10v-100c0-5.52 4.48-10 10-10-5.52 0-10-4.48-10-10v-100c0-5.52-4.48-10-10-10" stroke="#5e5e5e" stroke-width="3" fill="none"/><use xlink:href="#k" transform="matrix(1,0,0,1,1559.3014870038332,1526) translate(8.271604938271604 119.44444444444446)"/><path d="M1501.1 1780H1604c3.3 0 6-2.7 6-6v-572.45c0-3.3 2.7-6 6-6h46.17" stroke="#5e5e5e" stroke-width="2" fill="none"/><path d="M1501.14 1781h-1.03v-2h1.04z" stroke="#5e5e5e" stroke-width=".05" fill="#5e5e5e"/><path d="M1677.43 1195.55l-14.26 4.64v-9.28z" stroke="#5e5e5e" stroke-width="2" fill="#5e5e5e"/><path d="M1999.8 1186c0-3.3 2.7-6 6-6h128c3.32 0 6 2.7 6 6v70c0 3.3-2.68 6-6 6h-128c-3.3 0-6-2.7-6-6z" stroke="#5e5e5e" stroke-width="3" fill="#dedeff"/><use xlink:href="#a" transform="matrix(1,0,0,1,2004.8107043204163,1185) translate(21.77777777777778 40.75)"/><use xlink:href="#e" transform="matrix(1,0,0,1,2004.8107043204163,1185) translate(97.11111111111111 40.75)"/><path d="M1999.8 1466c0-3.3 2.7-6 6-6h128c3.32 0 6 2.7 6 6v70c0 3.3-2.68 6-6 6h-128c-3.3 0-6-2.7-6-6z" stroke="#5e5e5e" stroke-width="3" fill="#d7faf5"/><use xlink:href="#c" transform="matrix(1,0,0,1,2004.8107043204163,1465) translate(16.805555555555557 40.75)"/><path d="M1999.8 1326c0-3.3 2.7-6 6-6h128c3.32 0 6 2.7 6 6v70c0 3.3-2.68 6-6 6h-128c-3.3 0-6-2.7-6-6z" stroke="#5e5e5e" stroke-width="3" fill="#c3f7c8"/><use xlink:href="#a" transform="matrix(1,0,0,1,2004.8107043204163,1325) translate(21.77777777777778 40.75)"/><use xlink:href="#d" transform="matrix(1,0,0,1,2004.8107043204163,1325) translate(97.11111111111111 40.75)"/><path d="M2002.07 1606c0-3.3 2.7-6 6-6h128c3.32 0 6 2.7 6 6v70c0 3.3-2.68 6-6 6h-128c-3.3 0-6-2.7-6-6z" stroke="#5e5e5e" stroke-width="3" fill="#ffdda6"/><use xlink:href="#a" transform="matrix(1,0,0,1,2007.0738760410277,1605) translate(21.77777777777778 40.75)"/><use xlink:href="#d" transform="matrix(1,0,0,1,2007.0738760410277,1605) translate(97.11111111111111 40.75)"/><path d="M2000.56 1746c0-3.3 2.68-6 6-6h128c3.3 0 6 2.7 6 6v70c0 3.3-2.7 6-6 6h-128c-3.32 0-6-2.7-6-6z" stroke="#5e5e5e" stroke-width="3" fill="#d7faf5"/><use xlink:href="#c" transform="matrix(1,0,0,1,2005.5560956621248,1745) translate(16.805555555555557 40.75)"/><path d="M1980.55 1781h-16.24c-3.3 0-6-2.7-6-6v-268c0-3.3 2.7-6 6-6h33" stroke="#5e5e5e" stroke-width="2" fill="none"/><path d="M1995.82 1781l-14.27 4.64v-9.28z" stroke="#5e5e5e" stroke-width="2" fill="#5e5e5e"/><path d="M1998.3 1502h-1v-2h1z" stroke="#5e5e5e" stroke-width=".05" fill="#5e5e5e"/><path d="M1979.8 1501h-15.5c-3.3 0-6-2.7-6-6v-268c0-3.3 2.7-6 6-6h33" stroke="#5e5e5e" stroke-width="2" fill="none"/><path d="M1995.07 1501l-14.26 4.64v-9.28z" stroke="#5e5e5e" stroke-width="2" fill="#5e5e5e"/><path d="M1998.3 1222h-1v-2h1z" stroke="#5e5e5e" stroke-width=".05" fill="#5e5e5e"/><path d="M1841.94 1527c0-3.3 2.7-6 6-6h68c3.32 0 6 2.7 6 6v228c0 3.3-2.68 6-6 6h-68c-3.3 0-6-2.7-6-6z" fill="none"/><path d="M1841.94 1761c5.53 0 10-4.48 10-10v-100c0-5.52 4.48-10 10-10-5.52 0-10-4.48-10-10v-100c0-5.52-4.47-10-10-10" stroke="#5e5e5e" stroke-width="3" fill="none"/><use xlink:href="#l" transform="matrix(1,0,0,1,1876.9437874312916,1526) translate(2.932098765432098 119.44444444444446)"/><path d="M1825.4 1780h96.35c3.32 0 6-2.7 6-6v-574.74c0-3.3 2.7-6 6-6h46.06" stroke="#5e5e5e" stroke-width="2" fill="none"/><path d="M1825.44 1781h-1.03v-2h1.04z" stroke="#5e5e5e" stroke-width=".05" fill="#5e5e5e"/><path d="M1995.07 1193.26l-14.26 4.64v-9.27z" stroke="#5e5e5e" stroke-width="2" fill="#5e5e5e"/><path d="M2160 1526c0-3.3 2.7-6 6-6h68c3.3 0 6 2.7 6 6v228c0 3.3-2.7 6-6 6h-68c-3.3 0-6-2.7-6-6z" fill="none"/><path d="M2160 1760c5.52 0 10-4.48 10-10v-100c0-5.52 4.48-10 10-10-5.52 0-10-4.48-10-10v-100c0-5.52-4.48-10-10-10" stroke="#5e5e5e" stroke-width="3" fill="none"/><use xlink:href="#i" transform="matrix(1,0,0,1,2195,1525) translate(8.271604938271604 119.44444444444446)"/><path d="M2143.06 1780h89.44c3.3 0 6-2.7 6-6v-547c0-3.3 2.7-6 6-6h15.5" stroke="#5e5e5e" stroke-width="2" fill="none"/><path d="M2143.08 1781h-1.02v-2h1.02z" stroke="#5e5e5e" stroke-width=".05" fill="#5e5e5e"/><path d="M2275.26 1221l-14.26 4.64v-9.28z" stroke="#5e5e5e" stroke-width="2" fill="#5e5e5e"/><path d="M1107.7 1264.5v53" stroke="#5e5e5e" stroke-width="2" fill="none"/><path d="M1108.7 1264.53h-2v-1.03h2zM1108.7 1318.5h-2v-1.03h2z" stroke="#5e5e5e" stroke-width=".05" fill="#5e5e5e"/><path d="M1107.7 1404.5v53" stroke="#5e5e5e" stroke-width="2" fill="none"/><path d="M1108.7 1404.53h-2v-1.03h2zM1108.7 1458.5h-2v-1.03h2z" stroke="#5e5e5e" stroke-width=".05" fill="#5e5e5e"/><path d="M1107.7 1544.5v53" stroke="#5e5e5e" stroke-width="2" fill="none"/><path d="M1108.7 1544.53h-2v-1.03h2zM1108.7 1598.5h-2v-1.03h2z" stroke="#5e5e5e" stroke-width=".05" fill="#5e5e5e"/><path d="M1109.96 1684.5v53" stroke="#5e5e5e" stroke-width="2" fill="none"/><path d="M1110.96 1684.53h-2v-1.03h2zM1110.96 1738.5h-2v-1.03h2z" stroke="#5e5e5e" stroke-width=".05" fill="#5e5e5e"/><path d="M1060 1126c0-3.3 2.7-6 6-6h79.56c3.3 0 6 2.7 6 6v28.25c0 3.3-2.7 6-6 6H1066c-3.3 0-6-2.7-6-6z" stroke="#000" stroke-opacity="0" stroke-width="3" fill="#fff" fill-opacity="0"/><g><use xlink:href="#m" transform="matrix(1,0,0,1,1065,1125) translate(5.500000000000007 19.875)"/><use xlink:href="#n" transform="matrix(1,0,0,1,1065,1125) translate(65.38888888888889 19.875)"/></g><path d="M1380 1128c0-3.3 2.7-6 6-6h79.56c3.3 0 6 2.7 6 6v28.25c0 3.3-2.7 6-6 6H1386c-3.3 0-6-2.7-6-6z" stroke="#000" stroke-opacity="0" stroke-width="3" fill="#fff" fill-opacity="0"/><g><use xlink:href="#m" transform="matrix(1,0,0,1,1385,1127) translate(5.500000000000007 19.875)"/><use xlink:href="#o" transform="matrix(1,0,0,1,1385,1127) translate(65.38888888888889 19.875)"/></g><path d="M1700 1128c0-3.3 2.7-6 6-6h79.56c3.3 0 6 2.7 6 6v28.25c0 3.3-2.7 6-6 6H1706c-3.3 0-6-2.7-6-6z" stroke="#000" stroke-opacity="0" stroke-width="3" fill="#fff" fill-opacity="0"/><g><use xlink:href="#m" transform="matrix(1,0,0,1,1705,1127) translate(5.500000000000007 19.875)"/><use xlink:href="#p" transform="matrix(1,0,0,1,1705,1127) translate(65.38888888888889 19.875)"/></g><path d="M2020 1128c0-3.3 2.7-6 6-6h79.56c3.3 0 6 2.7 6 6v28.25c0 3.3-2.7 6-6 6H2026c-3.3 0-6-2.7-6-6z" stroke="#000" stroke-opacity="0" stroke-width="3" fill="#fff" fill-opacity="0"/><g><use xlink:href="#m" transform="matrix(1,0,0,1,2025,1127) translate(5.500000000000007 19.875)"/><use xlink:href="#q" transform="matrix(1,0,0,1,2025,1127) translate(65.38888888888889 19.875)"/></g><path d="M100 1128c0-3.3 2.7-6 6-6h79.56c3.3 0 6 2.7 6 6v28.25c0 3.3-2.7 6-6 6H106c-3.3 0-6-2.7-6-6z" stroke="#000" stroke-opacity="0" stroke-width="3" fill="#fff" fill-opacity="0"/><g><use xlink:href="#m" transform="matrix(1,0,0,1,105,1127) translate(5.500000000000007 19.875)"/><use xlink:href="#b" transform="matrix(1,0,0,1,105,1127) translate(65.38888888888889 19.875)"/></g><path d="M420 1128c0-3.3 2.7-6 6-6h79.56c3.3 0 6 2.7 6 6v28.25c0 3.3-2.7 6-6 6H426c-3.3 0-6-2.7-6-6z" stroke="#000" stroke-opacity="0" stroke-width="3" fill="#fff" fill-opacity="0"/><g><use xlink:href="#m" transform="matrix(1,0,0,1,425,1127) translate(5.500000000000007 19.875)"/><use xlink:href="#e" transform="matrix(1,0,0,1,425,1127) translate(65.38888888888889 19.875)"/></g><path d="M740 1126c0-3.3 2.7-6 6-6h79.56c3.3 0 6 2.7 6 6v28.25c0 3.3-2.7 6-6 6H746c-3.3 0-6-2.7-6-6z" stroke="#000" stroke-opacity="0" stroke-width="3" fill="#fff" fill-opacity="0"/><g><use xlink:href="#m" transform="matrix(1,0,0,1,745,1125) translate(5.500000000000007 19.875)"/><use xlink:href="#d" transform="matrix(1,0,0,1,745,1125) translate(65.38888888888889 19.875)"/></g><defs><path fill="#333" d="M230 0l2-204L168 0h-37L68-204 70 0H24v-248h70l56 185 57-185h69V0h-46" id="r"/><path fill="#333" d="M110-194c64 0 96 36 96 99 0 64-35 99-97 99-61 0-95-36-95-99 0-62 34-99 96-99zm-1 164c35 0 45-28 45-65 0-40-10-65-43-65-34 0-45 26-45 65 0 36 10 65 43 65" id="s"/><path fill="#333" d="M88-194c31-1 46 15 58 34l-1-101h50l1 261h-48c-2-10 0-23-3-31C134-8 116 4 84 4 32 4 16-41 15-95c0-56 19-97 73-99zm17 164c33 0 40-30 41-66 1-37-9-64-41-64s-38 30-39 65c0 43 13 65 39 65" id="t"/><path fill="#333" d="M85 4C-2 5 27-109 22-190h50c7 57-23 150 33 157 60-5 35-97 40-157h50l1 190h-47c-2-12 1-28-3-38-12 25-28 42-61 42" id="u"/><path fill="#333" d="M25 0v-261h50V0H25" id="v"/><path fill="#333" d="M185-48c-13 30-37 53-82 52C43 2 14-33 14-96s30-98 90-98c62 0 83 45 84 108H66c0 31 8 55 39 56 18 0 30-7 34-22zm-45-69c5-46-57-63-70-21-2 6-4 13-4 21h74" id="w"/><g id="a"><use transform="matrix(0.055555555555555546,0,0,0.055555555555555546,0,0)" xlink:href="#r"/><use transform="matrix(0.055555555555555546,0,0,0.055555555555555546,16.611111111111107,0)" xlink:href="#s"/><use transform="matrix(0.055555555555555546,0,0,0.055555555555555546,28.77777777777777,0)" xlink:href="#t"/><use transform="matrix(0.055555555555555546,0,0,0.055555555555555546,40.944444444444436,0)" xlink:href="#u"/><use transform="matrix(0.055555555555555546,0,0,0.055555555555555546,53.1111111111111,0)" xlink:href="#v"/><use transform="matrix(0.055555555555555546,0,0,0.055555555555555546,58.66666666666666,0)" xlink:href="#w"/></g><path fill="#333" d="M23 0v-37h61v-169l-59 37v-38l62-41h46v211h57V0H23" id="x"/><use transform="matrix(0.055555555555555546,0,0,0.055555555555555546,0,0)" xlink:href="#x" id="b"/><path fill="#333" d="M169-182c-1-43-94-46-97-3 18 66 151 10 154 114 3 95-165 93-204 36-6-8-10-19-12-30l50-8c3 46 112 56 116 5-17-69-150-10-154-114-4-87 153-88 188-35 5 8 8 18 10 28" id="y"/><path fill="#333" d="M137-138c1-29-70-34-71-4 15 46 118 7 119 86 1 83-164 76-172 9l43-7c4 19 20 25 44 25 33 8 57-30 24-41C81-84 22-81 20-136c-2-80 154-74 161-7" id="z"/><path fill="#333" d="M14-72v-43h91v43H14" id="A"/><path fill="#333" d="M135-194c52 0 70 43 70 98 0 56-19 99-73 100-30 1-46-15-58-35L72 0H24l1-261h50v104c11-23 29-37 60-37zM114-30c31 0 40-27 40-66 0-37-7-63-39-63s-41 28-41 65c0 36 8 64 40 64" id="B"/><path fill="#333" d="M190-63c-7 42-38 67-86 67-59 0-84-38-90-98-12-110 154-137 174-36l-49 2c-2-19-15-32-35-32-30 0-35 28-38 64-6 74 65 87 74 30" id="C"/><g id="c"><use transform="matrix(0.055555555555555546,0,0,0.055555555555555546,0,0)" xlink:href="#y"/><use transform="matrix(0.055555555555555546,0,0,0.055555555555555546,13.33333333333333,0)" xlink:href="#s"/><use transform="matrix(0.055555555555555546,0,0,0.055555555555555546,25.499999999999993,0)" xlink:href="#u"/><use transform="matrix(0.055555555555555546,0,0,0.055555555555555546,37.66666666666666,0)" xlink:href="#z"/><use transform="matrix(0.055555555555555546,0,0,0.055555555555555546,48.777777777777764,0)" xlink:href="#A"/><use transform="matrix(0.055555555555555546,0,0,0.055555555555555546,55.38888888888887,0)" xlink:href="#B"/><use transform="matrix(0.055555555555555546,0,0,0.055555555555555546,67.55555555555554,0)" xlink:href="#v"/><use transform="matrix(0.055555555555555546,0,0,0.055555555555555546,73.1111111111111,0)" xlink:href="#s"/><use transform="matrix(0.055555555555555546,0,0,0.055555555555555546,85.27777777777777,0)" xlink:href="#C"/></g><path fill="#333" d="M128-127c34 4 56 21 59 58 7 91-148 94-172 28-4-9-6-17-7-26l51-5c1 24 16 35 40 36 23 0 39-12 38-36-1-31-31-36-65-34v-40c32 2 59-3 59-33 0-20-13-33-34-33s-33 13-35 32l-50-3c6-44 37-68 86-68 50 0 83 20 83 66 0 35-22 52-53 58" id="D"/><use transform="matrix(0.055555555555555546,0,0,0.055555555555555546,0,0)" xlink:href="#D" id="d"/><path fill="#333" d="M182-182c0 78-84 86-111 141h115V0H12c-6-101 99-100 120-180 1-22-12-31-33-32-23 0-32 14-35 34l-49-3c5-45 32-70 84-70 51 0 83 22 83 69" id="E"/><use transform="matrix(0.055555555555555546,0,0,0.055555555555555546,0,0)" xlink:href="#E" id="e"/><path fill="#333" d="M76-208v77h127v40H76V0H24v-248h183v40H76" id="F"/><path fill="#333" d="M25-224v-37h50v37H25zM25 0v-190h50V0H25" id="G"/><path fill="#333" d="M135-194c87-1 58 113 63 194h-50c-7-57 23-157-34-157-59 0-34 97-39 157H25l-1-190h47c2 12-1 28 3 38 12-26 28-41 61-42" id="H"/><path fill="#333" d="M133-34C117-15 103 5 69 4 32 3 11-16 11-54c-1-60 55-63 116-61 1-26-3-47-28-47-18 1-26 9-28 27l-52-2c7-38 36-58 82-57s74 22 75 68l1 82c-1 14 12 18 25 15v27c-30 8-71 5-69-32zm-48 3c29 0 43-24 42-57-32 0-66-3-65 30 0 17 8 27 23 27" id="I"/><g id="f"><use transform="matrix(0.055555555555555546,0,0,0.055555555555555546,0,0)" xlink:href="#F"/><use transform="matrix(0.055555555555555546,0,0,0.055555555555555546,12.166666666666664,0)" xlink:href="#G"/><use transform="matrix(0.055555555555555546,0,0,0.055555555555555546,17.722222222222218,0)" xlink:href="#H"/><use transform="matrix(0.055555555555555546,0,0,0.055555555555555546,29.888888888888882,0)" xlink:href="#I"/><use transform="matrix(0.055555555555555546,0,0,0.055555555555555546,40.99999999999999,0)" xlink:href="#v"/></g><path fill="#333" d="M123 10C108 53 80 86 19 72V37c35 8 53-11 59-39L3-190h52l48 148c12-52 28-100 44-148h51" id="J"/><path fill="#333" d="M135-150c-39-12-60 13-60 57V0H25l-1-190h47c2 13-1 29 3 40 6-28 27-53 61-41v41" id="K"/><g id="g"><use transform="matrix(0.055555555555555546,0,0,0.055555555555555546,0,0)" xlink:href="#v"/><use transform="matrix(0.055555555555555546,0,0,0.055555555555555546,5.5555555555555545,0)" xlink:href="#I"/><use transform="matrix(0.055555555555555546,0,0,0.055555555555555546,16.666666666666664,0)" xlink:href="#J"/><use transform="matrix(0.055555555555555546,0,0,0.055555555555555546,27.77777777777777,0)" xlink:href="#w"/><use transform="matrix(0.055555555555555546,0,0,0.055555555555555546,38.88888888888888,0)" xlink:href="#K"/><use transform="matrix(0.055555555555555546,0,0,0.055555555555555546,46.66666666666666,0)" xlink:href="#z"/></g><path fill="#333" d="M115-3C79 11 28 4 28-45v-112H4v-33h27l15-45h31v45h36v33H77v99c-1 23 16 31 38 25v30" id="L"/><path fill="#333" d="M220-157c-53 9-28 100-34 157h-49v-107c1-27-5-49-29-50C55-147 81-57 75 0H25l-1-190h47c2 12-1 28 3 38 10-53 101-56 108 0 13-22 24-43 59-42 82 1 51 116 57 194h-49v-107c-1-25-5-48-29-50" id="M"/><g id="h"><use transform="matrix(0.055555555555555546,0,0,0.055555555555555546,0,0)" xlink:href="#y"/><use transform="matrix(0.055555555555555546,0,0,0.055555555555555546,13.33333333333333,0)" xlink:href="#L"/><use transform="matrix(0.055555555555555546,0,0,0.055555555555555546,19.94444444444444,0)" xlink:href="#w"/><use transform="matrix(0.055555555555555546,0,0,0.055555555555555546,31.05555555555555,0)" xlink:href="#M"/></g><path fill="#333" d="M141 0L90-78 38 0H4l68-98-65-92h35l48 74 47-74h35l-64 92 68 98h-35" id="N"/><path fill="#333" d="M101-251c82-7 93 87 43 132L82-64C71-53 59-42 53-27h129V0H18c2-99 128-94 128-182 0-28-16-43-45-43s-46 15-49 41l-32-3c6-41 34-60 81-64" id="O"/><g id="i"><use transform="matrix(0.06172839506172839,0,0,0.06172839506172839,0,0)" xlink:href="#N"/><use transform="matrix(0.06172839506172839,0,0,0.06172839506172839,11.11111111111111,0)" xlink:href="#O"/></g><path fill="#333" d="M54-142c48-35 137-8 131 61C196 18 31 33 14-55l32-4c7 23 22 37 52 37 35-1 51-22 54-58 4-55-73-65-99-34H22l8-134h141v27H59" id="P"/><g id="j"><use transform="matrix(0.06172839506172839,0,0,0.06172839506172839,0,0)" xlink:href="#N"/><use transform="matrix(0.06172839506172839,0,0,0.06172839506172839,11.11111111111111,0)" xlink:href="#P"/></g><path fill="#333" d="M134-131c28 9 52 24 51 62-1 50-34 73-85 73S17-19 16-69c0-36 21-54 49-61-75-25-45-126 34-121 46 3 78 18 79 63 0 33-17 51-44 57zm-34-11c31 1 46-15 46-44 0-28-17-43-47-42-29 0-46 13-45 42 1 28 16 44 46 44zm1 122c35 0 51-18 51-52 0-30-18-46-53-46-33 0-51 17-51 47 0 34 19 51 53 51" id="Q"/><g id="k"><use transform="matrix(0.06172839506172839,0,0,0.06172839506172839,0,0)" xlink:href="#N"/><use transform="matrix(0.06172839506172839,0,0,0.06172839506172839,11.11111111111111,0)" xlink:href="#Q"/></g><path fill="#333" d="M27 0v-27h64v-190l-56 39v-29l58-41h29v221h61V0H27" id="R"/><g id="l"><use transform="matrix(0.06172839506172839,0,0,0.06172839506172839,0,0)" xlink:href="#N"/><use transform="matrix(0.06172839506172839,0,0,0.06172839506172839,11.11111111111111,0)" xlink:href="#R"/><use transform="matrix(0.06172839506172839,0,0,0.06172839506172839,21.790123456790123,0)" xlink:href="#R"/></g><path fill="#333" d="M182-130c37 4 62 22 62 59C244 23 116-4 24 0v-248c84 5 203-23 205 63 0 31-19 50-47 55zM76-148c40-3 101 13 101-30 0-44-60-28-101-31v61zm0 110c48-3 116 14 116-37 0-48-69-32-116-35v72" id="S"/><path fill="#333" d="M147 0L96-86 75-71V0H25v-261h50v150l67-79h53l-66 74L201 0h-54" id="T"/><g id="m"><use transform="matrix(0.055555555555555546,0,0,0.055555555555555546,0,0)" xlink:href="#S"/><use transform="matrix(0.055555555555555546,0,0,0.055555555555555546,14.388888888888886,0)" xlink:href="#v"/><use transform="matrix(0.055555555555555546,0,0,0.055555555555555546,19.94444444444444,0)" xlink:href="#s"/><use transform="matrix(0.055555555555555546,0,0,0.055555555555555546,32.1111111111111,0)" xlink:href="#C"/><use transform="matrix(0.055555555555555546,0,0,0.055555555555555546,43.22222222222221,0)" xlink:href="#T"/></g><path fill="#333" d="M165-50V0h-47v-50H5v-38l105-160h55v161h33v37h-33zm-47-37l2-116L46-87h72" id="U"/><use transform="matrix(0.055555555555555546,0,0,0.055555555555555546,0,0)" xlink:href="#U" id="n"/><path fill="#333" d="M139-81c0-46-55-55-73-27H18l9-140h149v37H72l-4 63c44-38 133-4 122 66C201 21 21 35 11-62l49-4c5 18 15 30 39 30 26 0 40-18 40-45" id="V"/><use transform="matrix(0.055555555555555546,0,0,0.055555555555555546,0,0)" xlink:href="#V" id="o"/><path fill="#333" d="M115-159c48 0 72 30 72 78 0 54-30 85-83 85-64 0-91-50-91-122 0-98 58-163 141-120 15 8 21 24 27 44l-47 6c-5-31-48-31-61-4-7 14-11 33-11 60 9-17 28-27 53-27zM102-35c24 0 36-20 36-45s-11-43-37-43c-23 0-36 14-36 38 0 27 11 50 37 50" id="W"/><use transform="matrix(0.055555555555555546,0,0,0.055555555555555546,0,0)" xlink:href="#W" id="p"/><path fill="#333" d="M52 0c1-96 47-148 87-207H15v-41h169v40c-36 62-79 113-81 208H52" id="X"/><use transform="matrix(0.055555555555555546,0,0,0.055555555555555546,0,0)" xlink:href="#X" id="q"/></defs></g></svg>