<svg xmlns="http://www.w3.org/2000/svg" xmlns:xlink="http://www.w3.org/1999/xlink" xmlns:lucid="lucid" width="494.27" height="650.13"><g transform="translate(21.799332831322317 125.064802135239)" lucid:page-tab-id="0_0"><path d="M-1.8 80.73c0-3.3 2.7-6 6-6h128c3.3 0 6 2.7 6 6v28c0 3.3-2.7 6-6 6H4.2c-3.3 0-6-2.7-6-6z" stroke="#5e5e5e" stroke-width="3" fill="#ffdda6"/><use xlink:href="#a" transform="matrix(1,0,0,1,10.200667168677683,86.7288441299902) translate(14.85493827160495 12.444444444444443)"/><use xlink:href="#b" transform="matrix(1,0,0,1,10.200667168677683,86.7288441299902) translate(72.66975308641975 12.444444444444443)"/><path d="M-.88 141.73c0-3.3 2.68-6 6-6h128c3.3 0 6 2.7 6 6v28c0 3.32-2.7 6-6 6h-128c-3.32 0-6-2.68-6-6z" stroke="#5e5e5e" stroke-width="3" fill="#edf5ff"/><use xlink:href="#c" transform="matrix(1,0,0,1,11.118086663704162,147.73146880190598) translate(3.7067901234567984 12.444444444444443)"/><use xlink:href="#b" transform="matrix(1,0,0,1,11.118086663704162,147.73146880190598) translate(83.8179012345679 12.444444444444443)"/><path d="M-.88 202.73c0-3.3 2.68-6 6-6h128c3.3 0 6 2.7 6 6v28c0 3.32-2.7 6-6 6h-128c-3.32 0-6-2.68-6-6z" stroke="#5e5e5e" stroke-width="3" fill="#ffdda6"/><use xlink:href="#a" transform="matrix(1,0,0,1,11.118086663704162,208.73409347382176) translate(14.85493827160495 12.444444444444443)"/><use xlink:href="#b" transform="matrix(1,0,0,1,11.118086663704162,208.73409347382176) translate(72.66975308641975 12.444444444444443)"/><path d="M-1.8 263.74c0-3.32 2.7-6 6-6h128c3.3 0 6 2.68 6 6v28c0 3.3-2.7 6-6 6H4.2c-3.3 0-6-2.7-6-6z" stroke="#5e5e5e" stroke-width="3" fill="#cfe4ff"/><use xlink:href="#c" transform="matrix(1,0,0,1,10.200667168677683,269.73671814573754) translate(3.7067901234567984 12.444444444444443)"/><use xlink:href="#b" transform="matrix(1,0,0,1,10.200667168677683,269.73671814573754) translate(83.8179012345679 12.444444444444443)"/><path d="M-1.8 321.73c0-3.3 2.7-6 6-6h128c3.3 0 6 2.7 6 6v28c0 3.32-2.7 6-6 6H4.2c-3.3 0-6-2.68-6-6z" stroke="#5e5e5e" stroke-width="3" fill="#ffdda6"/><use xlink:href="#a" transform="matrix(1,0,0,1,10.200667168677683,327.731468801906) translate(14.85493827160495 12.444444444444443)"/><use xlink:href="#b" transform="matrix(1,0,0,1,10.200667168677683,327.731468801906) translate(72.66975308641975 12.444444444444443)"/><path d="M-.88 379.73c0-3.32 2.68-6 6-6h128c3.3 0 6 2.68 6 6v28c0 3.3-2.7 6-6 6h-128c-3.32 0-6-2.7-6-6z" stroke="#5e5e5e" stroke-width="3" fill="#fff"/><use xlink:href="#d" transform="matrix(1,0,0,1,11.118086663704162,385.7262194580744) translate(35.55246913580247 12.444444444444443)"/><path d="M69.12 371.23v1" stroke="#5e5e5e" stroke-width="2" fill="none"/><path d="M70.12 372.23h-2v-1.03h2z" stroke="#5e5e5e" stroke-width=".05" fill="#5e5e5e"/><path d="M68.4 360.46l5.5 13.96-9.26.56z" stroke="#5e5e5e" stroke-width="2" fill="#5e5e5e"/><path d="M68.2 313.23v1" stroke="#5e5e5e" stroke-width="2" fill="none"/><path d="M69.2 314.23h-2v-1.02h2z" stroke="#5e5e5e" stroke-width=".05" fill="#5e5e5e"/><path d="M68.2 302.47l4.64 14.27h-9.27z" stroke="#5e5e5e" stroke-width="2" fill="#5e5e5e"/><path d="M68.2 255.24v.58" stroke="#5e5e5e" stroke-width="2" fill="none"/><path d="M69.2 256.24h-2v-1.03h2z" stroke="#5e5e5e" stroke-width=".05" fill="#5e5e5e"/><path d="M68.95 241.47l3.9 14.48-9.27-.48z" stroke="#5e5e5e" stroke-width="2" fill="#5e5e5e"/><path d="M69.12 194.23v1" stroke="#5e5e5e" stroke-width="2" fill="none"/><path d="M70.12 195.23h-2v-1.02h2z" stroke="#5e5e5e" stroke-width=".05" fill="#5e5e5e"/><path d="M69.12 180.47l4.63 14.26h-9.27z" stroke="#5e5e5e" stroke-width="2" fill="#5e5e5e"/><path d="M69.12 133.23v1" stroke="#5e5e5e" stroke-width="2" fill="none"/><path d="M70.12 134.23h-2v-1.02h2z" stroke="#5e5e5e" stroke-width=".05" fill="#5e5e5e"/><path d="M69.12 119.47l4.63 14.26h-9.27z" stroke="#5e5e5e" stroke-width="2" fill="#5e5e5e"/><path d="M68.2 72.23V56.9" stroke="#5e5e5e" stroke-width="2" fill="none"/><path d="M69.2 73.23h-2V72.2h2z" stroke="#5e5e5e" stroke-width=".05" fill="#5e5e5e"/><path d="M68.2 41.63l4.64 14.27h-9.27z" stroke="#5e5e5e" stroke-width="2" fill="#5e5e5e"/><path d="M23.2 21.73c0-3.3 2.7-6 6-6h78c3.3 0 6 2.7 6 6V32.4c0 3.3-2.7 6-6 6h-78c-3.3 0-6-2.7-6-6z" stroke="#000" stroke-opacity="0" stroke-width="3" fill="#fff" fill-opacity="0"/><use xlink:href="#e" transform="matrix(1,0,0,1,28.200667168677683,20.731468801905976) translate(9.385802469135808 12.444444444444443)"/><path d="M147.5 210.64c0-3.3 2.68-6 6-6h34.02c3.32 0 6 2.7 6 6v14.2c0 3.3-2.68 6-6 6H153.5c-3.32 0-6-2.7-6-6z" stroke="#000" stroke-opacity="0" stroke-width="3" fill="#fff" fill-opacity="0"/><use xlink:href="#f" transform="matrix(1,0,0,1,152.49279034021401,209.64224978681204) translate(6.422839506172844 13.506944444444441)"/><use xlink:href="#g" transform="matrix(1,0,0,1,152.49279034021401,209.64224978681204) translate(19.385802469135804 13.506944444444441)"/><path d="M31.75 445.06c0-3.3 2.7-6 6-6h62.73c3.32 0 6 2.7 6 6v54c0 3.32-2.68 6-6 6H37.75c-3.3 0-6-2.68-6-6z" stroke="#000" stroke-opacity="0" stroke-width="3" fill="#fff" fill-opacity="0"/><use xlink:href="#h" transform="matrix(1,0,0,1,36.75452201128428,444.06480213523946) translate(0.6111111111111178 21.77777777777778)"/><use xlink:href="#i" transform="matrix(1,0,0,1,36.75452201128428,444.06480213523946) translate(-13.194444444444436 40.44444444444444)"/><path d="M238.2 263.74c0-3.32 2.7-6 6-6h148c3.3 0 6 2.68 6 6v28c0 3.3-2.7 6-6 6h-148c-3.3 0-6-2.7-6-6z" stroke="#5e5e5e" stroke-width="3" fill="#cfe4ff"/><use xlink:href="#c" transform="matrix(1,0,0,1,250.20066716867768,269.73671814573754) translate(13.706790123456798 12.444444444444443)"/><use xlink:href="#b" transform="matrix(1,0,0,1,250.20066716867768,269.73671814573754) translate(93.8179012345679 12.444444444444443)"/><path d="M238.2 324.4c0-3.32 2.7-6 6-6h148c3.3 0 6 2.68 6 6v28c0 3.3-2.7 6-6 6h-148c-3.3 0-6-2.7-6-6z" stroke="#5e5e5e" stroke-width="3" fill="#c3f7c8"/><use xlink:href="#j" transform="matrix(1,0,0,1,250.20066716867768,330.39821947075325) translate(3.7253086419753316 12.444444444444443)"/><use xlink:href="#k" transform="matrix(1,0,0,1,250.20066716867768,330.39821947075325) translate(33.972222222222236 12.444444444444443)"/><use xlink:href="#l" transform="matrix(1,0,0,1,250.20066716867768,330.39821947075325) translate(77.05246913580247 12.444444444444443)"/><use xlink:href="#m" transform="matrix(1,0,0,1,250.20066716867768,330.39821947075325) translate(123.63271604938271 12.444444444444443)"/><path d="M238.2 385.06c0-3.3 2.7-6 6-6h147.08c3.32 0 6 2.7 6 6v28c0 3.3-2.68 6-6 6H244.2c-3.3 0-6-2.7-6-6z" stroke="#5e5e5e" stroke-width="3" fill="#fff"/><use xlink:href="#d" transform="matrix(1,0,0,1,250.20066716867768,391.05972079576895) translate(45.55246913580247 12.444444444444443)"/><path d="M238.2 202.73c0-3.3 2.7-6 6-6h148c3.3 0 6 2.7 6 6v28c0 3.32-2.7 6-6 6h-148c-3.3 0-6-2.68-6-6z" stroke="#5e5e5e" stroke-width="3" fill="#ffdda6"/><use xlink:href="#a" transform="matrix(1,0,0,1,250.20066716867768,208.73409347382176) translate(24.85493827160495 12.444444444444443)"/><use xlink:href="#b" transform="matrix(1,0,0,1,250.20066716867768,208.73409347382176) translate(82.66975308641975 12.444444444444443)"/><path d="M238.2 142.73c0-3.3 2.7-6 6-6h148c3.3 0 6 2.7 6 6v28c0 3.32-2.7 6-6 6h-148c-3.3 0-6-2.68-6-6z" stroke="#5e5e5e" stroke-width="3" fill="#cfe4ff"/><use xlink:href="#c" transform="matrix(1,0,0,1,250.20066716867768,148.73409347382176) translate(13.706790123456798 12.444444444444443)"/><use xlink:href="#b" transform="matrix(1,0,0,1,250.20066716867768,148.73409347382176) translate(93.8179012345679 12.444444444444443)"/><path d="M238.2 82.73c0-3.3 2.7-6 6-6h148c3.3 0 6 2.7 6 6v28c0 3.32-2.7 6-6 6h-148c-3.3 0-6-2.68-6-6z" stroke="#5e5e5e" stroke-width="3" fill="#ffdda6"/><use xlink:href="#a" transform="matrix(1,0,0,1,250.20066716867768,88.73409347382176) translate(24.85493827160495 12.444444444444443)"/><use xlink:href="#b" transform="matrix(1,0,0,1,250.20066716867768,88.73409347382176) translate(82.66975308641975 12.444444444444443)"/><path d="M238.2 21.73c0-3.3 2.7-6 6-6h148c3.3 0 6 2.7 6 6v28c0 3.32-2.7 6-6 6h-148c-3.3 0-6-2.68-6-6z" stroke="#5e5e5e" stroke-width="3" fill="#cfe4ff"/><use xlink:href="#c" transform="matrix(1,0,0,1,250.20066716867768,27.731468801905976) translate(13.706790123456798 12.444444444444443)"/><use xlink:href="#b" transform="matrix(1,0,0,1,250.20066716867768,27.731468801905976) translate(93.8179012345679 12.444444444444443)"/><path d="M238.2-38.27c0-3.3 2.7-6 6-6h148c3.3 0 6 2.7 6 6v28c0 3.32-2.7 6-6 6h-148c-3.3 0-6-2.68-6-6z" stroke="#5e5e5e" stroke-width="3" fill="#ffdda6"/><use xlink:href="#a" transform="matrix(1,0,0,1,250.20066716867768,-32.268531198094024) translate(24.85493827160495 12.444444444444443)"/><use xlink:href="#b" transform="matrix(1,0,0,1,250.20066716867768,-32.268531198094024) translate(82.66975308641975 12.444444444444443)"/><path d="M318.2-46.77v-16.75" stroke="#5e5e5e" stroke-width="2" fill="none"/><path d="M319.2-45.77h-2v-1.02h2z" stroke="#5e5e5e" stroke-width=".05" fill="#5e5e5e"/><path d="M317.82-78.32l5 14.14-9.27.23z" stroke="#5e5e5e" stroke-width="2" fill="#5e5e5e"/><path d="M318.2 74.23v1" stroke="#5e5e5e" stroke-width="2" fill="none"/><path d="M319.2 75.23h-2V74.2h2z" stroke="#5e5e5e" stroke-width=".05" fill="#5e5e5e"/><path d="M318.2 60.47l4.64 14.26h-9.27z" stroke="#5e5e5e" stroke-width="2" fill="#5e5e5e"/><path d="M318.2 13.23v1" stroke="#5e5e5e" stroke-width="2" fill="none"/><path d="M319.2 14.23h-2V13.2h2z" stroke="#5e5e5e" stroke-width=".05" fill="#5e5e5e"/><path d="M318.2.47l4.64 14.26h-9.27z" stroke="#5e5e5e" stroke-width="2" fill="#5e5e5e"/><path d="M318.2 134.23v1" stroke="#5e5e5e" stroke-width="2" fill="none"/><path d="M319.2 135.23h-2v-1.02h2z" stroke="#5e5e5e" stroke-width=".05" fill="#5e5e5e"/><path d="M318.2 121.47l4.64 14.27h-9.27z" stroke="#5e5e5e" stroke-width="2" fill="#5e5e5e"/><path d="M318.2 194.23v1" stroke="#5e5e5e" stroke-width="2" fill="none"/><path d="M319.2 195.23h-2v-1.02h2z" stroke="#5e5e5e" stroke-width=".05" fill="#5e5e5e"/><path d="M318.2 181.47l4.64 14.27h-9.27z" stroke="#5e5e5e" stroke-width="2" fill="#5e5e5e"/><path d="M318.2 255.24v1" stroke="#5e5e5e" stroke-width="2" fill="none"/><path d="M319.2 256.24h-2v-1.03h2z" stroke="#5e5e5e" stroke-width=".05" fill="#5e5e5e"/><path d="M318.2 241.47l4.64 14.27h-9.27z" stroke="#5e5e5e" stroke-width="2" fill="#5e5e5e"/><path d="M318.2 315.9v1" stroke="#5e5e5e" stroke-width="2" fill="none"/><path d="M319.2 316.9h-2v-1.03h2z" stroke="#5e5e5e" stroke-width=".05" fill="#5e5e5e"/><path d="M318.2 302.47l4.64 14.27h-9.27z" stroke="#5e5e5e" stroke-width="2" fill="#5e5e5e"/><path d="M317.74 376.56v1" stroke="#5e5e5e" stroke-width="2" fill="none"/><path d="M318.74 377.56h-2v-1.03h2z" stroke="#5e5e5e" stroke-width=".05" fill="#5e5e5e"/><path d="M317.74 363.13l4.64 14.27h-9.27z" stroke="#5e5e5e" stroke-width="2" fill="#5e5e5e"/><path d="M277.5-99.06c0-3.32 2.7-6 6-6h68.47c3.32 0 6 2.68 6 6v11.5c0 3.3-2.68 6-6 6H283.5c-3.3 0-6-2.7-6-6z" stroke="#000" stroke-opacity="0" stroke-width="3" fill="#fff" fill-opacity="0"/><g><use xlink:href="#e" transform="matrix(1,0,0,1,282.5126025474078,-100.064802135239) translate(4.8858024691358075 12.444444444444443)"/></g><path d="M280.84 454.4c0-3.32 2.68-6 6-6h62.72c3.32 0 6 2.68 6 6v35.33c0 3.32-2.68 6-6 6h-62.72c-3.32 0-6-2.68-6-6z" stroke="#000" stroke-opacity="0" stroke-width="3" fill="#fff" fill-opacity="0"/><g><use xlink:href="#n" transform="matrix(1,0,0,1,285.8371025162578,453.3981354685727) translate(-2.4351851851851762 12.777777777777779)"/><use xlink:href="#o" transform="matrix(1,0,0,1,285.8371025162578,453.3981354685727) translate(-13.194444444444436 31.444444444444443)"/></g><path d="M147.5 333.65c0-3.3 2.68-6 6-6h34.02c3.32 0 6 2.7 6 6v14.2c0 3.3-2.68 6-6 6H153.5c-3.32 0-6-2.7-6-6z" stroke="#000" stroke-opacity="0" stroke-width="3" fill="#fff" fill-opacity="0"/><g><use xlink:href="#f" transform="matrix(1,0,0,1,152.49279034021401,332.6501238025594) translate(6.422839506172844 13.506944444444441)"/><use xlink:href="#g" transform="matrix(1,0,0,1,152.49279034021401,332.6501238025594) translate(19.385802469135804 13.506944444444441)"/></g><path d="M147.5 87.17c0-3.32 2.68-6 6-6h34.02c3.32 0 6 2.68 6 6v14.2c0 3.3-2.68 6-6 6H153.5c-3.32 0-6-2.7-6-6z" stroke="#000" stroke-opacity="0" stroke-width="3" fill="#fff" fill-opacity="0"/><g><use xlink:href="#f" transform="matrix(1,0,0,1,152.49279034021401,86.16643610031633) translate(6.422839506172844 13.506944444444441)"/><use xlink:href="#g" transform="matrix(1,0,0,1,152.49279034021401,86.16643610031633) translate(19.385802469135804 13.506944444444441)"/></g><path d="M406.43-35.04c0-3.32 2.7-6 6-6h34.04c3.3 0 6 2.68 6 6v14.18c0 3.32-2.7 6-6 6h-34.04c-3.3 0-6-2.68-6-6z" stroke="#000" stroke-opacity="0" stroke-width="3" fill="#fff" fill-opacity="0"/><g><use xlink:href="#f" transform="matrix(1,0,0,1,411.43454218636316,-36.044130638454135) translate(6.422839506172844 13.506944444444441)"/><use xlink:href="#g" transform="matrix(1,0,0,1,411.43454218636316,-36.044130638454135) translate(19.385802469135804 13.506944444444441)"/></g><path d="M405.42 87.17c0-3.32 2.68-6 6-6h34.03c3.3 0 6 2.68 6 6v14.2c0 3.3-2.7 6-6 6h-34.03c-3.32 0-6-2.7-6-6z" stroke="#000" stroke-opacity="0" stroke-width="3" fill="#fff" fill-opacity="0"/><g><use xlink:href="#f" transform="matrix(1,0,0,1,410.41612079687343,86.16643610031633) translate(6.422839506172844 13.506944444444441)"/><use xlink:href="#g" transform="matrix(1,0,0,1,410.41612079687343,86.16643610031633) translate(19.385802469135804 13.506944444444441)"/></g><path d="M403.38 207.34c0-3.3 2.7-6 6-6h34.03c3.32 0 6 2.7 6 6v14.2c0 3.3-2.68 6-6 6H409.4c-3.3 0-6-2.7-6-6z" stroke="#000" stroke-opacity="0" stroke-width="3" fill="#fff" fill-opacity="0"/><g><use xlink:href="#f" transform="matrix(1,0,0,1,408.37927801789374,206.34016006010688) translate(6.422839506172844 13.506944444444441)"/><use xlink:href="#g" transform="matrix(1,0,0,1,408.37927801789374,206.34016006010688) translate(19.385802469135804 13.506944444444441)"/></g><path d="M404.4 269.46c0-3.3 2.68-6 6-6h34.03c3.3 0 6 2.7 6 6v14.2c0 3.3-2.7 6-6 6H410.4c-3.32 0-6-2.7-6-6z" stroke="#000" stroke-opacity="0" stroke-width="3" fill="#fff" fill-opacity="0"/><g><use xlink:href="#f" transform="matrix(1,0,0,1,409.39769940738347,268.4638648189816) translate(7.697530864197535 13.506944444444441)"/><use xlink:href="#p" transform="matrix(1,0,0,1,409.39769940738347,268.4638648189816) translate(20.660493827160494 13.506944444444441)"/></g><defs><path fill="#333" d="M175 0L67-191c6 58 2 128 3 191H24v-248h59L193-55c-6-58-2-129-3-193h46V0h-61" id="q"/><path fill="#333" d="M110-194c64 0 96 36 96 99 0 64-35 99-97 99-61 0-95-36-95-99 0-62 34-99 96-99zm-1 164c35 0 45-28 45-65 0-40-10-65-43-65-34 0-45 26-45 65 0 36 10 65 43 65" id="r"/><path fill="#333" d="M135-150c-39-12-60 13-60 57V0H25l-1-190h47c2 13-1 29 3 40 6-28 27-53 61-41v41" id="s"/><path fill="#333" d="M220-157c-53 9-28 100-34 157h-49v-107c1-27-5-49-29-50C55-147 81-57 75 0H25l-1-190h47c2 12-1 28 3 38 10-53 101-56 108 0 13-22 24-43 59-42 82 1 51 116 57 194h-49v-107c-1-25-5-48-29-50" id="t"/><path fill="#333" d="M133-34C117-15 103 5 69 4 32 3 11-16 11-54c-1-60 55-63 116-61 1-26-3-47-28-47-18 1-26 9-28 27l-52-2c7-38 36-58 82-57s74 22 75 68l1 82c-1 14 12 18 25 15v27c-30 8-71 5-69-32zm-48 3c29 0 43-24 42-57-32 0-66-3-65 30 0 17 8 27 23 27" id="u"/><path fill="#333" d="M25 0v-261h50V0H25" id="v"/><g id="a"><use transform="matrix(0.04320987654320987,0,0,0.04320987654320987,0,0)" xlink:href="#q"/><use transform="matrix(0.04320987654320987,0,0,0.04320987654320987,11.191358024691356,0)" xlink:href="#r"/><use transform="matrix(0.04320987654320987,0,0,0.04320987654320987,20.654320987654316,0)" xlink:href="#s"/><use transform="matrix(0.04320987654320987,0,0,0.04320987654320987,26.70370370370369,0)" xlink:href="#t"/><use transform="matrix(0.04320987654320987,0,0,0.04320987654320987,40.53086419753085,0)" xlink:href="#u"/><use transform="matrix(0.04320987654320987,0,0,0.04320987654320987,49.17283950617283,0)" xlink:href="#v"/></g><path fill="#333" d="M67-125c0 53 21 87 73 88 37 1 54-22 65-47l45 17C233-25 199 4 140 4 58 4 20-42 15-125 8-235 124-281 211-232c18 10 29 29 36 50l-46 12c-8-25-30-41-62-41-52 0-71 34-72 86" id="w"/><path fill="#333" d="M185-48c-13 30-37 53-82 52C43 2 14-33 14-96s30-98 90-98c62 0 83 45 84 108H66c0 31 8 55 39 56 18 0 30-7 34-22zm-45-69c5-46-57-63-70-21-2 6-4 13-4 21h74" id="x"/><g id="b"><use transform="matrix(0.04320987654320987,0,0,0.04320987654320987,0,0)" xlink:href="#w"/><use transform="matrix(0.04320987654320987,0,0,0.04320987654320987,11.191358024691356,0)" xlink:href="#x"/><use transform="matrix(0.04320987654320987,0,0,0.04320987654320987,19.83333333333333,0)" xlink:href="#v"/><use transform="matrix(0.04320987654320987,0,0,0.04320987654320987,24.154320987654316,0)" xlink:href="#v"/></g><path fill="#333" d="M240-174c0 40-23 61-54 70L253 0h-59l-57-94H76V0H24v-248c93 4 217-23 216 74zM76-134c48-2 112 12 112-38 0-48-66-32-112-35v73" id="y"/><path fill="#333" d="M88-194c31-1 46 15 58 34l-1-101h50l1 261h-48c-2-10 0-23-3-31C134-8 116 4 84 4 32 4 16-41 15-95c0-56 19-97 73-99zm17 164c33 0 40-30 41-66 1-37-9-64-41-64s-38 30-39 65c0 43 13 65 39 65" id="z"/><path fill="#333" d="M85 4C-2 5 27-109 22-190h50c7 57-23 150 33 157 60-5 35-97 40-157h50l1 190h-47c-2-12 1-28-3-38-12 25-28 42-61 42" id="A"/><path fill="#333" d="M190-63c-7 42-38 67-86 67-59 0-84-38-90-98-12-110 154-137 174-36l-49 2c-2-19-15-32-35-32-30 0-35 28-38 64-6 74 65 87 74 30" id="B"/><path fill="#333" d="M115-3C79 11 28 4 28-45v-112H4v-33h27l15-45h31v45h36v33H77v99c-1 23 16 31 38 25v30" id="C"/><path fill="#333" d="M25-224v-37h50v37H25zM25 0v-190h50V0H25" id="D"/><path fill="#333" d="M135-194c87-1 58 113 63 194h-50c-7-57 23-157-34-157-59 0-34 97-39 157H25l-1-190h47c2 12-1 28 3 38 12-26 28-41 61-42" id="E"/><g id="c"><use transform="matrix(0.04320987654320987,0,0,0.04320987654320987,0,0)" xlink:href="#y"/><use transform="matrix(0.04320987654320987,0,0,0.04320987654320987,11.191358024691356,0)" xlink:href="#x"/><use transform="matrix(0.04320987654320987,0,0,0.04320987654320987,19.83333333333333,0)" xlink:href="#z"/><use transform="matrix(0.04320987654320987,0,0,0.04320987654320987,29.29629629629629,0)" xlink:href="#A"/><use transform="matrix(0.04320987654320987,0,0,0.04320987654320987,38.75925925925925,0)" xlink:href="#B"/><use transform="matrix(0.04320987654320987,0,0,0.04320987654320987,47.40123456790123,0)" xlink:href="#C"/><use transform="matrix(0.04320987654320987,0,0,0.04320987654320987,52.5432098765432,0)" xlink:href="#D"/><use transform="matrix(0.04320987654320987,0,0,0.04320987654320987,56.86419753086418,0)" xlink:href="#r"/><use transform="matrix(0.04320987654320987,0,0,0.04320987654320987,66.32716049382715,0)" xlink:href="#E"/></g><path fill="#333" d="M24 0v-248h52V0H24" id="F"/><path fill="#333" d="M195-6C206 82 75 100 31 46c-4-6-6-13-8-21l49-6c3 16 16 24 34 25 40 0 42-37 40-79-11 22-30 35-61 35-53 0-70-43-70-97 0-56 18-96 73-97 30 0 46 14 59 34l2-30h47zm-90-29c32 0 41-27 41-63 0-35-9-62-40-62-32 0-39 29-40 63 0 36 9 62 39 62" id="G"/><g id="d"><use transform="matrix(0.04320987654320987,0,0,0.04320987654320987,0,0)" xlink:href="#F"/><use transform="matrix(0.04320987654320987,0,0,0.04320987654320987,4.320987654320986,0)" xlink:href="#t"/><use transform="matrix(0.04320987654320987,0,0,0.04320987654320987,18.148148148148145,0)" xlink:href="#u"/><use transform="matrix(0.04320987654320987,0,0,0.04320987654320987,26.790123456790116,0)" xlink:href="#G"/><use transform="matrix(0.04320987654320987,0,0,0.04320987654320987,36.25308641975308,0)" xlink:href="#x"/></g><path fill="#333" d="M169-182c-1-43-94-46-97-3 18 66 151 10 154 114 3 95-165 93-204 36-6-8-10-19-12-30l50-8c3 46 112 56 116 5-17-69-150-10-154-114-4-87 153-88 188-35 5 8 8 18 10 28" id="H"/><path fill="#333" d="M121-226c-27-7-43 5-38 36h38v33H83V0H34v-157H6v-33h28c-9-59 32-81 87-68v32" id="I"/><path fill="#333" d="M144 0l-44-69L55 0H2l70-98-66-92h53l41 62 40-62h54l-67 91 71 99h-54" id="J"/><g id="e"><use transform="matrix(0.04320987654320987,0,0,0.04320987654320987,0,0)" xlink:href="#H"/><use transform="matrix(0.04320987654320987,0,0,0.04320987654320987,10.370370370370368,0)" xlink:href="#r"/><use transform="matrix(0.04320987654320987,0,0,0.04320987654320987,19.83333333333333,0)" xlink:href="#I"/><use transform="matrix(0.04320987654320987,0,0,0.04320987654320987,24.975308641975303,0)" xlink:href="#C"/><use transform="matrix(0.04320987654320987,0,0,0.04320987654320987,30.117283950617278,0)" xlink:href="#t"/><use transform="matrix(0.04320987654320987,0,0,0.04320987654320987,43.944444444444436,0)" xlink:href="#u"/><use transform="matrix(0.04320987654320987,0,0,0.04320987654320987,52.58641975308641,0)" xlink:href="#J"/></g><use transform="matrix(0.04320987654320986,0,0,0.04320987654320986,0,0)" xlink:href="#J" id="f"/><use transform="matrix(0.04320987654320986,0,0,0.04320987654320986,0,0)" xlink:href="#q" id="g"/><path fill="#333" d="M76-208v77h127v40H76V0H24v-248h183v40H76" id="K"/><path fill="#333" d="M199 0l-22-63H83L61 0H9l90-248h61L250 0h-51zm-33-102l-36-108c-10 38-24 72-36 108h72" id="L"/><path fill="#333" d="M23 0v-37h61v-169l-59 37v-38l62-41h46v211h57V0H23" id="M"/><path fill="#333" d="M101-251c68 0 84 54 84 127C185-50 166 4 99 4S15-52 14-124c-1-75 17-127 87-127zm-1 216c37-5 36-46 36-89s4-89-36-89c-39 0-36 45-36 89 0 43-3 85 36 89" id="N"/><g id="h"><use transform="matrix(0.04320987654320987,0,0,0.04320987654320987,0,0)" xlink:href="#w"/><use transform="matrix(0.04320987654320987,0,0,0.04320987654320987,11.191358024691356,0)" xlink:href="#F"/><use transform="matrix(0.04320987654320987,0,0,0.04320987654320987,15.512345679012343,0)" xlink:href="#K"/><use transform="matrix(0.04320987654320987,0,0,0.04320987654320987,24.111111111111107,0)" xlink:href="#L"/><use transform="matrix(0.04320987654320987,0,0,0.04320987654320987,35.30246913580246,0)" xlink:href="#y"/><use transform="matrix(0.04320987654320987,0,0,0.04320987654320987,46.493827160493815,0)" xlink:href="#M"/><use transform="matrix(0.04320987654320987,0,0,0.04320987654320987,55.13580246913579,0)" xlink:href="#N"/></g><path fill="#333" d="M114-157C55-157 80-60 75 0H25v-261h50l-1 109c12-26 28-41 61-42 86-1 58 113 63 194h-50c-7-57 23-157-34-157" id="O"/><g id="i"><use transform="matrix(0.04320987654320987,0,0,0.04320987654320987,0,0)" xlink:href="#L"/><use transform="matrix(0.04320987654320987,0,0,0.04320987654320987,11.191358024691356,0)" xlink:href="#s"/><use transform="matrix(0.04320987654320987,0,0,0.04320987654320987,17.240740740740737,0)" xlink:href="#B"/><use transform="matrix(0.04320987654320987,0,0,0.04320987654320987,25.882716049382704,0)" xlink:href="#O"/><use transform="matrix(0.04320987654320987,0,0,0.04320987654320987,35.34567901234567,0)" xlink:href="#D"/><use transform="matrix(0.04320987654320987,0,0,0.04320987654320987,39.66666666666666,0)" xlink:href="#C"/><use transform="matrix(0.04320987654320987,0,0,0.04320987654320987,44.80864197530863,0)" xlink:href="#x"/><use transform="matrix(0.04320987654320987,0,0,0.04320987654320987,53.450617283950606,0)" xlink:href="#B"/><use transform="matrix(0.04320987654320987,0,0,0.04320987654320987,62.09259259259258,0)" xlink:href="#C"/><use transform="matrix(0.04320987654320987,0,0,0.04320987654320987,67.23456790123456,0)" xlink:href="#A"/><use transform="matrix(0.04320987654320987,0,0,0.04320987654320987,76.69753086419752,0)" xlink:href="#s"/><use transform="matrix(0.04320987654320987,0,0,0.04320987654320987,82.7469135802469,0)" xlink:href="#x"/></g><path fill="#333" d="M128-127c34 4 56 21 59 58 7 91-148 94-172 28-4-9-6-17-7-26l51-5c1 24 16 35 40 36 23 0 39-12 38-36-1-31-31-36-65-34v-40c32 2 59-3 59-33 0-20-13-33-34-33s-33 13-35 32l-50-3c6-44 37-68 86-68 50 0 83 20 83 66 0 35-22 52-53 58" id="P"/><g id="j"><use transform="matrix(0.04320987654320987,0,0,0.04320987654320987,0,0)" xlink:href="#P"/><use transform="matrix(0.04320987654320987,0,0,0.04320987654320987,8.641975308641973,0)" xlink:href="#J"/><use transform="matrix(0.04320987654320987,0,0,0.04320987654320987,17.283950617283946,0)" xlink:href="#P"/></g><path fill="#333" d="M128 0H69L1-190h53L99-40l48-150h52" id="Q"/><g id="k"><use transform="matrix(0.04320987654320987,0,0,0.04320987654320987,0,0)" xlink:href="#w"/><use transform="matrix(0.04320987654320987,0,0,0.04320987654320987,11.191358024691356,0)" xlink:href="#r"/><use transform="matrix(0.04320987654320987,0,0,0.04320987654320987,20.654320987654316,0)" xlink:href="#E"/><use transform="matrix(0.04320987654320987,0,0,0.04320987654320987,30.117283950617278,0)" xlink:href="#Q"/></g><path fill="#333" d="M137-138c1-29-70-34-71-4 15 46 118 7 119 86 1 83-164 76-172 9l43-7c4 19 20 25 44 25 33 8 57-30 24-41C81-84 22-81 20-136c-2-80 154-74 161-7" id="R"/><g id="l"><use transform="matrix(0.04320987654320987,0,0,0.04320987654320987,0,0)" xlink:href="#R"/><use transform="matrix(0.04320987654320987,0,0,0.04320987654320987,8.641975308641973,0)" xlink:href="#C"/><use transform="matrix(0.04320987654320987,0,0,0.04320987654320987,13.783950617283947,0)" xlink:href="#s"/><use transform="matrix(0.04320987654320987,0,0,0.04320987654320987,19.83333333333333,0)" xlink:href="#D"/><use transform="matrix(0.04320987654320987,0,0,0.04320987654320987,24.154320987654316,0)" xlink:href="#z"/><use transform="matrix(0.04320987654320987,0,0,0.04320987654320987,33.61728395061728,0)" xlink:href="#x"/></g><path fill="#333" d="M182-182c0 78-84 86-111 141h115V0H12c-6-101 99-100 120-180 1-22-12-31-33-32-23 0-32 14-35 34l-49-3c5-45 32-70 84-70 51 0 83 22 83 69" id="S"/><use transform="matrix(0.04320987654320987,0,0,0.04320987654320987,0,0)" xlink:href="#S" id="m"/><g id="n"><use transform="matrix(0.04320987654320987,0,0,0.04320987654320987,0,0)" xlink:href="#F"/><use transform="matrix(0.04320987654320987,0,0,0.04320987654320987,4.320987654320986,0)" xlink:href="#t"/><use transform="matrix(0.04320987654320987,0,0,0.04320987654320987,18.148148148148145,0)" xlink:href="#u"/><use transform="matrix(0.04320987654320987,0,0,0.04320987654320987,26.790123456790116,0)" xlink:href="#G"/><use transform="matrix(0.04320987654320987,0,0,0.04320987654320987,36.25308641975308,0)" xlink:href="#x"/><use transform="matrix(0.04320987654320987,0,0,0.04320987654320987,44.89506172839505,0)" xlink:href="#q"/><use transform="matrix(0.04320987654320987,0,0,0.04320987654320987,56.08641975308641,0)" xlink:href="#x"/><use transform="matrix(0.04320987654320987,0,0,0.04320987654320987,64.72839506172838,0)" xlink:href="#C"/></g><g id="o"><use transform="matrix(0.04320987654320987,0,0,0.04320987654320987,0,0)" xlink:href="#L"/><use transform="matrix(0.04320987654320987,0,0,0.04320987654320987,11.191358024691356,0)" xlink:href="#s"/><use transform="matrix(0.04320987654320987,0,0,0.04320987654320987,17.240740740740737,0)" xlink:href="#B"/><use transform="matrix(0.04320987654320987,0,0,0.04320987654320987,25.882716049382704,0)" xlink:href="#O"/><use transform="matrix(0.04320987654320987,0,0,0.04320987654320987,35.34567901234567,0)" xlink:href="#D"/><use transform="matrix(0.04320987654320987,0,0,0.04320987654320987,39.66666666666666,0)" xlink:href="#C"/><use transform="matrix(0.04320987654320987,0,0,0.04320987654320987,44.80864197530863,0)" xlink:href="#x"/><use transform="matrix(0.04320987654320987,0,0,0.04320987654320987,53.450617283950606,0)" xlink:href="#B"/><use transform="matrix(0.04320987654320987,0,0,0.04320987654320987,62.09259259259258,0)" xlink:href="#C"/><use transform="matrix(0.04320987654320987,0,0,0.04320987654320987,67.23456790123456,0)" xlink:href="#A"/><use transform="matrix(0.04320987654320987,0,0,0.04320987654320987,76.69753086419752,0)" xlink:href="#s"/><use transform="matrix(0.04320987654320987,0,0,0.04320987654320987,82.7469135802469,0)" xlink:href="#x"/></g><use transform="matrix(0.04320987654320986,0,0,0.04320987654320986,0,0)" xlink:href="#S" id="p"/></defs></g></svg>