<svg xmlns="http://www.w3.org/2000/svg" xmlns:xlink="http://www.w3.org/1999/xlink" xmlns:lucid="lucid" width="1242" height="342"><g transform="translate(3559 -27)" lucid:page-tab-id="0_0"><path d="M-3347.16 74.1c0-3.32 2.7-6 6-6h98.5c3.32 0 6 2.68 6 6v46.58c0 3.3-2.68 6-6 6h-98.5c-3.3 0-6-2.7-6-6z" stroke="#5e5e5e" stroke-width="3" fill="#f2f3f5"/><use xlink:href="#a" transform="matrix(1,0,0,1,-3342.157814668485,73.09678819444457) translate(7.6196831597222285 13.117404513888886)"/><use xlink:href="#b" transform="matrix(1,0,0,1,-3342.157814668485,73.09678819444457) translate(26.84385850694445 29.31098090277777)"/><use xlink:href="#c" transform="matrix(1,0,0,1,-3342.157814668485,73.09678819444457) translate(48.72645399305556 29.31098090277777)"/><use xlink:href="#d" transform="matrix(1,0,0,1,-3342.157814668485,73.09678819444457) translate(24.189236111111114 45.50455729166666)"/><path d="M-3163.82 75.1c0-3.3 2.7-6 6-6h98.5c3.32 0 6 2.7 6 6v46.58c0 3.3-2.68 6-6 6h-98.5c-3.3 0-6-2.7-6-6z" stroke="#5e5e5e" stroke-width="3" fill="#f2f3f5"/><use xlink:href="#a" transform="matrix(1,0,0,1,-3158.8160984191245,74.10053462033193) translate(7.6196831597222285 13.117404513888886)"/><use xlink:href="#e" transform="matrix(1,0,0,1,-3158.8160984191245,74.10053462033193) translate(9.848958333333343 29.31098090277777)"/><use xlink:href="#f" transform="matrix(1,0,0,1,-3158.8160984191245,74.10053462033193) translate(26.58940972222223 29.31098090277777)"/><use xlink:href="#g" transform="matrix(1,0,0,1,-3158.8160984191245,74.10053462033193) translate(14.561957465277786 45.50455729166666)"/><use xlink:href="#h" transform="matrix(1,0,0,1,-3158.8160984191245,74.10053462033193) translate(45.49077690972222 45.50455729166666)"/><path d="M-2978.65 67c0-3.3 2.7-6 6-6h137.9c3.32 0 6 2.7 6 6v62.78c0 3.3-2.68 6-6 6h-137.9c-3.3 0-6-2.7-6-6z" stroke="#5e5e5e" stroke-width="3" fill="#fff7a1"/><use xlink:href="#a" transform="matrix(1,0,0,1,-2973.646839163627,66.00374642588713) translate(27.11968315972223 21.242404513888886)"/><use xlink:href="#i" transform="matrix(1,0,0,1,-2973.646839163627,66.00374642588713) translate(8.586697048611121 37.43598090277777)"/><use xlink:href="#j" transform="matrix(1,0,0,1,-2973.646839163627,66.00374642588713) translate(83.26551649305554 37.43598090277777)"/><use xlink:href="#k" transform="matrix(1,0,0,1,-2973.646839163627,66.00374642588713) translate(120.17198350694443 37.43598090277777)"/><use xlink:href="#l" transform="matrix(1,0,0,1,-2973.646839163627,66.00374642588713) translate(4.940863715277786 53.62955729166666)"/><use xlink:href="#g" transform="matrix(1,0,0,1,-2973.646839163627,66.00374642588713) translate(63.18305121527777 53.62955729166666)"/><use xlink:href="#h" transform="matrix(1,0,0,1,-2973.646839163627,66.00374642588713) translate(94.11187065972221 53.62955729166666)"/><path d="M-2762.73 66c0-3.3 2.68-6 6-6h137.9c3.32 0 6 2.7 6 6v62.77c0 3.32-2.68 6-6 6h-137.9c-3.32 0-6-2.68-6-6z" stroke="#5e5e5e" stroke-width="3" fill="#fff7a1"/><use xlink:href="#a" transform="matrix(1,0,0,1,-2757.7331556685713,65) translate(27.11968315972223 13.117404513888886)"/><use xlink:href="#i" transform="matrix(1,0,0,1,-2757.7331556685713,65) translate(8.586697048611121 29.31098090277777)"/><use xlink:href="#j" transform="matrix(1,0,0,1,-2757.7331556685713,65) translate(83.26551649305554 29.31098090277777)"/><use xlink:href="#k" transform="matrix(1,0,0,1,-2757.7331556685713,65) translate(120.17198350694443 29.31098090277777)"/><use xlink:href="#m" transform="matrix(1,0,0,1,-2757.7331556685713,65) translate(22.25477430555557 45.50455729166666)"/><use xlink:href="#c" transform="matrix(1,0,0,1,-2757.7331556685713,65) translate(92.31553819444444 45.50455729166666)"/><use xlink:href="#h" transform="matrix(1,0,0,1,-2757.7331556685713,65) translate(49.5263671875 61.69813368055554)"/><path d="M-2548 75.1c0-3.3 2.68-6 6-6h147.6c3.32 0 6 2.7 6 6v46.58c0 3.3-2.68 6-6 6H-2542c-3.32 0-6-2.7-6-6z" stroke="#5e5e5e" stroke-width="3" fill="#c3f7c8"/><use xlink:href="#n" transform="matrix(1,0,0,1,-2543.0060263637315,74.10053462033193) translate(23.973524305555564 13.117404513888886)"/><use xlink:href="#o" transform="matrix(1,0,0,1,-2543.0060263637315,74.10053462033193) translate(115.23328993055554 13.117404513888886)"/><use xlink:href="#p" transform="matrix(1,0,0,1,-2543.0060263637315,74.10053462033193) translate(27.38389756944445 29.31098090277777)"/><use xlink:href="#q" transform="matrix(1,0,0,1,-2543.0060263637315,74.10053462033193) translate(91.20876736111111 29.31098090277777)"/><use xlink:href="#r" transform="matrix(1,0,0,1,-2543.0060263637315,74.10053462033193) translate(1.7225477430555713 45.50455729166666)"/><use xlink:href="#s" transform="matrix(1,0,0,1,-2543.0060263637315,74.10053462033193) translate(70.97059461805556 45.50455729166666)"/><use xlink:href="#h" transform="matrix(1,0,0,1,-2543.0060263637315,74.10053462033193) translate(107.33018663194444 45.50455729166666)"/><path d="M-3316.9 174.9c0-3.3 2.68-6 6-6h38c3.3 0 6 2.7 6 6v40.68c0 3.3-2.7 6-6 6h-38c-3.32 0-6-2.7-6-6zM-3133.57 174.9c0-3.3 2.7-6 6-6h38c3.32 0 6 2.7 6 6v40.68c0 3.3-2.68 6-6 6h-38c-3.3 0-6-2.7-6-6zM-2928.7 174.9c0-3.3 2.7-6 6-6h38c3.32 0 6 2.7 6 6v40.68c0 3.3-2.68 6-6 6h-38c-3.3 0-6-2.7-6-6zM-2712.78 174.9c0-3.3 2.7-6 6-6h38c3.3 0 6 2.7 6 6v40.68c0 3.3-2.7 6-6 6h-38c-3.3 0-6-2.7-6-6zM-2493.2 174.9c0-3.3 2.68-6 6-6h38c3.3 0 6 2.7 6 6v40.68c0 3.3-2.7 6-6 6h-38c-3.32 0-6-2.7-6-6z" stroke="#5e5e5e" stroke-width="3" fill="#fff"/><path d="M-3264.4 195.24h110.83" stroke="#5e5e5e" stroke-width="2" fill="none"/><path d="M-3264.38 196.24h-1.03v-2h1.02z" stroke="#5e5e5e" stroke-width=".05" fill="#5e5e5e"/><path d="M-3138.3 195.24l-14.27 4.64v-9.27z" stroke="#5e5e5e" stroke-width="2" fill="#5e5e5e"/><path d="M-3081.07 196.12h132.37" stroke="#5e5e5e" stroke-width="2" fill="none"/><path d="M-3081.04 197.12h-1.03v-2h1.03z" stroke="#5e5e5e" stroke-width=".05" fill="#5e5e5e"/><path d="M-2933.43 196.12l-14.27 4.63v-9.27z" stroke="#5e5e5e" stroke-width="2" fill="#5e5e5e"/><path d="M-2876.2 196.12h143.42" stroke="#5e5e5e" stroke-width="2" fill="none"/><path d="M-2876.17 197.12h-1.02v-2h1.03z" stroke="#5e5e5e" stroke-width=".05" fill="#5e5e5e"/><path d="M-2717.52 196.12l-14.26 4.63v-9.27z" stroke="#5e5e5e" stroke-width="2" fill="#5e5e5e"/><path d="M-2660.28 196.12h147.08" stroke="#5e5e5e" stroke-width="2" fill="none"/><path d="M-2660.25 197.12h-1.03v-2h1.03z" stroke="#5e5e5e" stroke-width=".05" fill="#5e5e5e"/><path d="M-2497.94 196.12l-14.26 4.63v-9.27z" stroke="#5e5e5e" stroke-width="2" fill="#5e5e5e"/><path d="M-2440.7 196.12h74.2" stroke="#5e5e5e" stroke-width="2" fill="none"/><path d="M-2440.68 197.12h-1.02v-2h1.02z" stroke="#5e5e5e" stroke-width=".05" fill="#5e5e5e"/><path d="M-2351.24 196.12l-14.27 4.63v-9.27z" stroke="#5e5e5e" stroke-width="2" fill="#5e5e5e"/><path d="M-2610.33 94.35h33c3.32 0 6 2.68 6 6v156.73c0 3.3 2.7 6 6 6h91.13c3.3 0 6-2.7 6-6v-15.5" stroke="#5e5e5e" stroke-width="2" fill="none"/><path d="M-2610.3 95.35h-1.03v-2h1.03z" stroke="#5e5e5e" stroke-width=".05" fill="#5e5e5e"/><path d="M-2468.2 226.32l4.63 14.26h-9.27z" stroke="#5e5e5e" stroke-width="2" fill="#5e5e5e"/><path d="M-2826.24 98.4h33c3.3 0 6 2.68 6 6v152.68c0 3.3 2.68 6 6 6h87.46c3.3 0 6-2.7 6-6v-15.5" stroke="#5e5e5e" stroke-width="2" fill="none"/><path d="M-2826.22 99.4h-1.02v-2h1.02z" stroke="#5e5e5e" stroke-width=".05" fill="#5e5e5e"/><path d="M-2687.78 226.32l4.63 14.26h-9.27z" stroke="#5e5e5e" stroke-width="2" fill="#5e5e5e"/><path d="M-3050.82 98.4h33c3.32 0 6 2.68 6 6v152.68c0 3.3 2.7 6 6 6h96.13c3.32 0 6-2.7 6-6v-15.5" stroke="#5e5e5e" stroke-width="2" fill="none"/><path d="M-3050.8 99.4h-1.02v-2h1.03z" stroke="#5e5e5e" stroke-width=".05" fill="#5e5e5e"/><path d="M-2903.7 226.32l4.64 14.26h-9.27z" stroke="#5e5e5e" stroke-width="2" fill="#5e5e5e"/><path d="M-3234.16 97.4h33c3.32 0 6 2.67 6 6v153.68c0 3.3 2.7 6 6 6h73.7c3.3 0 6-2.7 6-6v-15.5" stroke="#5e5e5e" stroke-width="2" fill="none"/><path d="M-3234.13 98.4h-1.03v-2h1.03z" stroke="#5e5e5e" stroke-width=".05" fill="#5e5e5e"/><path d="M-3109.46 226.32l4.63 14.26h-9.27z" stroke="#5e5e5e" stroke-width="2" fill="#5e5e5e"/><path d="M-3419 196.12h82.1" stroke="#5e5e5e" stroke-width="2" fill="none"/><path d="M-3418.97 197.12h-1.03v-2h1.03z" stroke="#5e5e5e" stroke-width=".05" fill="#5e5e5e"/><path d="M-3321.65 196.12l-14.26 4.63v-9.27z" stroke="#5e5e5e" stroke-width="2" fill="#5e5e5e"/><path d="M-3540 72.98c0-3.3 2.7-6 6-6h108c3.3 0 6 2.7 6 6v35.34c0 3.3-2.7 6-6 6h-108c-3.3 0-6-2.7-6-6z" stroke="#000" stroke-opacity="0" stroke-width="3" fill="#fff" fill-opacity="0"/><use xlink:href="#t" transform="matrix(1,0,0,1,-3535,71.9834208747684) translate(0.577160493827165 21.944444444444443)"/><use xlink:href="#u" transform="matrix(1,0,0,1,-3535,71.9834208747684) translate(55.0216049382716 21.944444444444443)"/><path d="M-3419 90.65h28.67c3.3 0 6 2.7 6 6v160.43c0 3.3 2.7 6 6 6h78.72c3.3 0 6-2.7 6-6v-15.5" stroke="#5e5e5e" stroke-width="2" fill="none"/><path d="M-3418.97 91.65h-1.03v-2h1.03z" stroke="#5e5e5e" stroke-width=".05" fill="#5e5e5e"/><path d="M-3293.6 226.32l4.63 14.26h-9.27z" stroke="#5e5e5e" stroke-width="2" fill="#5e5e5e"/><path d="M-3540 178.45c0-3.3 2.7-6 6-6h108c3.3 0 6 2.7 6 6v35.34c0 3.3-2.7 6-6 6h-108c-3.3 0-6-2.7-6-6z" stroke="#000" stroke-opacity="0" stroke-width="3" fill="#fff" fill-opacity="0"/><g><use xlink:href="#t" transform="matrix(1,0,0,1,-3535,177.45281687267175) translate(2.716049382716058 12.444444444444443)"/><use xlink:href="#v" transform="matrix(1,0,0,1,-3535,177.45281687267175) translate(57.160493827160494 12.444444444444443)"/><use xlink:href="#w" transform="matrix(1,0,0,1,-3535,177.45281687267175) translate(9.69444444444445 31.111111111111107)"/><use xlink:href="#x" transform="matrix(1,0,0,1,-3535,177.45281687267175) translate(31.299382716049383 31.111111111111107)"/></g><path d="M-3291.9 166.4V146.7" stroke="#5e5e5e" stroke-width="2" fill="none"/><path d="M-3290.9 167.4h-2v-1.02h2z" stroke="#5e5e5e" stroke-width=".05" fill="#5e5e5e"/><path d="M-3291.9 131.4l4.63 14.28h-9.27z" stroke="#5e5e5e" stroke-width="2" fill="#5e5e5e"/><path d="M-3108.57 166.4V147.7" stroke="#5e5e5e" stroke-width="2" fill="none"/><path d="M-3107.57 167.4h-2v-1.02h2z" stroke="#5e5e5e" stroke-width=".05" fill="#5e5e5e"/><path d="M-3108.57 132.42l4.64 14.26h-9.27z" stroke="#5e5e5e" stroke-width="2" fill="#5e5e5e"/><path d="M-2903.7 166.4V155.8" stroke="#5e5e5e" stroke-width="2" fill="none"/><path d="M-2902.7 167.4h-2v-1.02h2z" stroke="#5e5e5e" stroke-width=".05" fill="#5e5e5e"/><path d="M-2903.7 140.52l4.64 14.26h-9.27z" stroke="#5e5e5e" stroke-width="2" fill="#5e5e5e"/><path d="M-2687.78 166.4V154.8" stroke="#5e5e5e" stroke-width="2" fill="none"/><path d="M-2686.78 167.4h-2v-1.02h2z" stroke="#5e5e5e" stroke-width=".05" fill="#5e5e5e"/><path d="M-2687.78 139.5l4.63 14.28h-9.27z" stroke="#5e5e5e" stroke-width="2" fill="#5e5e5e"/><path d="M-2468.2 166.4V147.7" stroke="#5e5e5e" stroke-width="2" fill="none"/><path d="M-2467.2 167.4h-2v-1.02h2z" stroke="#5e5e5e" stroke-width=".05" fill="#5e5e5e"/><path d="M-2468.2 132.42l4.63 14.26h-9.27z" stroke="#5e5e5e" stroke-width="2" fill="#5e5e5e"/><path d="M-2798.27 316.12H-2348M-2797.27 301.12v30M-2349 331.12v-30M-3386.75 316.12h445.48M-3385.75 301.12v30M-2942.27 331.12v-30" stroke="#5e5e5e" stroke-width="2" fill="none"/><path d="M-2939.77 302.12c0-3.3 2.68-6 6-6h128c3.3 0 6 2.7 6 6v28c0 3.3-2.7 6-6 6h-128c-3.32 0-6-2.7-6-6z" stroke="#5e5e5e" stroke-width="3" fill="#fff"/><g><use xlink:href="#y" transform="matrix(1,0,0,1,-2927.772151346046,308.1194835393385) translate(4.549382716049394 12.444444444444443)"/><use xlink:href="#z" transform="matrix(1,0,0,1,-2927.772151346046,308.1194835393385) translate(68.37037037037038 12.444444444444443)"/><use xlink:href="#A" transform="matrix(1,0,0,1,-2927.772151346046,308.1194835393385) translate(83.88271604938271 12.444444444444443)"/></g><defs><path fill="#333" d="M892-988c1-180-155-261-350-261-239 0-359 83-359 250 0 109 72 186 218 225 134 36 273 57 404 101 148 49 217 165 217 318 0 218-259 377-488 377C285 22 54-135 53-369h130c6 176 157 261 349 261 178 0 360-88 360-250 0-109-72-188-217-228-134-37-272-59-404-103C123-738 53-851 53-998c0-227 241-381 478-381 258 0 497 146 491 391H892" id="B"/><path fill="#333" d="M48-478c0-256 228-501 485-501 264 0 489 248 480 516H176c0 180 174 355 357 355 148 0 301-110 347-219l130 23C951-140 745 17 533 22 276 28 48-222 48-478zm815-115c-38-129-172-257-330-256-158 0-295 130-340 256h670zm-412-551l200-211h235l-377 268" id="C"/><path fill="#333" d="M86-1355h132V0H86v-1355" id="D"/><path fill="#333" d="M52-478c0-256 228-501 485-501 264 0 489 248 480 516H180c0 180 174 355 357 355 148 0 301-110 347-219l130 23C955-140 749 17 537 22 280 28 52-222 52-478zm815-115c-38-129-172-257-330-256-158 0-295 130-340 256h670" id="E"/><path fill="#333" d="M51-478c0-256 221-509 478-501 201 6 353 126 426 274H803c-71-96-163-144-274-144-189 0-348 180-348 372 0 191 160 369 348 369 100 0 189-44 266-132h155C852-65 712 22 529 22 275 22 51-223 51-478" id="F"/><path fill="#333" d="M406 0C279 4 176-105 176-232v-595H26v-130c75 0 120-17 137-51 9-17 13-69 13-155h130v206h241v130H306v595c0 70 49 105 146 105 18 0 78-3 95-3V0H406" id="G"/><path fill="#333" d="M240-1205c-40 0-79-36-79-76s39-76 79-76c41 0 78 35 78 76s-37 76-78 76zM47-957h257V0H174v-827H47v-130" id="H"/><path fill="#333" d="M881-477c0-189-160-372-351-372-189 0-348 181-348 372s160 369 348 369 351-180 351-369zm-829-1c0-256 220-501 478-501 257 0 481 246 481 502S785 22 530 22C276 22 52-223 52-478" id="I"/><path fill="#333" d="M545-849c-196 0-341 171-341 371V0H74v-957h130v174c77-131 190-196 341-196 285 0 449 200 449 493V0H862v-478c2-219-106-371-317-371" id="J"/><path fill="#333" d="M223-130h657V0H68v-167l626-660H69v-130h811v133" id="K"/><g id="a"><use transform="matrix(0.007595486111111109,0,0,0.007595486111111109,0,0)" xlink:href="#B"/><use transform="matrix(0.007595486111111109,0,0,0.007595486111111109,8.544921874999998,0)" xlink:href="#C"/><use transform="matrix(0.007595486111111109,0,0,0.007595486111111109,16.945529513888886,0)" xlink:href="#D"/><use transform="matrix(0.007595486111111109,0,0,0.007595486111111109,19.64192708333333,0)" xlink:href="#E"/><use transform="matrix(0.007595486111111109,0,0,0.007595486111111109,28.18684895833333,0)" xlink:href="#F"/><use transform="matrix(0.007595486111111109,0,0,0.007595486111111109,36.42035590277777,0)" xlink:href="#G"/><use transform="matrix(0.007595486111111109,0,0,0.007595486111111109,41.06879340277777,0)" xlink:href="#H"/><use transform="matrix(0.007595486111111109,0,0,0.007595486111111109,44.106987847222214,0)" xlink:href="#I"/><use transform="matrix(0.007595486111111109,0,0,0.007595486111111109,52.651909722222214,0)" xlink:href="#J"/><use transform="matrix(0.007595486111111109,0,0,0.007595486111111109,61.13606770833332,0)" xlink:href="#J"/><use transform="matrix(0.007595486111111109,0,0,0.007595486111111109,69.62022569444443,0)" xlink:href="#E"/><use transform="matrix(0.007595486111111109,0,0,0.007595486111111109,78.16514756944443,0)" xlink:href="#K"/></g><path fill="#333" d="M483-108c191 0 291-169 291-370v-479h130V0H774v-137C701-31 604 22 483 22 219 22 67-183 67-456v-501h130v501c-4 182 112 348 286 348" id="L"/><g id="b"><use transform="matrix(0.007595486111111109,0,0,0.007595486111111109,0,0)" xlink:href="#L"/><use transform="matrix(0.007595486111111109,0,0,0.007595486111111109,7.899305555555554,0)" xlink:href="#J"/></g><path fill="#333" d="M497-108c108 0 303-51 303-143v-220c-2 23-338 19-365 38-104 20-200 82-200 182 0 95 87 143 262 143zm28-871c161 0 405 100 405 248v579c0 27 16 41 48 44-1 21-3 64-5 129-72-4-122-33-151-87-82 59-188 88-318 88C233 22 97-70 97-253c0-145 124-253 248-288 70-20 368-9 427-58 17-9 27-25 29-46-1 7-1-13-1-60 0-84-168-147-260-147-166 0-269 58-309 174l-126-27c31-178 203-274 420-274" id="M"/><g id="c"><use transform="matrix(0.007595486111111109,0,0,0.007595486111111109,0,0)" xlink:href="#C"/><use transform="matrix(0.007595486111111109,0,0,0.007595486111111109,8.400607638888888,0)" xlink:href="#G"/><use transform="matrix(0.007595486111111109,0,0,0.007595486111111109,13.049045138888886,0)" xlink:href="#M"/><use transform="matrix(0.007595486111111109,0,0,0.007595486111111109,20.781249999999993,0)" xlink:href="#G"/></g><path fill="#333" d="M455-849c-173 0-251 180-251 371V0H74v-957h130v106c60-85 144-128 251-128 146 0 245 69 296 208 37-139 135-208 295-208 233 0 349 167 349 501V0h-130v-478c0-247-73-371-219-371-169 0-241 180-241 371V0H675l-1-478c0-247-73-371-219-371" id="N"/><path fill="#333" d="M898-260C898-89 674 20 489 20 280 20 75-78 57-254l126-27c2 114 176 171 313 171 113 0 265-50 265-150 0-60-40-102-120-127-21-6-104-22-252-42-166-23-242-71-302-158-134-339 365-481 654-327 94 50 148 120 161 213l-126 27c-25-116-134-174-329-174-116 0-251 47-251 149 0 73 54 127 164 147 83 15 168 18 253 29 83 11 158 46 225 101 40 33 60 87 60 162" id="O"/><path fill="#333" d="M76-478c0-256 220-501 478-501 147 0 262 65 347 196v-174h130V399H901v-573C816-43 701 22 554 22 300 22 76-220 76-478zm130 0c0 189 161 370 348 370 188 0 342-180 342-370 0-191-154-371-342-371-186 0-348 182-348 371" id="P"/><g id="d"><use transform="matrix(0.007595486111111109,0,0,0.007595486111111109,0,0)" xlink:href="#N"/><use transform="matrix(0.007595486111111109,0,0,0.007595486111111109,11.750217013888886,0)" xlink:href="#M"/><use transform="matrix(0.007595486111111109,0,0,0.007595486111111109,19.84700520833333,0)" xlink:href="#O"/><use transform="matrix(0.007595486111111109,0,0,0.007595486111111109,27.46527777777777,0)" xlink:href="#P"/><use transform="matrix(0.007595486111111109,0,0,0.007595486111111109,36.32161458333333,0)" xlink:href="#L"/><use transform="matrix(0.007595486111111109,0,0,0.007595486111111109,44.220920138888886,0)" xlink:href="#C"/></g><g id="e"><use transform="matrix(0.007595486111111109,0,0,0.007595486111111109,0,0)" xlink:href="#D"/><use transform="matrix(0.007595486111111109,0,0,0.007595486111111109,2.6963975694444438,0)" xlink:href="#E"/></g><path fill="#333" d="M-2-478c0-256 249-501 505-501 147 0 261 65 343 196v-572h132V0H846v-174C761-43 645 22 498 22 243 22-2-223-2-478zm843 0c0-191-151-371-338-371S128-665 128-478s183 370 370 370c188 0 343-180 343-370" id="Q"/><path fill="#333" d="M224-957l269 369 270-369h164L577-475 927 0H760L493-366 227 0H61l352-475L61-957h163" id="R"/><path fill="#333" d="M48-478c0-256 228-501 485-501 264 0 489 248 480 516H176c0 180 174 355 357 355 148 0 301-110 347-219l130 23C951-140 745 17 533 22 276 28 48-222 48-478zm815-115c-38-129-172-257-330-256-158 0-295 130-340 256h670zm-306-494l-377-268h235l200 211" id="S"/><g id="f"><use transform="matrix(0.007595486111111109,0,0,0.007595486111111109,0,0)" xlink:href="#Q"/><use transform="matrix(0.007595486111111109,0,0,0.007595486111111109,8.453776041666664,0)" xlink:href="#E"/><use transform="matrix(0.007595486111111109,0,0,0.007595486111111109,16.998697916666664,0)" xlink:href="#L"/><use transform="matrix(0.007595486111111109,0,0,0.007595486111111109,24.898003472222218,0)" xlink:href="#R"/><use transform="matrix(0.007595486111111109,0,0,0.007595486111111109,32.827690972222214,0)" xlink:href="#H"/><use transform="matrix(0.007595486111111109,0,0,0.007595486111111109,35.86588541666666,0)" xlink:href="#S"/><use transform="matrix(0.007595486111111109,0,0,0.007595486111111109,44.26649305555554,0)" xlink:href="#N"/><use transform="matrix(0.007595486111111109,0,0,0.007595486111111109,56.01671006944443,0)" xlink:href="#E"/></g><g id="g"><use transform="matrix(0.007595486111111109,0,0,0.007595486111111109,0,0)" xlink:href="#C"/><use transform="matrix(0.007595486111111109,0,0,0.007595486111111109,8.400607638888888,0)" xlink:href="#G"/><use transform="matrix(0.007595486111111109,0,0,0.007595486111111109,13.049045138888886,0)" xlink:href="#M"/><use transform="matrix(0.007595486111111109,0,0,0.007595486111111109,20.781249999999993,0)" xlink:href="#G"/></g><path fill="#333" d="M543-849c-184 0-339 185-339 371V0H74v-1355h130v572c84-131 197-196 339-196 250 0 421 235 421 493V0H834v-478c4-195-107-371-291-371" id="T"/><g id="h"><use transform="matrix(0.007595486111111109,0,0,0.007595486111111109,0,0)" xlink:href="#F"/><use transform="matrix(0.007595486111111109,0,0,0.007595486111111109,8.233506944444443,0)" xlink:href="#M"/><use transform="matrix(0.007595486111111109,0,0,0.007595486111111109,16.330295138888886,0)" xlink:href="#F"/><use transform="matrix(0.007595486111111109,0,0,0.007595486111111109,24.56380208333333,0)" xlink:href="#T"/><use transform="matrix(0.007595486111111109,0,0,0.007595486111111109,32.54665798611111,0)" xlink:href="#C"/></g><path fill="#333" d="M245-898H115v-457h130v457" id="U"/><path fill="#333" d="M209-478c0 191 154 370 342 370 187 0 348-181 348-370S737-849 551-849c-188 0-342 180-342 371zm820 0c0 258-224 500-478 500-147 0-262-65-347-196v573H74V-957h130v174c85-131 200-196 347-196 256 0 478 244 478 501" id="V"/><path fill="#333" d="M550-827c-191 0-346 159-346 349V0H72v-957h132v174c85-116 198-174 339-174h204v174c-69-29-134-44-197-44" id="W"/><g id="i"><use transform="matrix(0.007595486111111109,0,0,0.007595486111111109,0,0)" xlink:href="#D"/><use transform="matrix(0.007595486111111109,0,0,0.007595486111111109,2.6963975694444438,0)" xlink:href="#U"/><use transform="matrix(0.007595486111111109,0,0,0.007595486111111109,5.430772569444443,0)" xlink:href="#I"/><use transform="matrix(0.007595486111111109,0,0,0.007595486111111109,13.975694444444441,0)" xlink:href="#V"/><use transform="matrix(0.007595486111111109,0,0,0.007595486111111109,22.429470486111107,0)" xlink:href="#C"/><use transform="matrix(0.007595486111111109,0,0,0.007595486111111109,30.830078124999993,0)" xlink:href="#W"/><use transform="matrix(0.007595486111111109,0,0,0.007595486111111109,36.73177083333332,0)" xlink:href="#M"/><use transform="matrix(0.007595486111111109,0,0,0.007595486111111109,44.46397569444443,0)" xlink:href="#G"/><use transform="matrix(0.007595486111111109,0,0,0.007595486111111109,49.11241319444443,0)" xlink:href="#H"/><use transform="matrix(0.007595486111111109,0,0,0.007595486111111109,52.15060763888887,0)" xlink:href="#I"/><use transform="matrix(0.007595486111111109,0,0,0.007595486111111109,60.69552951388887,0)" xlink:href="#J"/></g><g id="j"><use transform="matrix(0.007595486111111109,0,0,0.007595486111111109,0,0)" xlink:href="#V"/><use transform="matrix(0.007595486111111109,0,0,0.007595486111111109,8.453776041666664,0)" xlink:href="#I"/><use transform="matrix(0.007595486111111109,0,0,0.007595486111111109,16.998697916666664,0)" xlink:href="#L"/><use transform="matrix(0.007595486111111109,0,0,0.007595486111111109,24.898003472222218,0)" xlink:href="#W"/></g><g id="k"><use transform="matrix(0.007595486111111109,0,0,0.007595486111111109,0,0)" xlink:href="#D"/><use transform="matrix(0.007595486111111109,0,0,0.007595486111111109,2.6963975694444438,0)" xlink:href="#E"/></g><g id="l"><use transform="matrix(0.007595486111111109,0,0,0.007595486111111109,0,0)" xlink:href="#V"/><use transform="matrix(0.007595486111111109,0,0,0.007595486111111109,8.453776041666664,0)" xlink:href="#W"/><use transform="matrix(0.007595486111111109,0,0,0.007595486111111109,14.355468749999996,0)" xlink:href="#E"/><use transform="matrix(0.007595486111111109,0,0,0.007595486111111109,22.900390624999993,0)" xlink:href="#N"/><use transform="matrix(0.007595486111111109,0,0,0.007595486111111109,34.65060763888888,0)" xlink:href="#H"/><use transform="matrix(0.007595486111111109,0,0,0.007595486111111109,37.68880208333332,0)" xlink:href="#E"/><use transform="matrix(0.007595486111111109,0,0,0.007595486111111109,46.23372395833332,0)" xlink:href="#W"/></g><g id="m"><use transform="matrix(0.007595486111111109,0,0,0.007595486111111109,0,0)" xlink:href="#Q"/><use transform="matrix(0.007595486111111109,0,0,0.007595486111111109,8.453776041666664,0)" xlink:href="#E"/><use transform="matrix(0.007595486111111109,0,0,0.007595486111111109,16.998697916666664,0)" xlink:href="#L"/><use transform="matrix(0.007595486111111109,0,0,0.007595486111111109,24.898003472222218,0)" xlink:href="#R"/><use transform="matrix(0.007595486111111109,0,0,0.007595486111111109,32.827690972222214,0)" xlink:href="#H"/><use transform="matrix(0.007595486111111109,0,0,0.007595486111111109,35.86588541666666,0)" xlink:href="#S"/><use transform="matrix(0.007595486111111109,0,0,0.007595486111111109,44.26649305555554,0)" xlink:href="#N"/><use transform="matrix(0.007595486111111109,0,0,0.007595486111111109,56.01671006944443,0)" xlink:href="#E"/></g><g id="n"><use transform="matrix(0.007595486111111109,0,0,0.007595486111111109,0,0)" xlink:href="#B"/><use transform="matrix(0.007595486111111109,0,0,0.007595486111111109,8.544921874999998,0)" xlink:href="#C"/><use transform="matrix(0.007595486111111109,0,0,0.007595486111111109,16.945529513888886,0)" xlink:href="#D"/><use transform="matrix(0.007595486111111109,0,0,0.007595486111111109,19.64192708333333,0)" xlink:href="#E"/><use transform="matrix(0.007595486111111109,0,0,0.007595486111111109,28.18684895833333,0)" xlink:href="#F"/><use transform="matrix(0.007595486111111109,0,0,0.007595486111111109,36.42035590277777,0)" xlink:href="#G"/><use transform="matrix(0.007595486111111109,0,0,0.007595486111111109,41.06879340277777,0)" xlink:href="#H"/><use transform="matrix(0.007595486111111109,0,0,0.007595486111111109,44.106987847222214,0)" xlink:href="#I"/><use transform="matrix(0.007595486111111109,0,0,0.007595486111111109,52.651909722222214,0)" xlink:href="#J"/><use transform="matrix(0.007595486111111109,0,0,0.007595486111111109,61.13606770833332,0)" xlink:href="#J"/><use transform="matrix(0.007595486111111109,0,0,0.007595486111111109,69.62022569444443,0)" xlink:href="#E"/><use transform="matrix(0.007595486111111109,0,0,0.007595486111111109,78.16514756944443,0)" xlink:href="#K"/></g><g id="o"><use transform="matrix(0.007595486111111109,0,0,0.007595486111111109,0,0)" xlink:href="#D"/><use transform="matrix(0.007595486111111109,0,0,0.007595486111111109,2.6963975694444438,0)" xlink:href="#M"/></g><g id="p"><use transform="matrix(0.007595486111111109,0,0,0.007595486111111109,0,0)" xlink:href="#N"/><use transform="matrix(0.007595486111111109,0,0,0.007595486111111109,11.750217013888886,0)" xlink:href="#C"/><use transform="matrix(0.007595486111111109,0,0,0.007595486111111109,20.15082465277777,0)" xlink:href="#G"/><use transform="matrix(0.007595486111111109,0,0,0.007595486111111109,24.79926215277777,0)" xlink:href="#T"/><use transform="matrix(0.007595486111111109,0,0,0.007595486111111109,32.78211805555555,0)" xlink:href="#I"/><use transform="matrix(0.007595486111111109,0,0,0.007595486111111109,41.32703993055555,0)" xlink:href="#Q"/><use transform="matrix(0.007595486111111109,0,0,0.007595486111111109,49.780815972222214,0)" xlink:href="#E"/></g><g id="q"><use transform="matrix(0.007595486111111109,0,0,0.007595486111111109,0,0)" xlink:href="#V"/><use transform="matrix(0.007595486111111109,0,0,0.007595486111111109,8.453776041666664,0)" xlink:href="#I"/><use transform="matrix(0.007595486111111109,0,0,0.007595486111111109,16.998697916666664,0)" xlink:href="#L"/><use transform="matrix(0.007595486111111109,0,0,0.007595486111111109,24.898003472222218,0)" xlink:href="#W"/></g><path fill="#333" d="M922-478c0-187-188-371-375-371S209-669 209-478c0 190 155 370 343 370 187 0 370-183 370-370zm130 0c0 255-245 500-500 500-147 0-263-65-348-196V0H72v-1355h132v572c82-131 196-196 343-196 256 0 505 245 505 501" id="X"/><g id="r"><use transform="matrix(0.007595486111111109,0,0,0.007595486111111109,0,0)" xlink:href="#F"/><use transform="matrix(0.007595486111111109,0,0,0.007595486111111109,8.233506944444443,0)" xlink:href="#I"/><use transform="matrix(0.007595486111111109,0,0,0.007595486111111109,16.778428819444443,0)" xlink:href="#N"/><use transform="matrix(0.007595486111111109,0,0,0.007595486111111109,28.52864583333333,0)" xlink:href="#X"/><use transform="matrix(0.007595486111111109,0,0,0.007595486111111109,37.17230902777777,0)" xlink:href="#H"/><use transform="matrix(0.007595486111111109,0,0,0.007595486111111109,40.210503472222214,0)" xlink:href="#J"/><use transform="matrix(0.007595486111111109,0,0,0.007595486111111109,48.69466145833332,0)" xlink:href="#E"/><use transform="matrix(0.007595486111111109,0,0,0.007595486111111109,57.23958333333332,0)" xlink:href="#W"/></g><g id="s"><use transform="matrix(0.007595486111111109,0,0,0.007595486111111109,0,0)" xlink:href="#D"/><use transform="matrix(0.007595486111111109,0,0,0.007595486111111109,2.6963975694444438,0)" xlink:href="#U"/><use transform="matrix(0.007595486111111109,0,0,0.007595486111111109,5.430772569444443,0)" xlink:href="#C"/><use transform="matrix(0.007595486111111109,0,0,0.007595486111111109,13.83138020833333,0)" xlink:href="#G"/><use transform="matrix(0.007595486111111109,0,0,0.007595486111111109,18.47981770833333,0)" xlink:href="#M"/><use transform="matrix(0.007595486111111109,0,0,0.007595486111111109,26.21202256944444,0)" xlink:href="#G"/></g><path fill="#333" d="M96-169c-40 0-48 33-48 73s9 75 48 75c24 0 41-14 43-38l32 2c-6 37-31 61-74 61-59 0-76-41-82-99-10-93 101-131 147-64 4 7 5 14 7 22l-32 3c-4-21-16-35-41-35" id="Y"/><path fill="#333" d="M100-194c62-1 85 37 85 99 1 63-27 99-86 99S16-35 15-95c0-66 28-99 85-99zM99-20c44 1 53-31 53-75 0-43-8-75-51-75s-53 32-53 75 10 74 51 75" id="Z"/><path fill="#333" d="M84 4C-5 8 30-112 23-190h32v120c0 31 7 50 39 49 72-2 45-101 50-169h31l1 190h-30c-1-10 1-25-2-33-11 22-28 36-60 37" id="aa"/><path fill="#333" d="M106-169C34-169 62-67 57 0H25v-261h32l-1 103c12-21 28-36 61-36 89 0 53 116 60 194h-32v-121c2-32-8-49-39-48" id="ab"/><path fill="#333" d="M100-194c63 0 86 42 84 106H49c0 40 14 67 53 68 26 1 43-12 49-29l28 8c-11 28-37 45-77 45C44 4 14-33 15-96c1-61 26-98 85-98zm52 81c6-60-76-77-97-28-3 7-6 17-6 28h103" id="ac"/><g id="t"><use transform="matrix(0.04320987654320987,0,0,0.04320987654320987,0,0)" xlink:href="#Y"/><use transform="matrix(0.04320987654320987,0,0,0.04320987654320987,7.777777777777776,0)" xlink:href="#Z"/><use transform="matrix(0.04320987654320987,0,0,0.04320987654320987,16.41975308641975,0)" xlink:href="#aa"/><use transform="matrix(0.04320987654320987,0,0,0.04320987654320987,25.061728395061724,0)" xlink:href="#Y"/><use transform="matrix(0.04320987654320987,0,0,0.04320987654320987,32.8395061728395,0)" xlink:href="#ab"/><use transform="matrix(0.04320987654320987,0,0,0.04320987654320987,41.481481481481474,0)" xlink:href="#ac"/></g><path fill="#333" d="M135-143c-3-34-86-38-87 0 15 53 115 12 119 90S17 21 10-45l28-5c4 36 97 45 98 0-10-56-113-15-118-90-4-57 82-63 122-42 12 7 21 19 24 35" id="ad"/><path fill="#333" d="M101-234c-31-9-42 10-38 44h38v23H63V0H32v-167H5v-23h27c-7-52 17-82 69-68v24" id="ae"/><path fill="#333" d="M59-47c-2 24 18 29 38 22v24C64 9 27 4 27-40v-127H5v-23h24l9-43h21v43h35v23H59v120" id="af"/><path fill="#333" d="M210-169c-67 3-38 105-44 169h-31v-121c0-29-5-50-35-48C34-165 62-65 56 0H25l-1-190h30c1 10-1 24 2 32 10-44 99-50 107 0 11-21 27-35 58-36 85-2 47 119 55 194h-31v-121c0-29-5-49-35-48" id="ag"/><path fill="#333" d="M141-36C126-15 110 5 73 4 37 3 15-17 15-53c-1-64 63-63 125-63 3-35-9-54-41-54-24 1-41 7-42 31l-33-3c5-37 33-52 76-52 45 0 72 20 72 64v82c-1 20 7 32 28 27v20c-31 9-61-2-59-35zM48-53c0 20 12 33 32 33 41-3 63-29 60-74-43 2-92-5-92 41" id="ah"/><path fill="#333" d="M141 0L90-78 38 0H4l68-98-65-92h35l48 74 47-74h35l-64 92 68 98h-35" id="ai"/><g id="u"><use transform="matrix(0.04320987654320987,0,0,0.04320987654320987,0,0)" xlink:href="#ad"/><use transform="matrix(0.04320987654320987,0,0,0.04320987654320987,7.777777777777776,0)" xlink:href="#Z"/><use transform="matrix(0.04320987654320987,0,0,0.04320987654320987,16.41975308641975,0)" xlink:href="#ae"/><use transform="matrix(0.04320987654320987,0,0,0.04320987654320987,20.740740740740737,0)" xlink:href="#af"/><use transform="matrix(0.04320987654320987,0,0,0.04320987654320987,25.061728395061724,0)" xlink:href="#ag"/><use transform="matrix(0.04320987654320987,0,0,0.04320987654320987,37.981481481481474,0)" xlink:href="#ah"/><use transform="matrix(0.04320987654320987,0,0,0.04320987654320987,46.62345679012345,0)" xlink:href="#ai"/></g><path fill="#333" d="M100-194c63 0 86 42 84 106H49c0 40 14 67 53 68 26 1 43-12 49-29l28 8c-11 28-37 45-77 45C44 4 14-33 15-96c1-61 26-98 85-98zm52 81c6-60-76-77-97-28-3 7-6 17-6 28h103zm-74-98c8-23 27-35 38-54h36v5l-58 49H78" id="aj"/><g id="v"><use transform="matrix(0.04320987654320987,0,0,0.04320987654320987,0,0)" xlink:href="#Y"/><use transform="matrix(0.04320987654320987,0,0,0.04320987654320987,7.777777777777776,0)" xlink:href="#ah"/><use transform="matrix(0.04320987654320987,0,0,0.04320987654320987,16.41975308641975,0)" xlink:href="#Y"/><use transform="matrix(0.04320987654320987,0,0,0.04320987654320987,24.197530864197525,0)" xlink:href="#ab"/><use transform="matrix(0.04320987654320987,0,0,0.04320987654320987,32.8395061728395,0)" xlink:href="#aj"/><use transform="matrix(0.04320987654320987,0,0,0.04320987654320987,41.481481481481474,0)" xlink:href="#ac"/></g><path fill="#333" d="M85-194c31 0 48 13 60 33l-1-100h32l1 261h-30c-2-10 0-23-3-31C134-8 116 4 85 4 32 4 16-35 15-94c0-66 23-100 70-100zm9 24c-40 0-46 34-46 75 0 40 6 74 45 74 42 0 51-32 51-76 0-42-9-74-50-73" id="ak"/><g id="w"><use transform="matrix(0.04320987654320987,0,0,0.04320987654320987,0,0)" xlink:href="#ak"/><use transform="matrix(0.04320987654320987,0,0,0.04320987654320987,8.641975308641973,0)" xlink:href="#aa"/></g><path fill="#333" d="M117-194c89-4 53 116 60 194h-32v-121c0-31-8-49-39-48C34-167 62-67 57 0H25l-1-190h30c1 10-1 24 2 32 11-22 29-35 61-36" id="al"/><path fill="#333" d="M114-163C36-179 61-72 57 0H25l-1-190h30c1 12-1 29 2 39 6-27 23-49 58-41v29" id="am"/><path fill="#333" d="M100-194c62-1 85 37 85 99 1 63-27 99-86 99S16-35 15-95c0-66 28-99 85-99zM99-20c44 1 53-31 53-75 0-43-8-75-51-75s-53 32-53 75 10 74 51 75zm20-242c12 18 30 30 39 51-31 2-38-20-57-30-20 10-27 32-59 30 9-22 29-33 41-51h36" id="an"/><path fill="#333" d="M24 0v-261h32V0H24" id="ao"/><g id="x"><use transform="matrix(0.04320987654320987,0,0,0.04320987654320987,0,0)" xlink:href="#Y"/><use transform="matrix(0.04320987654320987,0,0,0.04320987654320987,7.777777777777776,0)" xlink:href="#Z"/><use transform="matrix(0.04320987654320987,0,0,0.04320987654320987,16.41975308641975,0)" xlink:href="#al"/><use transform="matrix(0.04320987654320987,0,0,0.04320987654320987,25.061728395061724,0)" xlink:href="#af"/><use transform="matrix(0.04320987654320987,0,0,0.04320987654320987,29.382716049382708,0)" xlink:href="#am"/><use transform="matrix(0.04320987654320987,0,0,0.04320987654320987,34.52469135802468,0)" xlink:href="#an"/><use transform="matrix(0.04320987654320987,0,0,0.04320987654320987,43.16666666666666,0)" xlink:href="#ao"/><use transform="matrix(0.04320987654320987,0,0,0.04320987654320987,46.58024691358024,0)" xlink:href="#ac"/><use transform="matrix(0.04320987654320987,0,0,0.04320987654320987,55.22222222222221,0)" xlink:href="#aa"/><use transform="matrix(0.04320987654320987,0,0,0.04320987654320987,63.864197530864196,0)" xlink:href="#am"/></g><path fill="#333" d="M240-174c0 40-23 61-54 70L253 0h-59l-57-94H76V0H24v-248c93 4 217-23 216 74zM76-134c48-2 112 12 112-38 0-48-66-32-112-35v73" id="ap"/><path fill="#333" d="M185-48c-13 30-37 53-82 52C43 2 14-33 14-96s30-98 90-98c62 0 83 45 84 108H66c0 31 8 55 39 56 18 0 30-7 34-22zm-45-69c5-46-57-63-70-21-2 6-4 13-4 21h74zm-67-91v-5l45-51h45v8l-60 48H73" id="aq"/><path fill="#333" d="M135-194c53 0 70 44 70 98 0 56-19 98-73 100-31 1-45-17-59-34 3 33 2 69 2 105H25l-1-265h48c2 10 0 23 3 31 11-24 29-35 60-35zM114-30c33 0 39-31 40-66 0-38-9-64-40-64-56 0-55 130 0 130" id="ar"/><path fill="#333" d="M115-3C79 11 28 4 28-45v-112H4v-33h27l15-45h31v45h36v33H77v99c-1 23 16 31 38 25v30" id="as"/><path fill="#333" d="M185-48c-13 30-37 53-82 52C43 2 14-33 14-96s30-98 90-98c62 0 83 45 84 108H66c0 31 8 55 39 56 18 0 30-7 34-22zm-45-69c5-46-57-63-70-21-2 6-4 13-4 21h74" id="at"/><path fill="#333" d="M12 0v-35l95-120H19v-35h142v35L67-36h103V0H12" id="au"/><g id="y"><use transform="matrix(0.04320987654320987,0,0,0.04320987654320987,0,0)" xlink:href="#ap"/><use transform="matrix(0.04320987654320987,0,0,0.04320987654320987,11.191358024691356,0)" xlink:href="#aq"/><use transform="matrix(0.04320987654320987,0,0,0.04320987654320987,19.83333333333333,0)" xlink:href="#ar"/><use transform="matrix(0.04320987654320987,0,0,0.04320987654320987,29.29629629629629,0)" xlink:href="#aq"/><use transform="matrix(0.04320987654320987,0,0,0.04320987654320987,37.938271604938265,0)" xlink:href="#as"/><use transform="matrix(0.04320987654320987,0,0,0.04320987654320987,43.08024691358024,0)" xlink:href="#at"/><use transform="matrix(0.04320987654320987,0,0,0.04320987654320987,51.722222222222214,0)" xlink:href="#au"/></g><path fill="#333" d="M182-130c37 4 62 22 62 59C244 23 116-4 24 0v-248c84 5 203-23 205 63 0 31-19 50-47 55zM76-148c40-3 101 13 101-30 0-44-60-28-101-31v61zm0 110c48-3 116 14 116-37 0-48-69-32-116-35v72" id="av"/><use transform="matrix(0.04320987654320987,0,0,0.04320987654320987,0,0)" xlink:href="#av" id="z"/><path fill="#333" d="M121-226c-27-7-43 5-38 36h38v33H83V0H34v-157H6v-33h28c-9-59 32-81 87-68v32" id="aw"/><path fill="#333" d="M110-194c64 0 96 36 96 99 0 64-35 99-97 99-61 0-95-36-95-99 0-62 34-99 96-99zm-1 164c35 0 45-28 45-65 0-40-10-65-43-65-34 0-45 26-45 65 0 36 10 65 43 65" id="ax"/><path fill="#333" d="M25-224v-37h50v37H25zM25 0v-190h50V0H25" id="ay"/><path fill="#333" d="M137-138c1-29-70-34-71-4 15 46 118 7 119 86 1 83-164 76-172 9l43-7c4 19 20 25 44 25 33 8 57-30 24-41C81-84 22-81 20-136c-2-80 154-74 161-7" id="az"/><g id="A"><use transform="matrix(0.04320987654320987,0,0,0.04320987654320987,0,0)" xlink:href="#aw"/><use transform="matrix(0.04320987654320987,0,0,0.04320987654320987,5.141975308641975,0)" xlink:href="#ax"/><use transform="matrix(0.04320987654320987,0,0,0.04320987654320987,14.604938271604935,0)" xlink:href="#ay"/><use transform="matrix(0.04320987654320987,0,0,0.04320987654320987,18.92592592592592,0)" xlink:href="#az"/></g></defs></g></svg>