<svg xmlns="http://www.w3.org/2000/svg" xmlns:xlink="http://www.w3.org/1999/xlink" xmlns:lucid="lucid" width="1457" height="934"><g transform="translate(-19 1224)" lucid:page-tab-id="0_0"><path d="M60-991.27c0-3.3 2.7-6 6-6h88c3.3 0 6 2.7 6 6v28c0 3.3-2.7 6-6 6H66c-3.3 0-6-2.7-6-6z" stroke="#5e5e5e" stroke-width="3" fill="#c3f7c8"/><use xlink:href="#a" transform="matrix(1,0,0,1,72,-985.2688591095164) translate(24.216049382716054 12.444444444444443)"/><path d="M222.76-991.27c0-3.3 2.68-6 6-6h88c3.3 0 6 2.7 6 6v28c0 3.3-2.7 6-6 6h-88c-3.32 0-6-2.7-6-6z" stroke="#5e5e5e" stroke-width="3" fill="#c3f7c8"/><use xlink:href="#a" transform="matrix(1,0,0,1,234.75626090480932,-985.2688591095164) translate(24.216049382716054 12.444444444444443)"/><path d="M379.1-1091.27c0-3.3 2.7-6 6-6h88c3.3 0 6 2.7 6 6v28c0 3.3-2.7 6-6 6h-88c-3.3 0-6-2.7-6-6z" stroke="#5e5e5e" stroke-width="3" fill="#fff0fb"/><use xlink:href="#b" transform="matrix(1,0,0,1,391.0994778326435,-1085.2688591095164) translate(13.003086419753092 12.444444444444443)"/><path d="M379.1-1185.53c0-3.32 2.7-6 6-6h88c3.3 0 6 2.68 6 6v28c0 3.3-2.7 6-6 6h-88c-3.3 0-6-2.7-6-6z" stroke="#5e5e5e" stroke-width="3" fill="#fff"/><path d="M410.13-1183.07h37.93v23.07h-37.93z" fill="#fff" fill-opacity="0"/><path d="M420.77-1168.2l.32.26c-.67.77-1.78 2.4-3.03 2.4-.4 0-.93-.23-.93-.95 0-.27.03-.58 1.45-6.05.04-.16.15-.66.15-1 0-.43-.16-.8-.54-.8-.8 0-2.3 1.94-3.03 3.03-.77 1.15-1.4 2.3-1.52 2.76l-.73 2.77h-1.77l3.45-13.6c.03-.1.05-.16.05-.23 0-.3-.23-.5-.7-.5-.23 0-.48.03-.66.05l-.06-.32 3.6-.54-2.46 9.43h.1c1.2-1.32 2.82-4.3 4.9-4.3.94 0 1.28.78 1.28 1.6 0 .5-.14.97-.25 1.45l-1.3 5.2c-.03.13-.05.17-.05.24 0 .13.07.3.3.3.5 0 1.1-.8 1.42-1.2M425.9-1171.46c0 .4-.36.73-.78.73-.46 0-.77-.32-.77-.73 0-.4.3-.8.77-.8.42 0 .77.4.77.8m-.5 2l-1.47 5.84v.22c0 .1.08.16.2.16.35 0 .45-.2 1.02-.82l.2.16c-.55.73-1.35 1.7-2.14 1.7-.44 0-.63-.32-.63-.75 0-.2 0-.5 1.27-5.42l.03-.2c0-.26-.13-.34-.5-.34-.14 0-.33.02-.45.05l-.04-.26M436.95-1165.92h-4.18v4.2h-1.06v-4.2h-4.17v-1.05h4.18v-4.2h1.07v4.2h4.18v1.05M444.07-1162.4h-4.42v-.23c1.18-.06 1.52-.4 1.52-1.28v-7.2c0-.56-.14-.8-.48-.8-.17 0-.44.08-.73.2l-.43.16v-.23l2.87-1.46.15.05v9.57c0 .68.32.97 1.52.97v.24"/><path d="M429.1-1099.77v-31.76" stroke="#5e5e5e" stroke-width="2" fill="none"/><path d="M430.1-1098.77h-2v-1.02h2z" stroke="#5e5e5e" stroke-width=".05" fill="#5e5e5e"/><path d="M429.1-1146.8l4.63 14.27h-9.27z" stroke="#5e5e5e" stroke-width="2" fill="#5e5e5e"/><path d="M40-891.27c0-3.3 2.7-6 6-6h44.83c3.3 0 6 2.7 6 6v51.33c0 3.32-2.7 6-6 6H46c-3.3 0-6-2.68-6-6z" stroke="#5e5e5e" stroke-width="3" fill="#fff7a1"/><use xlink:href="#c" transform="matrix(1,0,0,1,45,-892.2688591095164) translate(10.96913580246914 19.194444444444443)"/><use xlink:href="#d" transform="matrix(1,0,0,1,45,-892.2688591095164) translate(10.96913580246914 37.86111111111111)"/><path d="M121.92-891.27c0-3.3 2.68-6 6-6h44.82c3.32 0 6 2.7 6 6v51.33c0 3.32-2.68 6-6 6h-44.82c-3.32 0-6-2.68-6-6z" stroke="#5e5e5e" stroke-width="3" fill="#fff7a1"/><use xlink:href="#e" transform="matrix(1,0,0,1,126.91551917350307,-892.2688591095164) translate(-1.0864197530864175 30.11111111111111)"/><path d="M68.46-899.77l.13-3.16.45-3.52.7-3.1.9-2.84 1.14-2.75 1.48-2.84 2.15-3.32 11.4-15.23.73-1.38" stroke="#5e5e5e" stroke-width="2" fill="none"/><path d="M69.46-899.75l-.05.98h-2l.06-1.07z" stroke="#5e5e5e" stroke-width=".05" fill="#5e5e5e"/><path d="M90.97-952.62l1.3 14.95-9.04-2.1z" stroke="#5e5e5e" stroke-width="2" fill="#5e5e5e"/><path d="M150.3-899.77l-.14-2.9-.44-3.33-.65-2.95-.87-2.73-1.1-2.62-1.4-2.67-1.9-2.98-3.42-4.36-8.54-10.3-1.9-2.96-.25-.45" stroke="#5e5e5e" stroke-width="2" fill="none"/><path d="M151.33-898.77h-2l-.04-.98 1.98-.1z" stroke="#5e5e5e" stroke-width=".05" fill="#5e5e5e"/><path d="M126.1-952.63l7.9 12.74-9 2.23z" stroke="#5e5e5e" stroke-width="2" fill="#5e5e5e"/><path d="M203.4-892.77c0-3.3 2.67-6 6-6h44.8c3.33 0 6 2.7 6 6v51.33c0 3.32-2.67 6-6 6h-44.8c-3.33 0-6-2.68-6-6z" stroke="#5e5e5e" stroke-width="3" fill="#fff7a1"/><use xlink:href="#c" transform="matrix(1,0,0,1,208.38543697133056,-893.7688591095164) translate(10.96913580246914 19.194444444444443)"/><use xlink:href="#d" transform="matrix(1,0,0,1,208.38543697133056,-893.7688591095164) translate(10.96913580246914 37.86111111111111)"/><path d="M285.3-892.77c0-3.3 2.7-6 6-6h44.83c3.3 0 6 2.7 6 6v51.33c0 3.32-2.7 6-6 6H291.3c-3.3 0-6-2.68-6-6z" stroke="#5e5e5e" stroke-width="3" fill="#fff7a1"/><use xlink:href="#c" transform="matrix(1,0,0,1,290.30095614483366,-893.7688591095164) translate(10.96913580246914 19.194444444444443)"/><use xlink:href="#f" transform="matrix(1,0,0,1,290.30095614483366,-893.7688591095164) translate(10.96913580246914 37.86111111111111)"/><path d="M231.84-901.27l.14-3.2m.46-4.27l.2-1.47.97-4.37.15-.45m1.3-4.08l2-4.78.6-1.1m2-3.8l1.42-2.63 1.7-3m2.1-3.73l1.57-2.8" stroke="#5e5e5e" stroke-width="2" fill="none"/><path d="M232.84-901.25l-.04.98h-2l.04-1.07z" stroke="#5e5e5e" stroke-width=".05" fill="#5e5e5e"/><path d="M253.57-954.4L251-939.64l-8.2-4.34z" stroke="#5e5e5e" stroke-width="2" fill="#5e5e5e"/><path d="M313.67-901.27l-.17-4.02-.6-4.43-.9-4.14-1.3-4.1-1.85-4.4-3-5.66-7.9-13.23" stroke="#5e5e5e" stroke-width="2" fill="none"/><path d="M314.7-900.27h-2l-.03-.98 2-.1z" stroke="#5e5e5e" stroke-width=".05" fill="#5e5e5e"/><path d="M290.32-954.47l11.15 10.03-8.02 4.64z" stroke="#5e5e5e" stroke-width="2" fill="#5e5e5e"/><path d="M380.63-991.27c0-3.3 2.7-6 6-6h88c3.3 0 6 2.7 6 6v28c0 3.3-2.7 6-6 6h-88c-3.3 0-6-2.7-6-6z" stroke="#5e5e5e" stroke-width="3" fill="#c3f7c8"/><use xlink:href="#a" transform="matrix(1,0,0,1,392.62917606652127,-985.2688591095164) translate(24.216049382716054 12.444444444444443)"/><path d="M361.26-892.77c0-3.3 2.68-6 6-6h44.82c3.32 0 6 2.7 6 6v51.33c0 3.32-2.68 6-6 6h-44.82c-3.32 0-6-2.68-6-6z" stroke="#5e5e5e" stroke-width="3" fill="#fff7a1"/><use xlink:href="#g" transform="matrix(1,0,0,1,366.25835213304254,-893.7688591095164) translate(10.96913580246914 19.194444444444443)"/><use xlink:href="#d" transform="matrix(1,0,0,1,366.25835213304254,-893.7688591095164) translate(10.96913580246914 37.86111111111111)"/><path d="M443.17-892.77c0-3.3 2.7-6 6-6H494c3.3 0 6 2.7 6 6v51.33c0 3.32-2.7 6-6 6h-44.83c-3.3 0-6-2.68-6-6z" stroke="#5e5e5e" stroke-width="3" fill="#fff7a1"/><use xlink:href="#e" transform="matrix(1,0,0,1,448.1738713065456,-893.7688591095164) translate(-1.0864197530864175 30.11111111111111)"/><path d="M389.7-901.27l.2-4.27.6-4.67.98-4.37 1.4-4.4 2.06-4.9 4-7.54 5.38-9.53" stroke="#5e5e5e" stroke-width="2" fill="none"/><path d="M390.7-901.25l-.03.98h-2l.05-1.07z" stroke="#5e5e5e" stroke-width=".05" fill="#5e5e5e"/><path d="M411.45-954.4l-2.58 14.77-8.2-4.34z" stroke="#5e5e5e" stroke-width="2" fill="#5e5e5e"/><path d="M471.54-901.27l-.14-3.27m-.5-4.33l-.1-.86-.93-4.14-.44-1.37m-1.44-4.1l-1.28-3.03-1.53-2.9m-2.1-3.82l-3.36-5.6m-2.24-3.76l-1.67-2.8" stroke="#5e5e5e" stroke-width="2" fill="none"/><path d="M472.6-900.27h-2l-.06-.98 2-.1z" stroke="#5e5e5e" stroke-width=".05" fill="#5e5e5e"/><path d="M448.2-954.47l11.14 10.03-8.02 4.64z" stroke="#5e5e5e" stroke-width="2" fill="#5e5e5e"/><path d="M539.37-989.77c0-3.3 2.7-6 6-6h88c3.3 0 6 2.7 6 6v28c0 3.3-2.7 6-6 6h-88c-3.3 0-6-2.7-6-6z" stroke="#5e5e5e" stroke-width="3" fill="#c3f7c8"/><use xlink:href="#a" transform="matrix(1,0,0,1,551.3708239334787,-983.7688591095164) translate(24.216049382716054 12.444444444444443)"/><path d="M520-891.27c0-3.3 2.7-6 6-6h44.83c3.3 0 6 2.7 6 6v51.33c0 3.32-2.7 6-6 6H526c-3.3 0-6-2.68-6-6z" stroke="#5e5e5e" stroke-width="3" fill="#fff7a1"/><use xlink:href="#g" transform="matrix(1,0,0,1,525,-892.2688591095164) translate(10.96913580246914 19.194444444444443)"/><use xlink:href="#d" transform="matrix(1,0,0,1,525,-892.2688591095164) translate(10.96913580246914 37.86111111111111)"/><path d="M601.92-891.27c0-3.3 2.68-6 6-6h44.82c3.32 0 6 2.7 6 6v51.33c0 3.32-2.68 6-6 6h-44.82c-3.32 0-6-2.68-6-6z" stroke="#5e5e5e" stroke-width="3" fill="#fff7a1"/><use xlink:href="#g" transform="matrix(1,0,0,1,606.9155191735031,-892.2688591095164) translate(10.96913580246914 19.194444444444443)"/><use xlink:href="#d" transform="matrix(1,0,0,1,606.9155191735031,-892.2688591095164) translate(10.96913580246914 37.86111111111111)"/><path d="M548.46-899.77l.13-3.2m.46-4.27l.2-1.47.97-4.37.14-.45m1.3-4.08l2-4.78.6-1.1m2-3.8l1.4-2.63 1.7-3m2.1-3.73l1.6-2.8" stroke="#5e5e5e" stroke-width="2" fill="none"/><path d="M549.46-899.75l-.05.98h-2l.06-1.07z" stroke="#5e5e5e" stroke-width=".05" fill="#5e5e5e"/><path d="M570.2-952.9l-2.58 14.77-8.2-4.34z" stroke="#5e5e5e" stroke-width="2" fill="#5e5e5e"/><path d="M630.3-899.77l-.15-3.27m-.5-4.33l-.12-.86-.92-4.14-.43-1.37m-1.44-4.1l-1.26-3.03-1.53-2.9m-2.1-3.82l-3.36-5.6m-2.23-3.76l-1.68-2.8" stroke="#5e5e5e" stroke-width="2" fill="none"/><path d="M631.33-898.77h-2l-.04-.98 1.98-.1z" stroke="#5e5e5e" stroke-width=".05" fill="#5e5e5e"/><path d="M606.93-952.97l11.16 10.03-8.04 4.64z" stroke="#5e5e5e" stroke-width="2" fill="#5e5e5e"/><path d="M703.27-991.27c0-3.3 2.68-6 6-6h88c3.3 0 6 2.7 6 6v28c0 3.3-2.7 6-6 6h-88c-3.32 0-6-2.7-6-6z" stroke="#5e5e5e" stroke-width="3" fill="#c3f7c8"/><use xlink:href="#a" transform="matrix(1,0,0,1,715.2656114141014,-985.2688591095164) translate(24.216049382716054 12.444444444444443)"/><path d="M683.9-892.77c0-3.3 2.68-6 6-6h44.82c3.3 0 6 2.7 6 6v51.33c0 3.32-2.7 6-6 6H689.9c-3.32 0-6-2.68-6-6z" stroke="#5e5e5e" stroke-width="3" fill="#fff7a1"/><use xlink:href="#c" transform="matrix(1,0,0,1,688.8947874806227,-893.7688591095164) translate(10.96913580246914 19.194444444444443)"/><use xlink:href="#f" transform="matrix(1,0,0,1,688.8947874806227,-893.7688591095164) translate(10.96913580246914 37.86111111111111)"/><path d="M765.8-892.77c0-3.3 2.7-6 6-6h44.84c3.3 0 6 2.7 6 6v51.33c0 3.32-2.7 6-6 6H771.8c-3.3 0-6-2.68-6-6z" stroke="#5e5e5e" stroke-width="3" fill="#fff7a1"/><use xlink:href="#c" transform="matrix(1,0,0,1,770.8103066541257,-893.7688591095164) translate(10.96913580246914 19.194444444444443)"/><use xlink:href="#d" transform="matrix(1,0,0,1,770.8103066541257,-893.7688591095164) translate(10.96913580246914 37.86111111111111)"/><path d="M712.35-901.27l.14-3.2m.45-4.27l.2-1.47.97-4.37.14-.45m1.3-4.08l2-4.78.6-1.1m2-3.8l1.42-2.63 1.7-3m2.1-3.73l1.57-2.8" stroke="#5e5e5e" stroke-width="2" fill="none"/><path d="M713.35-901.25l-.04.98h-2l.05-1.07z" stroke="#5e5e5e" stroke-width=".05" fill="#5e5e5e"/><path d="M734.08-954.4l-2.57 14.77-8.18-4.34z" stroke="#5e5e5e" stroke-width="2" fill="#5e5e5e"/><path d="M794.18-901.27l-.14-3.27m-.5-4.33l-.12-.86-.92-4.14-.43-1.37m-1.45-4.1l-1.26-3.03-1.53-2.9m-2.1-3.82l-3.35-5.6m-2.24-3.76l-1.68-2.8" stroke="#5e5e5e" stroke-width="2" fill="none"/><path d="M795.22-900.27h-2l-.04-.98 2-.1z" stroke="#5e5e5e" stroke-width=".05" fill="#5e5e5e"/><path d="M770.82-954.47l11.16 10.03-8.02 4.64z" stroke="#5e5e5e" stroke-width="2" fill="#5e5e5e"/><path d="M430.08-1055.6l322.2 56.66" stroke="#5e5e5e" stroke-width="2" fill="none"/><path d="M429.94-1054.6l-3.97-.7.08-.47h4.1zM756.4-999.23l-.1.46h-4.08l.2-1.16z" stroke="#5e5e5e" stroke-width=".05" fill="#5e5e5e"/><path d="M429.53-1055.43l158.9 57.82" stroke="#5e5e5e" stroke-width="2" fill="none"/><path d="M429.2-1054.48l-3.53-1.3h4zM592.3-997.27h-4.02l.47-1.3z" stroke="#5e5e5e" stroke-width=".05" fill="#5e5e5e"/><path d="M430.63-1054.77v55" stroke="#5e5e5e" stroke-width="2" fill="none"/><path d="M431.63-1054.74h-2v-1.03h2zM431.63-998.77h-2v-1.02h2z" stroke="#5e5e5e" stroke-width=".05" fill="#5e5e5e"/><path d="M428.16-1055.43L273.7-999.1" stroke="#5e5e5e" stroke-width="2" fill="none"/><path d="M428.48-1054.48l-.47-1.3h4.02zM273.85-998.77h-4l3.53-1.3z" stroke="#5e5e5e" stroke-width=".05" fill="#5e5e5e"/><path d="M428.12-1055.6l-317.14 56.66" stroke="#5e5e5e" stroke-width="2" fill="none"/><path d="M432.23-1055.3l-3.96.7-.2-1.17h4.08zM111.04-998.77h-4.1l-.07-.46 3.96-.7z" stroke="#5e5e5e" stroke-width=".05" fill="#5e5e5e"/><path d="M381.1-770.94c0-3.3 2.68-6 6-6h88c3.3 0 6 2.7 6 6v28c0 3.32-2.7 6-6 6h-88c-3.32 0-6-2.68-6-6zM381.1-631.27c0-3.3 2.68-6 6-6h88c3.3 0 6 2.7 6 6v28c0 3.3-2.7 6-6 6h-88c-3.32 0-6-2.7-6-6z" stroke="#5e5e5e" stroke-width="3" fill="#fff"/><path d="M412.13-768.47h37.93v23.07h-37.93z" fill="#fff" fill-opacity="0"/><path d="M422.77-753.6l.32.25c-.67.77-1.78 2.4-3.03 2.4-.4 0-.93-.22-.93-.94 0-.27.02-.58 1.45-6.05.04-.16.15-.66.15-1 0-.43-.16-.8-.54-.8-.8 0-2.3 1.94-3.03 3.02-.77 1.16-1.4 2.32-1.52 2.77l-.73 2.77h-1.77l3.45-13.6c.02-.1.05-.16.05-.23 0-.3-.23-.5-.7-.5-.23 0-.48.03-.66.05l-.06-.32 3.6-.54-2.47 9.43h.1c1.2-1.32 2.83-4.3 4.9-4.3.95 0 1.3.78 1.3 1.6 0 .5-.15.97-.26 1.45l-1.3 5.2c-.03.13-.05.17-.05.24 0 .12.06.3.3.3.5 0 1.1-.8 1.42-1.2M427.9-756.87c0 .42-.36.74-.78.74-.47 0-.77-.32-.77-.74 0-.4.3-.8.77-.8.42 0 .77.4.77.8m-.5 2l-1.47 5.85v.22c0 .1.08.16.2.16.35 0 .44-.2 1.02-.82l.2.16c-.55.72-1.35 1.7-2.14 1.7-.44 0-.63-.32-.63-.75 0-.2 0-.5 1.27-5.42l.03-.2c0-.27-.13-.35-.5-.35-.14 0-.34.04-.45.07l-.05-.26M438.95-751.32h-4.18v4.2h-1.06v-4.2h-4.18v-1.06h4.2v-4.18h1.05v4.18h4.18v1.06M446.07-747.8h-4.42v-.23c1.18-.06 1.52-.4 1.52-1.28v-7.2c0-.56-.14-.8-.48-.8-.17 0-.44.08-.73.2l-.44.15v-.22l2.87-1.46.15.05v9.57c0 .68.32.97 1.52.97v.24"/><path d="M378.6-756.97l-3.3-.1-4.1-.4-3.93-.65-3.8-.88-3.67-1.1-3.57-1.33-3.48-1.56-3.38-1.8-3.3-2.02-3.24-2.3-3.15-2.55-3.06-2.84-2.97-3.14-2.87-3.45-2.74-3.76-2.6-4.1-2.43-4.45-2.2-4.8-1.98-5.1-1.7-5.43-1.4-5.7-1.05-5.93-.67-6.12-.28-6.26v-.2" stroke="#5e5e5e" stroke-width="2" fill="none"/><path d="M379.6-757.94v2l-1.06-.03.06-2zM314.72-832.92l-2 .02v-1.04h2z" stroke="#5e5e5e" stroke-width=".05" fill="#5e5e5e"/><path d="M378.6-756.92l-116.17 1.47-15.95-1-12.05-1.24-9.63-1.4-7.96-1.52-6.72-1.58-5.8-1.6-5.03-1.65-4.46-1.65-3.97-1.66-3.55-1.68-3.22-1.67-2.92-1.7-2.67-1.7-2.45-1.7-2.27-1.73-2.1-1.74-1.96-1.76-1.82-1.78-1.7-1.83-1.6-1.85-1.5-1.9-1.42-1.94-1.33-2-1.24-2.05-1.17-2.13-1.1-2.22-1.02-2.3-.94-2.4-.88-2.54-.8-2.67-.73-2.83-.64-3-.53-3.2-.44-3.46-.3-3.72-.18-4.04v-1.16" stroke="#5e5e5e" stroke-width="2" fill="none"/><path d="M379.6-755.94l-1.02.02-.02-2 1.04-.02zM151.34-831.42l-2 .02v-1.04h2z" stroke="#5e5e5e" stroke-width=".05" fill="#5e5e5e"/><path d="M378.6-756.9l-23.37.5-62.58 4.36-73.27 5.24-24.76.55-17.1-.34-13.08-.8-10.5-1.1-8.73-1.28-7.4-1.4-6.37-1.5-5.6-1.56-4.93-1.6-4.42-1.64-3.97-1.67-3.6-1.7-3.28-1.7-3.02-1.75-2.8-1.77-2.57-1.8-2.4-1.82-2.24-1.84-2.12-1.9-1.97-1.93-1.85-1.98-1.76-2.03-1.67-2.1-1.57-2.16-1.5-2.25-1.4-2.3-1.33-2.44-1.27-2.54-1.18-2.67-1.12-2.8-1.03-3-.96-3.15-.86-3.38-.76-3.63-.66-3.92-.54-4.25-.4-4.63-.2-5.1-.02-1.74" stroke="#5e5e5e" stroke-width="2" fill="none"/><path d="M379.6-755.94l-1 .03-.05-2 1.05-.04zM69.42-831.42l-2 .02v-1.04h2z" stroke="#5e5e5e" stroke-width=".05" fill="#5e5e5e"/><path d="M378.6-617.27h-3.02m-4.02 0h-6.04m-4.02 0h-6.03m-4.03 0h-6.03m-4 0h-6.05m-4.02 0h-6.03m-4.03 0h-6.03m-4.02 0h-6.04m-4.02 0h-6.04m-4.02 0h-6.03m-4.03 0H275m-4 0h-6.05m-4.02 0h-6.03m-4.03 0h-6.03m-4.02 0h-3.02l-2.7-.73m-2.57-2.57l-.73-2.7v-3m0-4v-5.98m0-4v-5.98m0-4v-6m0-3.98v-6m0-4v-5.98m0-4v-6m0-3.98v-6m0-4v-5.98m0-4v-5.98m0-4v-6m0-3.98v-6m0-3.98v-6m0-4v-5.98m0-4v-5.98m0-4v-6m0-3.98v-6m0-3.98v-6m0-4v-5.98m0-4v-5.98m0-4v-6m0-3.98v-3" stroke="#5e5e5e" stroke-width="2" fill="none"/><path d="M379.6-616.27h-1.03v-2h1.03zM232.8-832.9h-2v-1.04h2z" stroke="#5e5e5e" stroke-width=".05" fill="#5e5e5e"/><path d="M483.6-617.3l2.37-.04.7-.04m4.05-.33l.72-.1 2.24-.32 2-.38 1.06-.25m3.9-1.13l1.28-.47 1.24-.52 1.14-.54 1.06-.56.83-.48m3.3-2.36l.25-.2.74-.66.7-.68.65-.7.64-.75.6-.76.53-.73m2.05-3.5l.1-.2.47-1.06.44-1.12.4-1.2.4-1.3.22-.87m.8-4l.2-1.67.17-2.1.1-2.32m-.07-4.08l-.08-1.87-.3-3.72-.07-.5m-.52-4.03l-.95-5.6-.08-.43m-.85-3.98l-.62-2.9-.8-3.05m-1-3.96l-.88-3.37-.77-2.52m-1.2-3.9l-1.77-5.84m-1.2-3.9l-.64-2.1-1.22-3.7m-1.27-3.9l-1.9-5.8m-1.26-3.87l-1.9-5.8m-1.26-3.88l-1.9-5.8m-1.27-3.9l-1.9-5.8m-1.26-3.87l-1.9-5.8m-1.27-3.88l-1.9-5.8m-1.27-3.9l-1.9-5.8m-1.15-3.9l-1.53-5.92m-1.02-3.95l-.7-2.7-.7-3.25m-.84-4l-.78-3.6-.4-2.4m-.68-4l-.4-2.42-.47-3.63m-.5-4.05l-.52-6.1m-.16-4.06l-.06-1.5-.02-1.56" stroke="#5e5e5e" stroke-width="2" fill="none"/><path d="M483.65-616.3l-1.05.03v-2l1-.02zM474.86-832.92l-2 .02v-1.04h2z" stroke="#5e5e5e" stroke-width=".05" fill="#5e5e5e"/><path d="M483.6-617.3l2.88-.05h.13m4-.28l2.7-.28 3.04-.46.23-.05m3.93-.8l1.3-.32 2.48-.7 2-.64m3.75-1.44l.94-.4 2.03-.94 1.94-1.02.5-.28m3.4-2.1l1.53-1.06 1.7-1.3 1.56-1.3m2.94-2.72l.37-.37 1.57-1.65 1.55-1.8.52-.65m2.4-3.2l.1-.12 1.5-2.24 1.46-2.44.16-.3m1.88-3.53l.87-1.77 1.45-3.25.18-.45m1.45-3.74l1.22-3.5.66-2.22m1.1-3.85l1-3.9.42-1.96m.84-3.93l.07-.32.94-5.6m.57-3.96l.75-5.97m.36-4l.5-6m.25-4l.26-6m.16-4.02l.15-3.52v-2.48m-.02-4v-6.03m-.02-4.02v-6.02m-.1-4l-.18-6.02m-.13-4l-.2-6.02m-.13-4l-.2-6.03m-.13-4.02l-.2-6m-.13-4.02l-.2-6m-.12-4.02l-.2-6m-.13-4.02l-.2-6.02m-.13-4l-.2-6.02m-.13-4l-.1-3.02" stroke="#5e5e5e" stroke-width="2" fill="none"/><path d="M483.65-616.3l-1.05.03v-2l1-.02zM549.45-831.44l-2 .06-.04-1.06h2z" stroke="#5e5e5e" stroke-width=".05" fill="#5e5e5e"/><path d="M483.6-617.3l3-.05m3.98-.17l3.83-.24 2.15-.22m3.96-.44l4.78-.7 1.14-.22m3.92-.75h.1l4.98-1.18.74-.2m3.85-1.08l.26-.07 4.7-1.53.73-.27m3.73-1.4l.14-.04 4.5-1.9.87-.4m3.6-1.7l4.3-2.25 1-.56m3.44-2l4.1-2.6.93-.65m3.28-2.28l4.15-3.16.6-.5m3.08-2.54l.45-.37 4.02-3.62m2.85-2.78l1.33-1.3 2.83-3m2.66-2.98l2.64-3.05 1.2-1.54m2.48-3.13l.36-.45 3.18-4.38m2.26-3.3l2.6-3.9.66-1.1m2.07-3.4l1.24-2.08 1.72-3.13m1.92-3.5l.3-.55 2.38-4.8m1.75-3.6l2.45-5.46m1.57-3.68l2.2-5.56m1.42-3.73l1.97-5.66m1.3-3.77l1.73-5.73m1.15-3.82l.3-1 1.23-4.8m1-3.85l.85-3.3.53-2.53m.83-3.9l1.26-5.85m.68-3.94l1-5.9m.67-3.93l.1-.5.68-5.44m.5-3.95l.64-5.12.07-.82m.32-3.97l.5-5.96m.34-3.98l.03-.44.23-5.55m.16-3.97l.24-5.98m.05-4l.02-3" stroke="#5e5e5e" stroke-width="2" fill="none"/><path d="M483.65-616.3l-1.05.03v-2l1-.02zM631.32-831.4l-2-.02v-1.02h2z" stroke="#5e5e5e" stroke-width=".05" fill="#5e5e5e"/><path d="M483.6-617.3l3-.05m4-.1l3-.05 3-.2m4-.24l3.86-.24 2.1-.22m4-.42l4.57-.48 1.38-.2m3.97-.6l5.14-.75.8-.15m3.93-.75l5.56-1.06.32-.1m3.9-.9l5.83-1.37m3.86-1.08l5.8-1.6m3.8-1.24l5.7-1.84m3.76-1.4l5.63-2.08m3.68-1.54l5.53-2.32m3.64-1.7l5.36-2.52.06-.04m3.55-1.85l4.95-2.57.37-.22m3.46-2l4.44-2.55.74-.47m3.38-2.14l3.85-2.44 1.17-.83m3.3-2.28l3.2-2.23 1.67-1.28m3.18-2.43l2.5-1.9 2.2-1.82m3.1-2.55l1.74-1.45 2.77-2.5m2.98-2.67l1-.88 3.33-3.28m2.86-2.8l.2-.2 3.9-4.16m2.72-2.94l3.92-4.54m2.55-3.1l3.72-4.7m2.38-3.2l3.2-4.43.3-.44m2.22-3.33l2.3-3.44.95-1.6m2.08-3.42l1.43-2.36 1.56-2.83m1.93-3.5l.66-1.2 2.05-4.15m1.78-3.58l2.44-5.48m1.58-3.7l2.2-5.57m1.37-3.76l1.94-5.56.02-.1m1.15-3.83l1.34-4.4.35-1.36m1-3.86l.84-3.3.53-2.54m.83-3.92l.48-2.23.62-3.67m.67-3.94l.2-1.27.6-4.68m.5-3.98l.05-.4.47-5.57m.32-4l.25-6m.15-4l.03-3" stroke="#5e5e5e" stroke-width="2" fill="none"/><path d="M483.65-616.3l-1.05.03v-2l1-.02zM713.3-832.9l-2-.02v-1.02h2z" stroke="#5e5e5e" stroke-width=".05" fill="#5e5e5e"/><path d="M483.6-617.3l3-.05m4.03-.1l6.02-.1m4-.1l4.2-.08 1.83-.12m4-.25l6.02-.38m4-.25l6-.38h.02m4-.43l5.98-.63m4-.42l5.98-.62m3.98-.54l5.96-.88m3.97-.6l5.95-.87m3.95-.68l5.92-1.12m3.94-.76l5.92-1.12m3.92-.9l5.86-1.36m3.9-.92l4.9-1.14.96-.27m3.87-1.08l5.8-1.62m3.86-1.08l2.06-.57 3.7-1.2m3.8-1.24l5.74-1.86m3.8-1.3l5.64-2.1m3.76-1.4l3-1.12 2.6-1.1m3.7-1.55l5.56-2.33m3.65-1.66l5.45-2.55m3.64-1.7l.3-.16 5.04-2.64m3.56-1.86l2.36-1.23 2.9-1.68m3.5-2.02l3.67-2.12 1.5-.95m3.38-2.14l4.35-2.77.7-.5m3.3-2.3l4.5-3.12.44-.32m3.2-2.43l4.2-3.2.58-.46m3.1-2.56l3.54-2.92 1.04-.96m3-2.68l2.6-2.35 1.8-1.77m2.86-2.8l1.48-1.46 2.7-2.88m2.76-2.93l.22-.24 3.72-4.3m2.57-3.1l3.74-4.72m2.36-3.23l2.16-2.98 1.3-1.96m2.22-3.34l.6-.93 2.56-4.2m2.02-3.47l2.74-5 .15-.28m1.8-3.6l1.27-2.57 1.28-2.88m1.64-3.67v-.04l2.2-5.56m1.37-3.77l1.48-4.24.44-1.48m1.15-3.84l.52-1.72 1.05-4.1m.97-3.9l1.24-5.88m.7-3.96l.77-4.54.2-1.4m.5-4l.32-2.58.28-3.4m.34-4l.08-.9.2-5.1m.16-4.02l.03-3.02" stroke="#5e5e5e" stroke-width="2" fill="none"/><path d="M483.65-616.3l-1.05.03v-2l1-.02zM795.2-832.9l-2-.02.02-1.02h2z" stroke="#5e5e5e" stroke-width=".05" fill="#5e5e5e"/><path d="M410.13-628.4h37.93v23.06h-37.93z" fill="#fff" fill-opacity="0"/><path d="M420.77-613.53l.32.25c-.67.77-1.78 2.4-3.03 2.4-.4 0-.93-.22-.93-.95 0-.27.03-.6 1.45-6.06.04-.14.15-.64.15-.98 0-.43-.16-.8-.54-.8-.8 0-2.3 1.93-3.03 3.02-.77 1.16-1.4 2.3-1.52 2.77l-.73 2.77h-1.77l3.45-13.6c.03-.1.05-.16.05-.23 0-.3-.23-.5-.7-.5-.23 0-.48.02-.66.04l-.06-.3 3.6-.56-2.46 9.44h.1c1.2-1.32 2.82-4.3 4.9-4.3.94 0 1.28.78 1.28 1.6 0 .5-.14.97-.25 1.45l-1.3 5.23c-.03.1-.05.16-.05.22 0 .14.07.32.3.32.5 0 1.1-.8 1.42-1.2M425.9-616.8c0 .42-.36.74-.78.74-.46 0-.77-.32-.77-.74 0-.4.3-.8.77-.8.42 0 .77.4.77.8m-.5 2l-1.47 5.84v.23c0 .1.08.16.2.16.35 0 .45-.2 1.02-.82l.2.17c-.55.72-1.35 1.68-2.14 1.68-.44 0-.63-.3-.63-.74 0-.18 0-.48 1.27-5.4l.03-.2c0-.27-.13-.35-.5-.35-.14 0-.33.03-.45.06l-.04-.24M436.95-611.25h-4.18v4.18h-1.06v-4.18h-4.17v-1.06h4.18v-4.2h1.07v4.2h4.18v1.05M444.07-607.72h-4.42v-.25c1.18-.06 1.52-.4 1.52-1.28v-7.2c0-.54-.14-.78-.48-.78-.17 0-.44.08-.73.2l-.43.15v-.23l2.87-1.46.15.04v9.58c0 .7.32.97 1.52.97v.25"/><path d="M381.1-701.1c0-3.32 2.68-6 6-6h88c3.3 0 6 2.68 6 6v28c0 3.3-2.7 6-6 6h-88c-3.32 0-6-2.7-6-6z" stroke="#5e5e5e" stroke-width="3" fill="#fff"/><use xlink:href="#h" transform="matrix(1,0,0,1,393.09797715416903,-695.1021924428496) translate(31.51851851851852 12.444444444444443)"/><path d="M431.1-639.77v-3.72m0-4.96v-7.45m0-4.98v-3.72" stroke="#5e5e5e" stroke-width="2" fill="none"/><path d="M432.1-638.77h-2v-1.02h2zM432.1-664.58h-2v-1.02h2z" stroke="#5e5e5e" stroke-width=".05" fill="#5e5e5e"/><path d="M431.1-709.6v-3.73m0-4.96v-7.44m0-4.97v-3.74" stroke="#5e5e5e" stroke-width="2" fill="none"/><path d="M432.1-708.6h-2v-1.03h2zM432.1-734.4h-2v-1.04h2z" stroke="#5e5e5e" stroke-width=".05" fill="#5e5e5e"/><path d="M431.05-779.44l-.06-1.37-.3-2.17-.46-2.02-.63-1.9-.8-1.88-1-1.88-1.3-1.94-1.67-2.08-2.26-2.35-3.45-2.97-20.92-15.35-2.27-2.35-1.66-2.07-1.3-1.94-1-1.9-.8-1.86-.64-1.92-.46-2.02-.3-2.16-.05-1.38" stroke="#5e5e5e" stroke-width="2" fill="none"/><path d="M432.1-778.44h-2l-.05-.98 2-.1zM390.67-833.08h-2v-.86h2z" stroke="#5e5e5e" stroke-width=".05" fill="#5e5e5e"/><path d="M1125.78-1194c0-3.3 2.7-6 6-6h88c3.32 0 6 2.7 6 6v28c0 3.3-2.68 6-6 6h-88c-3.3 0-6-2.7-6-6z" stroke="#5e5e5e" stroke-width="3" fill="#fff"/><path d="M1156.37-1191.53h37.93v23.06h-37.93z" fill="#fff" fill-opacity="0"/><path d="M1167-1176.66l.32.25c-.66.76-1.77 2.4-3 2.4-.42 0-.94-.23-.94-.96 0-.27.02-.6 1.45-6.05.04-.17.16-.67.16-1 0-.44-.17-.8-.56-.8-.8 0-2.3 1.92-3.04 3-.77 1.17-1.4 2.32-1.52 2.78l-.72 2.76h-1.77l3.44-13.6c.02-.1.04-.16.04-.23 0-.3-.23-.5-.7-.5-.23 0-.48.03-.66.06l-.05-.32 3.6-.55-2.46 9.43h.1c1.2-1.32 2.83-4.3 4.9-4.3.95 0 1.3.78 1.3 1.6 0 .5-.14.97-.26 1.45l-1.3 5.22c-.04.1-.06.16-.06.22 0 .14.07.32.3.32.5 0 1.1-.8 1.42-1.2M1172.12-1179.93c0 .42-.35.74-.77.74-.46 0-.77-.3-.77-.73 0-.4.3-.8.77-.8.42 0 .77.4.77.8m-.48 2l-1.47 5.84c-.02.1-.02.17-.02.24 0 .1.1.16.2.16.36 0 .46-.2 1.04-.82l.2.16c-.57.72-1.37 1.68-2.15 1.68-.45 0-.65-.3-.65-.74 0-.2 0-.5 1.27-5.42.02-.03.03-.14.03-.2 0-.26-.13-.34-.5-.34-.14 0-.33.03-.44.06l-.05-.25M1183.2-1174.38h-4.2v4.18h-1.06v-4.18h-4.18v-1.06h4.18v-4.2h1.06v4.2h4.2v1.06M1190.3-1170.85h-4.42v-.24c1.2-.06 1.52-.4 1.52-1.28v-7.2c0-.54-.14-.78-.48-.78-.16 0-.43.08-.72.2l-.43.15v-.23l2.87-1.46.14.05v9.58c0 .7.32.98 1.53.98v.25"/><path d="M1125.78-1091.27c0-3.3 2.7-6 6-6h88c3.32 0 6 2.7 6 6v28c0 3.3-2.68 6-6 6h-88c-3.3 0-6-2.7-6-6z" stroke="#5e5e5e" stroke-width="3" fill="#fff0fb"/><use xlink:href="#b" transform="matrix(1,0,0,1,1137.781414375239,-1085.2688591095164) translate(13.003086419753092 12.444444444444443)"/><path d="M921.6-989.77c0-3.3 2.68-6 6-6h88c3.3 0 6 2.7 6 6v28c0 3.3-2.7 6-6 6h-88c-3.32 0-6-2.7-6-6z" stroke="#5e5e5e" stroke-width="3" fill="#c3f7c8"/><use xlink:href="#a" transform="matrix(1,0,0,1,933.5933759078226,-983.7688591095164) translate(24.216049382716054 12.444444444444443)"/><path d="M901.62-891.27c0-3.3 2.7-6 6-6h44.83c3.3 0 6 2.7 6 6v51.33c0 3.32-2.7 6-6 6h-44.83c-3.3 0-6-2.68-6-6z" stroke="#5e5e5e" stroke-width="3" fill="#fff7a1"/><use xlink:href="#i" transform="matrix(1,0,0,1,906.6217925080025,-892.2688591095164) translate(8.830246913580252 19.194444444444443)"/><use xlink:href="#d" transform="matrix(1,0,0,1,906.6217925080025,-892.2688591095164) translate(10.96913580246914 37.86111111111111)"/><path d="M983.54-891.27c0-3.3 2.68-6 6-6h44.82c3.32 0 6 2.7 6 6v51.33c0 3.32-2.68 6-6 6h-44.82c-3.32 0-6-2.68-6-6z" stroke="#5e5e5e" stroke-width="3" fill="#fff7a1"/><use xlink:href="#c" transform="matrix(1,0,0,1,988.5373116815056,-892.2688591095164) translate(10.96913580246914 19.194444444444443)"/><use xlink:href="#d" transform="matrix(1,0,0,1,988.5373116815056,-892.2688591095164) translate(10.96913580246914 37.86111111111111)"/><path d="M930.08-899.77l.14-3.2m.46-4.27l.2-1.47.97-4.37.14-.45m1.3-4.08l2-4.78.6-1.1m2-3.8l1.4-2.63 1.7-3m2.1-3.73l1.58-2.8" stroke="#5e5e5e" stroke-width="2" fill="none"/><path d="M931.08-899.75l-.04.98h-2l.04-1.07z" stroke="#5e5e5e" stroke-width=".05" fill="#5e5e5e"/><path d="M951.8-952.9l-2.56 14.77-8.2-4.34z" stroke="#5e5e5e" stroke-width="2" fill="#5e5e5e"/><path d="M1011.9-899.77l-.13-3.27m-.5-4.33l-.12-.86-.92-4.14-.44-1.37m-1.45-4.1l-1.26-3.03-1.54-2.9m-2.1-3.82l-3.35-5.6m-2.23-3.76l-1.68-2.8" stroke="#5e5e5e" stroke-width="2" fill="none"/><path d="M1012.95-898.77h-2l-.04-.98 2-.1z" stroke="#5e5e5e" stroke-width=".05" fill="#5e5e5e"/><path d="M988.55-952.97l11.16 10.03-8.02 4.64z" stroke="#5e5e5e" stroke-width="2" fill="#5e5e5e"/><path d="M1085.42-989.77c0-3.3 2.7-6 6-6h88c3.32 0 6 2.7 6 6v28c0 3.3-2.68 6-6 6h-88c-3.3 0-6-2.7-6-6z" stroke="#5e5e5e" stroke-width="3" fill="#c3f7c8"/><use xlink:href="#a" transform="matrix(1,0,0,1,1097.4244142548287,-983.7688591095164) translate(24.216049382716054 12.444444444444443)"/><path d="M1065.45-891.27c0-3.3 2.7-6 6-6h44.83c3.3 0 6 2.7 6 6v51.33c0 3.32-2.7 6-6 6h-44.83c-3.3 0-6-2.68-6-6z" stroke="#5e5e5e" stroke-width="3" fill="#fff7a1"/><use xlink:href="#g" transform="matrix(1,0,0,1,1070.4528308550086,-892.2688591095164) translate(10.96913580246914 19.194444444444443)"/><use xlink:href="#d" transform="matrix(1,0,0,1,1070.4528308550086,-892.2688591095164) translate(10.96913580246914 37.86111111111111)"/><path d="M1147.37-891.27c0-3.3 2.68-6 6-6h44.82c3.3 0 6 2.7 6 6v51.33c0 3.32-2.7 6-6 6h-44.83c-3.32 0-6-2.68-6-6z" stroke="#5e5e5e" stroke-width="3" fill="#fff7a1"/><use xlink:href="#e" transform="matrix(1,0,0,1,1152.3683500285117,-892.2688591095164) translate(-1.0864197530864175 30.11111111111111)"/><path d="M1093.9-899.77l.15-3.2m.46-4.27l.2-1.47.98-4.37.14-.45m1.3-4.08l2-4.78.6-1.1m2-3.8l1.42-2.63 1.68-3m2.1-3.73l1.6-2.8" stroke="#5e5e5e" stroke-width="2" fill="none"/><path d="M1094.9-899.75l-.03.98h-2l.04-1.07z" stroke="#5e5e5e" stroke-width=".05" fill="#5e5e5e"/><path d="M1115.64-952.9l-2.57 14.77-8.2-4.34z" stroke="#5e5e5e" stroke-width="2" fill="#5e5e5e"/><path d="M1175.74-899.77l-.14-3.27m-.5-4.33l-.12-.86-.92-4.14-.43-1.37m-1.45-4.1l-1.26-3.03-1.53-2.9m-2.1-3.82l-3.36-5.6m-2.24-3.76l-1.68-2.8" stroke="#5e5e5e" stroke-width="2" fill="none"/><path d="M1176.78-898.77h-2l-.04-.98 2-.1z" stroke="#5e5e5e" stroke-width=".05" fill="#5e5e5e"/><path d="M1152.38-952.97l11.16 10.03-8.03 4.64z" stroke="#5e5e5e" stroke-width="2" fill="#5e5e5e"/><path d="M1002.9-769.44c0-3.3 2.7-6 6-6h88c3.32 0 6 2.7 6 6v28c0 3.32-2.68 6-6 6h-88c-3.3 0-6-2.68-6-6z" stroke="#5e5e5e" stroke-width="3" fill="#c3f7c8"/><use xlink:href="#a" transform="matrix(1,0,0,1,1014.9081356149843,-763.435525776183) translate(24.216049382716054 12.444444444444443)"/><path d="M983.54-670.94c0-3.3 2.68-6 6-6h44.82c3.32 0 6 2.7 6 6v51.34c0 3.3-2.68 6-6 6h-44.82c-3.32 0-6-2.7-6-6z" stroke="#5e5e5e" stroke-width="3" fill="#fff7a1"/><use xlink:href="#c" transform="matrix(1,0,0,1,988.5373116815056,-671.935525776183) translate(10.96913580246914 19.194444444444443)"/><use xlink:href="#j" transform="matrix(1,0,0,1,988.5373116815056,-671.935525776183) translate(10.96913580246914 37.86111111111111)"/><path d="M1065.45-670.94c0-3.3 2.7-6 6-6h44.83c3.3 0 6 2.7 6 6v51.34c0 3.3-2.7 6-6 6h-44.83c-3.3 0-6-2.7-6-6z" stroke="#5e5e5e" stroke-width="3" fill="#fff7a1"/><use xlink:href="#c" transform="matrix(1,0,0,1,1070.4528308550086,-671.935525776183) translate(10.96913580246914 19.194444444444443)"/><use xlink:href="#f" transform="matrix(1,0,0,1,1070.4528308550086,-671.935525776183) translate(10.96913580246914 37.86111111111111)"/><path d="M1012-679.44l.13-3.2m.47-4.26l.2-1.47.96-4.37.15-.45m1.32-4.07l2-4.78.58-1.1m2-3.78l1.42-2.65 1.7-3m2.1-3.72l1.58-2.8" stroke="#5e5e5e" stroke-width="2" fill="none"/><path d="M1013-679.42l-.05.98h-2l.05-1.06z" stroke="#5e5e5e" stroke-width=".05" fill="#5e5e5e"/><path d="M1033.73-732.58l-2.58 14.78-8.2-4.33z" stroke="#5e5e5e" stroke-width="2" fill="#5e5e5e"/><path d="M1093.82-679.44l-.17-4.02-.58-4.44-.92-4.14-1.3-4.1-1.85-4.4-3-5.66-7.9-13.23" stroke="#5e5e5e" stroke-width="2" fill="none"/><path d="M1094.87-678.44h-2l-.05-.98 2-.08z" stroke="#5e5e5e" stroke-width=".05" fill="#5e5e5e"/><path d="M1070.47-732.63l11.15 10.02-8.02 4.64z" stroke="#5e5e5e" stroke-width="2" fill="#5e5e5e"/><path d="M1166.74-770.94c0-3.3 2.7-6 6-6h88c3.3 0 6 2.7 6 6v28c0 3.32-2.7 6-6 6h-88c-3.3 0-6-2.68-6-6z" stroke="#5e5e5e" stroke-width="3" fill="#c3f7c8"/><use xlink:href="#a" transform="matrix(1,0,0,1,1178.7391739619904,-764.935525776183) translate(24.216049382716054 12.444444444444443)"/><path d="M1147.37-672.44c0-3.3 2.68-6 6-6h44.82c3.3 0 6 2.7 6 6v51.34c0 3.3-2.7 6-6 6h-44.83c-3.32 0-6-2.7-6-6z" stroke="#5e5e5e" stroke-width="3" fill="#fff7a1"/><use xlink:href="#i" transform="matrix(1,0,0,1,1152.3683500285117,-673.435525776183) translate(8.830246913580252 19.194444444444443)"/><use xlink:href="#d" transform="matrix(1,0,0,1,1152.3683500285117,-673.435525776183) translate(10.96913580246914 37.86111111111111)"/><path d="M1229.28-672.44c0-3.3 2.7-6 6-6h44.83c3.32 0 6 2.7 6 6v51.34c0 3.3-2.68 6-6 6h-44.82c-3.3 0-6-2.7-6-6z" stroke="#5e5e5e" stroke-width="3" fill="#fff7a1"/><use xlink:href="#c" transform="matrix(1,0,0,1,1234.2838692020148,-673.435525776183) translate(10.96913580246914 19.194444444444443)"/><use xlink:href="#j" transform="matrix(1,0,0,1,1234.2838692020148,-673.435525776183) translate(10.96913580246914 37.86111111111111)"/><path d="M1175.82-680.94l.2-4.27.6-4.67.97-4.37 1.4-4.4 2.05-4.9 4-7.54 5.38-9.52" stroke="#5e5e5e" stroke-width="2" fill="none"/><path d="M1176.82-680.92l-.04.98h-2l.05-1.06z" stroke="#5e5e5e" stroke-width=".05" fill="#5e5e5e"/><path d="M1197.56-734.08l-2.58 14.78-8.2-4.33z" stroke="#5e5e5e" stroke-width="2" fill="#5e5e5e"/><path d="M1257.65-680.94l-.14-3.26m-.5-4.34l-.1-.86-.92-4.14-.44-1.37m-1.44-4.12l-1.27-3-1.53-2.9m-2.1-3.84l-3.35-5.62m-2.24-3.74l-1.66-2.8" stroke="#5e5e5e" stroke-width="2" fill="none"/><path d="M1258.7-679.94h-2l-.05-.98 2-.08z" stroke="#5e5e5e" stroke-width=".05" fill="#5e5e5e"/><path d="M1234.3-734.13l11.15 10.02-8.02 4.64z" stroke="#5e5e5e" stroke-width="2" fill="#5e5e5e"/><path d="M1330.57-770.94c0-3.3 2.7-6 6-6h88c3.3 0 6 2.7 6 6v28c0 3.32-2.7 6-6 6h-88c-3.3 0-6-2.68-6-6z" stroke="#5e5e5e" stroke-width="3" fill="#c3f7c8"/><use xlink:href="#a" transform="matrix(1,0,0,1,1342.5702123089966,-764.935525776183) translate(24.216049382716054 12.444444444444443)"/><path d="M1311.2-672.44c0-3.3 2.7-6 6-6h44.83c3.3 0 6 2.7 6 6v51.34c0 3.3-2.7 6-6 6h-44.83c-3.3 0-6-2.7-6-6z" stroke="#5e5e5e" stroke-width="3" fill="#fff7a1"/><use xlink:href="#g" transform="matrix(1,0,0,1,1316.1993883755179,-673.435525776183) translate(10.96913580246914 19.194444444444443)"/><use xlink:href="#d" transform="matrix(1,0,0,1,1316.1993883755179,-673.435525776183) translate(10.96913580246914 37.86111111111111)"/><path d="M1393.1-672.44c0-3.3 2.7-6 6-6h44.84c3.3 0 6 2.7 6 6v51.34c0 3.3-2.7 6-6 6h-44.83c-3.3 0-6-2.7-6-6z" stroke="#5e5e5e" stroke-width="3" fill="#fff7a1"/><use xlink:href="#c" transform="matrix(1,0,0,1,1398.114907549021,-673.435525776183) translate(10.96913580246914 19.194444444444443)"/><use xlink:href="#f" transform="matrix(1,0,0,1,1398.114907549021,-673.435525776183) translate(10.96913580246914 37.86111111111111)"/><path d="M1339.66-680.94l.18-4.27.6-4.67 1-4.37 1.38-4.4 2.06-4.9 4-7.54 5.38-9.52" stroke="#5e5e5e" stroke-width="2" fill="none"/><path d="M1340.66-680.92l-.05.98h-2l.06-1.06z" stroke="#5e5e5e" stroke-width=".05" fill="#5e5e5e"/><path d="M1361.4-734.08l-2.6 14.78-8.18-4.33z" stroke="#5e5e5e" stroke-width="2" fill="#5e5e5e"/><path d="M1421.5-680.94l-.15-3.26m-.5-4.34l-.12-.86-.92-4.14-.43-1.37m-1.44-4.12l-1.26-3-1.53-2.9m-2.1-3.84l-3.36-5.62m-2.23-3.74l-1.68-2.8" stroke="#5e5e5e" stroke-width="2" fill="none"/><path d="M1422.53-679.94h-2l-.05-.98 2-.08z" stroke="#5e5e5e" stroke-width=".05" fill="#5e5e5e"/><path d="M1398.13-734.13l11.15 10.02-8.02 4.64z" stroke="#5e5e5e" stroke-width="2" fill="#5e5e5e"/><path d="M1145.02-550.2c0-3.3 2.7-6 6-6h88c3.3 0 6 2.7 6 6v28c0 3.33-2.7 6-6 6h-88c-3.3 0-6-2.67-6-6z" stroke="#5e5e5e" stroke-width="3" fill="#fff"/><path d="M1175.78-1099.77V-1140" stroke="#5e5e5e" stroke-width="2" fill="none"/><path d="M1176.78-1098.77h-2v-1.02h2z" stroke="#5e5e5e" stroke-width=".05" fill="#5e5e5e"/><path d="M1175.78-1155.26l4.64 14.26h-9.27z" stroke="#5e5e5e" stroke-width="2" fill="#5e5e5e"/><path d="M972.55-997.54l202.27-57.95" stroke="#5e5e5e" stroke-width="2" fill="none"/><path d="M972.66-997.27h-4.2l-.03-.13 3.87-1.1zM1178.94-1055.63l-3.87 1.1-.36-1.24h4.2z" stroke="#5e5e5e" stroke-width=".05" fill="#5e5e5e"/><path d="M1175.2-1054.95L1136-998.1" stroke="#5e5e5e" stroke-width="2" fill="none"/><path d="M1176.02-1054.36l-1.64-1.13.2-.27h2.42zM1136.83-997.55l-.2.28h-2.42l.98-1.4z" stroke="#5e5e5e" stroke-width=".05" fill="#5e5e5e"/><path d="M1176.38-1054.96l203.6 275.72" stroke="#5e5e5e" stroke-width="2" fill="none"/><path d="M1177.2-1055.54l-1.6 1.2-1.06-1.43h2.48zM1381.8-778.44h-2.47l-.17-.23 1.6-1.18z" stroke="#5e5e5e" stroke-width=".05" fill="#5e5e5e"/><path d="M1012-831.44l.1 2.6.43 3.1.63 2.78.84 2.57 1.06 2.5 1.37 2.5 1.83 2.75 2.92 3.62 11 12.3 1.83 2.76 1.37 2.5 1.07 2.5.83 2.56.64 2.77.43 3.1.1 2.6" stroke="#5e5e5e" stroke-width="2" fill="none"/><path d="M1013-831.45l-2 .08-.05-1.07h2zM1039.48-776.94h-2v-.85h2z" stroke="#5e5e5e" stroke-width=".05" fill="#5e5e5e"/><path d="M1093.82-831.44l-.12 2.83-.44 3.25-.66 2.9-.88 2.68-1.1 2.6-1.45 2.64-2 3-3.94 4.84-7.5 8.86-2 3-1.44 2.65-1.12 2.6-.87 2.68-.65 2.9-.45 3.26-.12 2.83" stroke="#5e5e5e" stroke-width="2" fill="none"/><path d="M1094.82-831.37l-2-.08.04-1h2zM1070.04-777.8v.86h-2v-.85z" stroke="#5e5e5e" stroke-width=".05" fill="#5e5e5e"/><path d="M1145.02-392.35c0-3.32 2.7-6 6-6h88c3.3 0 6 2.68 6 6v28c0 3.3-2.7 6-6 6h-88c-3.3 0-6-2.7-6-6zM1145.02-471.27c0-3.3 2.7-6 6-6h88c3.3 0 6 2.7 6 6v28c0 3.3-2.7 6-6 6h-88c-3.3 0-6-2.7-6-6z" stroke="#5e5e5e" stroke-width="3" fill="#fff"/><use xlink:href="#h" transform="matrix(1,0,0,1,1157.0200144209455,-465.26885910951637) translate(31.51851851851852 12.444444444444443)"/><path d="M1186.9-546.42h18.92v23.07h-18.9z" fill="#fff" fill-opacity="0"/><path d="M1197.55-531.55l.32.25c-.66.77-1.77 2.4-3.02 2.4-.4 0-.93-.22-.93-.95 0-.27.02-.6 1.45-6.05.05-.16.16-.66.16-1 0-.43-.16-.8-.54-.8-.83 0-2.33 1.93-3.05 3.02-.77 1.16-1.4 2.32-1.52 2.77l-.73 2.76h-1.77l3.45-13.6c.02-.1.05-.17.05-.24 0-.3-.23-.5-.7-.5-.23 0-.48.03-.67.05l-.04-.32 3.6-.54-2.47 9.44h.1c1.2-1.3 2.83-4.3 4.9-4.3.95 0 1.3.8 1.3 1.6 0 .5-.15.98-.26 1.45l-1.33 5.2c-.02.12-.04.17-.04.24 0 .13.06.3.3.3.5 0 1.1-.78 1.42-1.2M1202.67-534.8c0 .4-.35.73-.77.73-.46 0-.76-.32-.76-.73 0-.4.3-.8.76-.8.42 0 .77.4.77.8m-.48 2l-1.48 5.84c-.02.1-.02.16-.02.22 0 .1.1.16.2.16.36 0 .46-.2 1.04-.82l.2.16c-.56.73-1.36 1.7-2.14 1.7-.45 0-.64-.32-.64-.75 0-.18 0-.5 1.26-5.4.02-.04.03-.15.03-.2 0-.27-.12-.35-.5-.35-.14 0-.33.03-.44.06l-.04-.25"/><path d="M1177.4-389.9h37.93v23.08h-37.93z" fill="#fff" fill-opacity="0"/><path d="M1188.04-375l.32.24c-.66.77-1.77 2.4-3.02 2.4-.4 0-.93-.23-.93-.95 0-.28.03-.6 1.46-6.07.05-.16.16-.65.16-1 0-.43-.16-.8-.54-.8-.82 0-2.32 1.94-3.04 3.03-.77 1.15-1.4 2.3-1.52 2.76l-.73 2.77h-1.78l3.45-13.62c.02-.1.05-.16.05-.22 0-.3-.23-.5-.7-.5-.23 0-.48.02-.66.04l-.05-.3 3.62-.56-2.48 9.44h.1c1.2-1.32 2.83-4.3 4.9-4.3.95 0 1.3.78 1.3 1.6 0 .5-.15.97-.26 1.45l-1.32 5.22c-.02.1-.04.15-.04.22 0 .14.06.32.3.32.5 0 1.1-.8 1.42-1.2M1193.16-378.28c0 .4-.35.74-.77.74-.48 0-.78-.33-.78-.74 0-.4.3-.8.77-.8.4 0 .76.4.76.8m-.48 2l-1.48 5.84v.22c0 .12.08.16.2.16.35 0 .44-.2 1.02-.8l.2.15c-.55.7-1.35 1.67-2.14 1.67-.45 0-.64-.3-.64-.74 0-.2 0-.5 1.27-5.42.02-.02.04-.13.04-.18 0-.27-.13-.35-.5-.35-.14 0-.34.03-.45.06l-.06-.26M1204.22-372.73h-4.18v4.18h-1.06v-4.18h-4.2v-1.06h4.2v-4.18h1.06v4.2h4.18v1.05M1211.34-369.2h-4.42v-.25c1.18-.06 1.52-.4 1.52-1.28v-7.2c0-.54-.14-.8-.48-.8-.16 0-.43.1-.72.2l-.44.17v-.23l2.87-1.45.15.05v9.57c0 .7.32.98 1.52.98v.24"/><path d="M1142.52-378.37l-2.98-.06m-3.97-.2l-2.84-.17-3.1-.32m-3.93-.5l-2.67-.4-3.2-.6m-3.87-.86l-1.78-.4-3.98-1.12m-3.77-1.22l-.46-.15-3.9-1.45-1.2-.5m-3.65-1.6l-2.66-1.24-2.67-1.4m-3.47-1.95l-1.05-.6-3.5-2.23-.5-.35m-3.24-2.27l-3.1-2.36-1.6-1.32m-3-2.6l-2.15-1.9-2.2-2.17m-2.77-2.83l-1.72-1.84-2.24-2.6m-2.52-3.07l-1.9-2.4-1.7-2.34m-2.3-3.24l-2.72-4.1-.53-.88m-2.07-3.4l-.78-1.3-2.14-3.9m-1.85-3.5l-2.65-5.33m-1.62-3.62l-1.93-4.33-.45-1.13m-1.46-3.7l-1.5-3.77-.6-1.8m-1.3-3.75l-1.46-4.15-.45-1.5m-1.14-3.8l-1.73-5.7m-1-3.84l-1.47-5.78m-.95-3.86l-1.23-5.82m-.82-3.88l-.8-3.82-.35-2.03m-.66-3.9l-1-5.87m-.67-3.92l-.15-.9-.63-5m-.5-3.93l-.74-5.9m-.48-3.95l-.07-.55-.45-5.38m-.33-3.97l-.5-5.93m-.33-3.96l-.26-3.22-.12-2.72m-.16-3.97l-.25-5.95m-.16-3.96l-.26-5.95m-.15-3.97l-.07-5.95m-.04-3.97l-.04-2.98" stroke="#5e5e5e" stroke-width="2" fill="none"/><path d="M1143.52-379.35v2l-1.05-.02.04-2zM1012.96-611.1l-2 .03v-1.03h2z" stroke="#5e5e5e" stroke-width=".05" fill="#5e5e5e"/><path d="M1142.52-536.22l-2.16-.07-2.93-.28-2.76-.46-2.6-.6-2.5-.76-2.37-.9-2.3-1.06-2.25-1.2-2.2-1.38-2.15-1.56-2.13-1.77-2.12-2-2.1-2.28-2.1-2.6-2.1-2.96-2.1-3.43-2.08-3.95-2.03-4.6-1.96-5.32-1.82-6.2-1.6-7.15-1.27-8.15-.8-9.05-.2-7.15" stroke="#5e5e5e" stroke-width="2" fill="none"/><path d="M1143.52-537.2v2.02l-1.06-.04.07-2zM1094.9-611.1l-2 .05-.03-1.05h2z" stroke="#5e5e5e" stroke-width=".05" fill="#5e5e5e"/><path d="M1195.02-479.77v-2.46m0-3.28v-4.94m0-3.28v-2.46" stroke="#5e5e5e" stroke-width="2" fill="none"/><path d="M1196.02-478.77h-2v-1.02h2z" stroke="#5e5e5e" stroke-width=".05" fill="#5e5e5e"/><path d="M1195.02-511.45l4.64 14.27h-9.28z" stroke="#5e5e5e" stroke-width="2" fill="#5e5e5e"/><path d="M1195.02-400.85v-3.4m0-4.52v-6.78m0-4.52v-6.78m0-4.53v-3.4" stroke="#5e5e5e" stroke-width="2" fill="none"/><path d="M1196.02-399.85h-2v-1.03h2zM1196.02-434.74h-2v-1.03h2z" stroke="#5e5e5e" stroke-width=".05" fill="#5e5e5e"/><path d="M1194.98-558.7l-.17-3.83-.52-3.97-.78-3.44-1.02-3.17-1.34-3.15-1.94-3.6-9.54-15.2-1.34-3.13-1.02-3.16-.78-3.44-.53-3.97-.18-3.85" stroke="#5e5e5e" stroke-width="2" fill="none"/><path d="M1196.02-557.7h-2l-.04-.97 2-.08zM1176.78-612.74h-2v-.86h2z" stroke="#5e5e5e" stroke-width=".05" fill="#5e5e5e"/><path d="M1247.52-377.3l2.7-.04.26-.02m3.93-.3l1.84-.18 2.5-.37 1.52-.3m3.84-.9l.77-.23 1.68-.54 1.54-.57 1.4-.6.16-.07m3.5-1.84l.06-.04 1.1-.68 1-.72.98-.73.92-.77.67-.6m2.7-2.87l.62-.8.7-.96.68-1.02.66-1.08.58-1.07m1.62-3.6l.15-.37.53-1.5.5-1.63.45-1.77.08-.38m.72-3.88l.28-2.27.23-2.72.03-.9m.1-3.93l-.02-1.87-.16-4.05m-.32-3.93l-.12-1.36-.57-4.5m-.6-3.9l-.98-5.84m-.8-3.86l-1.25-5.8m-.9-3.82l-1.5-5.73m-.98-3.8l-1.5-5.74m-1-3.8l-1.63-5.7m-1.1-3.8l-1.6-5.68m-1.08-3.8l-1.62-5.7m-1.08-3.78l-1.62-5.7m-1.07-3.78l-1.62-5.7m-1.07-3.8l-1.62-5.68m-1.06-3.8l-1.62-5.7m-1.08-3.78l-1.62-5.7m-1.07-3.78l-1.62-5.7m-.98-3.8l-1.24-5.8m-.82-3.85l-.9-4.23-.27-1.57m-.65-3.9l-1-5.82m-.5-3.9l-.74-5.83v-.04m-.33-3.93l-.33-3.93-.08-1.97m-.17-3.95l-.05-.88-.02-2.07" stroke="#5e5e5e" stroke-width="2" fill="none"/><path d="M1247.57-376.3l-1.05.03v-2l1-.02zM1247.53-612.6l-2 .03v-1.03h2z" stroke="#5e5e5e" stroke-width=".05" fill="#5e5e5e"/><path d="M1247.52-377.3l2.97-.05m3.94-.1l5.92-.4m3.93-.4l2.93-.3 2.94-.43m3.9-.6l5.8-1.1h.03m3.85-.9l2.18-.52 3.55-1m3.8-1.12l4.3-1.4 1.3-.5m3.72-1.36l.6-.23 4.87-2.06m3.6-1.65l2.5-1.2 2.8-1.45m3.48-1.87l4.35-2.52.76-.48m3.34-2.12l1.1-.7 3.8-2.64m3.2-2.33l3.28-2.5 1.38-1.16m3.05-2.52l.65-.53 3.8-3.42m2.86-2.7l3.38-3.3.83-.9m2.7-2.88l1.44-1.5 2.5-2.93m2.6-3l3.67-4.65m2.4-3.15l3.46-4.8m2.2-3.3l2.57-3.87.66-1.1m2.04-3.37l1.98-3.28 1-1.84m1.92-3.45l1.67-3.05 1.1-2.2m1.76-3.54l1.62-3.27.93-2.1m1.6-3.6l1.8-4 .56-1.44m1.46-3.68l2.1-5.27.07-.23m1.3-3.74l1.94-5.6m1.2-3.76l1.72-5.68m1.14-3.8l.06-.2 1.42-5.53m.98-3.83l.83-3.22.53-2.55m.82-3.86l1.23-5.8m.7-3.88l1-5.85m.65-3.9l.23-1.32.57-4.55m.5-3.92l.74-5.9m.33-3.92l.5-5.9m.33-3.95l.1-1.07.2-4.84m.16-3.96l.23-5.93m.06-3.94l.02-2.96" stroke="#5e5e5e" stroke-width="2" fill="none"/><path d="M1247.57-376.3l-1.05.03v-2l1-.02zM1422.52-612.57l-2-.02v-1h2z" stroke="#5e5e5e" stroke-width=".05" fill="#5e5e5e"/><path d="M1247.52-537.3l5.6-.15 6.52-.52 6.36-.86 6.16-1.17 5.92-1.46 5.64-1.7 5.33-1.95 5-2.15 4.7-2.3 4.36-2.44 4.05-2.55 3.74-2.65 3.43-2.73 3.17-2.8 2.9-2.87 2.65-2.92 2.43-2.97 2.2-3 2-3.08 1.8-3.12 1.62-3.18 1.44-3.25 1.26-3.33 1.08-3.4.9-3.5.75-3.6.55-3.73.37-3.86.16-4.03" stroke="#5e5e5e" stroke-width="2" fill="none"/><path d="M1247.57-536.3l-1.05.03v-2l1-.03zM1340.6-612.57h-2v-1.03h2z" stroke="#5e5e5e" stroke-width=".05" fill="#5e5e5e"/><path d="M1142.52-536.2l-10.38-.22-11-.7-10.57-1.1-10.17-1.5-9.76-1.86-9.34-2.2-8.94-2.5-8.54-2.76-8.15-3.03-7.78-3.27-7.42-3.5-7.07-3.68-6.72-3.9-6.42-4.06-6.1-4.24-5.8-4.4-5.55-4.6-5.25-4.73-5-4.9-4.76-5.06-4.52-5.24-4.3-5.4-4.04-5.6-3.84-5.76-.34-.55-3.7-6.14-3.65-6.7-3.62-7.4-3.6-8.15-3.54-9.08-3.5-10.17-3.4-11.5-3.32-13.15-3.17-15.2-2.94-17.9-2.6-21.54-2.15-26.95-1.34-36.67-.16-19.92" stroke="#5e5e5e" stroke-width="2" fill="none"/><path d="M1143.52-537.2v2h-1.05l.04-2zM931.04-831.42l-2 .02v-1.04h2z" stroke="#5e5e5e" stroke-width=".05" fill="#5e5e5e"/><path d="M1216.7-779.44l-.07-1.33-.3-2.13-.46-1.98-.64-1.9-.82-1.85-1.03-1.86-1.33-1.93-1.75-2.1-2.44-2.4-3.9-3.2-19.3-13.8-2.43-2.42-1.75-2.1-1.33-1.93-1.04-1.86-.8-1.86-.65-1.9-.47-1.97-.3-2.13-.05-1.34" stroke="#5e5e5e" stroke-width="2" fill="none"/><path d="M1217.74-778.44h-2l-.05-.98 2-.1zM1176.78-831.6h-2v-.84h2z" stroke="#5e5e5e" stroke-width=".05" fill="#5e5e5e"/><path d="M1116.37-331.27c0-3.3 2.68-6 6-6h148c3.3 0 6 2.7 6 6v28c0 3.3-2.7 6-6 6h-148c-3.32 0-6-2.7-6-6z" stroke="#000" stroke-opacity="0" stroke-width="3" fill="#fff" fill-opacity="0"/><g><use xlink:href="#k" transform="matrix(1,0,0,1,1121.367757034037,-332.26885910951637) translate(24.552469135802482 18.069444444444443)"/><use xlink:href="#l" transform="matrix(1,0,0,1,1121.367757034037,-332.26885910951637) translate(98.78703703703704 18.069444444444443)"/></g><path d="M340.28-566.7c0-3.32 2.7-6 6-6h148c3.32 0 6 2.68 6 6v28c0 3.3-2.68 6-6 6h-148c-3.3 0-6-2.7-6-6z" stroke="#000" stroke-opacity="0" stroke-width="3" fill="#fff" fill-opacity="0"/><g><use xlink:href="#m" transform="matrix(1,0,0,1,345.2836319595426,-567.709872097056) translate(34.53395061728396 18.069444444444443)"/><use xlink:href="#l" transform="matrix(1,0,0,1,345.2836319595426,-567.709872097056) translate(88.80555555555556 18.069444444444443)"/></g><defs><path fill="#333" d="M133-34C117-15 103 5 69 4 32 3 11-16 11-54c-1-60 55-63 116-61 1-26-3-47-28-47-18 1-26 9-28 27l-52-2c7-38 36-58 82-57s74 22 75 68l1 82c-1 14 12 18 25 15v27c-30 8-71 5-69-32zm-48 3c29 0 43-24 42-57-32 0-66-3-65 30 0 17 8 27 23 27" id="n"/><path fill="#333" d="M88-194c31-1 46 15 58 34l-1-101h50l1 261h-48c-2-10 0-23-3-31C134-8 116 4 84 4 32 4 16-41 15-95c0-56 19-97 73-99zm17 164c33 0 40-30 41-66 1-37-9-64-41-64s-38 30-39 65c0 43 13 65 39 65" id="o"/><g id="a"><use transform="matrix(0.04320987654320987,0,0,0.04320987654320987,0,0)" xlink:href="#n"/><use transform="matrix(0.04320987654320987,0,0,0.04320987654320987,8.641975308641973,0)" xlink:href="#o"/><use transform="matrix(0.04320987654320987,0,0,0.04320987654320987,18.104938271604933,0)" xlink:href="#o"/></g><path fill="#333" d="M190-63c-7 42-38 67-86 67-59 0-84-38-90-98-12-110 154-137 174-36l-49 2c-2-19-15-32-35-32-30 0-35 28-38 64-6 74 65 87 74 30" id="p"/><path fill="#333" d="M110-194c64 0 96 36 96 99 0 64-35 99-97 99-61 0-95-36-95-99 0-62 34-99 96-99zm-1 164c35 0 45-28 45-65 0-40-10-65-43-65-34 0-45 26-45 65 0 36 10 65 43 65" id="q"/><path fill="#333" d="M135-194c87-1 58 113 63 194h-50c-7-57 23-157-34-157-59 0-34 97-39 157H25l-1-190h47c2 12-1 28 3 38 12-26 28-41 61-42" id="r"/><path fill="#333" d="M115-3C79 11 28 4 28-45v-112H4v-33h27l15-45h31v45h36v33H77v99c-1 23 16 31 38 25v30" id="s"/><g id="b"><use transform="matrix(0.04320987654320987,0,0,0.04320987654320987,0,0)" xlink:href="#p"/><use transform="matrix(0.04320987654320987,0,0,0.04320987654320987,8.641975308641973,0)" xlink:href="#q"/><use transform="matrix(0.04320987654320987,0,0,0.04320987654320987,18.104938271604933,0)" xlink:href="#r"/><use transform="matrix(0.04320987654320987,0,0,0.04320987654320987,27.56790123456789,0)" xlink:href="#p"/><use transform="matrix(0.04320987654320987,0,0,0.04320987654320987,36.209876543209866,0)" xlink:href="#n"/><use transform="matrix(0.04320987654320987,0,0,0.04320987654320987,44.85185185185184,0)" xlink:href="#s"/></g><path fill="#333" d="M135-143c-3-34-86-38-87 0 15 53 115 12 119 90S17 21 10-45l28-5c4 36 97 45 98 0-10-56-113-15-118-90-4-57 82-63 122-42 12 7 21 19 24 35" id="t"/><path fill="#333" d="M100-194c63 0 86 42 84 106H49c0 40 14 67 53 68 26 1 43-12 49-29l28 8c-11 28-37 45-77 45C44 4 14-33 15-96c1-61 26-98 85-98zm52 81c6-60-76-77-97-28-3 7-6 17-6 28h103" id="u"/><path fill="#333" d="M115-194c55 1 70 41 70 98S169 2 115 4C84 4 66-9 55-30l1 105H24l-1-265h31l2 30c10-21 28-34 59-34zm-8 174c40 0 45-34 45-75s-6-73-45-74c-42 0-51 32-51 76 0 43 10 73 51 73" id="v"/><g id="c"><use transform="matrix(0.04320987654320987,0,0,0.04320987654320987,0,0)" xlink:href="#t"/><use transform="matrix(0.04320987654320987,0,0,0.04320987654320987,7.777777777777776,0)" xlink:href="#u"/><use transform="matrix(0.04320987654320987,0,0,0.04320987654320987,16.41975308641975,0)" xlink:href="#v"/></g><path fill="#333" d="M126-127c33 6 58 20 58 59 0 88-139 92-164 29-3-8-5-16-6-25l32-3c6 27 21 44 54 44 32 0 52-15 52-46 0-38-36-46-79-43v-28c39 1 72-4 72-42 0-27-17-43-46-43-28 0-47 15-49 41l-32-3c6-42 35-63 81-64 48-1 79 21 79 65 0 36-21 52-52 59" id="w"/><path fill="#333" d="M141 0L90-78 38 0H4l68-98-65-92h35l48 74 47-74h35l-64 92 68 98h-35" id="x"/><g id="d"><use transform="matrix(0.04320987654320987,0,0,0.04320987654320987,0,0)" xlink:href="#w"/><use transform="matrix(0.04320987654320987,0,0,0.04320987654320987,8.641975308641973,0)" xlink:href="#x"/><use transform="matrix(0.04320987654320987,0,0,0.04320987654320987,16.41975308641975,0)" xlink:href="#w"/></g><path fill="#333" d="M24-231v-30h32v30H24zM24 0v-190h32V0H24" id="y"/><path fill="#333" d="M85-194c31 0 48 13 60 33l-1-100h32l1 261h-30c-2-10 0-23-3-31C134-8 116 4 85 4 32 4 16-35 15-94c0-66 23-100 70-100zm9 24c-40 0-46 34-46 75 0 40 6 74 45 74 42 0 51-32 51-76 0-42-9-74-50-73" id="z"/><path fill="#333" d="M117-194c89-4 53 116 60 194h-32v-121c0-31-8-49-39-48C34-167 62-67 57 0H25l-1-190h30c1 10-1 24 2 32 11-22 29-35 61-36" id="A"/><path fill="#333" d="M59-47c-2 24 18 29 38 22v24C64 9 27 4 27-40v-127H5v-23h24l9-43h21v43h35v23H59v120" id="B"/><path fill="#333" d="M179-190L93 31C79 59 56 82 12 73V49c39 6 53-20 64-50L1-190h34L92-34l54-156h33" id="C"/><g id="e"><use transform="matrix(0.04320987654320987,0,0,0.04320987654320987,0,0)" xlink:href="#y"/><use transform="matrix(0.04320987654320987,0,0,0.04320987654320987,3.4135802469135794,0)" xlink:href="#z"/><use transform="matrix(0.04320987654320987,0,0,0.04320987654320987,12.055555555555554,0)" xlink:href="#u"/><use transform="matrix(0.04320987654320987,0,0,0.04320987654320987,20.697530864197525,0)" xlink:href="#A"/><use transform="matrix(0.04320987654320987,0,0,0.04320987654320987,29.3395061728395,0)" xlink:href="#B"/><use transform="matrix(0.04320987654320987,0,0,0.04320987654320987,33.66049382716049,0)" xlink:href="#y"/><use transform="matrix(0.04320987654320987,0,0,0.04320987654320987,37.07407407407407,0)" xlink:href="#B"/><use transform="matrix(0.04320987654320987,0,0,0.04320987654320987,41.395061728395056,0)" xlink:href="#C"/></g><path fill="#333" d="M54-142c48-35 137-8 131 61C196 18 31 33 14-55l32-4c7 23 22 37 52 37 35-1 51-22 54-58 4-55-73-65-99-34H22l8-134h141v27H59" id="D"/><g id="f"><use transform="matrix(0.04320987654320987,0,0,0.04320987654320987,0,0)" xlink:href="#D"/><use transform="matrix(0.04320987654320987,0,0,0.04320987654320987,8.641975308641973,0)" xlink:href="#x"/><use transform="matrix(0.04320987654320987,0,0,0.04320987654320987,16.41975308641975,0)" xlink:href="#D"/></g><path fill="#333" d="M141-36C126-15 110 5 73 4 37 3 15-17 15-53c-1-64 63-63 125-63 3-35-9-54-41-54-24 1-41 7-42 31l-33-3c5-37 33-52 76-52 45 0 72 20 72 64v82c-1 20 7 32 28 27v20c-31 9-61-2-59-35zM48-53c0 20 12 33 32 33 41-3 63-29 60-74-43 2-92-5-92 41" id="E"/><path fill="#333" d="M108 0H70L1-190h34L89-25l56-165h34" id="F"/><path fill="#333" d="M177-190C167-65 218 103 67 71c-23-6-38-20-44-43l32-5c15 47 100 32 89-28v-30C133-14 115 1 83 1 29 1 15-40 15-95c0-56 16-97 71-98 29-1 48 16 59 35 1-10 0-23 2-32h30zM94-22c36 0 50-32 50-73 0-42-14-75-50-75-39 0-46 34-46 75s6 73 46 73" id="G"/><g id="g"><use transform="matrix(0.04320987654320987,0,0,0.04320987654320987,0,0)" xlink:href="#E"/><use transform="matrix(0.04320987654320987,0,0,0.04320987654320987,8.641975308641973,0)" xlink:href="#F"/><use transform="matrix(0.04320987654320987,0,0,0.04320987654320987,16.41975308641975,0)" xlink:href="#G"/></g><path fill="#333" d="M24 0v-54h51V0H24" id="H"/><g id="h"><use transform="matrix(0.04320987654320987,0,0,0.04320987654320987,0,0)" xlink:href="#H"/><use transform="matrix(0.04320987654320987,0,0,0.04320987654320987,4.320987654320986,0)" xlink:href="#H"/><use transform="matrix(0.04320987654320987,0,0,0.04320987654320987,8.641975308641973,0)" xlink:href="#H"/></g><path fill="#333" d="M210-169c-67 3-38 105-44 169h-31v-121c0-29-5-50-35-48C34-165 62-65 56 0H25l-1-190h30c1 10-1 24 2 32 10-44 99-50 107 0 11-21 27-35 58-36 85-2 47 119 55 194h-31v-121c0-29-5-49-35-48" id="I"/><g id="i"><use transform="matrix(0.04320987654320987,0,0,0.04320987654320987,0,0)" xlink:href="#I"/><use transform="matrix(0.04320987654320987,0,0,0.04320987654320987,12.91975308641975,0)" xlink:href="#E"/><use transform="matrix(0.04320987654320987,0,0,0.04320987654320987,21.56172839506172,0)" xlink:href="#x"/></g><path fill="#333" d="M64 0c3-98 48-159 88-221H18v-27h164v26C143-157 98-101 97 0H64" id="J"/><g id="j"><use transform="matrix(0.04320987654320987,0,0,0.04320987654320987,0,0)" xlink:href="#J"/><use transform="matrix(0.04320987654320987,0,0,0.04320987654320987,8.641975308641973,0)" xlink:href="#x"/><use transform="matrix(0.04320987654320987,0,0,0.04320987654320987,16.41975308641975,0)" xlink:href="#J"/></g><path fill="#333" d="M233-177c-1 41-23 64-60 70L243 0h-38l-65-103H63V0H30v-248c88 3 205-21 203 71zM63-129c60-2 137 13 137-47 0-61-80-42-137-45v92" id="K"/><path fill="#333" d="M84 4C-5 8 30-112 23-190h32v120c0 31 7 50 39 49 72-2 45-101 50-169h31l1 190h-30c-1-10 1-25-2-33-11 22-28 36-60 37" id="L"/><path fill="#333" d="M96-169c-40 0-48 33-48 73s9 75 48 75c24 0 41-14 43-38l32 2c-6 37-31 61-74 61-59 0-76-41-82-99-10-93 101-131 147-64 4 7 5 14 7 22l-32 3c-4-21-16-35-41-35" id="M"/><path fill="#333" d="M100-194c62-1 85 37 85 99 1 63-27 99-86 99S16-35 15-95c0-66 28-99 85-99zM99-20c44 1 53-31 53-75 0-43-8-75-51-75s-53 32-53 75 10 74 51 75" id="N"/><g id="k"><use transform="matrix(0.04320987654320987,0,0,0.04320987654320987,0,0)" xlink:href="#K"/><use transform="matrix(0.04320987654320987,0,0,0.04320987654320987,11.191358024691356,0)" xlink:href="#u"/><use transform="matrix(0.04320987654320987,0,0,0.04320987654320987,19.83333333333333,0)" xlink:href="#z"/><use transform="matrix(0.04320987654320987,0,0,0.04320987654320987,28.475308641975303,0)" xlink:href="#L"/><use transform="matrix(0.04320987654320987,0,0,0.04320987654320987,37.11728395061728,0)" xlink:href="#M"/><use transform="matrix(0.04320987654320987,0,0,0.04320987654320987,44.89506172839505,0)" xlink:href="#B"/><use transform="matrix(0.04320987654320987,0,0,0.04320987654320987,49.21604938271605,0)" xlink:href="#y"/><use transform="matrix(0.04320987654320987,0,0,0.04320987654320987,52.629629629629626,0)" xlink:href="#N"/><use transform="matrix(0.04320987654320987,0,0,0.04320987654320987,61.2716049382716,0)" xlink:href="#A"/></g><path fill="#333" d="M212-179c-10-28-35-45-73-45-59 0-87 40-87 99 0 60 29 101 89 101 43 0 62-24 78-52l27 14C228-24 195 4 139 4 59 4 22-46 18-125c-6-104 99-153 187-111 19 9 31 26 39 46" id="O"/><path fill="#333" d="M24 0v-261h32V0H24" id="P"/><g id="l"><use transform="matrix(0.04320987654320987,0,0,0.04320987654320987,0,0)" xlink:href="#O"/><use transform="matrix(0.04320987654320987,0,0,0.04320987654320987,11.191358024691356,0)" xlink:href="#u"/><use transform="matrix(0.04320987654320987,0,0,0.04320987654320987,19.83333333333333,0)" xlink:href="#P"/><use transform="matrix(0.04320987654320987,0,0,0.04320987654320987,23.246913580246908,0)" xlink:href="#P"/></g><path fill="#333" d="M190 0L58-211 59 0H30v-248h39L202-35l-2-213h31V0h-41" id="Q"/><path fill="#333" d="M114-163C36-179 61-72 57 0H25l-1-190h30c1 12-1 29 2 39 6-27 23-49 58-41v29" id="R"/><g id="m"><use transform="matrix(0.04320987654320987,0,0,0.04320987654320987,0,0)" xlink:href="#Q"/><use transform="matrix(0.04320987654320987,0,0,0.04320987654320987,11.191358024691356,0)" xlink:href="#N"/><use transform="matrix(0.04320987654320987,0,0,0.04320987654320987,19.83333333333333,0)" xlink:href="#R"/><use transform="matrix(0.04320987654320987,0,0,0.04320987654320987,24.975308641975303,0)" xlink:href="#I"/><use transform="matrix(0.04320987654320987,0,0,0.04320987654320987,37.89506172839505,0)" xlink:href="#E"/><use transform="matrix(0.04320987654320987,0,0,0.04320987654320987,46.537037037037024,0)" xlink:href="#P"/></g></defs></g></svg>