<svg xmlns="http://www.w3.org/2000/svg" xmlns:xlink="http://www.w3.org/1999/xlink" xmlns:lucid="lucid" width="294" height="2397"><g transform="translate(-189 1023)" lucid:page-tab-id="0_0"><path d="M266-680.6c0-3.3 2.7-6 6-6h128c3.33 0 6 2.7 6 6v66.5c0 3.33-2.67 6-6 6H272c-3.3 0-6-2.67-6-6z" stroke="#5e5e5e" stroke-width="3" fill="#fff3d9"/><use xlink:href="#a" transform="matrix(1,0,0,1,278.01440927975796,-674.5879796049021) translate(13.969135802469147 12.444444444444443)"/><use xlink:href="#b" transform="matrix(1,0,0,1,278.01440927975796,-674.5879796049021) translate(44.21604938271605 12.444444444444443)"/><use xlink:href="#c" transform="matrix(1,0,0,1,278.01440927975796,-674.5879796049021) translate(84.74691358024691 12.444444444444443)"/><use xlink:href="#d" transform="matrix(1,0,0,1,278.01440927975796,-674.5879796049021) translate(13.969135802469147 31.111111111111107)"/><use xlink:href="#e" transform="matrix(1,0,0,1,278.01440927975796,-674.5879796049021) translate(44.21604938271605 31.111111111111107)"/><use xlink:href="#c" transform="matrix(1,0,0,1,278.01440927975796,-674.5879796049021) translate(84.74691358024691 31.111111111111107)"/><use xlink:href="#f" transform="matrix(1,0,0,1,278.01440927975796,-674.5879796049021) translate(9.648148148148167 49.77777777777777)"/><use xlink:href="#e" transform="matrix(1,0,0,1,278.01440927975796,-674.5879796049021) translate(39.89506172839507 49.77777777777777)"/><use xlink:href="#g" transform="matrix(1,0,0,1,278.01440927975796,-674.5879796049021) translate(80.42592592592592 49.77777777777777)"/><path d="M269.5-562.1c0-3.3 2.68-6 6-6h128c3.3 0 6 2.7 6 6v66.5c0 3.33-2.7 6-6 6h-128c-3.32 0-6-2.67-6-6z" stroke="#5e5e5e" stroke-width="3" fill="#fff3d9"/><use xlink:href="#a" transform="matrix(1,0,0,1,281.4957935511684,-556.0879796049021) translate(13.969135802469147 12.444444444444443)"/><use xlink:href="#b" transform="matrix(1,0,0,1,281.4957935511684,-556.0879796049021) translate(44.21604938271605 12.444444444444443)"/><use xlink:href="#c" transform="matrix(1,0,0,1,281.4957935511684,-556.0879796049021) translate(84.74691358024691 12.444444444444443)"/><use xlink:href="#d" transform="matrix(1,0,0,1,281.4957935511684,-556.0879796049021) translate(13.969135802469147 31.111111111111107)"/><use xlink:href="#e" transform="matrix(1,0,0,1,281.4957935511684,-556.0879796049021) translate(44.21604938271605 31.111111111111107)"/><use xlink:href="#c" transform="matrix(1,0,0,1,281.4957935511684,-556.0879796049021) translate(84.74691358024691 31.111111111111107)"/><use xlink:href="#f" transform="matrix(1,0,0,1,281.4957935511684,-556.0879796049021) translate(9.648148148148167 49.77777777777777)"/><use xlink:href="#e" transform="matrix(1,0,0,1,281.4957935511684,-556.0879796049021) translate(39.89506172839507 49.77777777777777)"/><use xlink:href="#g" transform="matrix(1,0,0,1,281.4957935511684,-556.0879796049021) translate(80.42592592592592 49.77777777777777)"/><path d="M269.5-443.6c0-3.3 2.68-6 6-6h128c3.3 0 6 2.7 6 6v66.5c0 3.33-2.7 6-6 6h-128c-3.32 0-6-2.67-6-6z" stroke="#5e5e5e" stroke-width="3" fill="#fff3d9"/><use xlink:href="#a" transform="matrix(1,0,0,1,281.4957935511684,-437.5879796049021) translate(13.969135802469147 12.444444444444443)"/><use xlink:href="#b" transform="matrix(1,0,0,1,281.4957935511684,-437.5879796049021) translate(44.21604938271605 12.444444444444443)"/><use xlink:href="#c" transform="matrix(1,0,0,1,281.4957935511684,-437.5879796049021) translate(84.74691358024691 12.444444444444443)"/><use xlink:href="#d" transform="matrix(1,0,0,1,281.4957935511684,-437.5879796049021) translate(13.969135802469147 31.111111111111107)"/><use xlink:href="#e" transform="matrix(1,0,0,1,281.4957935511684,-437.5879796049021) translate(44.21604938271605 31.111111111111107)"/><use xlink:href="#c" transform="matrix(1,0,0,1,281.4957935511684,-437.5879796049021) translate(84.74691358024691 31.111111111111107)"/><use xlink:href="#f" transform="matrix(1,0,0,1,281.4957935511684,-437.5879796049021) translate(9.648148148148167 49.77777777777777)"/><use xlink:href="#e" transform="matrix(1,0,0,1,281.4957935511684,-437.5879796049021) translate(39.89506172839507 49.77777777777777)"/><use xlink:href="#g" transform="matrix(1,0,0,1,281.4957935511684,-437.5879796049021) translate(80.42592592592592 49.77777777777777)"/><path d="M266-325.1c0-3.3 2.7-6 6-6h128c3.33 0 6 2.7 6 6v66.5c0 3.33-2.67 6-6 6H272c-3.3 0-6-2.67-6-6z" stroke="#5e5e5e" stroke-width="3" fill="#dedeff"/><use xlink:href="#a" transform="matrix(1,0,0,1,278.01440927975796,-319.0879796049021) translate(3.1666666666666856 12.444444444444443)"/><use xlink:href="#b" transform="matrix(1,0,0,1,278.01440927975796,-319.0879796049021) translate(33.41358024691359 12.444444444444443)"/><use xlink:href="#h" transform="matrix(1,0,0,1,278.01440927975796,-319.0879796049021) translate(73.94444444444444 12.444444444444443)"/><use xlink:href="#d" transform="matrix(1,0,0,1,278.01440927975796,-319.0879796049021) translate(9.648148148148167 31.111111111111107)"/><use xlink:href="#e" transform="matrix(1,0,0,1,278.01440927975796,-319.0879796049021) translate(39.89506172839507 31.111111111111107)"/><use xlink:href="#i" transform="matrix(1,0,0,1,278.01440927975796,-319.0879796049021) translate(80.42592592592592 31.111111111111107)"/><use xlink:href="#f" transform="matrix(1,0,0,1,278.01440927975796,-319.0879796049021) translate(9.648148148148167 49.77777777777777)"/><use xlink:href="#e" transform="matrix(1,0,0,1,278.01440927975796,-319.0879796049021) translate(39.89506172839507 49.77777777777777)"/><use xlink:href="#j" transform="matrix(1,0,0,1,278.01440927975796,-319.0879796049021) translate(80.42592592592592 49.77777777777777)"/><path d="M266-199.1c0-3.3 2.7-6 6-6h128c3.33 0 6 2.7 6 6v66.5c0 3.33-2.67 6-6 6H272c-3.3 0-6-2.67-6-6z" stroke="#5e5e5e" stroke-width="3" fill="#dedeff"/><use xlink:href="#a" transform="matrix(1,0,0,1,278.01440927975796,-193.0879796049021) translate(9.648148148148167 12.444444444444443)"/><use xlink:href="#b" transform="matrix(1,0,0,1,278.01440927975796,-193.0879796049021) translate(39.89506172839507 12.444444444444443)"/><use xlink:href="#i" transform="matrix(1,0,0,1,278.01440927975796,-193.0879796049021) translate(80.42592592592592 12.444444444444443)"/><use xlink:href="#d" transform="matrix(1,0,0,1,278.01440927975796,-193.0879796049021) translate(9.648148148148167 31.111111111111107)"/><use xlink:href="#e" transform="matrix(1,0,0,1,278.01440927975796,-193.0879796049021) translate(39.89506172839507 31.111111111111107)"/><use xlink:href="#i" transform="matrix(1,0,0,1,278.01440927975796,-193.0879796049021) translate(80.42592592592592 31.111111111111107)"/><use xlink:href="#f" transform="matrix(1,0,0,1,278.01440927975796,-193.0879796049021) translate(9.648148148148167 49.77777777777777)"/><use xlink:href="#e" transform="matrix(1,0,0,1,278.01440927975796,-193.0879796049021) translate(39.89506172839507 49.77777777777777)"/><use xlink:href="#j" transform="matrix(1,0,0,1,278.01440927975796,-193.0879796049021) translate(80.42592592592592 49.77777777777777)"/><path d="M266-79.6c0-3.3 2.7-6 6-6h128c3.33 0 6 2.7 6 6v66.5c0 3.33-2.67 6-6 6H272c-3.3 0-6-2.67-6-6z" stroke="#5e5e5e" stroke-width="3" fill="#dedeff"/><use xlink:href="#a" transform="matrix(1,0,0,1,278.01440927975796,-73.58535493298632) translate(9.648148148148167 12.444444444444443)"/><use xlink:href="#b" transform="matrix(1,0,0,1,278.01440927975796,-73.58535493298632) translate(39.89506172839507 12.444444444444443)"/><use xlink:href="#i" transform="matrix(1,0,0,1,278.01440927975796,-73.58535493298632) translate(80.42592592592592 12.444444444444443)"/><use xlink:href="#d" transform="matrix(1,0,0,1,278.01440927975796,-73.58535493298632) translate(9.648148148148167 31.111111111111107)"/><use xlink:href="#e" transform="matrix(1,0,0,1,278.01440927975796,-73.58535493298632) translate(39.89506172839507 31.111111111111107)"/><use xlink:href="#i" transform="matrix(1,0,0,1,278.01440927975796,-73.58535493298632) translate(80.42592592592592 31.111111111111107)"/><use xlink:href="#f" transform="matrix(1,0,0,1,278.01440927975796,-73.58535493298632) translate(9.648148148148167 49.77777777777777)"/><use xlink:href="#e" transform="matrix(1,0,0,1,278.01440927975796,-73.58535493298632) translate(39.89506172839507 49.77777777777777)"/><use xlink:href="#j" transform="matrix(1,0,0,1,278.01440927975796,-73.58535493298632) translate(80.42592592592592 49.77777777777777)"/><path d="M266 39.92c0-3.32 2.7-6 6-6h128c3.33 0 6 2.68 6 6v66.5c0 3.3-2.67 6-6 6H272c-3.3 0-6-2.7-6-6z" stroke="#5e5e5e" stroke-width="3" fill="#dedeff"/><use xlink:href="#a" transform="matrix(1,0,0,1,278.01440927975796,45.91726973892946) translate(9.648148148148167 12.444444444444443)"/><use xlink:href="#b" transform="matrix(1,0,0,1,278.01440927975796,45.91726973892946) translate(39.89506172839507 12.444444444444443)"/><use xlink:href="#i" transform="matrix(1,0,0,1,278.01440927975796,45.91726973892946) translate(80.42592592592592 12.444444444444443)"/><use xlink:href="#d" transform="matrix(1,0,0,1,278.01440927975796,45.91726973892946) translate(9.648148148148167 31.111111111111107)"/><use xlink:href="#e" transform="matrix(1,0,0,1,278.01440927975796,45.91726973892946) translate(39.89506172839507 31.111111111111107)"/><use xlink:href="#i" transform="matrix(1,0,0,1,278.01440927975796,45.91726973892946) translate(80.42592592592592 31.111111111111107)"/><use xlink:href="#f" transform="matrix(1,0,0,1,278.01440927975796,45.91726973892946) translate(9.648148148148167 49.77777777777777)"/><use xlink:href="#e" transform="matrix(1,0,0,1,278.01440927975796,45.91726973892946) translate(39.89506172839507 49.77777777777777)"/><use xlink:href="#j" transform="matrix(1,0,0,1,278.01440927975796,45.91726973892946) translate(80.42592592592592 49.77777777777777)"/><path d="M266 161.9c0-3.3 2.7-6 6-6h128c3.33 0 6 2.7 6 6v66.5c0 3.33-2.67 6-6 6H272c-3.3 0-6-2.67-6-6z" stroke="#5e5e5e" stroke-width="3" fill="#e3fae3"/><use xlink:href="#a" transform="matrix(1,0,0,1,278.01440927975796,167.91464506701368) translate(3.1666666666666856 12.444444444444443)"/><use xlink:href="#b" transform="matrix(1,0,0,1,278.01440927975796,167.91464506701368) translate(33.41358024691359 12.444444444444443)"/><use xlink:href="#k" transform="matrix(1,0,0,1,278.01440927975796,167.91464506701368) translate(73.94444444444444 12.444444444444443)"/><use xlink:href="#d" transform="matrix(1,0,0,1,278.01440927975796,167.91464506701368) translate(9.648148148148167 31.111111111111107)"/><use xlink:href="#e" transform="matrix(1,0,0,1,278.01440927975796,167.91464506701368) translate(39.89506172839507 31.111111111111107)"/><use xlink:href="#l" transform="matrix(1,0,0,1,278.01440927975796,167.91464506701368) translate(80.42592592592592 31.111111111111107)"/><use xlink:href="#f" transform="matrix(1,0,0,1,278.01440927975796,167.91464506701368) translate(5.327160493827179 49.77777777777777)"/><use xlink:href="#e" transform="matrix(1,0,0,1,278.01440927975796,167.91464506701368) translate(35.57407407407408 49.77777777777777)"/><use xlink:href="#m" transform="matrix(1,0,0,1,278.01440927975796,167.91464506701368) translate(76.10493827160494 49.77777777777777)"/><path d="M266 283.9c0-3.3 2.7-6 6-6h128c3.33 0 6 2.7 6 6v66.5c0 3.33-2.67 6-6 6H272c-3.3 0-6-2.67-6-6z" stroke="#5e5e5e" stroke-width="3" fill="#e3fae3"/><use xlink:href="#a" transform="matrix(1,0,0,1,278.01440927975796,289.9120203950979) translate(9.648148148148167 12.444444444444443)"/><use xlink:href="#b" transform="matrix(1,0,0,1,278.01440927975796,289.9120203950979) translate(39.89506172839507 12.444444444444443)"/><use xlink:href="#l" transform="matrix(1,0,0,1,278.01440927975796,289.9120203950979) translate(80.42592592592592 12.444444444444443)"/><use xlink:href="#d" transform="matrix(1,0,0,1,278.01440927975796,289.9120203950979) translate(9.648148148148167 31.111111111111107)"/><use xlink:href="#e" transform="matrix(1,0,0,1,278.01440927975796,289.9120203950979) translate(39.89506172839507 31.111111111111107)"/><use xlink:href="#l" transform="matrix(1,0,0,1,278.01440927975796,289.9120203950979) translate(80.42592592592592 31.111111111111107)"/><use xlink:href="#f" transform="matrix(1,0,0,1,278.01440927975796,289.9120203950979) translate(5.327160493827179 49.77777777777777)"/><use xlink:href="#e" transform="matrix(1,0,0,1,278.01440927975796,289.9120203950979) translate(35.57407407407408 49.77777777777777)"/><use xlink:href="#m" transform="matrix(1,0,0,1,278.01440927975796,289.9120203950979) translate(76.10493827160494 49.77777777777777)"/><path d="M266 400.1c0-3.3 2.7-6 6-6h128c3.33 0 6 2.7 6 6v66.5c0 3.3-2.67 6-6 6H272c-3.3 0-6-2.7-6-6z" stroke="#5e5e5e" stroke-width="3" fill="#e3fae3"/><use xlink:href="#a" transform="matrix(1,0,0,1,278.01440927975796,406.1008937515094) translate(9.648148148148167 12.444444444444443)"/><use xlink:href="#b" transform="matrix(1,0,0,1,278.01440927975796,406.1008937515094) translate(39.89506172839507 12.444444444444443)"/><use xlink:href="#l" transform="matrix(1,0,0,1,278.01440927975796,406.1008937515094) translate(80.42592592592592 12.444444444444443)"/><use xlink:href="#d" transform="matrix(1,0,0,1,278.01440927975796,406.1008937515094) translate(9.648148148148167 31.111111111111107)"/><use xlink:href="#e" transform="matrix(1,0,0,1,278.01440927975796,406.1008937515094) translate(39.89506172839507 31.111111111111107)"/><use xlink:href="#l" transform="matrix(1,0,0,1,278.01440927975796,406.1008937515094) translate(80.42592592592592 31.111111111111107)"/><use xlink:href="#f" transform="matrix(1,0,0,1,278.01440927975796,406.1008937515094) translate(5.327160493827179 49.77777777777777)"/><use xlink:href="#e" transform="matrix(1,0,0,1,278.01440927975796,406.1008937515094) translate(35.57407407407408 49.77777777777777)"/><use xlink:href="#m" transform="matrix(1,0,0,1,278.01440927975796,406.1008937515094) translate(76.10493827160494 49.77777777777777)"/><path d="M266-840.6c0-3.3 2.7-6 6-6h128c3.33 0 6 2.7 6 6v28c0 3.33-2.67 6-6 6H272c-3.3 0-6-2.67-6-6z" stroke="#5e5e5e" stroke-width="3" fill="#e3fae3"/><use xlink:href="#n" transform="matrix(1,0,0,1,278.01440927975796,-834.5879796049021) translate(5.327160493827172 12.444444444444443)"/><use xlink:href="#b" transform="matrix(1,0,0,1,278.01440927975796,-834.5879796049021) translate(35.574074074074076 12.444444444444443)"/><use xlink:href="#o" transform="matrix(1,0,0,1,278.01440927975796,-834.5879796049021) translate(76.10493827160494 12.444444444444443)"/><use xlink:href="#p" transform="matrix(1,0,0,1,278.01440927975796,-834.5879796049021) translate(97.70987654320987 12.444444444444443)"/><path d="M266-760.6c0-3.3 2.7-6 6-6h128c3.33 0 6 2.7 6 6v28c0 3.33-2.67 6-6 6H272c-3.3 0-6-2.67-6-6z" stroke="#5e5e5e" stroke-width="3" fill="#ffdda6"/><use xlink:href="#q" transform="matrix(1,0,0,1,278.01440927975796,-754.5879796049021) translate(0.16358024691359674 12.444444444444443)"/><use xlink:href="#r" transform="matrix(1,0,0,1,278.01440927975796,-754.5879796049021) translate(30.4104938271605 12.444444444444443)"/><use xlink:href="#s" transform="matrix(1,0,0,1,278.01440927975796,-754.5879796049021) translate(65.8425925925926 12.444444444444443)"/><use xlink:href="#p" transform="matrix(1,0,0,1,278.01440927975796,-754.5879796049021) translate(102.87345679012344 12.444444444444443)"/><path d="M266 520.9c0-3.3 2.7-6 6-6h128c3.33 0 6 2.7 6 6v66.5c0 3.33-2.67 6-6 6H272c-3.3 0-6-2.67-6-6z" stroke="#5e5e5e" stroke-width="3" fill="#e3fae3"/><use xlink:href="#a" transform="matrix(1,0,0,1,278.01440927975796,526.9120203950979) translate(9.648148148148167 12.444444444444443)"/><use xlink:href="#b" transform="matrix(1,0,0,1,278.01440927975796,526.9120203950979) translate(39.89506172839507 12.444444444444443)"/><use xlink:href="#l" transform="matrix(1,0,0,1,278.01440927975796,526.9120203950979) translate(80.42592592592592 12.444444444444443)"/><use xlink:href="#d" transform="matrix(1,0,0,1,278.01440927975796,526.9120203950979) translate(9.648148148148167 31.111111111111107)"/><use xlink:href="#e" transform="matrix(1,0,0,1,278.01440927975796,526.9120203950979) translate(39.89506172839507 31.111111111111107)"/><use xlink:href="#l" transform="matrix(1,0,0,1,278.01440927975796,526.9120203950979) translate(80.42592592592592 31.111111111111107)"/><use xlink:href="#f" transform="matrix(1,0,0,1,278.01440927975796,526.9120203950979) translate(5.327160493827179 49.77777777777777)"/><use xlink:href="#e" transform="matrix(1,0,0,1,278.01440927975796,526.9120203950979) translate(35.57407407407408 49.77777777777777)"/><use xlink:href="#m" transform="matrix(1,0,0,1,278.01440927975796,526.9120203950979) translate(76.10493827160494 49.77777777777777)"/><path d="M266 639.97c0-3.3 2.7-6 6-6h128c3.33 0 6 2.7 6 6v66.5c0 3.3-2.67 6-6 6H272c-3.3 0-6-2.7-6-6z" stroke="#5e5e5e" stroke-width="3" fill="#e3fae3"/><use xlink:href="#a" transform="matrix(1,0,0,1,278.01440927975796,645.9691107074796) translate(9.648148148148167 12.444444444444443)"/><use xlink:href="#b" transform="matrix(1,0,0,1,278.01440927975796,645.9691107074796) translate(39.89506172839507 12.444444444444443)"/><use xlink:href="#l" transform="matrix(1,0,0,1,278.01440927975796,645.9691107074796) translate(80.42592592592592 12.444444444444443)"/><use xlink:href="#d" transform="matrix(1,0,0,1,278.01440927975796,645.9691107074796) translate(9.648148148148167 31.111111111111107)"/><use xlink:href="#e" transform="matrix(1,0,0,1,278.01440927975796,645.9691107074796) translate(39.89506172839507 31.111111111111107)"/><use xlink:href="#l" transform="matrix(1,0,0,1,278.01440927975796,645.9691107074796) translate(80.42592592592592 31.111111111111107)"/><use xlink:href="#f" transform="matrix(1,0,0,1,278.01440927975796,645.9691107074796) translate(5.327160493827179 49.77777777777777)"/><use xlink:href="#e" transform="matrix(1,0,0,1,278.01440927975796,645.9691107074796) translate(35.57407407407408 49.77777777777777)"/><use xlink:href="#m" transform="matrix(1,0,0,1,278.01440927975796,645.9691107074796) translate(76.10493827160494 49.77777777777777)"/><path d="M266 759.03c0-3.32 2.7-6 6-6h128c3.33 0 6 2.68 6 6v66.5c0 3.3-2.67 6-6 6H272c-3.3 0-6-2.7-6-6z" stroke="#5e5e5e" stroke-width="3" fill="#e3fae3"/><use xlink:href="#a" transform="matrix(1,0,0,1,278.01440927975796,765.0262010198612) translate(9.648148148148167 12.444444444444443)"/><use xlink:href="#b" transform="matrix(1,0,0,1,278.01440927975796,765.0262010198612) translate(39.89506172839507 12.444444444444443)"/><use xlink:href="#l" transform="matrix(1,0,0,1,278.01440927975796,765.0262010198612) translate(80.42592592592592 12.444444444444443)"/><use xlink:href="#d" transform="matrix(1,0,0,1,278.01440927975796,765.0262010198612) translate(9.648148148148167 31.111111111111107)"/><use xlink:href="#e" transform="matrix(1,0,0,1,278.01440927975796,765.0262010198612) translate(39.89506172839507 31.111111111111107)"/><use xlink:href="#l" transform="matrix(1,0,0,1,278.01440927975796,765.0262010198612) translate(80.42592592592592 31.111111111111107)"/><use xlink:href="#f" transform="matrix(1,0,0,1,278.01440927975796,765.0262010198612) translate(5.327160493827179 49.77777777777777)"/><use xlink:href="#e" transform="matrix(1,0,0,1,278.01440927975796,765.0262010198612) translate(35.57407407407408 49.77777777777777)"/><use xlink:href="#m" transform="matrix(1,0,0,1,278.01440927975796,765.0262010198612) translate(76.10493827160494 49.77777777777777)"/><path d="M266 878.08c0-3.3 2.7-6 6-6h128c3.33 0 6 2.7 6 6v66.5c0 3.32-2.67 6-6 6H272c-3.3 0-6-2.68-6-6z" stroke="#5e5e5e" stroke-width="3" fill="#fff7a1"/><use xlink:href="#a" transform="matrix(1,0,0,1,278.01440927975796,884.0832913322429) translate(3.1666666666666856 12.444444444444443)"/><use xlink:href="#b" transform="matrix(1,0,0,1,278.01440927975796,884.0832913322429) translate(33.41358024691359 12.444444444444443)"/><use xlink:href="#t" transform="matrix(1,0,0,1,278.01440927975796,884.0832913322429) translate(73.94444444444444 12.444444444444443)"/><use xlink:href="#d" transform="matrix(1,0,0,1,278.01440927975796,884.0832913322429) translate(9.648148148148167 31.111111111111107)"/><use xlink:href="#e" transform="matrix(1,0,0,1,278.01440927975796,884.0832913322429) translate(39.89506172839507 31.111111111111107)"/><use xlink:href="#u" transform="matrix(1,0,0,1,278.01440927975796,884.0832913322429) translate(80.42592592592592 31.111111111111107)"/><use xlink:href="#f" transform="matrix(1,0,0,1,278.01440927975796,884.0832913322429) translate(5.327160493827179 49.77777777777777)"/><use xlink:href="#e" transform="matrix(1,0,0,1,278.01440927975796,884.0832913322429) translate(35.57407407407408 49.77777777777777)"/><use xlink:href="#v" transform="matrix(1,0,0,1,278.01440927975796,884.0832913322429) translate(76.10493827160494 49.77777777777777)"/><path d="M266 1002.3c0-3.33 2.7-6 6-6h128c3.33 0 6 2.67 6 6v66.5c0 3.3-2.67 6-6 6H272c-3.3 0-6-2.7-6-6z" stroke="#5e5e5e" stroke-width="3" fill="#fff7a1"/><use xlink:href="#a" transform="matrix(1,0,0,1,278.01440927975796,1008.2870203950979) translate(9.648148148148167 12.444444444444443)"/><use xlink:href="#b" transform="matrix(1,0,0,1,278.01440927975796,1008.2870203950979) translate(39.89506172839507 12.444444444444443)"/><use xlink:href="#u" transform="matrix(1,0,0,1,278.01440927975796,1008.2870203950979) translate(80.42592592592592 12.444444444444443)"/><use xlink:href="#d" transform="matrix(1,0,0,1,278.01440927975796,1008.2870203950979) translate(9.648148148148167 31.111111111111107)"/><use xlink:href="#e" transform="matrix(1,0,0,1,278.01440927975796,1008.2870203950979) translate(39.89506172839507 31.111111111111107)"/><use xlink:href="#u" transform="matrix(1,0,0,1,278.01440927975796,1008.2870203950979) translate(80.42592592592592 31.111111111111107)"/><use xlink:href="#f" transform="matrix(1,0,0,1,278.01440927975796,1008.2870203950979) translate(5.327160493827179 49.77777777777777)"/><use xlink:href="#e" transform="matrix(1,0,0,1,278.01440927975796,1008.2870203950979) translate(35.57407407407408 49.77777777777777)"/><use xlink:href="#v" transform="matrix(1,0,0,1,278.01440927975796,1008.2870203950979) translate(76.10493827160494 49.77777777777777)"/><path d="M266 1119.4c0-3.3 2.7-6 6-6h128c3.33 0 6 2.7 6 6v66.5c0 3.33-2.67 6-6 6H272c-3.3 0-6-2.67-6-6z" stroke="#5e5e5e" stroke-width="3" fill="#fff7a1"/><use xlink:href="#a" transform="matrix(1,0,0,1,278.01440927975796,1125.412020395098) translate(9.648148148148167 12.444444444444443)"/><use xlink:href="#b" transform="matrix(1,0,0,1,278.01440927975796,1125.412020395098) translate(39.89506172839507 12.444444444444443)"/><use xlink:href="#u" transform="matrix(1,0,0,1,278.01440927975796,1125.412020395098) translate(80.42592592592592 12.444444444444443)"/><use xlink:href="#d" transform="matrix(1,0,0,1,278.01440927975796,1125.412020395098) translate(9.648148148148167 31.111111111111107)"/><use xlink:href="#e" transform="matrix(1,0,0,1,278.01440927975796,1125.412020395098) translate(39.89506172839507 31.111111111111107)"/><use xlink:href="#u" transform="matrix(1,0,0,1,278.01440927975796,1125.412020395098) translate(80.42592592592592 31.111111111111107)"/><use xlink:href="#f" transform="matrix(1,0,0,1,278.01440927975796,1125.412020395098) translate(5.327160493827179 49.77777777777777)"/><use xlink:href="#e" transform="matrix(1,0,0,1,278.01440927975796,1125.412020395098) translate(35.57407407407408 49.77777777777777)"/><use xlink:href="#v" transform="matrix(1,0,0,1,278.01440927975796,1125.412020395098) translate(76.10493827160494 49.77777777777777)"/><path d="M266 1236.54c0-3.32 2.7-6 6-6h128c3.33 0 6 2.68 6 6v28c0 3.3-2.67 6-6 6H272c-3.3 0-6-2.7-6-6z" stroke="#5e5e5e" stroke-width="3" fill="#c3f7c8"/><use xlink:href="#n" transform="matrix(1,0,0,1,278.01440927975796,1242.537020395098) translate(10.987654320987673 12.444444444444443)"/><use xlink:href="#w" transform="matrix(1,0,0,1,278.01440927975796,1242.537020395098) translate(41.23456790123458 12.444444444444443)"/><use xlink:href="#x" transform="matrix(1,0,0,1,278.01440927975796,1242.537020395098) translate(72.30246913580247 12.444444444444443)"/><path d="M269.5 1300c0-3.3 2.68-6 6-6h128c3.3 0 6 2.7 6 6v28c0 3.3-2.7 6-6 6h-128c-3.32 0-6-2.7-6-6z" stroke="#5e5e5e" stroke-width="3" fill="#6f7681"/><use xlink:href="#y" transform="matrix(1,0,0,1,281.4957935511684,1306.0000420010902) translate(4.07407407407409 12.444444444444443)"/><use xlink:href="#z" transform="matrix(1,0,0,1,281.4957935511684,1306.0000420010902) translate(42.96296296296297 12.444444444444443)"/><use xlink:href="#A" transform="matrix(1,0,0,1,281.4957935511684,1306.0000420010902) translate(61.0679012345679 12.444444444444443)"/><path d="M336-804.1v17.5" stroke="#5e5e5e" stroke-width="2" fill="none"/><path d="M337-804.06h-2v-1.03h2z" stroke="#5e5e5e" stroke-width=".05" fill="#5e5e5e"/><path d="M336-771.32l-4.62-14.27h9.27z" stroke="#5e5e5e" stroke-width="2" fill="#5e5e5e"/><path d="M336-724.1v17.5" stroke="#5e5e5e" stroke-width="2" fill="none"/><path d="M337-724.06h-2v-1.03h2z" stroke="#5e5e5e" stroke-width=".05" fill="#5e5e5e"/><path d="M336-691.32l-4.62-14.27h9.27z" stroke="#5e5e5e" stroke-width="2" fill="#5e5e5e"/><path d="M336-605.6v17.5" stroke="#5e5e5e" stroke-width="2" fill="none"/><path d="M337-605.56h-2v-1.03h2z" stroke="#5e5e5e" stroke-width=".05" fill="#5e5e5e"/><path d="M336-572.82l-4.62-14.27h9.27z" stroke="#5e5e5e" stroke-width="2" fill="#5e5e5e"/><path d="M339.5-487.1v17.5" stroke="#5e5e5e" stroke-width="2" fill="none"/><path d="M340.5-487.06h-2v-1.03h2z" stroke="#5e5e5e" stroke-width=".05" fill="#5e5e5e"/><path d="M339.5-454.32l-4.64-14.27h9.27z" stroke="#5e5e5e" stroke-width="2" fill="#5e5e5e"/><path d="M339.5-368.6v17.5" stroke="#5e5e5e" stroke-width="2" fill="none"/><path d="M340.5-368.56h-2v-1.03h2z" stroke="#5e5e5e" stroke-width=".05" fill="#5e5e5e"/><path d="M339.5-335.82l-4.64-14.27h9.27z" stroke="#5e5e5e" stroke-width="2" fill="#5e5e5e"/><path d="M336-250.1v25" stroke="#5e5e5e" stroke-width="2" fill="none"/><path d="M337-250.06h-2v-1.03h2z" stroke="#5e5e5e" stroke-width=".05" fill="#5e5e5e"/><path d="M336-209.82l-4.62-14.27h9.27z" stroke="#5e5e5e" stroke-width="2" fill="#5e5e5e"/><path d="M336-124.1v18.5" stroke="#5e5e5e" stroke-width="2" fill="none"/><path d="M337-124.06h-2v-1.03h2z" stroke="#5e5e5e" stroke-width=".05" fill="#5e5e5e"/><path d="M336-90.32l-4.62-14.27h9.27z" stroke="#5e5e5e" stroke-width="2" fill="#5e5e5e"/><path d="M336-4.6v18.52" stroke="#5e5e5e" stroke-width="2" fill="none"/><path d="M337-4.56h-2V-5.6h2z" stroke="#5e5e5e" stroke-width=".05" fill="#5e5e5e"/><path d="M336 29.18l-4.62-14.26h9.27z" stroke="#5e5e5e" stroke-width="2" fill="#5e5e5e"/><path d="M336 114.92v21" stroke="#5e5e5e" stroke-width="2" fill="none"/><path d="M337 114.94h-2v-1.02h2z" stroke="#5e5e5e" stroke-width=".05" fill="#5e5e5e"/><path d="M336 151.18l-4.62-14.27h9.27z" stroke="#5e5e5e" stroke-width="2" fill="#5e5e5e"/><path d="M336 358.9v15.2" stroke="#5e5e5e" stroke-width="2" fill="none"/><path d="M337 358.94h-2v-1.03h2z" stroke="#5e5e5e" stroke-width=".05" fill="#5e5e5e"/><path d="M336 389.36l-4.62-14.26h9.27z" stroke="#5e5e5e" stroke-width="2" fill="#5e5e5e"/><path d="M336 236.9v21" stroke="#5e5e5e" stroke-width="2" fill="none"/><path d="M337 236.94h-2v-1.03h2z" stroke="#5e5e5e" stroke-width=".05" fill="#5e5e5e"/><path d="M336 273.18l-4.62-14.27h9.27z" stroke="#5e5e5e" stroke-width="2" fill="#5e5e5e"/><path d="M336 475.1v19.8" stroke="#5e5e5e" stroke-width="2" fill="none"/><path d="M337 475.13h-2v-1.03h2z" stroke="#5e5e5e" stroke-width=".05" fill="#5e5e5e"/><path d="M336 510.18l-4.62-14.27h9.27z" stroke="#5e5e5e" stroke-width="2" fill="#5e5e5e"/><path d="M336 595.9v18.07" stroke="#5e5e5e" stroke-width="2" fill="none"/><path d="M337 595.94h-2v-1.03h2z" stroke="#5e5e5e" stroke-width=".05" fill="#5e5e5e"/><path d="M336 629.23l-4.62-14.26h9.27z" stroke="#5e5e5e" stroke-width="2" fill="#5e5e5e"/><path d="M336 714.97v18.05" stroke="#5e5e5e" stroke-width="2" fill="none"/><path d="M337 715h-2v-1.03h2z" stroke="#5e5e5e" stroke-width=".05" fill="#5e5e5e"/><path d="M336 748.3L331.4 734h9.27z" stroke="#5e5e5e" stroke-width="2" fill="#5e5e5e"/><path d="M336 834.03v18.05" stroke="#5e5e5e" stroke-width="2" fill="none"/><path d="M337 834.05h-2v-1.02h2z" stroke="#5e5e5e" stroke-width=".05" fill="#5e5e5e"/><path d="M336 867.35l-4.62-14.27h9.27z" stroke="#5e5e5e" stroke-width="2" fill="#5e5e5e"/><path d="M336 1077.3v16.1" stroke="#5e5e5e" stroke-width="2" fill="none"/><path d="M337 1077.3h-2v-1h2z" stroke="#5e5e5e" stroke-width=".05" fill="#5e5e5e"/><path d="M336 1108.68l-4.62-14.27h9.27z" stroke="#5e5e5e" stroke-width="2" fill="#5e5e5e"/><path d="M336 1194.4v16.14" stroke="#5e5e5e" stroke-width="2" fill="none"/><path d="M337 1194.44h-2v-1.03h2z" stroke="#5e5e5e" stroke-width=".05" fill="#5e5e5e"/><path d="M336 1225.8l-4.62-14.26h9.27z" stroke="#5e5e5e" stroke-width="2" fill="#5e5e5e"/><path d="M337-866.6h-2v-27.24h2z" stroke="#5e5e5e" stroke-width=".05" fill="#5e5e5e"/><path stroke="#5e5e5e" stroke-width=".05" fill="#5e5e5e"/><path d="M336-851.32l-4.62-14.27h9.27z" fill="#5e5e5e"/><path d="M336-848.1l-6-18.5h12.03zm-3.24-16.5l3.25 10.04 3.27-10.03z" stroke="#5e5e5e" stroke-width=".05" fill="#5e5e5e"/><use xlink:href="#B" transform="matrix(1,0,0,1,246.21194014395547,-915.1759172087137) translate(0.0049999999999954525 14.222222222222223)"/><use xlink:href="#C" transform="matrix(1,0,0,1,246.21194014395547,-915.1759172087137) translate(34.5729012345679 14.222222222222223)"/><use xlink:href="#D" transform="matrix(1,0,0,1,246.21194014395547,-915.1759172087137) translate(49.38771604938272 14.222222222222223)"/><use xlink:href="#E" transform="matrix(1,0,0,1,246.21194014395547,-915.1759172087137) translate(83.95561728395063 14.222222222222223)"/><use xlink:href="#F" transform="matrix(1,0,0,1,246.21194014395547,-915.1759172087137) translate(128.3012962962963 14.222222222222223)"/><path d="M214.67-1002.67c0-3.3 2.68-6 6-6h228c3.3 0 6 2.7 6 6v48c0 3.32-2.7 6-6 6h-228c-3.32 0-6-2.68-6-6z" stroke="#000" stroke-opacity="0" stroke-width="3" fill="#fff" fill-opacity="0"/><use xlink:href="#G" transform="matrix(1,0,0,1,219.66666666666674,-1003.6667086677571) translate(60.80246913580246 30.27777777777778)"/><path d="M337-708.67h3.87m7.72 0h7.7m7.7 0h7.73m7.7 0h7.73m7.7 0h7.73m7.7 0h7.7m7.73 0h7.7m7.73 0H445M337.04-708.67H336M445-708.67h1M446-707.67v3.7m0 7.37v7.37m0 7.38v7.37m0 7.38v7.37m0 7.38V-644.97m0 7.37v7.37m0 7.38v7.37m0 7.38v7.37m0 7.38v3.68M446-707.64v-1.03M446-589.7v1.03M337-588.1h3.87m7.72 0h7.7m7.7 0h7.73m7.7 0h7.73m7.7 0h7.73m7.7 0h7.7m7.73 0h7.7m7.73 0H445M337.04-588.1H336M445-588.1h1M227-469.6h111.5M227.04-469.6H226M338.47-469.6h1.03M226-470.6v-116.5M226-470.6v1M226-587.06v-1.03M227-588.1h108M227.04-588.1H226M335-588.1h1M340.5-469.6H445M445-469.6h1M340.5-351.1H445M340.52-351.1h-1.02M445-351.1h1M446-467.67v115.58M446-467.64v-1.03M446-352.1v1M227-351.1h4m7.96 0h7.96m7.96 0h7.97m7.96 0h7.97m7.97 0h7.96m7.96 0h7.97m7.96 0h7.95m7.96 0h4M227.04-351.1H226M338.47-351.1h1.03M227-228.84h3.87m7.72 0h7.7m7.7 0h7.73m7.7 0h7.73m7.7 0h7.73m7.7 0h7.7m7.73 0h7.7m7.73 0H335M227.04-228.84H226M335-228.84h1M226-229.84v-3.76m0-7.5v-7.53m0-7.5v-7.53m0-7.5v-7.53m0-7.5v-7.52m0-7.52v-7.5m0-7.53v-7.5m0-7.53v-7.5m0-7.53v-3.76M226-229.86v1.02M226-350.06v-1.03M337-228.84h108M445-228.84h1M337-108.67h108M337.04-108.67H336M445-108.67h1M446-227.5v117.83M446-227.5v-1M446-109.7v1.03M227 13.42h108M227.04 13.42H226M335 13.42h1M226-107.67v120.1M226-107.64v-1.03M226 12.4v1.02M227-108.67h108M227.04-108.67H226M335-108.67h1M336 12.42c0-.6.5-1.1 1.1-1.1H445M336 12.4v1.02M445 11.33h1M337 131.33h108M337.04 131.33H336M445 131.33h1M444.16 130.33v-118M444.16 130.3v1.03M444.16 12.36v-1.03M227 256.16h3.87m7.72 0h7.7m7.7 0h7.73m7.7 0h7.73m7.7 0h7.73m7.7 0h7.7m7.73 0h7.7m7.73 0H335M227.04 256.16H226M335 256.16h1M227 131.33h3.87m7.72 0h7.7m7.7 0h7.73m7.7 0h7.73m7.7 0h7.73m7.7 0h7.7m7.73 0h7.7m7.73 0H335M227.04 131.33H226M335 131.33h1M226 255.16v-3.84m0-7.67v-7.68m0-7.68v-7.68m0-7.68v-7.68m0-7.67v-7.7m0-7.67v-7.67m0-7.68v-7.68m0-7.67v-7.68m0-7.68v-3.84M226 255.14v1.02M226 132.36v-1.03M337 256.16h108M445 256.16h1M337 375.43h108M337.04 375.43H336M445 375.43h1M446 256.55v117.88M446 256.58v-1.03M446 374.4v1.03M227 375.43h108M227.04 375.43H226M335 375.43h1M227 493.76h108M227.04 493.76H226M335 493.76h1M226 492.76V376.43M226 492.73v1.03M226 376.45v-1.02M337 493.76h108M445 493.76h1M337 613.7h108M337.04 613.7H336M445 613.7h1M446 494.76V612.7M446 494.78v-1.02M446 612.66v1.03M227 732.75h108M227.04 732.75H226M335 732.75h1M227 613.7h108M227.04 613.7H226M335 613.7h1M226 614.7v115.63M226 614.72v-1.03M226 730.3v1.03M336 731.75c0-.23.2-.42.43-.42H445M336 731.72v1.03M445 731.33h1M337 851.8h108M337.04 851.8H336M445 851.8h1M446 732.33V850.8M446 732.36v-1.03M446 850.78v1.02M227 973.44h3.87m7.72 0h7.7m7.7 0h7.73m7.7 0h7.73m7.7 0h7.73m7.7 0h7.7m7.73 0h7.7m7.73 0H335M227.04 973.44H226M335 973.44h1M226 972.44v-3.76m0-7.5v-7.5m0-7.52v-7.5m0-7.5v-7.52m0-7.5v-7.5m0-7.52v-7.5m0-7.5v-7.5m0-7.52v-7.5m0-7.5v-3.77M226 972.4v1.04M226 852.36v-1.03M337 973.44h108M445 973.44h1M337 1091.33h108M337.04 1091.33H336M445 1091.33h1M446 1090.33v-115.9M446 1090.3v1.03M446 974.46v-1.02M227 1091.33h108M227.04 1091.33H226M335 1091.33h1M227 1212.34h103c3.33 0 6 2.68 6 6v9.7M227.04 1212.34H226" stroke="#5e5e5e" stroke-width="2" fill="none"/><path d="M337 1229.04h-2V1228h2z" stroke="#5e5e5e" stroke-width=".05" fill="#5e5e5e"/><path d="M226 1211.34v-119M226 1211.3v1.04M226 1092.36v-1.03M227 851.33h3.9m7.74 0h7.74m7.75 0h7.75m7.75 0h7.75m7.74 0h7.75m7.75 0h7.75m7.75 0h7.74m7.75 0h3.9M227.04 851.33H226M336 850.78v1.02M336 1273.04v.96" stroke="#5e5e5e" stroke-width="2" fill="none"/><path d="M337 1273.06h-2v-1.02h2z" stroke="#5e5e5e" stroke-width=".05" fill="#5e5e5e"/><path d="M336 1289.26L331.4 1275h9.27z" stroke="#5e5e5e" stroke-width="2" fill="#5e5e5e"/><path d="M336 953.08v23.2" stroke="#5e5e5e" stroke-width="2" fill="none"/><path d="M337 953.1h-2v-1.02h2z" stroke="#5e5e5e" stroke-width=".05" fill="#5e5e5e"/><path d="M336 991.55l-4.62-14.26h9.27z" stroke="#5e5e5e" stroke-width="2" fill="#5e5e5e"/><defs><path fill="#333" d="M23 0v-37h61v-169l-59 37v-38l62-41h46v211h57V0H23" id="H"/><path fill="#333" d="M144 0l-44-69L55 0H2l70-98-66-92h53l41 62 40-62h54l-67 91 71 99h-54" id="I"/><g id="a"><use transform="matrix(0.04320987654320987,0,0,0.04320987654320987,0,0)" xlink:href="#H"/><use transform="matrix(0.04320987654320987,0,0,0.04320987654320987,8.641975308641973,0)" xlink:href="#I"/><use transform="matrix(0.04320987654320987,0,0,0.04320987654320987,17.283950617283946,0)" xlink:href="#H"/></g><path fill="#333" d="M190-63c-7 42-38 67-86 67-59 0-84-38-90-98-12-110 154-137 174-36l-49 2c-2-19-15-32-35-32-30 0-35 28-38 64-6 74 65 87 74 30" id="J"/><path fill="#333" d="M110-194c64 0 96 36 96 99 0 64-35 99-97 99-61 0-95-36-95-99 0-62 34-99 96-99zm-1 164c35 0 45-28 45-65 0-40-10-65-43-65-34 0-45 26-45 65 0 36 10 65 43 65" id="K"/><path fill="#333" d="M135-194c87-1 58 113 63 194h-50c-7-57 23-157-34-157-59 0-34 97-39 157H25l-1-190h47c2 12-1 28 3 38 12-26 28-41 61-42" id="L"/><path fill="#333" d="M128 0H69L1-190h53L99-40l48-150h52" id="M"/><g id="b"><use transform="matrix(0.04320987654320987,0,0,0.04320987654320987,0,0)" xlink:href="#J"/><use transform="matrix(0.04320987654320987,0,0,0.04320987654320987,8.641975308641973,0)" xlink:href="#K"/><use transform="matrix(0.04320987654320987,0,0,0.04320987654320987,18.104938271604933,0)" xlink:href="#L"/><use transform="matrix(0.04320987654320987,0,0,0.04320987654320987,27.56790123456789,0)" xlink:href="#M"/></g><path fill="#333" d="M115-159c48 0 72 30 72 78 0 54-30 85-83 85-64 0-91-50-91-122 0-98 58-163 141-120 15 8 21 24 27 44l-47 6c-5-31-48-31-61-4-7 14-11 33-11 60 9-17 28-27 53-27zM102-35c24 0 36-20 36-45s-11-43-37-43c-23 0-36 14-36 38 0 27 11 50 37 50" id="N"/><path fill="#333" d="M165-50V0h-47v-50H5v-38l105-160h55v161h33v37h-33zm-47-37l2-116L46-87h72" id="O"/><g id="c"><use transform="matrix(0.04320987654320987,0,0,0.04320987654320987,0,0)" xlink:href="#N"/><use transform="matrix(0.04320987654320987,0,0,0.04320987654320987,8.641975308641973,0)" xlink:href="#O"/></g><path fill="#333" d="M128-127c34 4 56 21 59 58 7 91-148 94-172 28-4-9-6-17-7-26l51-5c1 24 16 35 40 36 23 0 39-12 38-36-1-31-31-36-65-34v-40c32 2 59-3 59-33 0-20-13-33-34-33s-33 13-35 32l-50-3c6-44 37-68 86-68 50 0 83 20 83 66 0 35-22 52-53 58" id="P"/><g id="d"><use transform="matrix(0.04320987654320987,0,0,0.04320987654320987,0,0)" xlink:href="#P"/><use transform="matrix(0.04320987654320987,0,0,0.04320987654320987,8.641975308641973,0)" xlink:href="#I"/><use transform="matrix(0.04320987654320987,0,0,0.04320987654320987,17.283950617283946,0)" xlink:href="#P"/></g><g id="e"><use transform="matrix(0.04320987654320987,0,0,0.04320987654320987,0,0)" xlink:href="#J"/><use transform="matrix(0.04320987654320987,0,0,0.04320987654320987,8.641975308641973,0)" xlink:href="#K"/><use transform="matrix(0.04320987654320987,0,0,0.04320987654320987,18.104938271604933,0)" xlink:href="#L"/><use transform="matrix(0.04320987654320987,0,0,0.04320987654320987,27.56790123456789,0)" xlink:href="#M"/></g><g id="f"><use transform="matrix(0.04320987654320987,0,0,0.04320987654320987,0,0)" xlink:href="#H"/><use transform="matrix(0.04320987654320987,0,0,0.04320987654320987,8.641975308641973,0)" xlink:href="#I"/><use transform="matrix(0.04320987654320987,0,0,0.04320987654320987,17.283950617283946,0)" xlink:href="#H"/></g><path fill="#333" d="M182-182c0 78-84 86-111 141h115V0H12c-6-101 99-100 120-180 1-22-12-31-33-32-23 0-32 14-35 34l-49-3c5-45 32-70 84-70 51 0 83 22 83 69" id="Q"/><path fill="#333" d="M139-81c0-46-55-55-73-27H18l9-140h149v37H72l-4 63c44-38 133-4 122 66C201 21 21 35 11-62l49-4c5 18 15 30 39 30 26 0 40-18 40-45" id="R"/><g id="g"><use transform="matrix(0.04320987654320987,0,0,0.04320987654320987,0,0)" xlink:href="#Q"/><use transform="matrix(0.04320987654320987,0,0,0.04320987654320987,8.641975308641973,0)" xlink:href="#R"/><use transform="matrix(0.04320987654320987,0,0,0.04320987654320987,17.283950617283946,0)" xlink:href="#N"/></g><path fill="#333" d="M138-131c27 9 52 24 51 61 0 53-36 74-89 74S11-19 11-69c0-35 22-54 51-61-78-25-46-121 38-121 51 0 83 19 83 66 0 30-18 49-45 54zm-38-16c24 0 32-13 32-36 1-23-11-34-32-34-22 0-33 12-32 34 0 22 9 36 32 36zm1 116c27 0 37-17 37-43 0-25-13-39-39-39-24 0-37 15-37 40 0 27 11 42 39 42" id="S"/><path fill="#333" d="M4 7l51-268h42L46 7H4" id="T"/><g id="h"><use transform="matrix(0.04320987654320987,0,0,0.04320987654320987,0,0)" xlink:href="#H"/><use transform="matrix(0.04320987654320987,0,0,0.04320987654320987,8.641975308641973,0)" xlink:href="#Q"/><use transform="matrix(0.04320987654320987,0,0,0.04320987654320987,17.283950617283946,0)" xlink:href="#S"/><use transform="matrix(0.04320987654320987,0,0,0.04320987654320987,25.925925925925917,0)" xlink:href="#T"/><use transform="matrix(0.04320987654320987,0,0,0.04320987654320987,30.2469135802469,0)" xlink:href="#Q"/></g><g id="i"><use transform="matrix(0.04320987654320987,0,0,0.04320987654320987,0,0)" xlink:href="#H"/><use transform="matrix(0.04320987654320987,0,0,0.04320987654320987,8.641975308641973,0)" xlink:href="#Q"/><use transform="matrix(0.04320987654320987,0,0,0.04320987654320987,17.283950617283946,0)" xlink:href="#S"/></g><g id="j"><use transform="matrix(0.04320987654320987,0,0,0.04320987654320987,0,0)" xlink:href="#R"/><use transform="matrix(0.04320987654320987,0,0,0.04320987654320987,8.641975308641973,0)" xlink:href="#H"/><use transform="matrix(0.04320987654320987,0,0,0.04320987654320987,17.283950617283946,0)" xlink:href="#Q"/></g><g id="k"><use transform="matrix(0.04320987654320987,0,0,0.04320987654320987,0,0)" xlink:href="#Q"/><use transform="matrix(0.04320987654320987,0,0,0.04320987654320987,8.641975308641973,0)" xlink:href="#R"/><use transform="matrix(0.04320987654320987,0,0,0.04320987654320987,17.283950617283946,0)" xlink:href="#N"/><use transform="matrix(0.04320987654320987,0,0,0.04320987654320987,25.925925925925917,0)" xlink:href="#T"/><use transform="matrix(0.04320987654320987,0,0,0.04320987654320987,30.2469135802469,0)" xlink:href="#Q"/></g><g id="l"><use transform="matrix(0.04320987654320987,0,0,0.04320987654320987,0,0)" xlink:href="#Q"/><use transform="matrix(0.04320987654320987,0,0,0.04320987654320987,8.641975308641973,0)" xlink:href="#R"/><use transform="matrix(0.04320987654320987,0,0,0.04320987654320987,17.283950617283946,0)" xlink:href="#N"/></g><path fill="#333" d="M101-251c68 0 84 54 84 127C185-50 166 4 99 4S15-52 14-124c-1-75 17-127 87-127zm-1 216c37-5 36-46 36-89s4-89-36-89c-39 0-36 45-36 89 0 43-3 85 36 89" id="U"/><g id="m"><use transform="matrix(0.04320987654320987,0,0,0.04320987654320987,0,0)" xlink:href="#H"/><use transform="matrix(0.04320987654320987,0,0,0.04320987654320987,8.641975308641973,0)" xlink:href="#U"/><use transform="matrix(0.04320987654320987,0,0,0.04320987654320987,17.283950617283946,0)" xlink:href="#Q"/><use transform="matrix(0.04320987654320987,0,0,0.04320987654320987,25.925925925925917,0)" xlink:href="#O"/></g><path fill="#333" d="M52 0c1-96 47-148 87-207H15v-41h169v40c-36 62-79 113-81 208H52" id="V"/><g id="n"><use transform="matrix(0.04320987654320987,0,0,0.04320987654320987,0,0)" xlink:href="#V"/><use transform="matrix(0.04320987654320987,0,0,0.04320987654320987,8.641975308641973,0)" xlink:href="#I"/><use transform="matrix(0.04320987654320987,0,0,0.04320987654320987,17.283950617283946,0)" xlink:href="#V"/></g><g id="o"><use transform="matrix(0.04320987654320987,0,0,0.04320987654320987,0,0)" xlink:href="#N"/><use transform="matrix(0.04320987654320987,0,0,0.04320987654320987,8.641975308641973,0)" xlink:href="#O"/></g><g id="p"><use transform="matrix(0.04320987654320987,0,0,0.04320987654320987,0,0)" xlink:href="#T"/><use transform="matrix(0.04320987654320987,0,0,0.04320987654320987,4.320987654320986,0)" xlink:href="#Q"/></g><g id="q"><use transform="matrix(0.04320987654320987,0,0,0.04320987654320987,0,0)" xlink:href="#P"/><use transform="matrix(0.04320987654320987,0,0,0.04320987654320987,8.641975308641973,0)" xlink:href="#I"/><use transform="matrix(0.04320987654320987,0,0,0.04320987654320987,17.283950617283946,0)" xlink:href="#P"/></g><path fill="#333" d="M220-157c-53 9-28 100-34 157h-49v-107c1-27-5-49-29-50C55-147 81-57 75 0H25l-1-190h47c2 12-1 28 3 38 10-53 101-56 108 0 13-22 24-43 59-42 82 1 51 116 57 194h-49v-107c-1-25-5-48-29-50" id="W"/><path fill="#333" d="M133-34C117-15 103 5 69 4 32 3 11-16 11-54c-1-60 55-63 116-61 1-26-3-47-28-47-18 1-26 9-28 27l-52-2c7-38 36-58 82-57s74 22 75 68l1 82c-1 14 12 18 25 15v27c-30 8-71 5-69-32zm-48 3c29 0 43-24 42-57-32 0-66-3-65 30 0 17 8 27 23 27" id="X"/><g id="r"><use transform="matrix(0.04320987654320987,0,0,0.04320987654320987,0,0)" xlink:href="#W"/><use transform="matrix(0.04320987654320987,0,0,0.04320987654320987,13.827160493827158,0)" xlink:href="#X"/><use transform="matrix(0.04320987654320987,0,0,0.04320987654320987,22.469135802469133,0)" xlink:href="#I"/></g><path fill="#333" d="M135-194c53 0 70 44 70 98 0 56-19 98-73 100-31 1-45-17-59-34 3 33 2 69 2 105H25l-1-265h48c2 10 0 23 3 31 11-24 29-35 60-35zM114-30c33 0 39-31 40-66 0-38-9-64-40-64-56 0-55 130 0 130" id="Y"/><path fill="#333" d="M25 0v-261h50V0H25" id="Z"/><g id="s"><use transform="matrix(0.04320987654320987,0,0,0.04320987654320987,0,0)" xlink:href="#Y"/><use transform="matrix(0.04320987654320987,0,0,0.04320987654320987,9.46296296296296,0)" xlink:href="#K"/><use transform="matrix(0.04320987654320987,0,0,0.04320987654320987,18.92592592592592,0)" xlink:href="#K"/><use transform="matrix(0.04320987654320987,0,0,0.04320987654320987,28.38888888888888,0)" xlink:href="#Z"/></g><g id="t"><use transform="matrix(0.04320987654320987,0,0,0.04320987654320987,0,0)" xlink:href="#R"/><use transform="matrix(0.04320987654320987,0,0,0.04320987654320987,8.641975308641973,0)" xlink:href="#H"/><use transform="matrix(0.04320987654320987,0,0,0.04320987654320987,17.283950617283946,0)" xlink:href="#Q"/><use transform="matrix(0.04320987654320987,0,0,0.04320987654320987,25.925925925925917,0)" xlink:href="#T"/><use transform="matrix(0.04320987654320987,0,0,0.04320987654320987,30.2469135802469,0)" xlink:href="#Q"/></g><g id="u"><use transform="matrix(0.04320987654320987,0,0,0.04320987654320987,0,0)" xlink:href="#R"/><use transform="matrix(0.04320987654320987,0,0,0.04320987654320987,8.641975308641973,0)" xlink:href="#H"/><use transform="matrix(0.04320987654320987,0,0,0.04320987654320987,17.283950617283946,0)" xlink:href="#Q"/></g><g id="v"><use transform="matrix(0.04320987654320987,0,0,0.04320987654320987,0,0)" xlink:href="#Q"/><use transform="matrix(0.04320987654320987,0,0,0.04320987654320987,8.641975308641973,0)" xlink:href="#U"/><use transform="matrix(0.04320987654320987,0,0,0.04320987654320987,17.283950617283946,0)" xlink:href="#O"/><use transform="matrix(0.04320987654320987,0,0,0.04320987654320987,25.925925925925917,0)" xlink:href="#S"/></g><path fill="#333" d="M195-6C206 82 75 100 31 46c-4-6-6-13-8-21l49-6c3 16 16 24 34 25 40 0 42-37 40-79-11 22-30 35-61 35-53 0-70-43-70-97 0-56 18-96 73-97 30 0 46 14 59 34l2-30h47zm-90-29c32 0 41-27 41-63 0-35-9-62-40-62-32 0-39 29-40 63 0 36 9 62 39 62" id="aa"/><g id="w"><use transform="matrix(0.04320987654320987,0,0,0.04320987654320987,0,0)" xlink:href="#X"/><use transform="matrix(0.04320987654320987,0,0,0.04320987654320987,8.641975308641973,0)" xlink:href="#M"/><use transform="matrix(0.04320987654320987,0,0,0.04320987654320987,17.283950617283946,0)" xlink:href="#aa"/></g><g id="x"><use transform="matrix(0.04320987654320987,0,0,0.04320987654320987,0,0)" xlink:href="#Y"/><use transform="matrix(0.04320987654320987,0,0,0.04320987654320987,9.46296296296296,0)" xlink:href="#K"/><use transform="matrix(0.04320987654320987,0,0,0.04320987654320987,18.92592592592592,0)" xlink:href="#K"/><use transform="matrix(0.04320987654320987,0,0,0.04320987654320987,28.38888888888888,0)" xlink:href="#Z"/></g><g id="y"><use transform="matrix(0.04320987654320987,0,0,0.04320987654320987,0,0)" xlink:href="#H"/><use transform="matrix(0.04320987654320987,0,0,0.04320987654320987,8.641975308641973,0)" xlink:href="#U"/><use transform="matrix(0.04320987654320987,0,0,0.04320987654320987,17.283950617283946,0)" xlink:href="#U"/><use transform="matrix(0.04320987654320987,0,0,0.04320987654320987,25.925925925925917,0)" xlink:href="#U"/></g><path fill="#333" d="M121-226c-27-7-43 5-38 36h38v33H83V0H34v-157H6v-33h28c-9-59 32-81 87-68v32" id="ab"/><g id="z"><use transform="matrix(0.04320987654320987,0,0,0.04320987654320987,0,0)" xlink:href="#ab"/><use transform="matrix(0.04320987654320987,0,0,0.04320987654320987,5.141975308641975,0)" xlink:href="#J"/></g><path fill="#333" d="M137-138c1-29-70-34-71-4 15 46 118 7 119 86 1 83-164 76-172 9l43-7c4 19 20 25 44 25 33 8 57-30 24-41C81-84 22-81 20-136c-2-80 154-74 161-7" id="ac"/><path fill="#333" d="M115-3C79 11 28 4 28-45v-112H4v-33h27l15-45h31v45h36v33H77v99c-1 23 16 31 38 25v30" id="ad"/><g id="A"><use transform="matrix(0.04320987654320987,0,0,0.04320987654320987,0,0)" xlink:href="#ac"/><use transform="matrix(0.04320987654320987,0,0,0.04320987654320987,8.641975308641973,0)" xlink:href="#K"/><use transform="matrix(0.04320987654320987,0,0,0.04320987654320987,18.104938271604933,0)" xlink:href="#ab"/><use transform="matrix(0.04320987654320987,0,0,0.04320987654320987,23.246913580246908,0)" xlink:href="#ad"/><use transform="matrix(0.04320987654320987,0,0,0.04320987654320987,28.388888888888882,0)" xlink:href="#W"/><use transform="matrix(0.04320987654320987,0,0,0.04320987654320987,42.21604938271604,0)" xlink:href="#I"/></g><g id="B"><use transform="matrix(0.04938271604938272,0,0,0.04938271604938272,0,0)" xlink:href="#Q"/><use transform="matrix(0.04938271604938272,0,0,0.04938271604938272,9.876543209876544,0)" xlink:href="#Q"/><use transform="matrix(0.04938271604938272,0,0,0.04938271604938272,19.75308641975309,0)" xlink:href="#O"/></g><use transform="matrix(0.04938271604938272,0,0,0.04938271604938272,0,0)" xlink:href="#I" id="C"/><g id="D"><use transform="matrix(0.04938271604938272,0,0,0.04938271604938272,0,0)" xlink:href="#Q"/><use transform="matrix(0.04938271604938272,0,0,0.04938271604938272,9.876543209876544,0)" xlink:href="#Q"/><use transform="matrix(0.04938271604938272,0,0,0.04938271604938272,19.75308641975309,0)" xlink:href="#O"/></g><path fill="#333" d="M240-174c0 40-23 61-54 70L253 0h-59l-57-94H76V0H24v-248c93 4 217-23 216 74zM76-134c48-2 112 12 112-38 0-48-66-32-112-35v73" id="ae"/><path fill="#333" d="M67-125c0 54 23 88 75 88 28 0 53-7 68-21v-34h-60v-39h108v91C232-14 192 4 140 4 58 4 20-42 15-125 8-236 126-280 215-234c19 10 29 26 37 47l-47 15c-11-23-29-39-63-39-53 1-75 33-75 86" id="af"/><path fill="#333" d="M182-130c37 4 62 22 62 59C244 23 116-4 24 0v-248c84 5 203-23 205 63 0 31-19 50-47 55zM76-148c40-3 101 13 101-30 0-44-60-28-101-31v61zm0 110c48-3 116 14 116-37 0-48-69-32-116-35v72" id="ag"/><g id="E"><use transform="matrix(0.04938271604938272,0,0,0.04938271604938272,0,0)" xlink:href="#ae"/><use transform="matrix(0.04938271604938272,0,0,0.04938271604938272,12.790123456790125,0)" xlink:href="#af"/><use transform="matrix(0.04938271604938272,0,0,0.04938271604938272,26.617283950617285,0)" xlink:href="#ag"/></g><path fill="#333" d="M25-224v-37h50v37H25zM25 0v-190h50V0H25" id="ah"/><path fill="#333" d="M185-48c-13 30-37 53-82 52C43 2 14-33 14-96s30-98 90-98c62 0 83 45 84 108H66c0 31 8 55 39 56 18 0 30-7 34-22zm-45-69c5-46-57-63-70-21-2 6-4 13-4 21h74" id="ai"/><g id="F"><use transform="matrix(0.04938271604938272,0,0,0.04938271604938272,0,0)" xlink:href="#ah"/><use transform="matrix(0.04938271604938272,0,0,0.04938271604938272,4.938271604938272,0)" xlink:href="#W"/><use transform="matrix(0.04938271604938272,0,0,0.04938271604938272,20.74074074074074,0)" xlink:href="#X"/><use transform="matrix(0.04938271604938272,0,0,0.04938271604938272,30.617283950617285,0)" xlink:href="#aa"/><use transform="matrix(0.04938271604938272,0,0,0.04938271604938272,41.4320987654321,0)" xlink:href="#ai"/></g><path fill="#333" d="M175 0L67-191c6 58 2 128 3 191H24v-248h59L193-55c-6-58-2-129-3-193h46V0h-61" id="aj"/><path fill="#333" d="M14-72v-43h91v43H14" id="ak"/><g id="G"><use transform="matrix(0.06172839506172839,0,0,0.06172839506172839,0,0)" xlink:href="#ae"/><use transform="matrix(0.06172839506172839,0,0,0.06172839506172839,15.987654320987653,0)" xlink:href="#ai"/><use transform="matrix(0.06172839506172839,0,0,0.06172839506172839,28.333333333333332,0)" xlink:href="#ac"/><use transform="matrix(0.06172839506172839,0,0,0.06172839506172839,40.67901234567901,0)" xlink:href="#aj"/><use transform="matrix(0.06172839506172839,0,0,0.06172839506172839,56.666666666666664,0)" xlink:href="#ai"/><use transform="matrix(0.06172839506172839,0,0,0.06172839506172839,69.01234567901234,0)" xlink:href="#ad"/><use transform="matrix(0.06172839506172839,0,0,0.06172839506172839,76.35802469135803,0)" xlink:href="#ak"/><use transform="matrix(0.06172839506172839,0,0,0.06172839506172839,83.70370370370371,0)" xlink:href="#R"/><use transform="matrix(0.06172839506172839,0,0,0.06172839506172839,96.0493827160494,0)" xlink:href="#U"/></g></defs></g></svg>