<svg xmlns="http://www.w3.org/2000/svg" xmlns:xlink="http://www.w3.org/1999/xlink" xmlns:lucid="lucid" width="220" height="1714"><g transform="translate(-110 1200)" lucid:page-tab-id="0_0"><path d="M148.65-1029.84c0-3.32 2.7-6 6-6h128c3.32 0 6 2.68 6 6v28c0 3.3-2.68 6-6 6h-128c-3.3 0-6-2.7-6-6z" stroke="#5e5e5e" stroke-width="3" fill="#cfe4ff"/><use xlink:href="#a" transform="matrix(1,0,0,1,160.6522573869088,-1023.84254187429) translate(13.969135802469147 12.444444444444443)"/><use xlink:href="#b" transform="matrix(1,0,0,1,160.6522573869088,-1023.84254187429) translate(44.21604938271605 12.444444444444443)"/><use xlink:href="#c" transform="matrix(1,0,0,1,160.6522573869088,-1023.84254187429) translate(84.74691358024691 12.444444444444443)"/><path d="M150-969.84c0-3.32 2.7-6 6-6h128c3.3 0 6 2.68 6 6v28c0 3.3-2.7 6-6 6H156c-3.3 0-6-2.7-6-6z" stroke="#5e5e5e" stroke-width="3" fill="#cfe4ff"/><use xlink:href="#a" transform="matrix(1,0,0,1,162,-963.84254187429) translate(13.969135802469147 12.444444444444443)"/><use xlink:href="#b" transform="matrix(1,0,0,1,162,-963.84254187429) translate(44.21604938271605 12.444444444444443)"/><use xlink:href="#c" transform="matrix(1,0,0,1,162,-963.84254187429) translate(84.74691358024691 12.444444444444443)"/><path d="M148.65-909.84c0-3.32 2.7-6 6-6h128c3.32 0 6 2.68 6 6v28c0 3.3-2.68 6-6 6h-128c-3.3 0-6-2.7-6-6z" stroke="#5e5e5e" stroke-width="3" fill="#ffdda6"/><use xlink:href="#a" transform="matrix(1,0,0,1,160.6522573869088,-903.84254187429) translate(0.16358024691359674 12.444444444444443)"/><use xlink:href="#d" transform="matrix(1,0,0,1,160.6522573869088,-903.84254187429) translate(30.4104938271605 12.444444444444443)"/><use xlink:href="#e" transform="matrix(1,0,0,1,160.6522573869088,-903.84254187429) translate(65.8425925925926 12.444444444444443)"/><use xlink:href="#f" transform="matrix(1,0,0,1,160.6522573869088,-903.84254187429) translate(102.87345679012344 12.444444444444443)"/><path d="M150-829.84c0-3.32 2.7-6 6-6h128c3.3 0 6 2.68 6 6v28c0 3.3-2.7 6-6 6H156c-3.3 0-6-2.7-6-6z" stroke="#5e5e5e" stroke-width="3" fill="#b8f5ed"/><use xlink:href="#a" transform="matrix(1,0,0,1,162,-823.84254187429) translate(9.648148148148167 12.444444444444443)"/><use xlink:href="#b" transform="matrix(1,0,0,1,162,-823.84254187429) translate(39.89506172839507 12.444444444444443)"/><use xlink:href="#g" transform="matrix(1,0,0,1,162,-823.84254187429) translate(80.42592592592592 12.444444444444443)"/><path d="M150-769.84c0-3.32 2.7-6 6-6h128c3.3 0 6 2.68 6 6v28c0 3.3-2.7 6-6 6H156c-3.3 0-6-2.7-6-6z" stroke="#5e5e5e" stroke-width="3" fill="#b8f5ed"/><use xlink:href="#a" transform="matrix(1,0,0,1,162,-763.84254187429) translate(9.648148148148167 12.444444444444443)"/><use xlink:href="#b" transform="matrix(1,0,0,1,162,-763.84254187429) translate(39.89506172839507 12.444444444444443)"/><use xlink:href="#g" transform="matrix(1,0,0,1,162,-763.84254187429) translate(80.42592592592592 12.444444444444443)"/><path d="M148.65-709.84c0-3.32 2.7-6 6-6h128c3.32 0 6 2.68 6 6v28c0 3.3-2.68 6-6 6h-128c-3.3 0-6-2.7-6-6z" stroke="#5e5e5e" stroke-width="3" fill="#ffdda6"/><use xlink:href="#a" transform="matrix(1,0,0,1,160.6522573869088,-703.84254187429) translate(0.16358024691359674 12.444444444444443)"/><use xlink:href="#d" transform="matrix(1,0,0,1,160.6522573869088,-703.84254187429) translate(30.4104938271605 12.444444444444443)"/><use xlink:href="#e" transform="matrix(1,0,0,1,160.6522573869088,-703.84254187429) translate(65.8425925925926 12.444444444444443)"/><use xlink:href="#f" transform="matrix(1,0,0,1,160.6522573869088,-703.84254187429) translate(102.87345679012344 12.444444444444443)"/><path d="M148.65-629.84c0-3.32 2.7-6 6-6h128c3.32 0 6 2.68 6 6v28c0 3.3-2.68 6-6 6h-128c-3.3 0-6-2.7-6-6z" stroke="#5e5e5e" stroke-width="3" fill="#c3f7c8"/><use xlink:href="#a" transform="matrix(1,0,0,1,160.6522573869088,-623.84254187429) translate(9.648148148148167 12.444444444444443)"/><use xlink:href="#b" transform="matrix(1,0,0,1,160.6522573869088,-623.84254187429) translate(39.89506172839507 12.444444444444443)"/><use xlink:href="#h" transform="matrix(1,0,0,1,160.6522573869088,-623.84254187429) translate(80.42592592592592 12.444444444444443)"/><path d="M148.65-569.84c0-3.32 2.7-6 6-6h128c3.32 0 6 2.68 6 6v28c0 3.3-2.68 6-6 6h-128c-3.3 0-6-2.7-6-6z" stroke="#5e5e5e" stroke-width="3" fill="#c3f7c8"/><use xlink:href="#a" transform="matrix(1,0,0,1,160.6522573869088,-563.84254187429) translate(9.648148148148167 12.444444444444443)"/><use xlink:href="#b" transform="matrix(1,0,0,1,160.6522573869088,-563.84254187429) translate(39.89506172839507 12.444444444444443)"/><use xlink:href="#h" transform="matrix(1,0,0,1,160.6522573869088,-563.84254187429) translate(80.42592592592592 12.444444444444443)"/><path d="M150-509.84c0-3.32 2.7-6 6-6h128c3.3 0 6 2.68 6 6v28c0 3.3-2.7 6-6 6H156c-3.3 0-6-2.7-6-6z" stroke="#5e5e5e" stroke-width="3" fill="#c3f7c8"/><use xlink:href="#a" transform="matrix(1,0,0,1,162,-503.84254187428996) translate(9.648148148148167 12.444444444444443)"/><use xlink:href="#b" transform="matrix(1,0,0,1,162,-503.84254187428996) translate(39.89506172839507 12.444444444444443)"/><use xlink:href="#h" transform="matrix(1,0,0,1,162,-503.84254187428996) translate(80.42592592592592 12.444444444444443)"/><path d="M148.65-449.84c0-3.32 2.7-6 6-6h128c3.32 0 6 2.68 6 6v28c0 3.3-2.68 6-6 6h-128c-3.3 0-6-2.7-6-6z" stroke="#5e5e5e" stroke-width="3" fill="#c3f7c8"/><use xlink:href="#a" transform="matrix(1,0,0,1,160.6522573869088,-443.84254187428996) translate(9.648148148148167 12.444444444444443)"/><use xlink:href="#b" transform="matrix(1,0,0,1,160.6522573869088,-443.84254187428996) translate(39.89506172839507 12.444444444444443)"/><use xlink:href="#h" transform="matrix(1,0,0,1,160.6522573869088,-443.84254187428996) translate(80.42592592592592 12.444444444444443)"/><path d="M150-389.84c0-3.32 2.7-6 6-6h128c3.3 0 6 2.68 6 6v28c0 3.3-2.7 6-6 6H156c-3.3 0-6-2.7-6-6z" stroke="#5e5e5e" stroke-width="3" fill="#ffdda6"/><use xlink:href="#a" transform="matrix(1,0,0,1,162,-383.84254187428996) translate(0.16358024691359674 12.444444444444443)"/><use xlink:href="#d" transform="matrix(1,0,0,1,162,-383.84254187428996) translate(30.4104938271605 12.444444444444443)"/><use xlink:href="#e" transform="matrix(1,0,0,1,162,-383.84254187428996) translate(65.8425925925926 12.444444444444443)"/><use xlink:href="#f" transform="matrix(1,0,0,1,162,-383.84254187428996) translate(102.87345679012344 12.444444444444443)"/><path d="M150-309.84c0-3.32 2.7-6 6-6h128c3.3 0 6 2.68 6 6v28c0 3.3-2.7 6-6 6H156c-3.3 0-6-2.7-6-6z" stroke="#5e5e5e" stroke-width="3" fill="#fff7a1"/><use xlink:href="#a" transform="matrix(1,0,0,1,162,-303.84254187428996) translate(9.648148148148167 12.444444444444443)"/><use xlink:href="#b" transform="matrix(1,0,0,1,162,-303.84254187428996) translate(39.89506172839507 12.444444444444443)"/><use xlink:href="#i" transform="matrix(1,0,0,1,162,-303.84254187428996) translate(80.42592592592592 12.444444444444443)"/><path d="M148.65-248.84c0-3.3 2.7-6 6-6h128c3.32 0 6 2.7 6 6v28c0 3.3-2.68 6-6 6h-128c-3.3 0-6-2.7-6-6z" stroke="#5e5e5e" stroke-width="3" fill="#fff7a1"/><use xlink:href="#a" transform="matrix(1,0,0,1,160.6522573869088,-242.8399172023743) translate(9.648148148148167 12.444444444444443)"/><use xlink:href="#b" transform="matrix(1,0,0,1,160.6522573869088,-242.8399172023743) translate(39.89506172839507 12.444444444444443)"/><use xlink:href="#i" transform="matrix(1,0,0,1,160.6522573869088,-242.8399172023743) translate(80.42592592592592 12.444444444444443)"/><path d="M150-187.84c0-3.3 2.7-6 6-6h128c3.3 0 6 2.7 6 6v28c0 3.32-2.7 6-6 6H156c-3.3 0-6-2.68-6-6z" stroke="#5e5e5e" stroke-width="3" fill="#fff7a1"/><use xlink:href="#a" transform="matrix(1,0,0,1,162,-181.8372925304584) translate(9.648148148148167 12.444444444444443)"/><use xlink:href="#b" transform="matrix(1,0,0,1,162,-181.8372925304584) translate(39.89506172839507 12.444444444444443)"/><use xlink:href="#i" transform="matrix(1,0,0,1,162,-181.8372925304584) translate(80.42592592592592 12.444444444444443)"/><path d="M150-126.83c0-3.32 2.7-6 6-6h128c3.3 0 6 2.68 6 6v28c0 3.3-2.7 6-6 6H156c-3.3 0-6-2.7-6-6z" stroke="#5e5e5e" stroke-width="3" fill="#fff7a1"/><use xlink:href="#a" transform="matrix(1,0,0,1,162,-120.83466785854262) translate(9.648148148148167 12.444444444444443)"/><use xlink:href="#b" transform="matrix(1,0,0,1,162,-120.83466785854262) translate(39.89506172839507 12.444444444444443)"/><use xlink:href="#i" transform="matrix(1,0,0,1,162,-120.83466785854262) translate(80.42592592592592 12.444444444444443)"/><path d="M150-68.84c0-3.3 2.7-6 6-6h128c3.3 0 6 2.7 6 6v28c0 3.3-2.7 6-6 6H156c-3.3 0-6-2.7-6-6z" stroke="#5e5e5e" stroke-width="3" fill="#ffdda6"/><use xlink:href="#a" transform="matrix(1,0,0,1,162,-62.83991720237418) translate(0.16358024691359674 12.444444444444443)"/><use xlink:href="#d" transform="matrix(1,0,0,1,162,-62.83991720237418) translate(30.4104938271605 12.444444444444443)"/><use xlink:href="#e" transform="matrix(1,0,0,1,162,-62.83991720237418) translate(65.8425925925926 12.444444444444443)"/><use xlink:href="#f" transform="matrix(1,0,0,1,162,-62.83991720237418) translate(102.87345679012344 12.444444444444443)"/><path d="M150 11.16c0-3.3 2.7-6 6-6h128c3.3 0 6 2.7 6 6v28c0 3.3-2.7 6-6 6H156c-3.3 0-6-2.7-6-6z" stroke="#5e5e5e" stroke-width="3" fill="#dedeff"/><use xlink:href="#a" transform="matrix(1,0,0,1,162,17.16008279762582) translate(9.648148148148167 12.444444444444443)"/><use xlink:href="#b" transform="matrix(1,0,0,1,162,17.16008279762582) translate(39.89506172839507 12.444444444444443)"/><use xlink:href="#i" transform="matrix(1,0,0,1,162,17.16008279762582) translate(80.42592592592592 12.444444444444443)"/><path d="M150 70.22c0-3.3 2.7-6 6-6h128c3.3 0 6 2.7 6 6v28c0 3.3-2.7 6-6 6H156c-3.3 0-6-2.7-6-6z" stroke="#5e5e5e" stroke-width="3" fill="#dedeff"/><use xlink:href="#a" transform="matrix(1,0,0,1,162,76.22129080181912) translate(9.648148148148167 12.444444444444443)"/><use xlink:href="#b" transform="matrix(1,0,0,1,162,76.22129080181912) translate(39.89506172839507 12.444444444444443)"/><use xlink:href="#i" transform="matrix(1,0,0,1,162,76.22129080181912) translate(80.42592592592592 12.444444444444443)"/><path d="M150 130.16c0-3.32 2.7-6 6-6h128c3.3 0 6 2.68 6 6v28c0 3.3-2.7 6-6 6H156c-3.3 0-6-2.7-6-6z" stroke="#5e5e5e" stroke-width="3" fill="#dedeff"/><use xlink:href="#a" transform="matrix(1,0,0,1,162,136.15745812571004) translate(9.648148148148167 12.444444444444443)"/><use xlink:href="#b" transform="matrix(1,0,0,1,162,136.15745812571004) translate(39.89506172839507 12.444444444444443)"/><use xlink:href="#i" transform="matrix(1,0,0,1,162,136.15745812571004) translate(80.42592592592592 12.444444444444443)"/><path d="M150 190.1c0-3.32 2.7-6 6-6h128c3.3 0 6 2.68 6 6v28c0 3.3-2.7 6-6 6H156c-3.3 0-6-2.7-6-6z" stroke="#5e5e5e" stroke-width="3" fill="#dedeff"/><use xlink:href="#a" transform="matrix(1,0,0,1,162,196.09362544960095) translate(9.648148148148167 12.444444444444443)"/><use xlink:href="#b" transform="matrix(1,0,0,1,162,196.09362544960095) translate(39.89506172839507 12.444444444444443)"/><use xlink:href="#i" transform="matrix(1,0,0,1,162,196.09362544960095) translate(80.42592592592592 12.444444444444443)"/><path d="M150 249.35c0-3.32 2.7-6 6-6h128c3.3 0 6 2.68 6 6v28c0 3.3-2.7 6-6 6H156c-3.3 0-6-2.7-6-6z" stroke="#5e5e5e" stroke-width="3" fill="#ffdda6"/><use xlink:href="#a" transform="matrix(1,0,0,1,162,255.3463314821215) translate(0.16358024691359674 12.444444444444443)"/><use xlink:href="#d" transform="matrix(1,0,0,1,162,255.3463314821215) translate(30.4104938271605 12.444444444444443)"/><use xlink:href="#e" transform="matrix(1,0,0,1,162,255.3463314821215) translate(65.8425925925926 12.444444444444443)"/><use xlink:href="#f" transform="matrix(1,0,0,1,162,255.3463314821215) translate(102.87345679012344 12.444444444444443)"/><path d="M150 330.16c0-3.32 2.7-6 6-6h128c3.3 0 6 2.68 6 6v28c0 3.3-2.7 6-6 6H156c-3.3 0-6-2.7-6-6z" stroke="#5e5e5e" stroke-width="3" fill="#dfe3e8"/><use xlink:href="#j" transform="matrix(1,0,0,1,162,336.15745812571004) translate(9.259259259259274 12.444444444444443)"/><use xlink:href="#k" transform="matrix(1,0,0,1,162,336.15745812571004) translate(48.14814814814815 12.444444444444443)"/><use xlink:href="#l" transform="matrix(1,0,0,1,162,336.15745812571004) translate(66.25308641975309 12.444444444444443)"/><path d="M150 390.16c0-3.32 2.7-6 6-6h128c3.3 0 6 2.68 6 6v28c0 3.3-2.7 6-6 6H156c-3.3 0-6-2.7-6-6z" stroke="#5e5e5e" stroke-width="3" fill="#dfe3e8"/><use xlink:href="#j" transform="matrix(1,0,0,1,162,396.15745812571004) translate(9.259259259259274 12.444444444444443)"/><use xlink:href="#k" transform="matrix(1,0,0,1,162,396.15745812571004) translate(48.14814814814815 12.444444444444443)"/><use xlink:href="#l" transform="matrix(1,0,0,1,162,396.15745812571004) translate(66.25308641975309 12.444444444444443)"/><path d="M148.65 450.16c0-3.32 2.7-6 6-6h128c3.32 0 6 2.68 6 6v28c0 3.3-2.68 6-6 6h-128c-3.3 0-6-2.7-6-6z" stroke="#5e5e5e" stroke-width="3" fill="#979ea8"/><use xlink:href="#m" transform="matrix(1,0,0,1,160.6522573869088,456.15745812571004) translate(4.07407407407409 12.444444444444443)"/><use xlink:href="#k" transform="matrix(1,0,0,1,160.6522573869088,456.15745812571004) translate(42.96296296296297 12.444444444444443)"/><use xlink:href="#n" transform="matrix(1,0,0,1,160.6522573869088,456.15745812571004) translate(61.0679012345679 12.444444444444443)"/><path d="M219.65-1055.84h-2v-29.34h2z" stroke="#5e5e5e" stroke-width=".05" fill="#5e5e5e"/><path stroke="#5e5e5e" stroke-width=".05" fill="#5e5e5e"/><path d="M218.65-1040.58l-4.63-14.26h9.27z" fill="#5e5e5e"/><path d="M218.65-1037.34l-6-18.5h12zm-3.26-16.5l3.25 10.03 3.26-10.04z" stroke="#5e5e5e" stroke-width=".05" fill="#5e5e5e"/><use xlink:href="#o" transform="matrix(1,0,0,1,128.8497882511063,-1106.5092085409567) translate(0.0049999999999954525 14.222222222222223)"/><use xlink:href="#p" transform="matrix(1,0,0,1,128.8497882511063,-1106.5092085409567) translate(34.5729012345679 14.222222222222223)"/><use xlink:href="#q" transform="matrix(1,0,0,1,128.8497882511063,-1106.5092085409567) translate(49.38771604938272 14.222222222222223)"/><use xlink:href="#r" transform="matrix(1,0,0,1,128.8497882511063,-1106.5092085409567) translate(83.95561728395063 14.222222222222223)"/><use xlink:href="#s" transform="matrix(1,0,0,1,128.8497882511063,-1106.5092085409567) translate(128.3012962962963 14.222222222222223)"/><path d="M218.65-993.34v-1" stroke="#5e5e5e" stroke-width="2" fill="none"/><path d="M219.65-993.32h-2v-1.02h2z" stroke="#5e5e5e" stroke-width=".05" fill="#5e5e5e"/><path d="M218.65-980.58l-4.63-14.26h9.27z" stroke="#5e5e5e" stroke-width="2" fill="#5e5e5e"/><path d="M220-933.34v-1" stroke="#5e5e5e" stroke-width="2" fill="none"/><path d="M221-933.32h-2v-1.02h2z" stroke="#5e5e5e" stroke-width=".05" fill="#5e5e5e"/><path d="M220-920.58l-4.64-14.26h9.28z" stroke="#5e5e5e" stroke-width="2" fill="#5e5e5e"/><path d="M218.65-873.34v17.5" stroke="#5e5e5e" stroke-width="2" fill="none"/><path d="M219.65-873.32h-2v-1.02h2z" stroke="#5e5e5e" stroke-width=".05" fill="#5e5e5e"/><path d="M218.65-840.58l-4.63-14.26h9.27z" stroke="#5e5e5e" stroke-width="2" fill="#5e5e5e"/><path d="M220-793.34v-1" stroke="#5e5e5e" stroke-width="2" fill="none"/><path d="M221-793.32h-2v-1.02h2z" stroke="#5e5e5e" stroke-width=".05" fill="#5e5e5e"/><path d="M220-780.58l-4.64-14.26h9.28z" stroke="#5e5e5e" stroke-width="2" fill="#5e5e5e"/><path d="M220-733.34v-1" stroke="#5e5e5e" stroke-width="2" fill="none"/><path d="M221-733.32h-2v-1.02h2z" stroke="#5e5e5e" stroke-width=".05" fill="#5e5e5e"/><path d="M220-720.58l-4.64-14.26h9.28z" stroke="#5e5e5e" stroke-width="2" fill="#5e5e5e"/><path d="M218.65-673.34v17.5" stroke="#5e5e5e" stroke-width="2" fill="none"/><path d="M219.65-673.32h-2v-1.02h2z" stroke="#5e5e5e" stroke-width=".05" fill="#5e5e5e"/><path d="M218.65-640.58l-4.63-14.26h9.27z" stroke="#5e5e5e" stroke-width="2" fill="#5e5e5e"/><path d="M218.65-593.34v-1" stroke="#5e5e5e" stroke-width="2" fill="none"/><path d="M219.65-593.32h-2v-1.02h2z" stroke="#5e5e5e" stroke-width=".05" fill="#5e5e5e"/><path d="M218.65-580.58l-4.63-14.26h9.27z" stroke="#5e5e5e" stroke-width="2" fill="#5e5e5e"/><path d="M218.65-533.34v-1" stroke="#5e5e5e" stroke-width="2" fill="none"/><path d="M219.65-533.32h-2v-1.02h2z" stroke="#5e5e5e" stroke-width=".05" fill="#5e5e5e"/><path d="M218.65-520.58l-4.63-14.26h9.27z" stroke="#5e5e5e" stroke-width="2" fill="#5e5e5e"/><path d="M220-473.34v-1" stroke="#5e5e5e" stroke-width="2" fill="none"/><path d="M221-473.32h-2v-1.02h2z" stroke="#5e5e5e" stroke-width=".05" fill="#5e5e5e"/><path d="M220-460.58l-4.64-14.26h9.28z" stroke="#5e5e5e" stroke-width="2" fill="#5e5e5e"/><path d="M218.65-413.34v-1" stroke="#5e5e5e" stroke-width="2" fill="none"/><path d="M219.65-413.32h-2v-1.02h2z" stroke="#5e5e5e" stroke-width=".05" fill="#5e5e5e"/><path d="M218.65-400.58l-4.63-14.26h9.27z" stroke="#5e5e5e" stroke-width="2" fill="#5e5e5e"/><path d="M220-353.34v17.5" stroke="#5e5e5e" stroke-width="2" fill="none"/><path d="M221-353.32h-2v-1.02h2z" stroke="#5e5e5e" stroke-width=".05" fill="#5e5e5e"/><path d="M220-320.58l-4.64-14.26h9.28z" stroke="#5e5e5e" stroke-width="2" fill="#5e5e5e"/><path d="M220-273.34v-1" stroke="#5e5e5e" stroke-width="2" fill="none"/><path d="M221-273.32h-2v-1.02h2z" stroke="#5e5e5e" stroke-width=".05" fill="#5e5e5e"/><path d="M220-259.58l-4.64-14.26h9.28z" stroke="#5e5e5e" stroke-width="2" fill="#5e5e5e"/><path d="M218.65-212.34v-1" stroke="#5e5e5e" stroke-width="2" fill="none"/><path d="M219.65-212.3h-2v-1.04h2z" stroke="#5e5e5e" stroke-width=".05" fill="#5e5e5e"/><path d="M218.65-198.57l-4.63-14.27h9.27z" stroke="#5e5e5e" stroke-width="2" fill="#5e5e5e"/><path d="M220-151.34v-1" stroke="#5e5e5e" stroke-width="2" fill="none"/><path d="M221-151.3h-2v-1.04h2z" stroke="#5e5e5e" stroke-width=".05" fill="#5e5e5e"/><path d="M220-137.57l-4.64-14.27h9.28z" stroke="#5e5e5e" stroke-width="2" fill="#5e5e5e"/><path d="M220-90.33v-1" stroke="#5e5e5e" stroke-width="2" fill="none"/><path d="M221-90.3h-2v-1.03h2z" stroke="#5e5e5e" stroke-width=".05" fill="#5e5e5e"/><path d="M220-79.58l-4.64-14.26h9.28z" stroke="#5e5e5e" stroke-width="2" fill="#5e5e5e"/><path d="M220-32.34v17.5" stroke="#5e5e5e" stroke-width="2" fill="none"/><path d="M221-32.3h-2v-1.04h2z" stroke="#5e5e5e" stroke-width=".05" fill="#5e5e5e"/><path d="M220 .42l-4.64-14.26h9.28z" stroke="#5e5e5e" stroke-width="2" fill="#5e5e5e"/><path d="M220 47.66v-1" stroke="#5e5e5e" stroke-width="2" fill="none"/><path d="M221 47.7h-2v-1.04h2z" stroke="#5e5e5e" stroke-width=".05" fill="#5e5e5e"/><path d="M220 59.5l-4.64-14.28h9.28z" stroke="#5e5e5e" stroke-width="2" fill="#5e5e5e"/><path d="M220 106.72v-1" stroke="#5e5e5e" stroke-width="2" fill="none"/><path d="M221 106.75h-2v-1.03h2z" stroke="#5e5e5e" stroke-width=".05" fill="#5e5e5e"/><path d="M220 119.42l-4.64-14.26h9.28z" stroke="#5e5e5e" stroke-width="2" fill="#5e5e5e"/><path d="M220 166.66v-1" stroke="#5e5e5e" stroke-width="2" fill="none"/><path d="M221 166.68h-2v-1.02h2z" stroke="#5e5e5e" stroke-width=".05" fill="#5e5e5e"/><path d="M220 179.36l-4.64-14.27h9.28z" stroke="#5e5e5e" stroke-width="2" fill="#5e5e5e"/><path d="M220 226.6v-1" stroke="#5e5e5e" stroke-width="2" fill="none"/><path d="M221 226.62h-2v-1.03h2z" stroke="#5e5e5e" stroke-width=".05" fill="#5e5e5e"/><path d="M220 238.6l-4.64-14.26h9.28z" stroke="#5e5e5e" stroke-width="2" fill="#5e5e5e"/><path d="M220 285.85v18.3" stroke="#5e5e5e" stroke-width="2" fill="none"/><path d="M221 285.87h-2v-1.02h2z" stroke="#5e5e5e" stroke-width=".05" fill="#5e5e5e"/><path d="M220 319.42l-4.64-14.26h9.28z" stroke="#5e5e5e" stroke-width="2" fill="#5e5e5e"/><path d="M220 366.66v-1" stroke="#5e5e5e" stroke-width="2" fill="none"/><path d="M221 366.68h-2v-1.02h2z" stroke="#5e5e5e" stroke-width=".05" fill="#5e5e5e"/><path d="M220 379.42l-4.64-14.26h9.28z" stroke="#5e5e5e" stroke-width="2" fill="#5e5e5e"/><path d="M220 426.66v-1" stroke="#5e5e5e" stroke-width="2" fill="none"/><path d="M221 426.68h-2v-1.02h2z" stroke="#5e5e5e" stroke-width=".05" fill="#5e5e5e"/><path d="M220 439.42l-4.64-14.26h9.28z" stroke="#5e5e5e" stroke-width="2" fill="#5e5e5e"/><path d="M100-1194c0-3.3 2.7-6 6-6h228c3.3 0 6 2.7 6 6v48c0 3.3-2.7 6-6 6H106c-3.3 0-6-2.7-6-6z" stroke="#000" stroke-opacity="0" stroke-width="3" fill="#fff" fill-opacity="0"/><g><use xlink:href="#t" transform="matrix(1,0,0,1,105,-1195) translate(77.96296296296296 30.27777777777778)"/></g><defs><path fill="#333" d="M128-127c34 4 56 21 59 58 7 91-148 94-172 28-4-9-6-17-7-26l51-5c1 24 16 35 40 36 23 0 39-12 38-36-1-31-31-36-65-34v-40c32 2 59-3 59-33 0-20-13-33-34-33s-33 13-35 32l-50-3c6-44 37-68 86-68 50 0 83 20 83 66 0 35-22 52-53 58" id="u"/><path fill="#333" d="M144 0l-44-69L55 0H2l70-98-66-92h53l41 62 40-62h54l-67 91 71 99h-54" id="v"/><g id="a"><use transform="matrix(0.04320987654320987,0,0,0.04320987654320987,0,0)" xlink:href="#u"/><use transform="matrix(0.04320987654320987,0,0,0.04320987654320987,8.641975308641973,0)" xlink:href="#v"/><use transform="matrix(0.04320987654320987,0,0,0.04320987654320987,17.283950617283946,0)" xlink:href="#u"/></g><path fill="#333" d="M190-63c-7 42-38 67-86 67-59 0-84-38-90-98-12-110 154-137 174-36l-49 2c-2-19-15-32-35-32-30 0-35 28-38 64-6 74 65 87 74 30" id="w"/><path fill="#333" d="M110-194c64 0 96 36 96 99 0 64-35 99-97 99-61 0-95-36-95-99 0-62 34-99 96-99zm-1 164c35 0 45-28 45-65 0-40-10-65-43-65-34 0-45 26-45 65 0 36 10 65 43 65" id="x"/><path fill="#333" d="M135-194c87-1 58 113 63 194h-50c-7-57 23-157-34-157-59 0-34 97-39 157H25l-1-190h47c2 12-1 28 3 38 12-26 28-41 61-42" id="y"/><path fill="#333" d="M128 0H69L1-190h53L99-40l48-150h52" id="z"/><g id="b"><use transform="matrix(0.04320987654320987,0,0,0.04320987654320987,0,0)" xlink:href="#w"/><use transform="matrix(0.04320987654320987,0,0,0.04320987654320987,8.641975308641973,0)" xlink:href="#x"/><use transform="matrix(0.04320987654320987,0,0,0.04320987654320987,18.104938271604933,0)" xlink:href="#y"/><use transform="matrix(0.04320987654320987,0,0,0.04320987654320987,27.56790123456789,0)" xlink:href="#z"/></g><path fill="#333" d="M115-159c48 0 72 30 72 78 0 54-30 85-83 85-64 0-91-50-91-122 0-98 58-163 141-120 15 8 21 24 27 44l-47 6c-5-31-48-31-61-4-7 14-11 33-11 60 9-17 28-27 53-27zM102-35c24 0 36-20 36-45s-11-43-37-43c-23 0-36 14-36 38 0 27 11 50 37 50" id="A"/><path fill="#333" d="M165-50V0h-47v-50H5v-38l105-160h55v161h33v37h-33zm-47-37l2-116L46-87h72" id="B"/><g id="c"><use transform="matrix(0.04320987654320987,0,0,0.04320987654320987,0,0)" xlink:href="#A"/><use transform="matrix(0.04320987654320987,0,0,0.04320987654320987,8.641975308641973,0)" xlink:href="#B"/></g><path fill="#333" d="M220-157c-53 9-28 100-34 157h-49v-107c1-27-5-49-29-50C55-147 81-57 75 0H25l-1-190h47c2 12-1 28 3 38 10-53 101-56 108 0 13-22 24-43 59-42 82 1 51 116 57 194h-49v-107c-1-25-5-48-29-50" id="C"/><path fill="#333" d="M133-34C117-15 103 5 69 4 32 3 11-16 11-54c-1-60 55-63 116-61 1-26-3-47-28-47-18 1-26 9-28 27l-52-2c7-38 36-58 82-57s74 22 75 68l1 82c-1 14 12 18 25 15v27c-30 8-71 5-69-32zm-48 3c29 0 43-24 42-57-32 0-66-3-65 30 0 17 8 27 23 27" id="D"/><g id="d"><use transform="matrix(0.04320987654320987,0,0,0.04320987654320987,0,0)" xlink:href="#C"/><use transform="matrix(0.04320987654320987,0,0,0.04320987654320987,13.827160493827158,0)" xlink:href="#D"/><use transform="matrix(0.04320987654320987,0,0,0.04320987654320987,22.469135802469133,0)" xlink:href="#v"/></g><path fill="#333" d="M135-194c53 0 70 44 70 98 0 56-19 98-73 100-31 1-45-17-59-34 3 33 2 69 2 105H25l-1-265h48c2 10 0 23 3 31 11-24 29-35 60-35zM114-30c33 0 39-31 40-66 0-38-9-64-40-64-56 0-55 130 0 130" id="E"/><path fill="#333" d="M25 0v-261h50V0H25" id="F"/><g id="e"><use transform="matrix(0.04320987654320987,0,0,0.04320987654320987,0,0)" xlink:href="#E"/><use transform="matrix(0.04320987654320987,0,0,0.04320987654320987,9.46296296296296,0)" xlink:href="#x"/><use transform="matrix(0.04320987654320987,0,0,0.04320987654320987,18.92592592592592,0)" xlink:href="#x"/><use transform="matrix(0.04320987654320987,0,0,0.04320987654320987,28.38888888888888,0)" xlink:href="#F"/></g><path fill="#333" d="M4 7l51-268h42L46 7H4" id="G"/><path fill="#333" d="M182-182c0 78-84 86-111 141h115V0H12c-6-101 99-100 120-180 1-22-12-31-33-32-23 0-32 14-35 34l-49-3c5-45 32-70 84-70 51 0 83 22 83 69" id="H"/><g id="f"><use transform="matrix(0.04320987654320987,0,0,0.04320987654320987,0,0)" xlink:href="#G"/><use transform="matrix(0.04320987654320987,0,0,0.04320987654320987,4.320987654320986,0)" xlink:href="#H"/></g><path fill="#333" d="M23 0v-37h61v-169l-59 37v-38l62-41h46v211h57V0H23" id="I"/><path fill="#333" d="M138-131c27 9 52 24 51 61 0 53-36 74-89 74S11-19 11-69c0-35 22-54 51-61-78-25-46-121 38-121 51 0 83 19 83 66 0 30-18 49-45 54zm-38-16c24 0 32-13 32-36 1-23-11-34-32-34-22 0-33 12-32 34 0 22 9 36 32 36zm1 116c27 0 37-17 37-43 0-25-13-39-39-39-24 0-37 15-37 40 0 27 11 42 39 42" id="J"/><g id="g"><use transform="matrix(0.04320987654320987,0,0,0.04320987654320987,0,0)" xlink:href="#I"/><use transform="matrix(0.04320987654320987,0,0,0.04320987654320987,8.641975308641973,0)" xlink:href="#H"/><use transform="matrix(0.04320987654320987,0,0,0.04320987654320987,17.283950617283946,0)" xlink:href="#J"/></g><path fill="#333" d="M139-81c0-46-55-55-73-27H18l9-140h149v37H72l-4 63c44-38 133-4 122 66C201 21 21 35 11-62l49-4c5 18 15 30 39 30 26 0 40-18 40-45" id="K"/><g id="h"><use transform="matrix(0.04320987654320987,0,0,0.04320987654320987,0,0)" xlink:href="#H"/><use transform="matrix(0.04320987654320987,0,0,0.04320987654320987,8.641975308641973,0)" xlink:href="#K"/><use transform="matrix(0.04320987654320987,0,0,0.04320987654320987,17.283950617283946,0)" xlink:href="#A"/></g><g id="i"><use transform="matrix(0.04320987654320987,0,0,0.04320987654320987,0,0)" xlink:href="#K"/><use transform="matrix(0.04320987654320987,0,0,0.04320987654320987,8.641975308641973,0)" xlink:href="#I"/><use transform="matrix(0.04320987654320987,0,0,0.04320987654320987,17.283950617283946,0)" xlink:href="#H"/></g><path fill="#333" d="M101-251c68 0 84 54 84 127C185-50 166 4 99 4S15-52 14-124c-1-75 17-127 87-127zm-1 216c37-5 36-46 36-89s4-89-36-89c-39 0-36 45-36 89 0 43-3 85 36 89" id="L"/><path fill="#333" d="M99-251c69 0 84 53 88 123 5 99-61 162-144 118-15-8-21-25-26-45l46-6c4 31 50 33 63 7 7-15 12-36 12-60-9 18-29 28-54 28-48 0-72-32-72-82 0-55 31-83 87-83zm-1 128c24 0 37-16 37-39 0-27-10-51-37-51-25 0-35 19-35 45 0 25 10 45 35 45" id="M"/><g id="j"><use transform="matrix(0.04320987654320987,0,0,0.04320987654320987,0,0)" xlink:href="#B"/><use transform="matrix(0.04320987654320987,0,0,0.04320987654320987,8.641975308641973,0)" xlink:href="#L"/><use transform="matrix(0.04320987654320987,0,0,0.04320987654320987,17.283950617283946,0)" xlink:href="#M"/><use transform="matrix(0.04320987654320987,0,0,0.04320987654320987,25.925925925925917,0)" xlink:href="#A"/></g><path fill="#333" d="M121-226c-27-7-43 5-38 36h38v33H83V0H34v-157H6v-33h28c-9-59 32-81 87-68v32" id="N"/><g id="k"><use transform="matrix(0.04320987654320987,0,0,0.04320987654320987,0,0)" xlink:href="#N"/><use transform="matrix(0.04320987654320987,0,0,0.04320987654320987,5.141975308641975,0)" xlink:href="#w"/></g><path fill="#333" d="M240-174c0 40-23 61-54 70L253 0h-59l-57-94H76V0H24v-248c93 4 217-23 216 74zM76-134c48-2 112 12 112-38 0-48-66-32-112-35v73" id="O"/><path fill="#333" d="M185-48c-13 30-37 53-82 52C43 2 14-33 14-96s30-98 90-98c62 0 83 45 84 108H66c0 31 8 55 39 56 18 0 30-7 34-22zm-45-69c5-46-57-63-70-21-2 6-4 13-4 21h74" id="P"/><path fill="#333" d="M24 0v-248h52v208h133V0H24" id="Q"/><path fill="#333" d="M238-95c0 69-44 99-111 99C63 4 22-25 22-93v-155h51v151c-1 38 19 59 55 60 90 1 49-130 58-211h52v153" id="R"/><g id="l"><use transform="matrix(0.04320987654320987,0,0,0.04320987654320987,0,0)" xlink:href="#O"/><use transform="matrix(0.04320987654320987,0,0,0.04320987654320987,11.191358024691356,0)" xlink:href="#P"/><use transform="matrix(0.04320987654320987,0,0,0.04320987654320987,19.83333333333333,0)" xlink:href="#Q"/><use transform="matrix(0.04320987654320987,0,0,0.04320987654320987,29.29629629629629,0)" xlink:href="#R"/></g><g id="m"><use transform="matrix(0.04320987654320987,0,0,0.04320987654320987,0,0)" xlink:href="#I"/><use transform="matrix(0.04320987654320987,0,0,0.04320987654320987,8.641975308641973,0)" xlink:href="#L"/><use transform="matrix(0.04320987654320987,0,0,0.04320987654320987,17.283950617283946,0)" xlink:href="#L"/><use transform="matrix(0.04320987654320987,0,0,0.04320987654320987,25.925925925925917,0)" xlink:href="#L"/></g><path fill="#333" d="M137-138c1-29-70-34-71-4 15 46 118 7 119 86 1 83-164 76-172 9l43-7c4 19 20 25 44 25 33 8 57-30 24-41C81-84 22-81 20-136c-2-80 154-74 161-7" id="S"/><path fill="#333" d="M115-3C79 11 28 4 28-45v-112H4v-33h27l15-45h31v45h36v33H77v99c-1 23 16 31 38 25v30" id="T"/><g id="n"><use transform="matrix(0.04320987654320987,0,0,0.04320987654320987,0,0)" xlink:href="#S"/><use transform="matrix(0.04320987654320987,0,0,0.04320987654320987,8.641975308641973,0)" xlink:href="#x"/><use transform="matrix(0.04320987654320987,0,0,0.04320987654320987,18.104938271604933,0)" xlink:href="#N"/><use transform="matrix(0.04320987654320987,0,0,0.04320987654320987,23.246913580246908,0)" xlink:href="#T"/><use transform="matrix(0.04320987654320987,0,0,0.04320987654320987,28.388888888888882,0)" xlink:href="#C"/><use transform="matrix(0.04320987654320987,0,0,0.04320987654320987,42.21604938271604,0)" xlink:href="#v"/></g><g id="o"><use transform="matrix(0.04938271604938272,0,0,0.04938271604938272,0,0)" xlink:href="#H"/><use transform="matrix(0.04938271604938272,0,0,0.04938271604938272,9.876543209876544,0)" xlink:href="#H"/><use transform="matrix(0.04938271604938272,0,0,0.04938271604938272,19.75308641975309,0)" xlink:href="#B"/></g><use transform="matrix(0.04938271604938272,0,0,0.04938271604938272,0,0)" xlink:href="#v" id="p"/><g id="q"><use transform="matrix(0.04938271604938272,0,0,0.04938271604938272,0,0)" xlink:href="#H"/><use transform="matrix(0.04938271604938272,0,0,0.04938271604938272,9.876543209876544,0)" xlink:href="#H"/><use transform="matrix(0.04938271604938272,0,0,0.04938271604938272,19.75308641975309,0)" xlink:href="#B"/></g><path fill="#333" d="M67-125c0 54 23 88 75 88 28 0 53-7 68-21v-34h-60v-39h108v91C232-14 192 4 140 4 58 4 20-42 15-125 8-236 126-280 215-234c19 10 29 26 37 47l-47 15c-11-23-29-39-63-39-53 1-75 33-75 86" id="U"/><path fill="#333" d="M182-130c37 4 62 22 62 59C244 23 116-4 24 0v-248c84 5 203-23 205 63 0 31-19 50-47 55zM76-148c40-3 101 13 101-30 0-44-60-28-101-31v61zm0 110c48-3 116 14 116-37 0-48-69-32-116-35v72" id="V"/><g id="r"><use transform="matrix(0.04938271604938272,0,0,0.04938271604938272,0,0)" xlink:href="#O"/><use transform="matrix(0.04938271604938272,0,0,0.04938271604938272,12.790123456790125,0)" xlink:href="#U"/><use transform="matrix(0.04938271604938272,0,0,0.04938271604938272,26.617283950617285,0)" xlink:href="#V"/></g><path fill="#333" d="M25-224v-37h50v37H25zM25 0v-190h50V0H25" id="W"/><path fill="#333" d="M195-6C206 82 75 100 31 46c-4-6-6-13-8-21l49-6c3 16 16 24 34 25 40 0 42-37 40-79-11 22-30 35-61 35-53 0-70-43-70-97 0-56 18-96 73-97 30 0 46 14 59 34l2-30h47zm-90-29c32 0 41-27 41-63 0-35-9-62-40-62-32 0-39 29-40 63 0 36 9 62 39 62" id="X"/><g id="s"><use transform="matrix(0.04938271604938272,0,0,0.04938271604938272,0,0)" xlink:href="#W"/><use transform="matrix(0.04938271604938272,0,0,0.04938271604938272,4.938271604938272,0)" xlink:href="#C"/><use transform="matrix(0.04938271604938272,0,0,0.04938271604938272,20.74074074074074,0)" xlink:href="#D"/><use transform="matrix(0.04938271604938272,0,0,0.04938271604938272,30.617283950617285,0)" xlink:href="#X"/><use transform="matrix(0.04938271604938272,0,0,0.04938271604938272,41.4320987654321,0)" xlink:href="#P"/></g><path fill="#333" d="M147 0H94L2-248h55l64 206c17-72 42-137 63-206h54" id="Y"/><g id="t"><use transform="matrix(0.06172839506172839,0,0,0.06172839506172839,0,0)" xlink:href="#Y"/><use transform="matrix(0.06172839506172839,0,0,0.06172839506172839,14.814814814814813,0)" xlink:href="#U"/><use transform="matrix(0.06172839506172839,0,0,0.06172839506172839,32.09876543209876,0)" xlink:href="#U"/><use transform="matrix(0.06172839506172839,0,0,0.06172839506172839,49.38271604938271,0)" xlink:href="#I"/><use transform="matrix(0.06172839506172839,0,0,0.06172839506172839,61.728395061728385,0)" xlink:href="#M"/></g></defs></g></svg>