<svg xmlns="http://www.w3.org/2000/svg" xmlns:xlink="http://www.w3.org/1999/xlink" xmlns:lucid="lucid" width="973" height="970"><g transform="translate(-49 -215)" lucid:page-tab-id="0_0"><path d="M1000 700c0 254.05-205.95 460-460 460S80 954.05 80 700s205.95-460 460-460 460 205.95 460 460z" stroke="#5e5e5e" stroke-width="3" fill="#b2d6ef"/><path d="M100 661c0-3.3 2.7-6 6-6h108c3.3 0 6 2.7 6 6v78c0 3.3-2.7 6-6 6H106c-3.3 0-6-2.7-6-6z" stroke="#000" stroke-opacity="0" stroke-width="3" fill="#fff" fill-opacity="0"/><use xlink:href="#a" transform="matrix(1,0,0,1,105,660) translate(-14.127604166666657 32.44791666666667)"/><use xlink:href="#b" transform="matrix(1,0,0,1,105,660) translate(-6.041666666666657 63.30729166666666)"/><path d="M1000 697.5c0 200.2-165.65 362.5-370 362.5S260 897.7 260 697.5 425.65 335 630 335s370 162.3 370 362.5z" stroke="#5e5e5e" stroke-width="3" fill="#ffdf71"/><path d="M1000 690c0 166.38-134.3 301.25-300 301.25S400 856.38 400 690s134.3-301.25 300-301.25S1000 523.62 1000 690z" stroke="#5e5e5e" stroke-width="3" fill="#fff"/><path d="M280 666.5c0-3.3 2.7-6 6-6h88c3.3 0 6 2.7 6 6v62c0 3.3-2.7 6-6 6h-88c-3.3 0-6-2.7-6-6z" stroke="#000" stroke-opacity="0" stroke-width="3" fill="#fff" fill-opacity="0"/><use xlink:href="#c" transform="matrix(1,0,0,1,285,665.5) translate(-4.973958333333314 24.447916666666668)"/><use xlink:href="#d" transform="matrix(1,0,0,1,285,665.5) translate(-7.21354166666665 55.30729166666666)"/><path d="M1000 680c0 121.5-98.5 220-220 220s-220-98.5-220-220 98.5-220 220-220 220 98.5 220 220z" stroke="#5e5e5e" stroke-width="3" fill="#ff8f80"/><path d="M420 634.33c0-3.3 2.7-6 6-6h108c3.3 0 6 2.7 6 6v71.34c0 3.3-2.7 6-6 6H426c-3.3 0-6-2.7-6-6z" stroke="#000" stroke-opacity="0" stroke-width="3" fill="#fff" fill-opacity="0"/><use xlink:href="#e" transform="matrix(1,0,0,1,425,633.3333333333334) translate(7.324218750000028 23.307291666666654)"/><use xlink:href="#f" transform="matrix(1,0,0,1,425,633.3333333333334) translate(41.07421875000001 54.166666666666636)"/><use xlink:href="#g" transform="matrix(1,0,0,1,425,633.3333333333334) translate(0.5924479166666927 85.02604166666661)"/><use xlink:href="#h" transform="matrix(1,0,0,1,425,633.3333333333334) translate(-1.1718749999999858 115.8854166666666)"/><use xlink:href="#i" transform="matrix(1,0,0,1,425,633.3333333333334) translate(55 146.74479166666657)"/><path d="M900 572.5c0 54.54-44.77 98.75-100 98.75s-100-44.2-100-98.75c0-54.54 44.77-98.75 100-98.75s100 44.2 100 98.75z" stroke="#5e5e5e" stroke-width="3" fill="#ccc"/><path d="M600 661c0-3.3 2.7-6 6-6h68c3.3 0 6 2.7 6 6v23c0 3.3-2.7 6-6 6h-68c-3.3 0-6-2.7-6-6z" stroke="#000" stroke-opacity="0" stroke-width="3" fill="#fff" fill-opacity="0"/><use xlink:href="#j" transform="matrix(1,0,0,1,605,660) translate(6.152343750000014 23.307291666666654)"/><use xlink:href="#k" transform="matrix(1,0,0,1,605,660) translate(-17.213541666666643 54.166666666666636)"/><path d="M740 498.5c0-3.3 2.7-6 6-6h108c3.3 0 6 2.7 6 6v148c0 3.3-2.7 6-6 6H746c-3.3 0-6-2.7-6-6z" stroke="#000" stroke-opacity="0" stroke-width="3" fill="#fff" fill-opacity="0"/><g><use xlink:href="#l" transform="matrix(1,0,0,1,745,497.5) translate(7.324218750000028 36.588541666666686)"/><use xlink:href="#m" transform="matrix(1,0,0,1,745,497.5) translate(41.07421875000001 67.44791666666667)"/><use xlink:href="#n" transform="matrix(1,0,0,1,745,497.5) translate(0.5924479166666927 98.30729166666666)"/><use xlink:href="#o" transform="matrix(1,0,0,1,745,497.5) translate(-10.156249999999972 129.16666666666663)"/></g><path d="M900 792.5c0 54.54-44.77 98.75-100 98.75s-100-44.2-100-98.75c0-54.54 44.77-98.75 100-98.75s100 44.2 100 98.75z" stroke="#5e5e5e" stroke-width="3" fill="#ccc"/><path d="M740 713.5c0-3.3 2.7-6 6-6h108c3.3 0 6 2.7 6 6v158c0 3.3-2.7 6-6 6H746c-3.3 0-6-2.7-6-6z" stroke="#000" stroke-opacity="0" stroke-width="3" fill="#fff" fill-opacity="0"/><g><use xlink:href="#l" transform="matrix(1,0,0,1,745,712.5) translate(7.324218750000028 41.588541666666686)"/><use xlink:href="#m" transform="matrix(1,0,0,1,745,712.5) translate(41.07421875000001 72.44791666666667)"/><use xlink:href="#p" transform="matrix(1,0,0,1,745,712.5) translate(0.5924479166666927 103.30729166666666)"/><use xlink:href="#q" transform="matrix(1,0,0,1,745,712.5) translate(-7.506510416666636 134.16666666666663)"/></g><defs><path fill="#333" d="M63 0v-73c45-9 80-20 103-31s34-21 34-30v-991c0-8-10-18-32-30s-57-23-105-32v-73h525v73c-45 9-80 20-103 31s-35 22-35 31v991c0 8 11 18 33 30s57 22 105 31V0H63" id="r"/><path fill="#333" d="M814-960c151 0 221 99 221 256v570c8 28 38 30 68 42 17 7 39 12 65 19V0H663v-73c48-13 82-24 102-33s30-19 30-28v-454c-3-102-4-195-105-190-125 7-188 76-270 139v505c0 10 11 20 34 31s56 21 99 30V0H48v-73c44-11 77-22 99-31s33-19 33-30c-1-205 6-414-2-617-2-64-63-55-130-67v-70c119-13 221-35 315-72l42 42 11 144c121-102 230-186 398-186" id="s"/><path fill="#333" d="M480-153c90 0 143-40 212-75l44 73C647-91 572-44 511-14S401 30 366 30C216 30 155-87 155-244v-561H34L5-841l78-89h72v-209l202-149 38 33v325h305l36 36c-27 45-62 92-101 124-61-29-146-39-240-35v468c3 90 5 184 85 184" id="t"/><path fill="#333" d="M687-616c0-120-53-224-176-224-146 0-179 124-195 260h333c31-1 38-6 38-36zm233 421C797-79 706 34 480 30 277 26 159-94 98-249c-51-132-43-317 18-435 76-147 214-276 431-276 252 0 370 162 379 410-35 35-91 61-140 82H313c10 180 71 330 251 330 142 0 208-61 304-121 21 14 39 43 52 64" id="u"/><path fill="#333" d="M63-1470c123-17 231-39 329-80l43 41v1375c9 30 42 35 75 46 18 6 41 10 68 15V0H53v-73c57-11 103-17 136-45 4-5 6-11 6-16v-1132c0-71-5-115-64-124-17-3-40-7-68-10v-70" id="v"/><path fill="#333" d="M63-888c112-16 215-38 308-72h64v826c0 8 10 18 30 30s54 22 103 31V0H63v-73c45-9 79-20 100-31s32-21 32-30c-1-198 2-400-1-596-1-77-54-79-131-88v-70zm272-483c78 0 138 32 138 110 0 98-68 152-168 152-79 0-137-33-137-111 0-98 69-151 167-151" id="w"/><path fill="#333" d="M522-415c101 0 146-78 146-185 0-142-66-245-207-245-97 0-146 80-146 186 0 144 63 244 207 244zm53 765c133-2 230-54 230-178 0-69-58-86-121-106-79-25-213-31-297-54-63 50-124 78-132 171 13 95 103 130 193 153 39 10 82 14 127 14zM854-792c51 72 59 207 10 292-71 123-201 204-391 205-35 33-49 49-59 84 3 21 11 28 34 35 189 59 495 33 572 193 50 103-10 216-63 273-120 128-305 228-561 196-155-20-294-66-359-177-38-65-21-150 27-193 58-53 118-95 202-141-87-42-137-66-104-127 37-68 103-114 172-162C198-355 85-434 85-602c0-179 131-276 271-330 132-52 312-27 404 42 96-10 198-45 269-70l28 37c-14 41-34 82-57 115-48 8-91 13-146 16" id="x"/><path fill="#333" d="M567-138c129-2 186-59 272-116l54 64C782-73 692 30 480 30 279 30 161-92 100-245c-47-118-44-283 5-401 91-217 343-368 656-292 46 11 97 29 124 57-11 97-44 188-79 261l-67-10c-41-109-79-205-209-205-176 0-225 169-225 360 0 155 58 262 160 314 32 15 66 23 102 23" id="y"/><g id="a"><use transform="matrix(0.01302083333333333,0,0,0.01302083333333333,0,0)" xlink:href="#r"/><use transform="matrix(0.01302083333333333,0,0,0.01302083333333333,8.723958333333332,0)" xlink:href="#s"/><use transform="matrix(0.01302083333333333,0,0,0.01302083333333333,24.218749999999993,0)" xlink:href="#t"/><use transform="matrix(0.01302083333333333,0,0,0.01302083333333333,34.08854166666666,0)" xlink:href="#u"/><use transform="matrix(0.01302083333333333,0,0,0.01302083333333333,46.992187499999986,0)" xlink:href="#v"/><use transform="matrix(0.01302083333333333,0,0,0.01302083333333333,54.999999999999986,0)" xlink:href="#v"/><use transform="matrix(0.01302083333333333,0,0,0.01302083333333333,63.007812499999986,0)" xlink:href="#w"/><use transform="matrix(0.01302083333333333,0,0,0.01302083333333333,71.01562499999999,0)" xlink:href="#x"/><use transform="matrix(0.01302083333333333,0,0,0.01302083333333333,84.80468749999999,0)" xlink:href="#u"/><use transform="matrix(0.01302083333333333,0,0,0.01302083333333333,97.70833333333331,0)" xlink:href="#s"/><use transform="matrix(0.01302083333333333,0,0,0.01302083333333333,113.20312499999997,0)" xlink:href="#y"/><use transform="matrix(0.01302083333333333,0,0,0.01302083333333333,125.35156249999997,0)" xlink:href="#u"/></g><path fill="#333" d="M319-259c0 68 31 114 93 114 98 0 147-56 211-105v-221c-153 26-304 50-304 212zm584 99c38 0 59-16 91-27l22 75C927-56 834 9 717 30c-65-8-88-81-93-159C538-47 445 30 293 30 154 30 65-56 65-201c0-127 64-194 141-247 107-73 248-95 417-121v-118c9-110-74-169-178-134-46 15-82 54-78 119-52 44-150 61-229 78-15 2-26 3-31 2l-21-54c84-172 266-284 511-284 166 0 266 79 266 240v482c0 44 7 78 40 78" id="z"/><path fill="#333" d="M418-773c69-91 151-187 299-187 60 0 116 20 158 44 4 3 6 12 6 26 0 113-38 223-71 311h-73c-7-74-23-146-67-181-43-34-105-7-137 22-48 43-80 95-113 167v437c0 10 14 20 42 31s72 21 135 30V0H48v-73c88-20 132-40 132-61-1-195-2-395-2-586 0-82-49-99-130-98v-70c121-16 215-37 315-72l42 42" id="A"/><path fill="#333" d="M711-894c-26 44-61 91-98 124-49-23-101-36-188-35v673c6 15 21 18 43 24 49 14 96 23 159 35V0H53v-73c46-8 80-17 101-29s31-22 31-30v-673H66l-28-36 78-89h69c-10-311 117-483 323-587 113-57 285-18 362 38 42 31 5 63-13 85-35 43-83 82-131 111-48-60-94-101-170-112-90 11-103 95-120 190-12 65-12 183-11 275h249" id="B"/><g id="b"><use transform="matrix(0.01302083333333333,0,0,0.01302083333333333,0,0)" xlink:href="#z"/><use transform="matrix(0.01302083333333333,0,0,0.01302083333333333,13.320312499999996,0)" xlink:href="#A"/><use transform="matrix(0.01302083333333333,0,0,0.01302083333333333,25.156249999999993,0)" xlink:href="#t"/><use transform="matrix(0.01302083333333333,0,0,0.01302083333333333,35.02604166666666,0)" xlink:href="#w"/><use transform="matrix(0.01302083333333333,0,0,0.01302083333333333,43.03385416666666,0)" xlink:href="#B"/><use transform="matrix(0.01302083333333333,0,0,0.01302083333333333,52.09635416666666,0)" xlink:href="#w"/><use transform="matrix(0.01302083333333333,0,0,0.01302083333333333,60.10416666666665,0)" xlink:href="#y"/><use transform="matrix(0.01302083333333333,0,0,0.01302083333333333,72.25260416666666,0)" xlink:href="#w"/><use transform="matrix(0.01302083333333333,0,0,0.01302083333333333,80.26041666666666,0)" xlink:href="#u"/><use transform="matrix(0.01302083333333333,0,0,0.01302083333333333,93.16406249999999,0)" xlink:href="#v"/><use transform="matrix(0.01302083333333333,0,0,0.01302083333333333,101.17187499999999,0)" xlink:href="#v"/><use transform="matrix(0.01302083333333333,0,0,0.01302083333333333,109.17968749999997,0)" xlink:href="#u"/></g><path fill="#333" d="M200-1152c-37-23-85-34-137-35v-73h346c47 5 54 46 71 84l368 835c133-294 261-590 397-881 10-22 19-38 49-38h339v73c-46 1-90 13-128 28l10 1025c0 8 13 18 37 30s60 22 108 31V0h-522v-73c45-9 82-20 108-31s39-21 39-30l-8-813L853 0h-94L343-945l-8 811c0 8 11 18 33 30s57 22 105 31V0H53v-73c46-9 80-20 103-31s34-21 34-30" id="C"/><path fill="#333" d="M814-960c151 0 221 99 221 256v570c8 28 38 30 68 42 17 7 39 12 65 19V0H663v-73c48-13 82-24 102-33s30-19 30-28v-439c-2-110-6-210-113-205-117 5-174 73-262 139v505c0 10 11 20 34 31s56 21 99 30V0H48v-73c44-11 77-22 99-31s33-19 33-30c-2-399 10-806-2-1200-2-63-65-55-130-66v-70c124-17 229-40 328-80l44 41v727c119-96 229-178 394-178" id="D"/><g id="c"><use transform="matrix(0.01302083333333333,0,0,0.01302083333333333,0,0)" xlink:href="#C"/><use transform="matrix(0.01302083333333333,0,0,0.01302083333333333,22.578124999999996,0)" xlink:href="#z"/><use transform="matrix(0.01302083333333333,0,0,0.01302083333333333,35.89843749999999,0)" xlink:href="#y"/><use transform="matrix(0.01302083333333333,0,0,0.01302083333333333,48.046874999999986,0)" xlink:href="#D"/><use transform="matrix(0.01302083333333333,0,0,0.01302083333333333,63.54166666666665,0)" xlink:href="#w"/><use transform="matrix(0.01302083333333333,0,0,0.01302083333333333,71.54947916666664,0)" xlink:href="#s"/><use transform="matrix(0.01302083333333333,0,0,0.01302083333333333,87.0442708333333,0)" xlink:href="#u"/></g><path fill="#333" d="M729-120c148 2 174-101 217-210l73 26c-10 100-22 215-41 304H43v-73c45-9 80-20 103-31s34-21 34-30v-991c0-8-10-18-32-30s-57-23-105-32v-73h525v73c-45 9-80 20-103 31s-35 22-35 31v931c9 77 99 74 186 74h113" id="E"/><g id="d"><use transform="matrix(0.01302083333333333,0,0,0.01302083333333333,0,0)" xlink:href="#E"/><use transform="matrix(0.01302083333333333,0,0,0.01302083333333333,13.580729166666664,0)" xlink:href="#u"/><use transform="matrix(0.01302083333333333,0,0,0.01302083333333333,26.484374999999993,0)" xlink:href="#z"/><use transform="matrix(0.01302083333333333,0,0,0.01302083333333333,39.804687499999986,0)" xlink:href="#A"/><use transform="matrix(0.01302083333333333,0,0,0.01302083333333333,51.640624999999986,0)" xlink:href="#s"/><use transform="matrix(0.01302083333333333,0,0,0.01302083333333333,67.13541666666664,0)" xlink:href="#w"/><use transform="matrix(0.01302083333333333,0,0,0.01302083333333333,75.14322916666664,0)" xlink:href="#s"/><use transform="matrix(0.01302083333333333,0,0,0.01302083333333333,90.6380208333333,0)" xlink:href="#x"/></g><path fill="#333" d="M575-586c-52 3-101 0-145-10v462c0 8 10 18 32 30s57 22 106 31V0H43v-73c45-9 80-20 103-31s34-21 34-30v-1023c-46 7-93 12-137 19l-13-92c295-67 842-131 974 124 18 37 28 76 28 119 0 205-123 310-279 367l315 436c31 48 78 71 161 59l15 73c-85 26-183 60-284 66-41 2-83-27-98-55zm205-370c0-187-150-240-350-226v476c33 6 54 7 89 7 174 2 261-90 261-257" id="F"/><path fill="#333" d="M687-616c0-120-53-224-176-224-146 0-179 124-195 260h333c31-1 38-6 38-36zm233 421C797-79 706 34 480 30 277 26 159-94 98-249c-51-132-43-317 18-435 76-147 214-276 431-276 252 0 370 162 379 410-35 35-91 61-140 82H313c10 180 71 330 251 330 142 0 208-61 304-121 21 14 39 43 52 64zm-444-845c-32-8-64-26-87-43l211-429c71 8 164 23 228 38l30 54" id="G"/><path fill="#333" d="M547-808c-63-73-243-61-239 50 3 86 72 111 134 148 111 66 258 113 318 230 15 28 22 60 22 97C778-32 571 47 316 26 231 19 152-9 90-43c-26-75-10-216 7-293l81 11c29 127 98 232 242 232 90 0 142-26 142-112 0-138-143-173-241-229-81-46-168-92-212-173-33-59-21-140 9-197 90-174 455-200 628-79 8 74-29 165-58 217l-69-8c-17-59-43-101-72-134" id="H"/><path fill="#333" d="M618-902c125-11 230-32 335-58l37 46c1 227-3 457 1 682 1 43 7 81 55 72 14-3 39-12 73-27l25 75C1059-61 962 2 858 30c-84-6-95-83-108-166C647-55 571 30 408 30 227 30 155-88 155-279c-1-160 4-328-1-485-2-65-55-59-120-68v-70c123-10 226-26 326-58l35 46v572c2 110 10 203 116 199 111-4 169-63 239-119-2-165 6-340-4-499-4-64-57-67-128-71v-70" id="I"/><path fill="#333" d="M304-116c0 39 56 37 95 43V0H13v-73c77-11 127-41 165-90l231-298c-83-114-161-233-249-343-28-35-74-49-136-53v-73h495v73c-39 7-86 1-78 45 37 69 91 131 134 196 47-65 104-126 145-196 10-43-36-38-76-45v-73h381v73c-89 4-141 34-181 86L647-516c93 127 179 261 278 382 28 34 71 54 129 61V0H562v-73c38-5 86-1 86-41-1-10-7-25-20-43L481-360 324-157c-13 17-20 31-20 41" id="J"/><g id="e"><use transform="matrix(0.013020833333333327,0,0,0.013020833333333327,0,0)" xlink:href="#F"/><use transform="matrix(0.013020833333333327,0,0,0.013020833333333327,16.132812499999993,0)" xlink:href="#G"/><use transform="matrix(0.013020833333333327,0,0,0.013020833333333327,29.036458333333318,0)" xlink:href="#H"/><use transform="matrix(0.013020833333333327,0,0,0.013020833333333327,40.208333333333314,0)" xlink:href="#u"/><use transform="matrix(0.013020833333333327,0,0,0.013020833333333327,53.11197916666664,0)" xlink:href="#z"/><use transform="matrix(0.013020833333333327,0,0,0.013020833333333327,66.43229166666663,0)" xlink:href="#I"/><use transform="matrix(0.013020833333333327,0,0,0.013020833333333327,81.44531249999996,0)" xlink:href="#J"/></g><path fill="#333" d="M608-1485c121-11 249-37 339-65l38 37c1 424-6 852 1 1273 1 44 4 85 54 78 27-4 45-13 73-25l28 73C1051-58 957 4 844 30c-48 0-79-58-92-175C662-60 594 30 431 30 250 30 151-100 97-245c-43-117-45-275 3-393 72-177 212-322 451-322 86 0 134 17 194 59-1-141 2-293-1-431-2-78-58-77-136-84v-69zM450-183c118 65 220-16 295-86v-437c-42-68-108-122-210-122-175 0-230 145-230 330 0 149 51 263 145 315" id="K"/><g id="f"><use transform="matrix(0.013020833333333327,0,0,0.013020833333333327,0,0)" xlink:href="#K"/><use transform="matrix(0.013020833333333327,0,0,0.013020833333333327,14.947916666666659,0)" xlink:href="#u"/></g><path fill="#333" d="M547-95c182-3 211-159 211-345 0-159-46-293-136-363-28-21-59-32-93-32-183 0-211 174-211 362 0 156 53 282 142 349 28 20 56 29 87 29zm197-829c193 78 317 304 248 570C945-174 822-46 648 10 468 68 279-10 189-105 84-216 25-453 102-636c75-177 215-324 456-324 68 0 130 13 186 36" id="L"/><g id="g"><use transform="matrix(0.013020833333333327,0,0,0.013020833333333327,0,0)" xlink:href="#s"/><use transform="matrix(0.013020833333333327,0,0,0.013020833333333327,15.494791666666659,0)" xlink:href="#u"/><use transform="matrix(0.013020833333333327,0,0,0.013020833333333327,28.398437499999986,0)" xlink:href="#I"/><use transform="matrix(0.013020833333333327,0,0,0.013020833333333327,43.411458333333314,0)" xlink:href="#A"/><use transform="matrix(0.013020833333333327,0,0,0.013020833333333327,55.24739583333331,0)" xlink:href="#L"/><use transform="matrix(0.013020833333333327,0,0,0.013020833333333327,69.24479166666663,0)" xlink:href="#s"/><use transform="matrix(0.013020833333333327,0,0,0.013020833333333327,84.73958333333329,0)" xlink:href="#u"/><use transform="matrix(0.013020833333333327,0,0,0.013020833333333327,97.64322916666661,0)" xlink:href="#H"/></g><g id="h"><use transform="matrix(0.013020833333333327,0,0,0.013020833333333327,0,0)" xlink:href="#z"/><use transform="matrix(0.013020833333333327,0,0,0.013020833333333327,13.320312499999993,0)" xlink:href="#A"/><use transform="matrix(0.013020833333333327,0,0,0.013020833333333327,25.156249999999986,0)" xlink:href="#t"/><use transform="matrix(0.013020833333333327,0,0,0.013020833333333327,35.02604166666665,0)" xlink:href="#w"/><use transform="matrix(0.013020833333333327,0,0,0.013020833333333327,43.03385416666664,0)" xlink:href="#B"/><use transform="matrix(0.013020833333333327,0,0,0.013020833333333327,52.09635416666664,0)" xlink:href="#w"/><use transform="matrix(0.013020833333333327,0,0,0.013020833333333327,60.104166666666636,0)" xlink:href="#y"/><use transform="matrix(0.013020833333333327,0,0,0.013020833333333327,72.25260416666664,0)" xlink:href="#w"/><use transform="matrix(0.013020833333333327,0,0,0.013020833333333327,80.26041666666664,0)" xlink:href="#u"/><use transform="matrix(0.013020833333333327,0,0,0.013020833333333327,93.16406249999997,0)" xlink:href="#v"/><use transform="matrix(0.013020833333333327,0,0,0.013020833333333327,101.17187499999997,0)" xlink:href="#H"/></g><path fill="#333" d="M578-1290c408 0 643 208 643 614 0 370-167 586-463 660C711-4 664 0 619 0H43v-73c45-9 80-20 103-31s34-21 34-30v-1023l-137 19-13-92c159-36 354-60 548-60zm375 653c-1-354-149-573-523-545v1015c7 64 80 60 152 60 213 0 307-172 354-361 12-50 17-106 17-169" id="M"/><path fill="#333" d="M681-138c187 0 198-281 154-453-28-109-88-199-212-199-97 0-134 64-203 112v450c84 45 144 90 261 90zM414-795c110-97 268-221 458-137 142 63 208 220 208 432 0 207-102 348-215 451-45 41-101 79-174 79-122 0-189-60-271-113v428c0 11 13 21 38 32s68 21 131 30v73H48v-73c44-11 77-21 99-31s33-20 33-31c-2-364 10-736-3-1095-2-61-59-64-129-68v-70c122-14 218-35 315-72l42 42" id="N"/><g id="j"><use transform="matrix(0.013020833333333327,0,0,0.013020833333333327,0,0)" xlink:href="#M"/><use transform="matrix(0.013020833333333327,0,0,0.013020833333333327,16.979166666666657,0)" xlink:href="#u"/><use transform="matrix(0.013020833333333327,0,0,0.013020833333333327,29.882812499999986,0)" xlink:href="#u"/><use transform="matrix(0.013020833333333327,0,0,0.013020833333333327,42.786458333333314,0)" xlink:href="#N"/></g><g id="k"><use transform="matrix(0.013020833333333327,0,0,0.013020833333333327,0,0)" xlink:href="#E"/><use transform="matrix(0.013020833333333327,0,0,0.013020833333333327,13.58072916666666,0)" xlink:href="#u"/><use transform="matrix(0.013020833333333327,0,0,0.013020833333333327,26.484374999999986,0)" xlink:href="#z"/><use transform="matrix(0.013020833333333327,0,0,0.013020833333333327,39.80468749999998,0)" xlink:href="#A"/><use transform="matrix(0.013020833333333327,0,0,0.013020833333333327,51.64062499999997,0)" xlink:href="#s"/><use transform="matrix(0.013020833333333327,0,0,0.013020833333333327,67.13541666666663,0)" xlink:href="#w"/><use transform="matrix(0.013020833333333327,0,0,0.013020833333333327,75.14322916666663,0)" xlink:href="#s"/><use transform="matrix(0.013020833333333327,0,0,0.013020833333333327,90.63802083333329,0)" xlink:href="#x"/></g><g id="l"><use transform="matrix(0.013020833333333327,0,0,0.013020833333333327,0,0)" xlink:href="#F"/><use transform="matrix(0.013020833333333327,0,0,0.013020833333333327,16.132812499999993,0)" xlink:href="#G"/><use transform="matrix(0.013020833333333327,0,0,0.013020833333333327,29.036458333333318,0)" xlink:href="#H"/><use transform="matrix(0.013020833333333327,0,0,0.013020833333333327,40.208333333333314,0)" xlink:href="#u"/><use transform="matrix(0.013020833333333327,0,0,0.013020833333333327,53.11197916666664,0)" xlink:href="#z"/><use transform="matrix(0.013020833333333327,0,0,0.013020833333333327,66.43229166666663,0)" xlink:href="#I"/><use transform="matrix(0.013020833333333327,0,0,0.013020833333333327,81.44531249999996,0)" xlink:href="#J"/></g><g id="m"><use transform="matrix(0.013020833333333327,0,0,0.013020833333333327,0,0)" xlink:href="#K"/><use transform="matrix(0.013020833333333327,0,0,0.013020833333333327,14.947916666666659,0)" xlink:href="#u"/></g><g id="n"><use transform="matrix(0.013020833333333327,0,0,0.013020833333333327,0,0)" xlink:href="#s"/><use transform="matrix(0.013020833333333327,0,0,0.013020833333333327,15.494791666666659,0)" xlink:href="#u"/><use transform="matrix(0.013020833333333327,0,0,0.013020833333333327,28.398437499999986,0)" xlink:href="#I"/><use transform="matrix(0.013020833333333327,0,0,0.013020833333333327,43.411458333333314,0)" xlink:href="#A"/><use transform="matrix(0.013020833333333327,0,0,0.013020833333333327,55.24739583333331,0)" xlink:href="#L"/><use transform="matrix(0.013020833333333327,0,0,0.013020833333333327,69.24479166666663,0)" xlink:href="#s"/><use transform="matrix(0.013020833333333327,0,0,0.013020833333333327,84.73958333333329,0)" xlink:href="#u"/><use transform="matrix(0.013020833333333327,0,0,0.013020833333333327,97.64322916666661,0)" xlink:href="#H"/></g><path fill="#333" d="M1027-857c-52 12-85 23-103 68L641-82c-29 63-99 93-172 112L116-789c-20-44-45-54-103-68v-73h453v73c-41 6-70 8-94 23-16 11-12 26-4 45l215 503 202-503c24-56-33-59-81-68v-73h323v73" id="O"/><g id="o"><use transform="matrix(0.013020833333333327,0,0,0.013020833333333327,0,0)" xlink:href="#y"/><use transform="matrix(0.013020833333333327,0,0,0.013020833333333327,12.148437499999995,0)" xlink:href="#L"/><use transform="matrix(0.013020833333333327,0,0,0.013020833333333327,26.14583333333332,0)" xlink:href="#s"/><use transform="matrix(0.013020833333333327,0,0,0.013020833333333327,41.64062499999998,0)" xlink:href="#O"/><use transform="matrix(0.013020833333333327,0,0,0.013020833333333327,55.18229166666664,0)" xlink:href="#L"/><use transform="matrix(0.013020833333333327,0,0,0.013020833333333327,69.17968749999997,0)" xlink:href="#v"/><use transform="matrix(0.013020833333333327,0,0,0.013020833333333327,77.18749999999997,0)" xlink:href="#I"/><use transform="matrix(0.013020833333333327,0,0,0.013020833333333327,92.2005208333333,0)" xlink:href="#t"/><use transform="matrix(0.013020833333333327,0,0,0.013020833333333327,102.07031249999996,0)" xlink:href="#w"/><use transform="matrix(0.013020833333333327,0,0,0.013020833333333327,110.07812499999994,0)" xlink:href="#B"/><use transform="matrix(0.013020833333333327,0,0,0.013020833333333327,119.14062499999997,0)" xlink:href="#H"/></g><g id="p"><use transform="matrix(0.013020833333333327,0,0,0.013020833333333327,0,0)" xlink:href="#s"/><use transform="matrix(0.013020833333333327,0,0,0.013020833333333327,15.494791666666659,0)" xlink:href="#u"/><use transform="matrix(0.013020833333333327,0,0,0.013020833333333327,28.398437499999986,0)" xlink:href="#I"/><use transform="matrix(0.013020833333333327,0,0,0.013020833333333327,43.411458333333314,0)" xlink:href="#A"/><use transform="matrix(0.013020833333333327,0,0,0.013020833333333327,55.24739583333331,0)" xlink:href="#L"/><use transform="matrix(0.013020833333333327,0,0,0.013020833333333327,69.24479166666663,0)" xlink:href="#s"/><use transform="matrix(0.013020833333333327,0,0,0.013020833333333327,84.73958333333329,0)" xlink:href="#u"/><use transform="matrix(0.013020833333333327,0,0,0.013020833333333327,97.64322916666661,0)" xlink:href="#H"/></g><g id="q"><use transform="matrix(0.013020833333333327,0,0,0.013020833333333327,0,0)" xlink:href="#A"/><use transform="matrix(0.013020833333333327,0,0,0.013020833333333327,11.835937499999995,0)" xlink:href="#G"/><use transform="matrix(0.013020833333333327,0,0,0.013020833333333327,24.73958333333332,0)" xlink:href="#y"/><use transform="matrix(0.013020833333333327,0,0,0.013020833333333327,36.888020833333314,0)" xlink:href="#I"/><use transform="matrix(0.013020833333333327,0,0,0.013020833333333327,51.90104166666664,0)" xlink:href="#A"/><use transform="matrix(0.013020833333333327,0,0,0.013020833333333327,63.736979166666636,0)" xlink:href="#A"/><use transform="matrix(0.013020833333333327,0,0,0.013020833333333327,75.57291666666663,0)" xlink:href="#u"/><use transform="matrix(0.013020833333333327,0,0,0.013020833333333327,88.47656249999996,0)" xlink:href="#s"/><use transform="matrix(0.013020833333333327,0,0,0.013020833333333327,103.97135416666661,0)" xlink:href="#t"/><use transform="matrix(0.013020833333333327,0,0,0.013020833333333327,113.84114583333327,0)" xlink:href="#H"/></g></defs></g></svg>